<svg width="244" height="276" viewBox="0 0 244 276" fill="none" xmlns="http://www.w3.org/2000/svg">
<path d="M164.2 12.411V13.311L165 13.711L165.8 13.311V12.411L165 12.011L164.2 12.411ZM176.7 65.511V67.711L178.6 68.811L180.5 67.711V65.511L178.6 64.411L176.7 65.511ZM162.5 31.511V30.011L163.8 29.211L165.1 30.011V31.511L163.8 32.311L162.5 31.511ZM209.5 121.311V125.011L212.7 126.811L215.9 125.011V121.311L212.7 119.511L209.5 121.311ZM201 102.311V99.011L203.8 97.411L206.6 99.011V102.311L203.8 103.911L201 102.311ZM188.2 80.511V83.311L190.6 84.711L193 83.311V80.511L190.6 79.111L188.2 80.511ZM166.8 49.511V47.511L168.5 46.511L170.2 47.511V49.511L168.5 50.511L166.8 49.511ZM209.5 143.911V145.011L210.4 145.511L211.3 145.011V143.911L210.4 143.411L209.5 143.911Z" fill="url(#paint0_linear)"/>
<path d="M202.3 159.511V158.811L202.9 158.511L203.5 158.811V159.511L202.9 159.811L202.3 159.511Z" fill="url(#paint1_linear)"/>
<path d="M143.7 34.1219V35.0219L144.5 35.4219L145.3 35.0219V34.1219L144.5 33.7219L143.7 34.1219ZM178.4 153.722V154.622L179.2 155.022L180 154.622V153.722L179.2 153.322L178.4 153.722ZM175 139.622V137.922L176.5 137.022L178 137.922V139.622L176.5 140.522L175 139.622ZM166.2 120.722V123.322L168.5 124.622L170.8 123.322V120.722L168.5 119.422L166.2 120.722ZM156.1 107.522V104.522L158.7 103.022L161.3 104.522V107.522L158.7 109.022L156.1 107.522ZM147.2 87.7219V91.2219L150.2 92.9219L153.2 91.2219V87.7219L150.2 86.0219L147.2 87.7219ZM141.7 72.0219V69.8219L143.6 68.7219L145.5 69.8219V72.0219L143.6 73.1219L141.7 72.0219ZM140.8 50.5219V52.0219L142.1 52.8219L143.4 52.0219V50.5219L142.1 49.7219L140.8 50.5219Z" fill="url(#paint2_linear)"/>
<path d="M118.9 72.1219V73.0219L119.7 73.4219L120.5 73.0219V72.1219L119.7 71.7219L118.9 72.1219ZM117.7 86.811V88.311L119 89.111L120.3 88.311V86.811L119 86.011L117.7 86.811ZM118.4 105.011V102.811L120.3 101.711L122.2 102.811V105.011L120.3 106.111L118.4 105.011ZM122 117.011V120.311L124.8 121.911L127.6 120.311V117.011L124.8 115.411L122 117.011ZM130.2 133.311V130.511L132.6 129.111L135 130.511V133.311L132.6 134.711L130.2 133.311ZM140.5 143.311V145.511L142.4 146.611L144.3 145.511V143.311L142.4 142.211L140.5 143.311ZM151.5 155.222V153.722L152.8 152.922L154.1 153.722V155.222L152.8 156.022L151.5 155.222ZM161.1 164.122V164.822L161.7 165.122L162.3 164.822V164.122L161.7 163.822L161.1 164.122Z" fill="url(#paint3_linear)"/>
<path d="M180.7 5.41099V6.31099L181.5 6.71099L182.3 6.31099V5.41099L181.5 5.01099L180.7 5.41099ZM185 20.8219V22.3219L186.3 23.1219L187.6 22.3219V20.8219L186.3 20.0219L185 20.8219ZM192.1 37.611V34.811L194.5 33.411L196.9 34.811V37.611L194.5 39.011L192.1 37.611ZM204.8 48.811V52.511L208 54.311L211.2 52.511V48.811L208 47.011L204.8 48.811ZM220 66.511V64.111L222.1 62.911L224.2 64.111V66.511L222.1 67.711L220 66.511ZM231.5 77.011V78.011L232.4 78.511L233.3 78.011V77.011L232.4 76.511L231.5 77.011Z" fill="url(#paint4_linear)"/>
<path d="M173.8 0.0109558C173.1 -0.0890442 172.5 0.510956 172.4 1.21096C166.4 27.711 168.8 47.611 201.8 81.611C247.8 129.011 209.4 165.311 189.3 178.311C189 178.511 188.5 179.111 188.8 179.911C189.1 180.811 190 180.811 190.3 180.811C236.3 169.611 265.9 115.011 220.6 74.511C195.6 52.111 176.6 38.711 175 1.51096C175 0.710956 174.5 0.110956 173.8 0.0109558Z" fill="url(#paint5_linear)"/>
<path d="M161.9 4.02198C161.3 3.62198 160.5 3.92198 160.1 4.52198C140.7 35.022 144.6 67.022 163.1 92.222C196 136.922 186 166.011 178.3 179.411C178.1 179.711 177.9 180.511 178.5 181.011C179.1 181.611 179.9 181.311 180.2 181.111C202.5 163.011 214.2 126.522 184 86.222C167.5 64.222 148.8 45.822 162.5 5.72198C162.7 5.22198 162.5 4.42198 161.9 4.02198Z" fill="url(#paint6_linear)"/>
<path d="M146.7 15.9219C146.1 15.5219 145.3 15.8219 144.9 16.3219C122.2 48.7219 120 83.011 129.8 109.722C143.6 142.622 170 158.511 171.8 179.811C171.9 180.311 172.1 181.211 173.1 181.211C174.1 181.211 174.4 180.411 174.5 180.011C178.5 147.511 158.5 126.011 148.5 108.011C136.3 84.011 128.8 57.7219 147.3 17.5219C147.4 17.0219 147.2 16.2219 146.7 15.9219Z" fill="url(#paint7_linear)"/>
<path d="M165.055 178.828C165.416 180.107 164.293 181.239 162.985 181.006C138.85 176.7 106 158.169 106 113.022C106 100.122 109 87.522 112.5 76.522C112.7 75.822 113.4 75.322 114.1 75.522C114.7 75.622 115.2 76.222 115.1 76.922C111.4 102.222 113.8 131.211 136.5 149.511C151.533 161.592 162.227 168.826 165.055 178.828Z" fill="url(#paint8_linear)"/>
<path d="M207 36.322C195.56 23.499 189.738 11.7825 187.962 4.7051C187.775 3.95958 188.497 3.35191 189.206 3.65096C208.021 11.5977 225.887 39.3453 236 68.322C236.1 68.522 236.1 69.322 235.3 69.522C234.7 69.722 234.2 69.222 234.1 69.022C228.7 57.522 218.2 48.822 207 36.322Z" fill="url(#paint9_linear)"/>
<path d="M54.3997 178.511H50.7996V157.511H42.5996V154.111H62.6996V157.511H54.4996V178.511H54.3997Z" fill="white"/>
<path d="M82.7997 178.511H79.1996V168.411C79.1996 166.611 78.8996 165.311 78.2996 164.511C77.7996 163.711 76.9996 163.411 75.9996 163.411C75.4996 163.411 74.8997 163.511 74.3997 163.711C73.7997 163.911 73.2996 164.211 72.7996 164.611C72.2996 165.011 71.8996 165.511 71.4996 166.011C71.1996 166.511 70.8996 167.011 70.6996 167.611V178.511H67.0996V153.511H70.6996V162.711C71.1996 162.111 71.7996 161.611 72.4996 161.211C73.7996 160.411 75.1996 160.011 76.6996 160.011C77.7996 160.011 78.6996 160.211 79.4996 160.611C80.2996 161.011 80.8997 161.611 81.3997 162.311C81.8997 163.011 82.1997 163.811 82.3997 164.811C82.5997 165.711 82.6996 166.811 82.6996 167.911V178.511H82.7997Z" fill="white"/>
<path d="M95.9998 178.911C94.6998 178.911 93.3998 178.711 92.2998 178.211C91.1998 177.711 90.1998 177.011 89.3998 176.111C88.5998 175.211 87.8998 174.211 87.4998 173.111C87.0998 172.011 86.7998 170.711 86.7998 169.411C86.7998 168.111 86.9998 166.911 87.4998 165.811C87.9998 164.711 88.5998 163.711 89.3998 162.811C90.1998 161.911 91.1998 161.211 92.2998 160.811C93.3998 160.311 94.5998 160.011 95.8998 160.011C97.1998 160.011 98.4997 160.311 99.5997 160.811C100.7 161.311 101.7 162.011 102.5 162.811C103.3 163.711 103.9 164.711 104.4 165.811C104.8 166.911 105.1 168.111 105.1 169.411V169.911C105.1 170.211 105.1 170.311 105 170.511L104.8 171.011H90.5997C90.6997 171.611 90.8997 172.111 91.0997 172.611C91.3997 173.311 91.8998 173.911 92.3998 174.411C92.8998 174.911 93.4997 175.311 94.0997 175.611C95.0997 176.011 96.3997 176.111 97.5997 175.811C98.0997 175.711 98.4998 175.511 98.8998 175.211C99.2998 175.011 99.6998 174.711 99.9998 174.411C100.3 174.111 100.5 173.711 100.7 173.311L100.9 172.811L104.1 173.711L103.8 174.411C103.5 175.111 103.1 175.711 102.6 176.311C102.1 176.811 101.5 177.311 100.8 177.711C100.1 178.111 99.2998 178.411 98.4998 178.611C97.7998 178.711 96.8998 178.911 95.9998 178.911ZM90.5997 167.811H101.5C101.4 167.311 101.2 166.811 101 166.311C100.7 165.611 100.3 165.011 99.7998 164.511C99.2998 164.011 98.6997 163.611 98.0997 163.411C96.7997 162.911 95.2998 162.911 93.9998 163.411C93.2998 163.711 92.7998 164.111 92.2998 164.511C91.7998 165.011 91.3997 165.611 91.0997 166.211C90.7997 166.811 90.6997 167.311 90.5997 167.811Z" fill="white"/>
<path d="M17.3 226.411C14.8 226.411 12.4 225.811 10.3 224.711C8.19999 223.611 6.39999 222.111 4.79999 220.411C3.29999 218.611 2.10001 216.611 1.20001 214.311C0.400012 212.011 0 209.711 0 207.311C0 205.111 0.399976 202.911 1.09998 200.711C1.89998 198.511 3.1 196.511 4.5 194.811C6 193.111 7.9 191.611 10 190.611C12.2 189.511 14.7 188.911 17.5 188.911C20.8 188.911 23.7 189.711 26 191.211C28.4 192.711 30.2 194.711 31.3 197.111L31.6 197.711L27.6 200.211L27.2 199.511C26.7 198.411 26 197.511 25.3 196.811C24.5 196.011 23.7 195.411 22.9 195.011C22 194.511 21.1 194.211 20.2 194.011C19.2 193.811 18.3 193.711 17.4 193.711C15.4 193.711 13.6 194.111 12.1 194.911C10.6 195.711 9.20001 196.811 8.20001 198.111C7.20001 199.411 6.39999 200.911 5.79999 202.611C5.29999 204.311 5 206.011 5 207.711C5 209.611 5.3 211.411 6 213.111C6.7 214.811 7.60001 216.411 8.70001 217.711C9.80001 219.011 11.2 220.011 12.7 220.811C15 221.911 17.7 222.211 20.5 221.611C21.5 221.411 22.4 221.011 23.4 220.511C24.3 220.011 25.2 219.311 26 218.611C26.8 217.811 27.4 216.911 27.9 215.811L28.2 215.111L32.4 217.311L32.1 217.911C31.5 219.311 30.6 220.611 29.5 221.711C28.4 222.811 27.2 223.611 25.9 224.411C24.6 225.111 23.2 225.711 21.7 226.111C20.2 226.211 18.7 226.411 17.3 226.411Z" fill="white"/>
<path d="M48.6996 226.611C46.6996 226.611 44.8996 226.211 43.1996 225.511C41.4996 224.711 40.0997 223.711 38.8997 222.411C37.6997 221.111 36.7996 219.611 36.0996 217.911C35.3996 216.211 35.0996 214.411 35.0996 212.511C35.0996 210.611 35.3996 208.711 36.0996 207.011C36.7996 205.311 37.7997 203.811 38.8997 202.511C40.0997 201.211 41.5996 200.111 43.1996 199.411C44.8996 198.611 46.6996 198.211 48.6996 198.211C50.6996 198.211 52.4996 198.611 54.1996 199.411C55.8996 200.211 57.2996 201.211 58.4996 202.511C59.6996 203.811 60.6996 205.311 61.2996 207.011C61.9996 208.711 62.3997 210.511 62.3997 212.511C62.3997 214.411 62.0997 216.211 61.3997 217.911C60.6997 219.611 59.7996 221.111 58.4996 222.411C57.2996 223.711 55.8996 224.711 54.1996 225.511C52.5996 226.211 50.6996 226.611 48.6996 226.611ZM48.6996 202.611C47.4996 202.611 46.3997 202.911 45.3997 203.411C44.2997 203.911 43.3996 204.611 42.5996 205.511C41.7996 206.411 41.1996 207.511 40.6996 208.711C40.1996 209.911 39.9996 211.211 39.9996 212.511C39.9996 213.911 40.1996 215.211 40.6996 216.311C41.1996 217.411 41.7996 218.511 42.5996 219.411C43.3996 220.211 44.2997 220.911 45.3997 221.411C47.4997 222.411 50.0996 222.411 52.0996 221.411C53.1996 220.911 54.0997 220.211 54.8997 219.311C55.6997 218.411 56.2996 217.411 56.7996 216.211C57.2996 215.011 57.4996 213.711 57.4996 212.411C57.4996 211.111 57.2996 209.811 56.7996 208.611C56.2996 207.411 55.6997 206.311 54.8997 205.511C54.0997 204.611 53.1996 203.911 52.0996 203.411C50.9996 202.911 49.8996 202.611 48.6996 202.611Z" fill="white"/>
<path d="M106.8 226.111H101.9V210.811C101.9 207.911 101.5 205.811 100.6 204.511C99.8 203.311 98.6 202.711 96.9 202.711C96 202.711 95.1 202.911 94.3 203.211C93.5 203.511 92.8 204.011 92.1 204.611C91.4 205.211 90.8 206.011 90.3 206.811C89.8 207.611 89.4 208.511 89.1 209.511V226.011H84.2V210.811C84.2 207.911 83.8 205.711 82.9 204.511C82.1 203.311 80.9 202.711 79.2 202.711C77.4 202.711 75.9 203.311 74.4 204.611C73 205.811 72 207.511 71.4 209.611V226.211H66.5V198.611H71.1V202.711C72 201.611 73 200.711 74.1 199.911C75.9 198.711 78 198.111 80.3 198.111C82.7 198.111 84.6 198.811 86.1 200.211C87.1 201.111 87.9 202.311 88.3 203.711C90.8 200.011 94 198.211 98.1 198.211C99.7 198.211 101 198.511 102.2 199.111C103.3 199.711 104.3 200.611 104.9 201.711C105.6 202.711 106.1 204.011 106.3 205.511C106.6 206.911 106.8 208.511 106.8 210.211V226.111Z" fill="white"/>
<path d="M152.8 226.111H147.9V210.811C147.9 207.911 147.5 205.811 146.6 204.511C145.8 203.311 144.6 202.711 142.9 202.711C142 202.711 141.1 202.911 140.3 203.211C139.5 203.511 138.8 204.011 138.1 204.611C137.4 205.211 136.8 206.011 136.3 206.811C135.8 207.611 135.4 208.511 135.1 209.511V226.011H130.2V210.811C130.2 207.911 129.8 205.711 128.9 204.511C128.1 203.311 126.9 202.711 125.2 202.711C123.4 202.711 121.9 203.311 120.4 204.611C119 205.811 118 207.511 117.4 209.611V226.211H112.5V198.611H117.1V202.711C118 201.611 119 200.711 120.1 199.911C121.9 198.711 124 198.111 126.3 198.111C128.7 198.111 130.6 198.811 132.1 200.211C133.1 201.111 133.9 202.311 134.3 203.711C136.8 200.011 140 198.211 144.1 198.211C145.7 198.211 147 198.511 148.2 199.111C149.3 199.711 150.3 200.611 150.9 201.711C151.6 202.711 152.1 204.011 152.3 205.511C152.6 206.911 152.8 208.511 152.8 210.211V226.111Z" fill="white"/>
<path d="M170.3 226.611C168.3 226.611 166.5 226.211 164.8 225.511C163.1 224.711 161.7 223.711 160.5 222.411C159.3 221.111 158.4 219.611 157.7 217.911C157 216.211 156.7 214.411 156.7 212.511C156.7 210.611 157 208.711 157.7 207.011C158.4 205.311 159.4 203.811 160.5 202.511C161.7 201.211 163.2 200.111 164.8 199.411C166.5 198.611 168.3 198.211 170.3 198.211C172.3 198.211 174.1 198.611 175.8 199.411C177.5 200.211 178.9 201.211 180.1 202.511C181.3 203.811 182.3 205.311 182.9 207.011C183.6 208.711 184 210.511 184 212.511C184 214.411 183.7 216.211 183 217.911C182.3 219.611 181.4 221.111 180.1 222.411C178.9 223.711 177.5 224.711 175.8 225.511C174.2 226.211 172.3 226.611 170.3 226.611ZM170.3 202.611C169.1 202.611 168 202.911 167 203.411C165.9 203.911 165 204.611 164.2 205.511C163.4 206.411 162.8 207.511 162.3 208.711C161.8 209.911 161.6 211.211 161.6 212.511C161.6 213.911 161.8 215.211 162.3 216.311C162.8 217.411 163.4 218.511 164.2 219.411C165 220.211 165.9 220.911 167 221.411C169.1 222.411 171.7 222.411 173.7 221.411C174.8 220.911 175.7 220.211 176.5 219.311C177.3 218.411 177.9 217.411 178.4 216.211C178.9 215.011 179.1 213.711 179.1 212.411C179.1 211.111 178.9 209.811 178.4 208.611C177.9 207.411 177.3 206.311 176.5 205.511C175.7 204.611 174.8 203.911 173.7 203.411C172.6 202.911 171.5 202.611 170.3 202.611Z" fill="white"/>
<path d="M211.6 226.111H206.7V210.811C206.7 207.911 206.3 205.711 205.4 204.511C204.6 203.311 203.5 202.711 201.8 202.711C200.9 202.711 200 202.911 199.1 203.211C198.2 203.511 197.3 204.011 196.5 204.611C195.7 205.211 195 206.011 194.4 206.811C193.8 207.611 193.4 208.511 193.1 209.411V226.011H188.2V198.611H192.8V202.911C193.7 201.811 194.9 200.811 196.2 200.011C198.3 198.811 200.6 198.111 203.1 198.111C204.7 198.111 206 198.411 207.1 199.011C208.2 199.611 209.1 200.411 209.8 201.511C210.4 202.511 210.9 203.811 211.2 205.311C211.5 206.711 211.6 208.411 211.6 210.111V226.111Z" fill="white"/>
<path d="M226.8 226.611C224.7 226.611 222.6 226.211 220.6 225.611C218.6 224.911 216.8 223.911 215.3 222.511L214.8 222.111L217.2 218.611L217.8 219.111C219.2 220.211 220.6 221.111 222.1 221.711C223.5 222.311 225.1 222.511 226.7 222.511C228.6 222.511 230.2 222.111 231.3 221.411C232.4 220.711 232.9 219.711 232.9 218.411C232.9 217.811 232.8 217.411 232.5 217.011C232.2 216.611 231.8 216.211 231.2 215.911C230.6 215.611 229.9 215.311 228.9 215.011C227.9 214.711 226.8 214.411 225.5 214.111C224 213.711 222.6 213.411 221.5 213.011C220.3 212.611 219.4 212.211 218.6 211.711C217.8 211.211 217.2 210.511 216.7 209.711C216.3 208.911 216.1 207.911 216.1 206.711C216.1 205.311 216.4 204.011 216.9 202.911C217.5 201.811 218.3 200.911 219.2 200.211C220.2 199.511 221.3 198.911 222.5 198.611C223.8 198.211 225.1 198.111 226.5 198.111C228.6 198.111 230.5 198.511 232.2 199.211C233.9 199.911 235.3 200.811 236.4 201.911L236.9 202.411L234.3 205.611L233.7 205.011C232.8 204.111 231.7 203.411 230.4 202.911C229.1 202.411 227.8 202.211 226.4 202.211C225.6 202.211 224.8 202.311 224.1 202.511C223.4 202.711 222.8 202.911 222.3 203.211C221.8 203.511 221.5 203.911 221.2 204.511C220.9 205.011 220.8 205.611 220.8 206.311C220.8 206.911 220.9 207.311 221.1 207.611C221.3 207.911 221.6 208.211 222 208.511C222.5 208.811 223.1 209.011 223.8 209.311C224.6 209.511 225.6 209.811 226.7 210.011C228.4 210.411 229.9 210.811 231.2 211.211C232.5 211.611 233.6 212.111 234.5 212.711C235.5 213.311 236.2 214.011 236.7 214.911C237.2 215.811 237.4 216.811 237.4 218.111C237.4 220.711 236.4 222.911 234.4 224.411C232.7 225.911 230 226.611 226.8 226.611Z" fill="white"/>
<path d="M120.5 275.711C114.8 275.711 109.9 273.911 105.8 270.411L105.3 270.011L107.9 265.811L108.6 266.511C109.2 267.111 109.9 267.711 110.7 268.311C111.5 268.911 112.5 269.411 113.5 269.811C114.5 270.211 115.7 270.511 116.9 270.811C118.1 271.011 119.3 271.111 120.6 271.111C123.3 271.111 125.4 270.611 126.8 269.711C128.2 268.811 128.9 267.511 128.9 265.711C128.9 264.811 128.7 264.011 128.3 263.411C127.9 262.711 127.3 262.211 126.6 261.711C125.7 261.211 124.7 260.711 123.4 260.311C122.1 259.911 120.5 259.511 118.8 259.111C116.9 258.711 115.2 258.211 113.8 257.711C112.3 257.211 111.1 256.611 110 255.911C108.9 255.111 108.1 254.211 107.6 253.211C107.1 252.111 106.8 250.811 106.8 249.311C106.8 247.611 107.1 246.011 107.8 244.711C108.5 243.311 109.5 242.211 110.7 241.311C111.9 240.411 113.3 239.711 114.9 239.311C116.5 238.811 118.3 238.611 120.2 238.611C122.7 238.611 124.9 239.011 126.8 239.711C128.7 240.411 130.5 241.511 132.1 242.811L132.6 243.211L130 247.411L129.3 246.611C128.4 245.611 127.1 244.711 125.6 244.111C124 243.511 122.2 243.111 120.2 243.111C117.3 243.111 115.1 243.611 113.8 244.711C112.5 245.711 111.9 247.111 111.9 248.911C111.9 249.811 112.1 250.611 112.4 251.211C112.7 251.711 113.2 252.211 113.9 252.611C114.6 253.111 115.6 253.511 116.8 253.811C118 254.211 119.5 254.511 121.2 254.911C123.1 255.311 124.9 255.811 126.4 256.311C128 256.811 129.4 257.511 130.5 258.311C131.6 259.111 132.6 260.111 133.2 261.211C133.8 262.411 134.1 263.811 134.1 265.511C134.1 267.211 133.8 268.811 133.1 270.011C132.4 271.311 131.4 272.411 130.2 273.211C129 274.011 127.6 274.711 125.9 275.111C124.2 275.511 122.4 275.711 120.5 275.711Z" fill="white"/>
<path d="M145.1 275.711C144.3 275.711 143.5 275.611 142.8 275.411C142 275.211 141.4 274.811 140.8 274.411C140.2 273.911 139.7 273.311 139.4 272.611C139.1 271.911 138.9 271.011 138.9 270.111V252.411H135.3V248.311H138.9V239.511H143.8V248.211H149.8V252.311H143.8V269.011C143.8 269.711 144.1 270.211 144.5 270.511C145 270.811 145.5 271.011 146.2 271.011C147.1 271.011 147.8 270.911 148.5 270.611C149.4 270.211 149.7 270.011 149.8 270.011L150.6 269.511L152 273.711L151.4 274.011C151.2 274.111 150.9 274.211 150.5 274.411C150.1 274.611 149.7 274.711 149.1 274.911C148.6 275.111 148 275.211 147.3 275.411C146.5 275.711 145.8 275.711 145.1 275.711Z" fill="white"/>
<path d="M163.799 275.911C162.499 275.911 161.199 275.711 160.099 275.311C158.999 274.811 157.999 274.211 157.099 273.411C156.299 272.611 155.599 271.711 155.099 270.611C154.599 269.511 154.399 268.411 154.399 267.111C154.399 265.911 154.699 264.711 155.299 263.611C155.899 262.611 156.699 261.611 157.799 260.911C158.799 260.211 160.099 259.611 161.499 259.211C163.999 258.511 167.199 258.411 170.299 258.911C171.299 259.111 172.199 259.311 173.099 259.611V258.511C173.099 256.411 172.499 254.811 171.399 253.611C170.199 252.411 168.599 251.811 166.499 251.811C165.299 251.811 163.999 252.011 162.699 252.511C161.399 253.011 159.999 253.711 158.599 254.711L157.899 255.211L155.999 251.711L156.599 251.311C160.099 249.011 163.499 247.811 166.799 247.811C170.299 247.811 172.999 248.811 174.999 250.711C176.999 252.611 177.999 255.311 177.999 258.711V270.311C177.999 270.911 178.199 270.911 178.499 270.911H179.299V275.211L178.699 275.311C178.099 275.411 177.599 275.511 177.299 275.511C176.299 275.511 175.399 275.211 174.799 274.711C174.199 274.111 173.799 273.411 173.799 272.411V272.211C172.799 273.211 171.599 274.011 170.199 274.611C167.999 275.511 165.999 275.911 163.799 275.911ZM166.499 262.311C164.299 262.311 162.399 262.811 161.099 263.711C159.799 264.511 159.199 265.611 159.199 267.011C159.199 267.711 159.299 268.311 159.599 268.911C159.899 269.511 160.299 270.011 160.699 270.511C161.199 270.911 161.799 271.311 162.399 271.511C163.099 271.811 163.799 271.911 164.599 271.911C166.299 271.911 167.799 271.611 169.099 271.011C170.499 270.411 171.499 269.611 172.199 268.611L172.299 268.511C172.499 268.311 172.699 268.011 172.799 267.811C172.899 267.511 172.999 267.311 172.999 267.111V263.411C172.099 263.111 171.099 262.811 170.099 262.611C168.899 262.411 167.699 262.311 166.499 262.311Z" fill="white"/>
<path d="M196.799 275.911C194.799 275.911 192.899 275.511 191.199 274.811C189.499 274.011 187.999 273.011 186.799 271.711C185.599 270.411 184.599 268.911 183.899 267.211C183.199 265.511 182.899 263.711 182.899 261.711C182.899 259.811 183.199 258.011 183.899 256.311C184.599 254.611 185.499 253.111 186.699 251.911C187.899 250.611 189.399 249.611 191.099 248.911C192.799 248.211 194.699 247.811 196.699 247.811C199.299 247.811 201.599 248.411 203.499 249.611C205.399 250.711 206.899 252.311 207.899 254.311L208.299 255.111L203.599 256.611L203.299 256.111C202.599 254.911 201.699 254.011 200.499 253.311C199.299 252.611 197.999 252.311 196.499 252.311C195.299 252.311 194.099 252.511 193.099 253.011C192.099 253.511 191.099 254.211 190.299 255.011C189.499 255.811 188.899 256.811 188.399 258.011C187.999 259.111 187.799 260.411 187.799 261.811C187.799 263.111 187.999 264.411 188.499 265.611C188.999 266.811 189.599 267.811 190.399 268.711C191.199 269.511 192.099 270.211 193.199 270.811C194.899 271.611 196.899 271.711 198.799 271.211C199.599 271.011 200.299 270.711 200.899 270.311C201.499 269.911 202.099 269.511 202.499 269.011C202.899 268.611 203.199 268.111 203.399 267.611L203.599 266.911L208.399 268.311L208.099 269.011C207.699 270.011 207.099 270.911 206.399 271.811C205.599 272.611 204.799 273.311 203.699 274.011C202.699 274.611 201.599 275.111 200.299 275.411C199.299 275.711 198.099 275.911 196.799 275.911Z" fill="white"/>
<path d="M236.7 275.411H231.2L221.9 262.611L217.2 266.911V275.411H212.3V237.911H217.2V261.411L230.8 248.311H236.8L225.3 259.611L236.7 275.411Z" fill="white"/>
<defs>
<linearGradient id="paint0_linear" x1="188.49" y1="49.9802" x2="188.49" y2="145.645" gradientUnits="userSpaceOnUse">
<stop stop-color="#67DE69"/>
<stop offset="1" stop-color="#0047B0"/>
</linearGradient>
<linearGradient id="paint1_linear" x1="188.49" y1="49.9802" x2="188.49" y2="145.645" gradientUnits="userSpaceOnUse">
<stop stop-color="#67DE69"/>
<stop offset="1" stop-color="#0047B0"/>
</linearGradient>
<linearGradient id="paint2_linear" x1="160.815" y1="67.9255" x2="160.815" y2="154.982" gradientUnits="userSpaceOnUse">
<stop stop-color="#67DE69"/>
<stop offset="1" stop-color="#0047B0"/>
</linearGradient>
<linearGradient id="paint3_linear" x1="139.655" y1="98.7561" x2="139.655" y2="165.069" gradientUnits="userSpaceOnUse">
<stop stop-color="#67DE69"/>
<stop offset="1" stop-color="#0047B0"/>
</linearGradient>
<linearGradient id="paint4_linear" x1="207.171" y1="26.0977" x2="207.171" y2="79.8076" gradientUnits="userSpaceOnUse">
<stop stop-color="#67DE69"/>
<stop offset="1" stop-color="#0047B0"/>
</linearGradient>
<linearGradient id="paint5_linear" x1="206.252" y1="51.5714" x2="206.252" y2="181.269" gradientUnits="userSpaceOnUse">
<stop stop-color="#67DE69"/>
<stop offset="1" stop-color="#0047B0"/>
</linearGradient>
<linearGradient id="paint6_linear" x1="174.941" y1="53.0749" x2="174.941" y2="178.074" gradientUnits="userSpaceOnUse">
<stop stop-color="#67DE69"/>
<stop offset="1" stop-color="#0047B0"/>
</linearGradient>
<linearGradient id="paint7_linear" x1="148.332" y1="60.8073" x2="148.332" y2="175.284" gradientUnits="userSpaceOnUse">
<stop stop-color="#67DE69"/>
<stop offset="1" stop-color="#0047B0"/>
</linearGradient>
<linearGradient id="paint8_linear" x1="135.864" y1="105.398" x2="135.864" y2="181.412" gradientUnits="userSpaceOnUse">
<stop stop-color="#67DE69"/>
<stop offset="1" stop-color="#0047B0"/>
</linearGradient>
<linearGradient id="paint9_linear" x1="211.406" y1="21.5264" x2="212.77" y2="70.1886" gradientUnits="userSpaceOnUse">
<stop stop-color="#67DE69"/>
<stop offset="1" stop-color="#0047B0"/>
</linearGradient>
</defs>
</svg>
