<svg width="449" height="267" viewBox="0 0 449 267" fill="none" xmlns="http://www.w3.org/2000/svg">
<path d="M111.426 70.9002V71.6181L112.064 71.9372L112.702 71.6181V70.9002L112.064 70.5811L111.426 70.9002ZM121.397 113.258V115.013L122.913 115.89L124.429 115.013V113.258L122.913 112.381L121.397 113.258ZM110.07 86.1363V84.9397L111.107 84.3015L112.144 84.9397V86.1363L111.107 86.7744L110.07 86.1363ZM147.562 157.77V160.721L150.115 162.157L152.667 160.721V157.77L150.115 156.334L147.562 157.77ZM140.781 142.613V139.981L143.015 138.705L145.249 139.981V142.613L143.015 143.89L140.781 142.613ZM130.571 125.224V127.457L132.485 128.574L134.4 127.457V125.224L132.485 124.107L130.571 125.224ZM113.5 100.495V98.8994L114.856 98.1017L116.212 98.8994V100.495L114.856 101.293L113.5 100.495ZM147.562 175.798V176.675L148.28 177.074L148.998 176.675V175.798L148.28 175.399L147.562 175.798Z" fill="url(#paint0_linear)"/>
<path d="M141.818 188.242V187.683L142.297 187.444L142.776 187.683V188.242L142.297 188.481L141.818 188.242Z" fill="url(#paint1_linear)"/>
<path d="M95.0733 88.2103V88.9282L95.7114 89.2473L96.3496 88.9282V88.2103L95.7114 87.8912L95.0733 88.2103ZM122.753 183.615V184.333L123.392 184.652L124.03 184.333V183.615L123.392 183.296L122.753 183.615ZM120.041 172.368V171.011L121.238 170.294L122.434 171.011V172.368L121.238 173.086L120.041 172.368ZM113.022 157.291V159.365L114.856 160.402L116.691 159.365V157.291L114.856 156.254L113.022 157.291ZM104.965 146.761V144.368L107.039 143.172L109.113 144.368V146.761L107.039 147.958L104.965 146.761ZM97.8652 130.967V133.759L100.258 135.115L102.651 133.759V130.967L100.258 129.611L97.8652 130.967ZM93.4779 118.443V116.688L94.9935 115.811L96.5091 116.688V118.443L94.9935 119.321L93.4779 118.443ZM92.7599 101.293V102.489L93.7969 103.127L94.834 102.489V101.293L93.7969 100.654L92.7599 101.293Z" fill="url(#paint2_linear)"/>
<path d="M75.2903 118.523V119.241L75.9285 119.56L76.5667 119.241V118.523L75.9285 118.204L75.2903 118.523ZM74.3331 130.249V131.446L75.3701 132.084L76.4071 131.446V130.249L75.3701 129.611L74.3331 130.249ZM74.8915 144.767V143.012L76.4071 142.135L77.9227 143.012V144.767L76.4071 145.645L74.8915 144.767ZM77.7632 154.34V156.972L79.9968 158.248L82.2303 156.972V154.34L79.9968 153.063L77.7632 154.34ZM84.3043 167.342V165.108L86.2188 163.992L88.1333 165.108V167.342L86.2188 168.459L84.3043 167.342ZM92.5206 175.319V177.074L94.0363 177.951L95.5519 177.074V175.319L94.0363 174.442L92.5206 175.319ZM101.295 184.812V183.615L102.332 182.977L103.369 183.615V184.812L102.332 185.45L101.295 184.812ZM108.953 191.911V192.47L109.432 192.709L109.91 192.47V191.911L109.432 191.672L108.953 191.911Z" fill="url(#paint3_linear)"/>
<path d="M124.588 65.3163V66.0342L125.226 66.3533L125.864 66.0342V65.3163L125.226 64.9972L124.588 65.3163ZM128.018 77.6009V78.7974L129.055 79.4356L130.092 78.7974V77.6009L129.055 76.9627L128.018 77.6009ZM133.682 91.0022V88.7687L135.596 87.6519L137.511 88.7687V91.0022L135.596 92.119L133.682 91.0022ZM143.813 99.9365V102.888L146.365 104.324L148.918 102.888V99.9365L146.365 98.5006L143.813 99.9365ZM155.938 114.056V112.141L157.613 111.184L159.288 112.141V114.056L157.613 115.013L155.938 114.056ZM165.111 122.432V123.229L165.829 123.628L166.547 123.229V122.432L165.829 122.033L165.111 122.432Z" fill="url(#paint4_linear)"/>
<path d="M119.084 61.0087C118.526 60.929 118.047 61.4076 117.967 61.966C113.181 83.105 115.096 98.9792 141.42 126.101C178.114 163.912 147.482 192.868 131.448 203.239C131.209 203.398 130.81 203.877 131.05 204.515C131.289 205.233 132.007 205.233 132.246 205.233C168.94 196.299 192.552 152.744 156.416 120.437C136.474 102.569 121.318 91.8797 120.041 62.2053C120.041 61.5671 119.642 61.0885 119.084 61.0087Z" fill="url(#paint5_linear)"/>
<path d="M109.591 64.1995C109.113 63.8804 108.475 64.1197 108.156 64.5984C92.6802 88.9282 95.7912 114.455 110.549 134.557C136.793 170.214 128.816 193.427 122.674 204.116C122.514 204.355 122.355 204.993 122.833 205.392C123.312 205.871 123.95 205.632 124.189 205.472C141.978 191.034 151.311 161.918 127.221 129.77C114.059 112.221 99.1415 97.5434 110.07 65.5556C110.23 65.1568 110.07 64.5186 109.591 64.1995Z" fill="url(#paint6_linear)"/>
<path d="M97.4664 73.6921C96.9878 73.3731 96.3496 73.6124 96.0305 74.0112C77.9227 99.8567 76.1678 127.218 83.9853 148.516C94.9935 174.761 116.053 187.444 117.489 204.435C117.568 204.834 117.728 205.552 118.526 205.552C119.323 205.552 119.563 204.914 119.642 204.595C122.833 178.669 106.879 161.519 98.9022 147.16C89.1703 128.015 83.1876 107.036 97.945 74.9685C98.0248 74.5696 97.8652 73.9315 97.4664 73.6921Z" fill="url(#paint7_linear)"/>
<path d="M112.144 203.637C112.463 204.674 111.506 205.552 110.469 205.392C91.2443 201.962 65 187.205 65 151.149C65 140.858 67.3931 130.807 70.185 122.033C70.3446 121.474 70.903 121.075 71.4614 121.235C71.94 121.315 72.3388 121.793 72.2591 122.352C69.3076 142.534 71.2221 165.667 89.3298 180.265C101.295 189.917 109.831 195.66 112.144 203.637Z" fill="url(#paint8_linear)"/>
<path d="M145.568 89.9652C136.474 79.7547 131.767 70.4216 130.411 64.7579C130.252 64.1995 130.81 63.6411 131.369 63.8804C146.365 70.1823 160.644 92.3583 168.701 115.492C168.781 115.651 168.781 116.289 168.143 116.449C167.664 116.608 167.265 116.21 167.185 116.05C162.878 106.876 154.502 99.9365 145.568 89.9652Z" fill="url(#paint9_linear)"/>
<path d="M238.021 106.079H235.149V89.327H228.608V86.6149H244.642V89.327H238.101V106.079H238.021Z" fill="black"/>
<path d="M260.676 106.079H257.804V98.022C257.804 96.5861 257.565 95.5491 257.086 94.911C256.687 94.2728 256.049 94.0335 255.251 94.0335C254.852 94.0335 254.374 94.1133 253.975 94.2728C253.496 94.4323 253.097 94.6716 252.699 94.9907C252.3 95.3098 251.981 95.7087 251.662 96.1075C251.422 96.5064 251.183 96.9052 251.023 97.3838V106.079H248.152V86.1363H251.023V93.4751C251.422 92.9965 251.901 92.5976 252.459 92.2785C253.496 91.6404 254.613 91.3213 255.81 91.3213C256.687 91.3213 257.405 91.4808 258.043 91.7999C258.681 92.119 259.16 92.5976 259.559 93.156C259.958 93.7144 260.197 94.3526 260.357 95.1503C260.516 95.8682 260.596 96.7457 260.596 97.6231V106.079H260.676Z" fill="black"/>
<path d="M271.205 106.398C270.168 106.398 269.131 106.238 268.254 105.839C267.376 105.441 266.579 104.882 265.94 104.164C265.302 103.446 264.744 102.649 264.425 101.771C264.106 100.894 263.866 99.8567 263.866 98.8197C263.866 97.7827 264.026 96.8254 264.425 95.9479C264.824 95.0705 265.302 94.2728 265.94 93.5548C266.579 92.8369 267.376 92.2785 268.254 91.9594C269.131 91.5606 270.089 91.3213 271.126 91.3213C272.163 91.3213 273.2 91.5606 274.077 91.9594C274.954 92.3583 275.752 92.9167 276.39 93.5548C277.028 94.2728 277.507 95.0705 277.906 95.9479C278.225 96.8254 278.464 97.7827 278.464 98.8197V99.2185C278.464 99.4578 278.464 99.5376 278.385 99.6971L278.225 100.096H266.898C266.977 100.575 267.137 100.973 267.297 101.372C267.536 101.931 267.935 102.409 268.334 102.808C268.732 103.207 269.211 103.526 269.69 103.765C270.487 104.084 271.524 104.164 272.482 103.925C272.88 103.845 273.2 103.686 273.519 103.446C273.838 103.287 274.157 103.047 274.396 102.808C274.635 102.569 274.795 102.25 274.954 101.931L275.114 101.532L277.667 102.25L277.427 102.808C277.188 103.367 276.869 103.845 276.47 104.324C276.071 104.723 275.593 105.121 275.034 105.441C274.476 105.76 273.838 105.999 273.2 106.158C272.641 106.238 271.923 106.398 271.205 106.398ZM266.898 97.5433H275.593C275.513 97.1445 275.353 96.7456 275.194 96.3468C274.954 95.7884 274.635 95.3098 274.237 94.9109C273.838 94.5121 273.359 94.193 272.88 94.0335C271.843 93.6346 270.647 93.6346 269.61 94.0335C269.051 94.2728 268.653 94.5919 268.254 94.9109C267.855 95.3098 267.536 95.7884 267.297 96.267C267.057 96.7456 266.977 97.1445 266.898 97.5433Z" fill="black"/>
<path d="M208.426 144.289C206.432 144.289 204.518 143.81 202.842 142.932C201.167 142.055 199.731 140.858 198.455 139.502C197.259 138.066 196.301 136.471 195.583 134.636C194.945 132.802 194.626 130.967 194.626 129.052C194.626 127.298 194.945 125.543 195.504 123.788C196.142 122.033 197.099 120.437 198.216 119.081C199.412 117.725 200.928 116.529 202.603 115.731C204.358 114.853 206.352 114.375 208.586 114.375C211.218 114.375 213.532 115.013 215.366 116.21C217.281 117.406 218.717 119.001 219.594 120.916L219.833 121.395L216.643 123.389L216.324 122.83C215.925 121.953 215.366 121.235 214.808 120.677C214.17 120.038 213.532 119.56 212.893 119.241C212.176 118.842 211.458 118.603 210.74 118.443C209.942 118.284 209.224 118.204 208.506 118.204C206.911 118.204 205.475 118.523 204.278 119.161C203.082 119.799 201.965 120.677 201.167 121.714C200.37 122.751 199.731 123.947 199.253 125.303C198.854 126.659 198.615 128.015 198.615 129.372C198.615 130.887 198.854 132.323 199.412 133.679C199.971 135.035 200.689 136.312 201.566 137.349C202.444 138.386 203.56 139.183 204.757 139.821C206.592 140.699 208.745 140.938 210.979 140.46C211.777 140.3 212.495 139.981 213.292 139.582C214.01 139.183 214.728 138.625 215.366 138.066C216.005 137.428 216.483 136.71 216.882 135.833L217.121 135.275L220.472 137.029L220.232 137.508C219.754 138.625 219.036 139.662 218.158 140.539C217.281 141.417 216.324 142.055 215.287 142.693C214.25 143.252 213.133 143.73 211.936 144.049C210.74 144.129 209.543 144.289 208.426 144.289Z" fill="black"/>
<path d="M233.474 144.448C231.879 144.448 230.443 144.129 229.087 143.571C227.731 142.932 226.614 142.135 225.657 141.098C224.699 140.061 223.981 138.864 223.423 137.508C222.865 136.152 222.625 134.716 222.625 133.201C222.625 131.685 222.865 130.169 223.423 128.813C223.981 127.457 224.779 126.261 225.657 125.224C226.614 124.187 227.81 123.309 229.087 122.751C230.443 122.113 231.879 121.793 233.474 121.793C235.07 121.793 236.505 122.113 237.861 122.751C239.218 123.389 240.334 124.187 241.292 125.224C242.249 126.261 243.047 127.457 243.525 128.813C244.084 130.169 244.403 131.605 244.403 133.201C244.403 134.716 244.163 136.152 243.605 137.508C243.046 138.864 242.329 140.061 241.292 141.098C240.334 142.135 239.218 142.932 237.861 143.571C236.585 144.129 235.07 144.448 233.474 144.448ZM233.474 125.303C232.517 125.303 231.639 125.543 230.842 125.941C229.964 126.34 229.246 126.899 228.608 127.617C227.97 128.335 227.491 129.212 227.093 130.169C226.694 131.127 226.534 132.164 226.534 133.201C226.534 134.317 226.694 135.354 227.093 136.232C227.491 137.109 227.97 137.987 228.608 138.705C229.246 139.343 229.964 139.901 230.842 140.3C232.517 141.098 234.591 141.098 236.186 140.3C237.064 139.901 237.782 139.343 238.42 138.625C239.058 137.907 239.537 137.109 239.935 136.152C240.334 135.195 240.494 134.158 240.494 133.121C240.494 132.084 240.334 131.047 239.935 130.09C239.537 129.132 239.058 128.255 238.42 127.617C237.782 126.899 237.064 126.34 236.186 125.941C235.309 125.543 234.431 125.303 233.474 125.303Z" fill="black"/>
<path d="M279.82 144.049H275.912V131.844C275.912 129.531 275.593 127.856 274.875 126.819C274.237 125.862 273.279 125.383 271.923 125.383C271.205 125.383 270.487 125.543 269.849 125.782C269.211 126.021 268.653 126.42 268.094 126.899C267.536 127.377 267.057 128.015 266.658 128.654C266.26 129.292 265.94 130.01 265.701 130.807V143.969H261.792V131.844C261.792 129.531 261.473 127.776 260.755 126.819C260.117 125.862 259.16 125.383 257.804 125.383C256.368 125.383 255.172 125.862 253.975 126.899C252.858 127.856 252.061 129.212 251.582 130.887V144.129H247.673V122.113H251.343V125.383C252.061 124.506 252.858 123.788 253.736 123.15C255.172 122.192 256.847 121.714 258.681 121.714C260.596 121.714 262.112 122.272 263.308 123.389C264.106 124.107 264.744 125.064 265.063 126.181C267.057 123.229 269.61 121.793 272.88 121.793C274.157 121.793 275.194 122.033 276.151 122.511C277.029 122.99 277.826 123.708 278.305 124.585C278.863 125.383 279.262 126.42 279.422 127.617C279.661 128.733 279.82 130.01 279.82 131.366V144.049Z" fill="black"/>
<path d="M316.515 144.049H312.606V131.844C312.606 129.531 312.287 127.856 311.569 126.819C310.931 125.862 309.973 125.383 308.617 125.383C307.899 125.383 307.182 125.543 306.543 125.782C305.905 126.021 305.347 126.42 304.788 126.899C304.23 127.377 303.751 128.015 303.353 128.654C302.954 129.292 302.635 130.01 302.395 130.807V143.969H298.487V131.844C298.487 129.531 298.168 127.776 297.45 126.819C296.811 125.862 295.854 125.383 294.498 125.383C293.062 125.383 291.866 125.862 290.669 126.899C289.552 127.856 288.755 129.212 288.276 130.887V144.129H284.367V122.113H288.037V125.383C288.755 124.506 289.552 123.788 290.43 123.15C291.866 122.192 293.541 121.714 295.376 121.714C297.29 121.714 298.806 122.272 300.002 123.389C300.8 124.107 301.438 125.064 301.757 126.181C303.751 123.229 306.304 121.793 309.575 121.793C310.851 121.793 311.888 122.033 312.845 122.511C313.723 122.99 314.52 123.708 314.999 124.585C315.557 125.383 315.956 126.42 316.116 127.617C316.355 128.733 316.515 130.01 316.515 131.366V144.049Z" fill="black"/>
<path d="M330.474 144.448C328.879 144.448 327.443 144.129 326.087 143.571C324.731 142.932 323.614 142.135 322.657 141.098C321.7 140.061 320.982 138.864 320.423 137.508C319.865 136.152 319.626 134.716 319.626 133.201C319.626 131.685 319.865 130.169 320.423 128.813C320.982 127.457 321.779 126.261 322.657 125.224C323.614 124.187 324.811 123.309 326.087 122.751C327.443 122.113 328.879 121.793 330.474 121.793C332.07 121.793 333.506 122.113 334.862 122.751C336.218 123.389 337.335 124.187 338.292 125.224C339.249 126.261 340.047 127.457 340.525 128.813C341.084 130.169 341.403 131.605 341.403 133.201C341.403 134.716 341.164 136.152 340.605 137.508C340.047 138.864 339.329 140.061 338.292 141.098C337.335 142.135 336.218 142.932 334.862 143.571C333.585 144.129 332.07 144.448 330.474 144.448ZM330.474 125.303C329.517 125.303 328.64 125.543 327.842 125.941C326.964 126.34 326.247 126.899 325.608 127.617C324.97 128.335 324.492 129.212 324.093 130.169C323.694 131.127 323.534 132.164 323.534 133.201C323.534 134.317 323.694 135.354 324.093 136.232C324.492 137.109 324.97 137.987 325.608 138.705C326.247 139.343 326.964 139.901 327.842 140.3C329.517 141.098 331.591 141.098 333.187 140.3C334.064 139.901 334.782 139.343 335.42 138.625C336.058 137.907 336.537 137.109 336.936 136.152C337.335 135.195 337.494 134.158 337.494 133.121C337.494 132.084 337.335 131.047 336.936 130.09C336.537 129.132 336.058 128.255 335.42 127.617C334.782 126.899 334.064 126.34 333.187 125.941C332.309 125.543 331.432 125.303 330.474 125.303Z" fill="black"/>
<path d="M363.419 144.049H359.511V131.844C359.511 129.531 359.192 127.776 358.474 126.819C357.835 125.862 356.958 125.383 355.602 125.383C354.884 125.383 354.166 125.543 353.448 125.782C352.73 126.021 352.012 126.42 351.374 126.899C350.736 127.377 350.178 128.015 349.699 128.654C349.22 129.292 348.901 130.01 348.662 130.728V143.969H344.753V122.113H348.423V125.543C349.141 124.665 350.098 123.867 351.135 123.229C352.81 122.272 354.645 121.714 356.639 121.714C357.915 121.714 358.952 121.953 359.83 122.432C360.707 122.91 361.425 123.548 361.983 124.426C362.462 125.224 362.861 126.261 363.1 127.457C363.34 128.574 363.419 129.93 363.419 131.286V144.049Z" fill="black"/>
<path d="M375.544 144.448C373.869 144.448 372.194 144.129 370.599 143.65C369.003 143.092 367.567 142.294 366.371 141.178L365.972 140.858L367.886 138.066L368.365 138.465C369.482 139.343 370.599 140.061 371.795 140.539C372.912 141.018 374.188 141.178 375.465 141.178C376.98 141.178 378.257 140.858 379.134 140.3C380.011 139.742 380.41 138.944 380.41 137.907C380.41 137.428 380.331 137.109 380.091 136.79C379.852 136.471 379.533 136.152 379.054 135.913C378.576 135.673 378.017 135.434 377.22 135.195C376.422 134.955 375.544 134.716 374.507 134.477C373.311 134.158 372.194 133.918 371.317 133.599C370.359 133.28 369.641 132.961 369.003 132.562C368.365 132.164 367.886 131.605 367.488 130.967C367.169 130.329 367.009 129.531 367.009 128.574C367.009 127.457 367.248 126.42 367.647 125.543C368.126 124.665 368.764 123.947 369.482 123.389C370.28 122.83 371.157 122.352 372.114 122.113C373.151 121.793 374.188 121.714 375.305 121.714C376.98 121.714 378.496 122.033 379.852 122.591C381.208 123.15 382.325 123.867 383.202 124.745L383.601 125.144L381.527 127.696L381.049 127.218C380.331 126.5 379.453 125.941 378.416 125.543C377.379 125.144 376.342 124.984 375.225 124.984C374.587 124.984 373.949 125.064 373.391 125.224C372.832 125.383 372.354 125.543 371.955 125.782C371.556 126.021 371.317 126.34 371.077 126.819C370.838 127.218 370.758 127.696 370.758 128.255C370.758 128.733 370.838 129.052 370.998 129.292C371.157 129.531 371.396 129.77 371.715 130.01C372.114 130.249 372.593 130.409 373.151 130.648C373.789 130.807 374.587 131.047 375.465 131.206C376.821 131.525 378.017 131.844 379.054 132.164C380.091 132.483 380.969 132.881 381.687 133.36C382.484 133.839 383.043 134.397 383.442 135.115C383.84 135.833 384 136.631 384 137.668C384 139.742 383.202 141.497 381.607 142.693C380.251 143.89 378.097 144.448 375.544 144.448Z" fill="black"/>
<path d="M290.749 183.615C286.202 183.615 282.293 182.179 279.023 179.387L278.624 179.068L280.698 175.718L281.256 176.276C281.735 176.755 282.293 177.234 282.931 177.712C283.57 178.191 284.367 178.59 285.165 178.909C285.963 179.228 286.92 179.467 287.877 179.706C288.834 179.866 289.792 179.946 290.829 179.946C292.983 179.946 294.658 179.547 295.774 178.829C296.891 178.111 297.45 177.074 297.45 175.638C297.45 174.92 297.29 174.282 296.971 173.803C296.652 173.245 296.173 172.846 295.615 172.447C294.897 172.049 294.099 171.65 293.062 171.331C292.025 171.012 290.749 170.692 289.393 170.373C287.877 170.054 286.521 169.655 285.404 169.257C284.208 168.858 283.251 168.379 282.373 167.821C281.496 167.183 280.857 166.465 280.459 165.667C280.06 164.789 279.82 163.752 279.82 162.556C279.82 161.2 280.06 159.923 280.618 158.886C281.177 157.77 281.974 156.892 282.931 156.174C283.889 155.456 285.006 154.898 286.282 154.579C287.558 154.18 288.994 154.021 290.51 154.021C292.504 154.021 294.259 154.34 295.774 154.898C297.29 155.456 298.726 156.334 300.002 157.371L300.401 157.69L298.327 161.04L297.769 160.402C297.051 159.604 296.014 158.886 294.817 158.408C293.541 157.929 292.105 157.61 290.51 157.61C288.196 157.61 286.441 158.009 285.404 158.886C284.367 159.684 283.889 160.801 283.889 162.237C283.889 162.955 284.048 163.593 284.288 164.072C284.527 164.47 284.926 164.869 285.484 165.188C286.043 165.587 286.84 165.906 287.797 166.146C288.755 166.465 289.951 166.704 291.307 167.023C292.823 167.342 294.259 167.741 295.455 168.14C296.732 168.539 297.848 169.097 298.726 169.735C299.603 170.373 300.401 171.171 300.88 172.049C301.358 173.006 301.598 174.123 301.598 175.479C301.598 176.835 301.358 178.111 300.8 179.068C300.242 180.105 299.444 180.983 298.487 181.621C297.529 182.259 296.413 182.817 295.057 183.137C293.7 183.456 292.265 183.615 290.749 183.615Z" fill="black"/>
<path d="M310.372 183.615C309.734 183.615 309.096 183.535 308.538 183.376C307.899 183.216 307.421 182.897 306.942 182.578C306.464 182.179 306.065 181.701 305.825 181.142C305.586 180.584 305.427 179.866 305.427 179.148V165.029H302.555V161.758H305.427V154.738H309.335V161.678H314.122V164.949H309.335V178.271C309.335 178.829 309.575 179.228 309.894 179.467C310.293 179.706 310.691 179.866 311.25 179.866C311.968 179.866 312.526 179.786 313.085 179.547C313.802 179.228 314.042 179.068 314.122 179.068L314.76 178.669L315.876 182.02L315.398 182.259C315.238 182.339 314.999 182.419 314.68 182.578C314.361 182.738 314.042 182.817 313.563 182.977C313.164 183.136 312.686 183.216 312.127 183.376C311.489 183.615 310.931 183.615 310.372 183.615Z" fill="black"/>
<path d="M325.289 183.775C324.252 183.775 323.215 183.615 322.338 183.296C321.46 182.897 320.663 182.419 319.945 181.78C319.307 181.142 318.748 180.424 318.349 179.547C317.951 178.669 317.791 177.792 317.791 176.755C317.791 175.798 318.03 174.84 318.509 173.963C318.987 173.165 319.626 172.368 320.503 171.809C321.301 171.251 322.338 170.772 323.455 170.453C325.449 169.895 328.002 169.815 330.474 170.214C331.272 170.373 331.99 170.533 332.708 170.772V169.895C332.708 168.22 332.229 166.943 331.352 165.986C330.395 165.029 329.118 164.55 327.443 164.55C326.486 164.55 325.449 164.71 324.412 165.108C323.375 165.507 322.258 166.066 321.141 166.863L320.583 167.262L319.067 164.47L319.546 164.151C322.338 162.317 325.05 161.359 327.682 161.359C330.474 161.359 332.628 162.157 334.224 163.673C335.819 165.188 336.617 167.342 336.617 170.054V179.308C336.617 179.786 336.776 179.786 337.016 179.786H337.654V183.216L337.175 183.296C336.696 183.376 336.298 183.456 336.058 183.456C335.261 183.456 334.543 183.216 334.064 182.817C333.585 182.339 333.266 181.78 333.266 180.983V180.823C332.469 181.621 331.511 182.259 330.395 182.738C328.64 183.456 327.044 183.775 325.289 183.775ZM327.443 172.926C325.688 172.926 324.173 173.325 323.136 174.043C322.099 174.681 321.62 175.558 321.62 176.675C321.62 177.234 321.7 177.712 321.939 178.191C322.178 178.669 322.497 179.068 322.816 179.467C323.215 179.786 323.694 180.105 324.173 180.265C324.731 180.504 325.289 180.584 325.927 180.584C327.284 180.584 328.48 180.345 329.517 179.866C330.634 179.387 331.432 178.749 331.99 177.951L332.07 177.872C332.229 177.712 332.389 177.473 332.469 177.313C332.548 177.074 332.628 176.914 332.628 176.755V173.803C331.91 173.564 331.113 173.325 330.315 173.165C329.358 173.006 328.4 172.926 327.443 172.926Z" fill="black"/>
<path d="M351.613 183.775C350.018 183.775 348.502 183.456 347.146 182.897C345.79 182.259 344.594 181.461 343.636 180.424C342.679 179.387 341.881 178.191 341.323 176.835C340.765 175.479 340.525 174.043 340.525 172.447C340.525 170.932 340.765 169.496 341.323 168.14C341.881 166.784 342.599 165.587 343.557 164.63C344.514 163.593 345.71 162.795 347.067 162.237C348.423 161.678 349.938 161.359 351.534 161.359C353.608 161.359 355.442 161.838 356.958 162.795C358.474 163.673 359.67 164.949 360.468 166.544L360.787 167.183L357.038 168.379L356.798 167.98C356.24 167.023 355.522 166.305 354.565 165.747C353.608 165.188 352.571 164.949 351.374 164.949C350.417 164.949 349.46 165.108 348.662 165.507C347.864 165.906 347.067 166.465 346.428 167.103C345.79 167.741 345.312 168.539 344.913 169.496C344.594 170.373 344.434 171.41 344.434 172.527C344.434 173.564 344.594 174.601 344.993 175.558C345.391 176.516 345.87 177.313 346.508 178.031C347.146 178.669 347.864 179.228 348.742 179.706C350.098 180.345 351.693 180.424 353.209 180.025C353.847 179.866 354.405 179.627 354.884 179.308C355.363 178.988 355.841 178.669 356.16 178.271C356.479 177.951 356.719 177.553 356.878 177.154L357.038 176.595L360.867 177.712L360.627 178.271C360.308 179.068 359.83 179.786 359.271 180.504C358.633 181.142 357.995 181.701 357.118 182.259C356.32 182.738 355.442 183.136 354.405 183.376C353.608 183.615 352.65 183.775 351.613 183.775Z" fill="black"/>
<path d="M383.442 183.376H379.054L371.636 173.165L367.886 176.595V183.376H363.978V153.462H367.886V172.208L378.735 161.758H383.521L374.348 170.772L383.442 183.376Z" fill="black"/>
<defs>
<linearGradient id="paint0_linear" x1="131.369" y1="100.878" x2="131.369" y2="177.19" gradientUnits="userSpaceOnUse">
<stop stop-color="#67DE69"/>
<stop offset="1" stop-color="#0047B0"/>
</linearGradient>
<linearGradient id="paint1_linear" x1="142.297" y1="100.878" x2="142.297" y2="177.19" gradientUnits="userSpaceOnUse">
<stop stop-color="#67DE69"/>
<stop offset="1" stop-color="#0047B0"/>
</linearGradient>
<linearGradient id="paint2_linear" x1="108.395" y1="115.193" x2="108.395" y2="184.638" gradientUnits="userSpaceOnUse">
<stop stop-color="#67DE69"/>
<stop offset="1" stop-color="#0047B0"/>
</linearGradient>
<linearGradient id="paint3_linear" x1="92.1218" y1="139.786" x2="92.1218" y2="192.684" gradientUnits="userSpaceOnUse">
<stop stop-color="#67DE69"/>
<stop offset="1" stop-color="#0047B0"/>
</linearGradient>
<linearGradient id="paint4_linear" x1="145.568" y1="81.8269" x2="145.568" y2="124.671" gradientUnits="userSpaceOnUse">
<stop stop-color="#67DE69"/>
<stop offset="1" stop-color="#0047B0"/>
</linearGradient>
<linearGradient id="paint5_linear" x1="145.153" y1="102.147" x2="145.153" y2="205.607" gradientUnits="userSpaceOnUse">
<stop stop-color="#67DE69"/>
<stop offset="1" stop-color="#0047B0"/>
</linearGradient>
<linearGradient id="paint6_linear" x1="119.832" y1="103.347" x2="119.832" y2="203.058" gradientUnits="userSpaceOnUse">
<stop stop-color="#67DE69"/>
<stop offset="1" stop-color="#0047B0"/>
</linearGradient>
<linearGradient id="paint7_linear" x1="99.8194" y1="109.515" x2="99.8194" y2="200.833" gradientUnits="userSpaceOnUse">
<stop stop-color="#67DE69"/>
<stop offset="1" stop-color="#0047B0"/>
</linearGradient>
<linearGradient id="paint8_linear" x1="88.5814" y1="145.085" x2="88.5814" y2="205.721" gradientUnits="userSpaceOnUse">
<stop stop-color="#67DE69"/>
<stop offset="1" stop-color="#0047B0"/>
</linearGradient>
<linearGradient id="paint9_linear" x1="149.212" y1="78.1767" x2="150.3" y2="116.994" gradientUnits="userSpaceOnUse">
<stop stop-color="#67DE69"/>
<stop offset="1" stop-color="#0047B0"/>
</linearGradient>
</defs>
</svg>
