<svg width="110" height="145" viewBox="0 0 110 145" fill="none" xmlns="http://www.w3.org/2000/svg">
<path d="M46.4261 9.9002V10.6181L47.0643 10.9372L47.7024 10.6181V9.9002L47.0643 9.58112L46.4261 9.9002ZM56.3973 52.258V54.013L57.913 54.8904L59.4286 54.013V52.258L57.913 51.3806L56.3973 52.258ZM45.07 25.1363V23.9397L46.107 23.3015L47.144 23.9397V25.1363L46.107 25.7744L45.07 25.1363ZM82.5619 96.7697V99.7212L85.1145 101.157L87.6672 99.7212V96.7697L85.1145 95.3338L82.5619 96.7697ZM75.7814 81.6134V78.981L78.015 77.7047L80.2486 78.981V81.6134L78.015 82.8897L75.7814 81.6134ZM65.5709 64.2235V66.4571L67.4854 67.5739L69.3998 66.4571V64.2235L67.4854 63.1067L65.5709 64.2235ZM48.5001 39.4948V37.8994L49.8562 37.1017L51.2123 37.8994V39.4948L49.8562 40.2925L48.5001 39.4948ZM82.5619 114.798V115.675L83.2798 116.074L83.9977 115.675V114.798L83.2798 114.399L82.5619 114.798Z" fill="url(#paint0_linear)"/>
<path d="M76.8185 127.242V126.683L77.2971 126.444L77.7757 126.683V127.242L77.2971 127.481L76.8185 127.242Z" fill="url(#paint1_linear)"/>
<path d="M30.0733 27.2103V27.9282L30.7114 28.2473L31.3496 27.9282V27.2103L30.7114 26.8912L30.0733 27.2103ZM57.7535 122.615V123.333L58.3916 123.652L59.0298 123.333V122.615L58.3916 122.296L57.7535 122.615ZM55.0413 111.368V110.012L56.2378 109.294L57.4344 110.012V111.368L56.2378 112.086L55.0413 111.368ZM48.0215 96.2911V98.3651L49.8562 99.4021L51.6909 98.3651V96.2911L49.8562 95.2541L48.0215 96.2911ZM39.9647 85.7615V83.3684L42.0388 82.1718L44.1128 83.3684V85.7615L42.0388 86.958L39.9647 85.7615ZM32.8652 69.967V72.7589L35.2583 74.115L37.6514 72.7589V69.967L35.2583 68.6109L32.8652 69.967ZM28.4779 57.4431V55.6882L29.9935 54.8107L31.5091 55.6882V57.4431L29.9935 58.3206L28.4779 57.4431ZM27.7599 40.2926V41.4891L28.797 42.1273L29.834 41.4891V40.2926L28.797 39.6544L27.7599 40.2926Z" fill="url(#paint2_linear)"/>
<path d="M10.2904 57.5228V58.2407L10.9285 58.5598L11.5667 58.2407V57.5228L10.9285 57.2037L10.2904 57.5228ZM9.33313 69.249V70.4456L10.3701 71.0837L11.4071 70.4456V69.249L10.3701 68.6108L9.33313 69.249ZM9.89152 83.7671V82.0122L11.4071 81.1347L12.9228 82.0122V83.7671L11.4071 84.6446L9.89152 83.7671ZM12.7632 93.3395V95.9719L14.9968 97.2483L17.2304 95.9719V93.3395L14.9968 92.0632L12.7632 93.3395ZM19.3044 106.342V104.108L21.2189 102.992L23.1333 104.108V106.342L21.2189 107.459L19.3044 106.342ZM27.5207 114.319V116.074L29.0363 116.951L30.5519 116.074V114.319L29.0363 113.442L27.5207 114.319ZM36.2954 123.812V122.615L37.3324 121.977L38.3694 122.615V123.812L37.3324 124.45L36.2954 123.812ZM43.9533 130.911V131.47L44.4319 131.709L44.9105 131.47V130.911L44.4319 130.672L43.9533 130.911Z" fill="url(#paint3_linear)"/>
<path d="M59.5882 4.31627V5.0342L60.2263 5.35328L60.8645 5.0342V4.31627L60.2263 3.99719L59.5882 4.31627ZM63.0183 16.6008V17.7974L64.0553 18.4356L65.0923 17.7974V16.6008L64.0553 15.9627L63.0183 16.6008ZM68.6819 30.0022V27.7686L70.5964 26.6519L72.5109 27.7686V30.0022L70.5964 31.119L68.6819 30.0022ZM78.8127 38.9364V41.8879L81.3654 43.3238L83.918 41.8879V38.9364L81.3654 37.5006L78.8127 38.9364ZM90.9378 53.0557V51.1412L92.6129 50.184L94.2881 51.1412V53.0557L92.6129 54.0129L90.9378 53.0557ZM100.111 61.4316V62.2293L100.829 62.6281L101.547 62.2293V61.4316L100.829 61.0327L100.111 61.4316Z" fill="url(#paint4_linear)"/>
<path d="M54.084 0.00872974C53.5256 -0.0710402 53.047 0.40758 52.9673 0.965969C48.1811 22.105 50.0955 37.9792 76.4196 65.101C113.114 102.912 82.4821 131.868 66.4484 142.239C66.2091 142.398 65.8102 142.877 66.0495 143.515C66.2888 144.233 67.0068 144.233 67.2461 144.233C103.94 135.299 127.552 91.7442 91.4164 59.4373C71.4739 41.5689 56.3176 30.8797 55.0413 1.20528C55.0413 0.567119 54.6424 0.0884997 54.084 0.00872974Z" fill="url(#paint5_linear)"/>
<path d="M44.5914 3.19949C44.1128 2.88041 43.4746 3.11972 43.1556 3.59834C27.6802 27.9282 30.7912 53.4545 45.5487 73.5566C71.793 109.214 63.816 132.427 57.6737 143.116C57.5142 143.355 57.3546 143.993 57.8332 144.392C58.3119 144.871 58.95 144.632 59.1893 144.472C76.978 130.034 86.3111 100.918 62.2206 68.7704C49.0585 51.221 34.1416 36.5433 45.07 4.55557C45.2296 4.15673 45.07 3.51857 44.5914 3.19949Z" fill="url(#paint6_linear)"/>
<path d="M32.4663 12.6922C31.9877 12.3731 31.3496 12.6124 31.0305 13.0113C12.9227 38.8567 11.1678 66.2178 18.9852 87.5164C29.9935 113.761 51.0527 126.444 52.4886 143.435C52.5684 143.834 52.7279 144.552 53.5256 144.552C54.3233 144.552 54.5626 143.914 54.6424 143.595C57.8332 117.669 41.8792 100.519 33.9022 86.1603C24.1703 67.0155 18.1875 46.036 32.945 13.9685C33.0247 13.5696 32.8652 12.9315 32.4663 12.6922Z" fill="url(#paint7_linear)"/>
<path d="M47.144 142.637C47.4631 143.674 46.5059 144.552 45.4689 144.392C26.2443 140.962 0 126.205 0 90.1488C0 79.8584 2.3931 69.8074 5.18505 61.0327C5.34459 60.4743 5.90298 60.0755 6.46137 60.235C6.93999 60.3148 7.33884 60.7934 7.25907 61.3518C4.30758 81.5336 6.22205 104.667 24.3298 119.265C36.2953 128.917 44.8307 134.66 47.144 142.637Z" fill="url(#paint8_linear)"/>
<path d="M80.5677 28.9652C71.4739 18.7547 66.7675 9.42158 65.4114 3.75791C65.2518 3.19952 65.8102 2.64113 66.3686 2.88044C81.3654 9.18227 95.6442 31.3583 103.701 54.4916C103.781 54.6511 103.781 55.2893 103.143 55.4488C102.664 55.6084 102.265 55.2095 102.185 55.05C97.8777 45.8764 89.5019 38.9365 80.5677 28.9652Z" fill="url(#paint9_linear)"/>
<defs>
<linearGradient id="paint0_linear" x1="66.3686" y1="39.878" x2="66.3686" y2="116.19" gradientUnits="userSpaceOnUse">
<stop stop-color="#67DE69"/>
<stop offset="1" stop-color="#0047B0"/>
</linearGradient>
<linearGradient id="paint1_linear" x1="77.2971" y1="39.8778" x2="77.2971" y2="116.19" gradientUnits="userSpaceOnUse">
<stop stop-color="#67DE69"/>
<stop offset="1" stop-color="#0047B0"/>
</linearGradient>
<linearGradient id="paint2_linear" x1="43.3949" y1="54.193" x2="43.3949" y2="123.638" gradientUnits="userSpaceOnUse">
<stop stop-color="#67DE69"/>
<stop offset="1" stop-color="#0047B0"/>
</linearGradient>
<linearGradient id="paint3_linear" x1="27.1218" y1="78.7865" x2="27.1218" y2="131.684" gradientUnits="userSpaceOnUse">
<stop stop-color="#67DE69"/>
<stop offset="1" stop-color="#0047B0"/>
</linearGradient>
<linearGradient id="paint4_linear" x1="80.5677" y1="20.8269" x2="80.5677" y2="63.6713" gradientUnits="userSpaceOnUse">
<stop stop-color="#67DE69"/>
<stop offset="1" stop-color="#0047B0"/>
</linearGradient>
<linearGradient id="paint5_linear" x1="80.1529" y1="41.1473" x2="80.1529" y2="144.607" gradientUnits="userSpaceOnUse">
<stop stop-color="#67DE69"/>
<stop offset="1" stop-color="#0047B0"/>
</linearGradient>
<linearGradient id="paint6_linear" x1="54.832" y1="42.3465" x2="54.832" y2="142.058" gradientUnits="userSpaceOnUse">
<stop stop-color="#67DE69"/>
<stop offset="1" stop-color="#0047B0"/>
</linearGradient>
<linearGradient id="paint7_linear" x1="34.8194" y1="48.5147" x2="34.8194" y2="139.833" gradientUnits="userSpaceOnUse">
<stop stop-color="#67DE69"/>
<stop offset="1" stop-color="#0047B0"/>
</linearGradient>
<linearGradient id="paint8_linear" x1="23.5814" y1="84.0847" x2="23.5814" y2="144.721" gradientUnits="userSpaceOnUse">
<stop stop-color="#67DE69"/>
<stop offset="1" stop-color="#0047B0"/>
</linearGradient>
<linearGradient id="paint9_linear" x1="84.212" y1="17.1767" x2="85.3001" y2="55.9945" gradientUnits="userSpaceOnUse">
<stop stop-color="#67DE69"/>
<stop offset="1" stop-color="#0047B0"/>
</linearGradient>
</defs>
</svg>
