<svg width="256" height="256" viewBox="0 0 256 256" fill="none" xmlns="http://www.w3.org/2000/svg">
<rect width="256" height="256" fill="white"/>
<rect width="256" height="256" fill="url(#paint0_linear)"/>
<path d="M115.438 31.5807V32.6841L116.412 33.1744L117.387 32.6841V31.5807L116.412 31.0903L115.438 31.5807ZM130.661 96.6787V99.3758L132.975 100.724L135.289 99.3758V96.6787L132.975 95.3302L130.661 96.6787ZM113.368 54.9964V53.1575L114.951 52.1767L116.534 53.1575V54.9964L114.951 55.9771L113.368 54.9964ZM170.606 165.087V169.623L174.503 171.83L178.4 169.623V165.087L174.503 162.88L170.606 165.087ZM160.254 141.794V137.748L163.664 135.787L167.074 137.748V141.794L163.664 143.755L160.254 141.794ZM144.666 115.068V118.501L147.589 120.217L150.512 118.501V115.068L147.589 113.352L144.666 115.068ZM118.604 77.0635V74.6116L120.675 73.3857L122.745 74.6116V77.0635L120.675 78.2895L118.604 77.0635ZM170.606 192.793V194.142L171.702 194.755L172.798 194.142V192.793L171.702 192.18L170.606 192.793Z" fill="white"/>
<path d="M162.142 211.847V211.263L162.684 211.013L163.226 211.263V211.847L162.684 212.097L162.142 211.847Z" fill="white"/>
<path d="M89.8793 58.6768V59.7785L90.8747 60.2682L91.8701 59.7785V58.6768L90.8747 58.1871L89.8793 58.6768ZM133.054 205.086V206.188L134.05 206.677L135.045 206.188V205.086L134.05 204.596L133.054 205.086ZM128.824 187.825V185.744L130.69 184.643L132.557 185.744V187.825L130.69 188.927L128.824 187.825ZM117.875 164.689V167.872L120.736 169.463L123.598 167.872V164.689L120.736 163.097L117.875 164.689ZM105.308 148.53V144.857L108.543 143.021L111.778 144.857V148.53L108.543 150.366L105.308 148.53ZM94.2341 124.292V128.576L97.9669 130.657L101.7 128.576V124.292L97.9669 122.211L94.2341 124.292ZM87.3908 105.072V102.379L89.7549 101.033L92.1189 102.379V105.072L89.7549 106.419L87.3908 105.072ZM86.271 78.753V80.5892L87.8885 81.5685L89.506 80.5892V78.753L87.8885 77.7736L86.271 78.753Z" fill="white"/>
<path d="M59.5776 105.281V106.378L60.5691 106.865L61.5607 106.378V105.281L60.5691 104.794L59.5776 105.281ZM58.0903 123.193V125.02L59.7016 125.995L61.3128 125.02V123.193L59.7016 122.218L58.0903 123.193ZM58.9579 145.369V142.688L61.3128 141.348L63.6677 142.688V145.369L61.3128 146.709L58.9579 145.369ZM63.4198 159.991V164.012L66.8901 165.961L70.3604 164.012V159.991L66.8901 158.041L63.4198 159.991ZM73.5829 179.852V176.44L76.5575 174.735L79.532 176.44V179.852L76.5575 181.558L73.5829 179.852ZM86.3487 192.037V194.718L88.7036 196.058L91.0585 194.718V192.037L88.7036 190.697L86.3487 192.037ZM99.9822 206.537V204.709L101.593 203.734L103.205 204.709V206.537L101.593 207.512L99.9822 206.537ZM111.88 217.382V218.234L112.624 218.6L113.368 218.234V217.382L112.624 217.016L111.88 217.382Z" fill="white"/>
<path d="M135.045 22.9089V24.0105L136.034 24.5001L137.023 24.0105V22.9089L136.034 22.4193L135.045 22.9089ZM140.361 41.758V43.5939L141.969 44.5731L143.576 43.5939V41.758L141.969 40.7788L140.361 41.758ZM149.14 62.3205V58.8934L152.107 57.1799L155.074 58.8934V62.3205L152.107 64.0341L149.14 62.3205ZM164.841 76.0289V80.5576L168.798 82.7607L172.754 80.5576V76.0289L168.798 73.8258L164.841 76.0289ZM183.634 97.6931V94.7556L186.23 93.2868L188.827 94.7556V97.6931L186.23 99.1618L183.634 97.6931ZM197.852 110.545V111.769L198.965 112.381L200.077 111.769V110.545L198.965 109.933L197.852 110.545Z" fill="white"/>
<path d="M126.93 17.0134C126.071 16.8911 125.335 17.6248 125.212 18.4808C117.852 50.8871 120.796 75.2224 161.278 116.8C217.707 174.765 170.601 219.155 145.944 235.052C145.576 235.297 144.963 236.031 145.331 237.009C145.699 238.11 146.803 238.11 147.171 238.11C203.6 224.413 239.911 157.644 184.341 108.118C153.672 80.7253 130.365 64.3388 128.402 18.8477C128.402 17.8694 127.789 17.1357 126.93 17.0134Z" fill="white"/>
<path d="M112.838 21.559C112.104 21.0681 111.125 21.4363 110.636 22.1725C86.9043 59.5996 91.6751 98.8673 114.306 129.791C154.552 184.643 142.319 220.352 132.9 236.795C132.655 237.163 132.41 238.145 133.144 238.759C133.878 239.495 134.857 239.127 135.224 238.881C162.503 216.67 176.816 171.881 139.872 122.428C119.688 95.4314 96.8129 72.8524 113.572 23.6451C113.817 23.0315 113.572 22.0498 112.838 21.559Z" fill="white"/>
<path d="M94.0602 35.654C93.3297 35.1615 92.3557 35.5309 91.8687 36.1466C64.2313 76.0418 61.5528 118.277 73.4843 151.153C90.2859 191.664 122.428 211.242 124.62 237.47C124.741 238.085 124.985 239.194 126.202 239.194C127.42 239.194 127.785 238.208 127.907 237.716C132.777 197.698 108.427 171.224 96.2517 149.06C81.3981 119.508 72.2668 87.1238 94.7907 37.6242C94.9124 37.0085 94.6689 36.0235 94.0602 35.654Z" fill="white"/>
<path d="M116.523 235.393C117.014 236.981 115.542 238.325 113.946 238.081C84.3726 232.827 44 210.224 44 155C44 139.239 47.6814 123.845 51.9763 110.405C52.2218 109.55 53.0808 108.939 53.9398 109.183C54.676 109.306 55.2896 110.039 55.1669 110.894C50.6265 141.805 53.5716 177.236 81.4275 199.595C99.8344 214.378 112.965 223.175 116.523 235.393Z" fill="white"/>
<path d="M167.971 61.1502C154.094 45.5991 146.912 31.3845 144.842 22.7585C144.599 21.9081 145.451 21.0577 146.303 21.4221C169.189 31.02 190.979 64.7949 203.274 100.028C203.395 100.271 203.395 101.243 202.422 101.486C201.691 101.729 201.083 101.121 200.961 100.878C194.387 86.9065 181.605 76.3367 167.971 61.1502Z" fill="white"/>
<defs>
<linearGradient id="paint0_linear" x1="0" y1="0" x2="256" y2="256" gradientUnits="userSpaceOnUse">
<stop stop-color="#67DE69"/>
<stop offset="1" stop-color="#0149AF"/>
</linearGradient>
</defs>
</svg>
