<svg width="244" height="277" viewBox="0 0 244 277" fill="none" xmlns="http://www.w3.org/2000/svg">
<path d="M164.2 12.9V13.8L165 14.2L165.8 13.8V12.9L165 12.5L164.2 12.9ZM176.7 66V68.2L178.6 69.3L180.5 68.2V66L178.6 64.9L176.7 66ZM162.5 32V30.5L163.8 29.7L165.1 30.5V32L163.8 32.8L162.5 32ZM209.5 121.8V125.5L212.7 127.3L215.9 125.5V121.8L212.7 120L209.5 121.8ZM201 102.8V99.5L203.8 97.9L206.6 99.5V102.8L203.8 104.4L201 102.8ZM188.2 81V83.8L190.6 85.2L193 83.8V81L190.6 79.6L188.2 81ZM166.8 50V48L168.5 47L170.2 48V50L168.5 51L166.8 50ZM209.5 144.4V145.5L210.4 146L211.3 145.5V144.4L210.4 143.9L209.5 144.4Z" fill="url(#paint0_linear)"/>
<path d="M202.3 160V159.3L202.9 159L203.5 159.3V160L202.9 160.3L202.3 160Z" fill="url(#paint1_linear)"/>
<path d="M143.7 34.611V35.511L144.5 35.911L145.3 35.511V34.611L144.5 34.211L143.7 34.611ZM178.4 154.211V155.111L179.2 155.511L180 155.111V154.211L179.2 153.811L178.4 154.211ZM175 140.111V138.411L176.5 137.511L178 138.411V140.111L176.5 141.011L175 140.111ZM166.2 121.211V123.811L168.5 125.111L170.8 123.811V121.211L168.5 119.911L166.2 121.211ZM156.1 108.011V105.011L158.7 103.511L161.3 105.011V108.011L158.7 109.511L156.1 108.011ZM147.2 88.211V91.711L150.2 93.411L153.2 91.711V88.211L150.2 86.511L147.2 88.211ZM141.7 72.511V70.311L143.6 69.211L145.5 70.311V72.511L143.6 73.611L141.7 72.511ZM140.8 51.011V52.511L142.1 53.311L143.4 52.511V51.011L142.1 50.211L140.8 51.011Z" fill="url(#paint2_linear)"/>
<path d="M118.9 72.611V73.511L119.7 73.911L120.5 73.511V72.611L119.7 72.211L118.9 72.611ZM117.7 87.3V88.8L119 89.6L120.3 88.8V87.3L119 86.5L117.7 87.3ZM118.4 105.5V103.3L120.3 102.2L122.2 103.3V105.5L120.3 106.6L118.4 105.5ZM122 117.5V120.8L124.8 122.4L127.6 120.8V117.5L124.8 115.9L122 117.5ZM130.2 133.8V131L132.6 129.6L135 131V133.8L132.6 135.2L130.2 133.8ZM140.5 143.8V146L142.4 147.1L144.3 146V143.8L142.4 142.7L140.5 143.8ZM151.5 155.711V154.211L152.8 153.411L154.1 154.211V155.711L152.8 156.511L151.5 155.711ZM161.1 164.611V165.311L161.7 165.611L162.3 165.311V164.611L161.7 164.311L161.1 164.611Z" fill="url(#paint3_linear)"/>
<path d="M180.7 5.9V6.8L181.5 7.2L182.3 6.8V5.9L181.5 5.5L180.7 5.9ZM185 21.311V22.811L186.3 23.611L187.6 22.811V21.311L186.3 20.511L185 21.311ZM192.1 38.1V35.3L194.5 33.9L196.9 35.3V38.1L194.5 39.5L192.1 38.1ZM204.8 49.3V53L208 54.8L211.2 53V49.3L208 47.5L204.8 49.3ZM220 67V64.6L222.1 63.4L224.2 64.6V67L222.1 68.2L220 67ZM231.5 77.5V78.5L232.4 79L233.3 78.5V77.5L232.4 77L231.5 77.5Z" fill="url(#paint4_linear)"/>
<path d="M173.8 0.500003C173.1 0.400003 172.5 1 172.4 1.7C166.4 28.2 168.8 48.1 201.8 82.1C247.8 129.5 209.4 165.8 189.3 178.8C189 179 188.5 179.6 188.8 180.4C189.1 181.3 190 181.3 190.3 181.3C236.3 170.1 265.9 115.5 220.6 75C195.6 52.6 176.6 39.2 175 2C175 1.2 174.5 0.600003 173.8 0.500003Z" fill="url(#paint5_linear)"/>
<path d="M161.9 4.51096C161.3 4.11096 160.5 4.41096 160.1 5.01096C140.7 35.511 144.6 67.511 163.1 92.711C196 137.411 186 166.5 178.3 179.9C178.1 180.2 177.9 181 178.5 181.5C179.1 182.1 179.9 181.8 180.2 181.6C202.5 163.5 214.2 127.011 184 86.711C167.5 64.711 148.8 46.311 162.5 6.21096C162.7 5.71096 162.5 4.91096 161.9 4.51096Z" fill="url(#paint6_linear)"/>
<path d="M146.7 16.411C146.1 16.011 145.3 16.311 144.9 16.811C122.2 49.211 120 83.5 129.8 110.211C143.6 143.111 170 159 171.8 180.3C171.9 180.8 172.1 181.7 173.1 181.7C174.1 181.7 174.4 180.9 174.5 180.5C178.5 148 158.5 126.5 148.5 108.5C136.3 84.5 128.8 58.211 147.3 18.011C147.4 17.511 147.2 16.711 146.7 16.411Z" fill="url(#paint7_linear)"/>
<path d="M165.055 179.317C165.416 180.596 164.293 181.728 162.985 181.495C138.85 177.189 106 158.658 106 113.511C106 100.611 109 88.011 112.5 77.011C112.7 76.311 113.4 75.811 114.1 76.011C114.7 76.111 115.2 76.711 115.1 77.411C111.4 102.711 113.8 131.7 136.5 150C151.533 162.081 162.227 169.315 165.055 179.317Z" fill="url(#paint8_linear)"/>
<path d="M207 36.811C195.561 23.988 189.738 12.2714 187.963 5.19409C187.776 4.44857 188.498 3.8409 189.206 4.13995C208.021 12.0867 225.887 39.8343 236 68.811C236.1 69.011 236.1 69.811 235.3 70.011C234.7 70.211 234.2 69.711 234.1 69.511C228.7 58.011 218.2 49.311 207 36.811Z" fill="url(#paint9_linear)"/>
<path d="M54.4 179H50.8V158H42.6V154.6H62.7V158H54.5V179H54.4Z" fill="black"/>
<path d="M82.8 179H79.2V168.9C79.2 167.1 78.9 165.8 78.3 165C77.8 164.2 77 163.9 76 163.9C75.5 163.9 74.9 164 74.4 164.2C73.8 164.4 73.3 164.7 72.8 165.1C72.3 165.5 71.9 166 71.5 166.5C71.2 167 70.9 167.5 70.7 168.1V179H67.1V154H70.7V163.2C71.2 162.6 71.8 162.1 72.5 161.7C73.8 160.9 75.2 160.5 76.7 160.5C77.8 160.5 78.7 160.7 79.5 161.1C80.3 161.5 80.9 162.1 81.4 162.8C81.9 163.5 82.2 164.3 82.4 165.3C82.6 166.2 82.7 167.3 82.7 168.4V179H82.8Z" fill="black"/>
<path d="M96 179.4C94.7 179.4 93.4 179.2 92.3 178.7C91.2 178.2 90.2 177.5 89.4 176.6C88.6 175.7 87.9 174.7 87.5 173.6C87.1 172.5 86.8 171.2 86.8 169.9C86.8 168.6 87 167.4 87.5 166.3C88 165.2 88.6 164.2 89.4 163.3C90.2 162.4 91.2 161.7 92.3 161.3C93.4 160.8 94.6 160.5 95.9 160.5C97.2 160.5 98.5 160.8 99.6 161.3C100.7 161.8 101.7 162.5 102.5 163.3C103.3 164.2 103.9 165.2 104.4 166.3C104.8 167.4 105.1 168.6 105.1 169.9V170.4C105.1 170.7 105.1 170.8 105 171L104.8 171.5H90.6C90.7 172.1 90.9 172.6 91.1 173.1C91.4 173.8 91.9 174.4 92.4 174.9C92.9 175.4 93.5 175.8 94.1 176.1C95.1 176.5 96.4 176.6 97.6 176.3C98.1 176.2 98.5 176 98.9 175.7C99.3 175.5 99.7 175.2 100 174.9C100.3 174.6 100.5 174.2 100.7 173.8L100.9 173.3L104.1 174.2L103.8 174.9C103.5 175.6 103.1 176.2 102.6 176.8C102.1 177.3 101.5 177.8 100.8 178.2C100.1 178.6 99.3 178.9 98.5 179.1C97.8 179.2 96.9 179.4 96 179.4ZM90.6 168.3H101.5C101.4 167.8 101.2 167.3 101 166.8C100.7 166.1 100.3 165.5 99.8 165C99.3 164.5 98.7 164.1 98.1 163.9C96.8 163.4 95.3 163.4 94 163.9C93.3 164.2 92.8 164.6 92.3 165C91.8 165.5 91.4 166.1 91.1 166.7C90.8 167.3 90.7 167.8 90.6 168.3Z" fill="black"/>
<path d="M17.3 226.9C14.8 226.9 12.4 226.3 10.3 225.2C8.19999 224.1 6.39999 222.6 4.79999 220.9C3.29999 219.1 2.10001 217.1 1.20001 214.8C0.400012 212.5 0 210.2 0 207.8C0 205.6 0.399976 203.4 1.09998 201.2C1.89998 199 3.1 197 4.5 195.3C6 193.6 7.9 192.1 10 191.1C12.2 190 14.7 189.4 17.5 189.4C20.8 189.4 23.7 190.2 26 191.7C28.4 193.2 30.2 195.2 31.3 197.6L31.6 198.2L27.6 200.7L27.2 200C26.7 198.9 26 198 25.3 197.3C24.5 196.5 23.7 195.9 22.9 195.5C22 195 21.1 194.7 20.2 194.5C19.2 194.3 18.3 194.2 17.4 194.2C15.4 194.2 13.6 194.6 12.1 195.4C10.6 196.2 9.20001 197.3 8.20001 198.6C7.20001 199.9 6.39999 201.4 5.79999 203.1C5.29999 204.8 5 206.5 5 208.2C5 210.1 5.3 211.9 6 213.6C6.7 215.3 7.60001 216.9 8.70001 218.2C9.80001 219.5 11.2 220.5 12.7 221.3C15 222.4 17.7 222.7 20.5 222.1C21.5 221.9 22.4 221.5 23.4 221C24.3 220.5 25.2 219.8 26 219.1C26.8 218.3 27.4 217.4 27.9 216.3L28.2 215.6L32.4 217.8L32.1 218.4C31.5 219.8 30.6 221.1 29.5 222.2C28.4 223.3 27.2 224.1 25.9 224.9C24.6 225.6 23.2 226.2 21.7 226.6C20.2 226.7 18.7 226.9 17.3 226.9Z" fill="black"/>
<path d="M48.7 227.1C46.7 227.1 44.9 226.7 43.2 226C41.5 225.2 40.1 224.2 38.9 222.9C37.7 221.6 36.8 220.1 36.1 218.4C35.4 216.7 35.1 214.9 35.1 213C35.1 211.1 35.4 209.2 36.1 207.5C36.8 205.8 37.8 204.3 38.9 203C40.1 201.7 41.6 200.6 43.2 199.9C44.9 199.1 46.7 198.7 48.7 198.7C50.7 198.7 52.5 199.1 54.2 199.9C55.9 200.7 57.3 201.7 58.5 203C59.7 204.3 60.7 205.8 61.3 207.5C62 209.2 62.4 211 62.4 213C62.4 214.9 62.1 216.7 61.4 218.4C60.7 220.1 59.8 221.6 58.5 222.9C57.3 224.2 55.9 225.2 54.2 226C52.6 226.7 50.7 227.1 48.7 227.1ZM48.7 203.1C47.5 203.1 46.4 203.4 45.4 203.9C44.3 204.4 43.4 205.1 42.6 206C41.8 206.9 41.2 208 40.7 209.2C40.2 210.4 40 211.7 40 213C40 214.4 40.2 215.7 40.7 216.8C41.2 217.9 41.8 219 42.6 219.9C43.4 220.7 44.3 221.4 45.4 221.9C47.5 222.9 50.1 222.9 52.1 221.9C53.2 221.4 54.1 220.7 54.9 219.8C55.7 218.9 56.3 217.9 56.8 216.7C57.3 215.5 57.5 214.2 57.5 212.9C57.5 211.6 57.3 210.3 56.8 209.1C56.3 207.9 55.7 206.8 54.9 206C54.1 205.1 53.2 204.4 52.1 203.9C51 203.4 49.9 203.1 48.7 203.1Z" fill="black"/>
<path d="M106.8 226.6H101.9V211.3C101.9 208.4 101.5 206.3 100.6 205C99.8 203.8 98.6 203.2 96.9 203.2C96 203.2 95.1 203.4 94.3 203.7C93.5 204 92.8 204.5 92.1 205.1C91.4 205.7 90.8 206.5 90.3 207.3C89.8 208.1 89.4 209 89.1 210V226.5H84.2V211.3C84.2 208.4 83.8 206.2 82.9 205C82.1 203.8 80.9 203.2 79.2 203.2C77.4 203.2 75.9 203.8 74.4 205.1C73 206.3 72 208 71.4 210.1V226.7H66.5V199.1H71.1V203.2C72 202.1 73 201.2 74.1 200.4C75.9 199.2 78 198.6 80.3 198.6C82.7 198.6 84.6 199.3 86.1 200.7C87.1 201.6 87.9 202.8 88.3 204.2C90.8 200.5 94 198.7 98.1 198.7C99.7 198.7 101 199 102.2 199.6C103.3 200.2 104.3 201.1 104.9 202.2C105.6 203.2 106.1 204.5 106.3 206C106.6 207.4 106.8 209 106.8 210.7V226.6Z" fill="black"/>
<path d="M152.8 226.6H147.9V211.3C147.9 208.4 147.5 206.3 146.6 205C145.8 203.8 144.6 203.2 142.9 203.2C142 203.2 141.1 203.4 140.3 203.7C139.5 204 138.8 204.5 138.1 205.1C137.4 205.7 136.8 206.5 136.3 207.3C135.8 208.1 135.4 209 135.1 210V226.5H130.2V211.3C130.2 208.4 129.8 206.2 128.9 205C128.1 203.8 126.9 203.2 125.2 203.2C123.4 203.2 121.9 203.8 120.4 205.1C119 206.3 118 208 117.4 210.1V226.7H112.5V199.1H117.1V203.2C118 202.1 119 201.2 120.1 200.4C121.9 199.2 124 198.6 126.3 198.6C128.7 198.6 130.6 199.3 132.1 200.7C133.1 201.6 133.9 202.8 134.3 204.2C136.8 200.5 140 198.7 144.1 198.7C145.7 198.7 147 199 148.2 199.6C149.3 200.2 150.3 201.1 150.9 202.2C151.6 203.2 152.1 204.5 152.3 206C152.6 207.4 152.8 209 152.8 210.7V226.6Z" fill="black"/>
<path d="M170.3 227.1C168.3 227.1 166.5 226.7 164.8 226C163.1 225.2 161.7 224.2 160.5 222.9C159.3 221.6 158.4 220.1 157.7 218.4C157 216.7 156.7 214.9 156.7 213C156.7 211.1 157 209.2 157.7 207.5C158.4 205.8 159.4 204.3 160.5 203C161.7 201.7 163.2 200.6 164.8 199.9C166.5 199.1 168.3 198.7 170.3 198.7C172.3 198.7 174.1 199.1 175.8 199.9C177.5 200.7 178.9 201.7 180.1 203C181.3 204.3 182.3 205.8 182.9 207.5C183.6 209.2 184 211 184 213C184 214.9 183.7 216.7 183 218.4C182.3 220.1 181.4 221.6 180.1 222.9C178.9 224.2 177.5 225.2 175.8 226C174.2 226.7 172.3 227.1 170.3 227.1ZM170.3 203.1C169.1 203.1 168 203.4 167 203.9C165.9 204.4 165 205.1 164.2 206C163.4 206.9 162.8 208 162.3 209.2C161.8 210.4 161.6 211.7 161.6 213C161.6 214.4 161.8 215.7 162.3 216.8C162.8 217.9 163.4 219 164.2 219.9C165 220.7 165.9 221.4 167 221.9C169.1 222.9 171.7 222.9 173.7 221.9C174.8 221.4 175.7 220.7 176.5 219.8C177.3 218.9 177.9 217.9 178.4 216.7C178.9 215.5 179.1 214.2 179.1 212.9C179.1 211.6 178.9 210.3 178.4 209.1C177.9 207.9 177.3 206.8 176.5 206C175.7 205.1 174.8 204.4 173.7 203.9C172.6 203.4 171.5 203.1 170.3 203.1Z" fill="black"/>
<path d="M211.6 226.6H206.7V211.3C206.7 208.4 206.3 206.2 205.4 205C204.6 203.8 203.5 203.2 201.8 203.2C200.9 203.2 200 203.4 199.1 203.7C198.2 204 197.3 204.5 196.5 205.1C195.7 205.7 195 206.5 194.4 207.3C193.8 208.1 193.4 209 193.1 209.9V226.5H188.2V199.1H192.8V203.4C193.7 202.3 194.9 201.3 196.2 200.5C198.3 199.3 200.6 198.6 203.1 198.6C204.7 198.6 206 198.9 207.1 199.5C208.2 200.1 209.1 200.9 209.8 202C210.4 203 210.9 204.3 211.2 205.8C211.5 207.2 211.6 208.9 211.6 210.6V226.6Z" fill="black"/>
<path d="M226.8 227.1C224.7 227.1 222.6 226.7 220.6 226.1C218.6 225.4 216.8 224.4 215.3 223L214.8 222.6L217.2 219.1L217.8 219.6C219.2 220.7 220.6 221.6 222.1 222.2C223.5 222.8 225.1 223 226.7 223C228.6 223 230.2 222.6 231.3 221.9C232.4 221.2 232.9 220.2 232.9 218.9C232.9 218.3 232.8 217.9 232.5 217.5C232.2 217.1 231.8 216.7 231.2 216.4C230.6 216.1 229.9 215.8 228.9 215.5C227.9 215.2 226.8 214.9 225.5 214.6C224 214.2 222.6 213.9 221.5 213.5C220.3 213.1 219.4 212.7 218.6 212.2C217.8 211.7 217.2 211 216.7 210.2C216.3 209.4 216.1 208.4 216.1 207.2C216.1 205.8 216.4 204.5 216.9 203.4C217.5 202.3 218.3 201.4 219.2 200.7C220.2 200 221.3 199.4 222.5 199.1C223.8 198.7 225.1 198.6 226.5 198.6C228.6 198.6 230.5 199 232.2 199.7C233.9 200.4 235.3 201.3 236.4 202.4L236.9 202.9L234.3 206.1L233.7 205.5C232.8 204.6 231.7 203.9 230.4 203.4C229.1 202.9 227.8 202.7 226.4 202.7C225.6 202.7 224.8 202.8 224.1 203C223.4 203.2 222.8 203.4 222.3 203.7C221.8 204 221.5 204.4 221.2 205C220.9 205.5 220.8 206.1 220.8 206.8C220.8 207.4 220.9 207.8 221.1 208.1C221.3 208.4 221.6 208.7 222 209C222.5 209.3 223.1 209.5 223.8 209.8C224.6 210 225.6 210.3 226.7 210.5C228.4 210.9 229.9 211.3 231.2 211.7C232.5 212.1 233.6 212.6 234.5 213.2C235.5 213.8 236.2 214.5 236.7 215.4C237.2 216.3 237.4 217.3 237.4 218.6C237.4 221.2 236.4 223.4 234.4 224.9C232.7 226.4 230 227.1 226.8 227.1Z" fill="black"/>
<path d="M120.5 276.2C114.8 276.2 109.9 274.4 105.8 270.9L105.3 270.5L107.9 266.3L108.6 267C109.2 267.6 109.9 268.2 110.7 268.8C111.5 269.4 112.5 269.9 113.5 270.3C114.5 270.7 115.7 271 116.9 271.3C118.1 271.5 119.3 271.6 120.6 271.6C123.3 271.6 125.4 271.1 126.8 270.2C128.2 269.3 128.9 268 128.9 266.2C128.9 265.3 128.7 264.5 128.3 263.9C127.9 263.2 127.3 262.7 126.6 262.2C125.7 261.7 124.7 261.2 123.4 260.8C122.1 260.4 120.5 260 118.8 259.6C116.9 259.2 115.2 258.7 113.8 258.2C112.3 257.7 111.1 257.1 110 256.4C108.9 255.6 108.1 254.7 107.6 253.7C107.1 252.6 106.8 251.3 106.8 249.8C106.8 248.1 107.1 246.5 107.8 245.2C108.5 243.8 109.5 242.7 110.7 241.8C111.9 240.9 113.3 240.2 114.9 239.8C116.5 239.3 118.3 239.1 120.2 239.1C122.7 239.1 124.9 239.5 126.8 240.2C128.7 240.9 130.5 242 132.1 243.3L132.6 243.7L130 247.9L129.3 247.1C128.4 246.1 127.1 245.2 125.6 244.6C124 244 122.2 243.6 120.2 243.6C117.3 243.6 115.1 244.1 113.8 245.2C112.5 246.2 111.9 247.6 111.9 249.4C111.9 250.3 112.1 251.1 112.4 251.7C112.7 252.2 113.2 252.7 113.9 253.1C114.6 253.6 115.6 254 116.8 254.3C118 254.7 119.5 255 121.2 255.4C123.1 255.8 124.9 256.3 126.4 256.8C128 257.3 129.4 258 130.5 258.8C131.6 259.6 132.6 260.6 133.2 261.7C133.8 262.9 134.1 264.3 134.1 266C134.1 267.7 133.8 269.3 133.1 270.5C132.4 271.8 131.4 272.9 130.2 273.7C129 274.5 127.6 275.2 125.9 275.6C124.2 276 122.4 276.2 120.5 276.2Z" fill="black"/>
<path d="M145.1 276.2C144.3 276.2 143.5 276.1 142.8 275.9C142 275.7 141.4 275.3 140.8 274.9C140.2 274.4 139.7 273.8 139.4 273.1C139.1 272.4 138.9 271.5 138.9 270.6V252.9H135.3V248.8H138.9V240H143.8V248.7H149.8V252.8H143.8V269.5C143.8 270.2 144.1 270.7 144.5 271C145 271.3 145.5 271.5 146.2 271.5C147.1 271.5 147.8 271.4 148.5 271.1C149.4 270.7 149.7 270.5 149.8 270.5L150.6 270L152 274.2L151.4 274.5C151.2 274.6 150.9 274.7 150.5 274.9C150.1 275.1 149.7 275.2 149.1 275.4C148.6 275.6 148 275.7 147.3 275.9C146.5 276.2 145.8 276.2 145.1 276.2Z" fill="black"/>
<path d="M163.8 276.4C162.5 276.4 161.2 276.2 160.1 275.8C159 275.3 158 274.7 157.1 273.9C156.3 273.1 155.6 272.2 155.1 271.1C154.6 270 154.4 268.9 154.4 267.6C154.4 266.4 154.7 265.2 155.3 264.1C155.9 263.1 156.7 262.1 157.8 261.4C158.8 260.7 160.1 260.1 161.5 259.7C164 259 167.2 258.9 170.3 259.4C171.3 259.6 172.2 259.8 173.1 260.1V259C173.1 256.9 172.5 255.3 171.4 254.1C170.2 252.9 168.6 252.3 166.5 252.3C165.3 252.3 164 252.5 162.7 253C161.4 253.5 160 254.2 158.6 255.2L157.9 255.7L156 252.2L156.6 251.8C160.1 249.5 163.5 248.3 166.8 248.3C170.3 248.3 173 249.3 175 251.2C177 253.1 178 255.8 178 259.2V270.8C178 271.4 178.2 271.4 178.5 271.4H179.3V275.7L178.7 275.8C178.1 275.9 177.6 276 177.3 276C176.3 276 175.4 275.7 174.8 275.2C174.2 274.6 173.8 273.9 173.8 272.9V272.7C172.8 273.7 171.6 274.5 170.2 275.1C168 276 166 276.4 163.8 276.4ZM166.5 262.8C164.3 262.8 162.4 263.3 161.1 264.2C159.8 265 159.2 266.1 159.2 267.5C159.2 268.2 159.3 268.8 159.6 269.4C159.9 270 160.3 270.5 160.7 271C161.2 271.4 161.8 271.8 162.4 272C163.1 272.3 163.8 272.4 164.6 272.4C166.3 272.4 167.8 272.1 169.1 271.5C170.5 270.9 171.5 270.1 172.2 269.1L172.3 269C172.5 268.8 172.7 268.5 172.8 268.3C172.9 268 173 267.8 173 267.6V263.9C172.1 263.6 171.1 263.3 170.1 263.1C168.9 262.9 167.7 262.8 166.5 262.8Z" fill="black"/>
<path d="M196.8 276.4C194.8 276.4 192.9 276 191.2 275.3C189.5 274.5 188 273.5 186.8 272.2C185.6 270.9 184.6 269.4 183.9 267.7C183.2 266 182.9 264.2 182.9 262.2C182.9 260.3 183.2 258.5 183.9 256.8C184.6 255.1 185.5 253.6 186.7 252.4C187.9 251.1 189.4 250.1 191.1 249.4C192.8 248.7 194.7 248.3 196.7 248.3C199.3 248.3 201.6 248.9 203.5 250.1C205.4 251.2 206.9 252.8 207.9 254.8L208.3 255.6L203.6 257.1L203.3 256.6C202.6 255.4 201.7 254.5 200.5 253.8C199.3 253.1 198 252.8 196.5 252.8C195.3 252.8 194.1 253 193.1 253.5C192.1 254 191.1 254.7 190.3 255.5C189.5 256.3 188.9 257.3 188.4 258.5C188 259.6 187.8 260.9 187.8 262.3C187.8 263.6 188 264.9 188.5 266.1C189 267.3 189.6 268.3 190.4 269.2C191.2 270 192.1 270.7 193.2 271.3C194.9 272.1 196.9 272.2 198.8 271.7C199.6 271.5 200.3 271.2 200.9 270.8C201.5 270.4 202.1 270 202.5 269.5C202.9 269.1 203.2 268.6 203.4 268.1L203.6 267.4L208.4 268.8L208.1 269.5C207.7 270.5 207.1 271.4 206.4 272.3C205.6 273.1 204.8 273.8 203.7 274.5C202.7 275.1 201.6 275.6 200.3 275.9C199.3 276.2 198.1 276.4 196.8 276.4Z" fill="black"/>
<path d="M236.7 275.9H231.2L221.9 263.1L217.2 267.4V275.9H212.3V238.4H217.2V261.9L230.8 248.8H236.8L225.3 260.1L236.7 275.9Z" fill="black"/>
<defs>
<linearGradient id="paint0_linear" x1="188.49" y1="50.4693" x2="188.49" y2="146.134" gradientUnits="userSpaceOnUse">
<stop stop-color="#67DE69"/>
<stop offset="1" stop-color="#0047B0"/>
</linearGradient>
<linearGradient id="paint1_linear" x1="188.49" y1="50.469" x2="188.49" y2="146.134" gradientUnits="userSpaceOnUse">
<stop stop-color="#67DE69"/>
<stop offset="1" stop-color="#0047B0"/>
</linearGradient>
<linearGradient id="paint2_linear" x1="160.815" y1="68.4146" x2="160.815" y2="155.471" gradientUnits="userSpaceOnUse">
<stop stop-color="#67DE69"/>
<stop offset="1" stop-color="#0047B0"/>
</linearGradient>
<linearGradient id="paint3_linear" x1="139.655" y1="99.2452" x2="139.655" y2="165.558" gradientUnits="userSpaceOnUse">
<stop stop-color="#67DE69"/>
<stop offset="1" stop-color="#0047B0"/>
</linearGradient>
<linearGradient id="paint4_linear" x1="207.171" y1="26.5868" x2="207.171" y2="80.2967" gradientUnits="userSpaceOnUse">
<stop stop-color="#67DE69"/>
<stop offset="1" stop-color="#0047B0"/>
</linearGradient>
<linearGradient id="paint5_linear" x1="206.252" y1="52.0605" x2="206.252" y2="181.758" gradientUnits="userSpaceOnUse">
<stop stop-color="#67DE69"/>
<stop offset="1" stop-color="#0047B0"/>
</linearGradient>
<linearGradient id="paint6_linear" x1="174.941" y1="53.5639" x2="174.941" y2="178.563" gradientUnits="userSpaceOnUse">
<stop stop-color="#67DE69"/>
<stop offset="1" stop-color="#0047B0"/>
</linearGradient>
<linearGradient id="paint7_linear" x1="148.332" y1="61.2963" x2="148.332" y2="175.773" gradientUnits="userSpaceOnUse">
<stop stop-color="#67DE69"/>
<stop offset="1" stop-color="#0047B0"/>
</linearGradient>
<linearGradient id="paint8_linear" x1="135.864" y1="105.887" x2="135.864" y2="181.901" gradientUnits="userSpaceOnUse">
<stop stop-color="#67DE69"/>
<stop offset="1" stop-color="#0047B0"/>
</linearGradient>
<linearGradient id="paint9_linear" x1="211.407" y1="22.0154" x2="212.771" y2="70.6776" gradientUnits="userSpaceOnUse">
<stop stop-color="#67DE69"/>
<stop offset="1" stop-color="#0047B0"/>
</linearGradient>
</defs>
</svg>
