<svg width="398" height="333" viewBox="0 0 398 333" fill="none" xmlns="http://www.w3.org/2000/svg">
<rect width="398" height="333" fill="black"/>
<path d="M241.2 40.9V41.8L242 42.2L242.8 41.8V40.9L242 40.5L241.2 40.9ZM253.7 94V96.2L255.6 97.3L257.5 96.2V94L255.6 92.9L253.7 94ZM239.5 60V58.5L240.8 57.7L242.1 58.5V60L240.8 60.8L239.5 60ZM286.5 149.8V153.5L289.7 155.3L292.9 153.5V149.8L289.7 148L286.5 149.8ZM278 130.8V127.5L280.8 125.9L283.6 127.5V130.8L280.8 132.4L278 130.8ZM265.2 109V111.8L267.6 113.2L270 111.8V109L267.6 107.6L265.2 109ZM243.8 78V76L245.5 75L247.2 76V78L245.5 79L243.8 78ZM286.5 172.4V173.5L287.4 174L288.3 173.5V172.4L287.4 171.9L286.5 172.4Z" fill="url(#paint0_linear)"/>
<path d="M279.3 188V187.3L279.9 187L280.5 187.3V188L279.9 188.3L279.3 188Z" fill="url(#paint1_linear)"/>
<path d="M220.7 62.611V63.511L221.5 63.911L222.3 63.511V62.611L221.5 62.211L220.7 62.611ZM255.4 182.211V183.111L256.2 183.511L257 183.111V182.211L256.2 181.811L255.4 182.211ZM252 168.111V166.411L253.5 165.511L255 166.411V168.111L253.5 169.011L252 168.111ZM243.2 149.211V151.811L245.5 153.111L247.8 151.811V149.211L245.5 147.911L243.2 149.211ZM233.1 136.011V133.011L235.7 131.511L238.3 133.011V136.011L235.7 137.511L233.1 136.011ZM224.2 116.211V119.711L227.2 121.411L230.2 119.711V116.211L227.2 114.511L224.2 116.211ZM218.7 100.511V98.311L220.6 97.211L222.5 98.311V100.511L220.6 101.611L218.7 100.511ZM217.8 79.011V80.511L219.1 81.311L220.4 80.511V79.011L219.1 78.211L217.8 79.011Z" fill="url(#paint2_linear)"/>
<path d="M195.9 100.611V101.511L196.7 101.911L197.5 101.511V100.611L196.7 100.211L195.9 100.611ZM194.7 115.3V116.8L196 117.6L197.3 116.8V115.3L196 114.5L194.7 115.3ZM195.4 133.5V131.3L197.3 130.2L199.2 131.3V133.5L197.3 134.6L195.4 133.5ZM199 145.5V148.8L201.8 150.4L204.6 148.8V145.5L201.8 143.9L199 145.5ZM207.2 161.8V159L209.6 157.6L212 159V161.8L209.6 163.2L207.2 161.8ZM217.5 171.8V174L219.4 175.1L221.3 174V171.8L219.4 170.7L217.5 171.8ZM228.5 183.711V182.211L229.8 181.411L231.1 182.211V183.711L229.8 184.511L228.5 183.711ZM238.1 192.611V193.311L238.7 193.611L239.3 193.311V192.611L238.7 192.311L238.1 192.611Z" fill="url(#paint3_linear)"/>
<path d="M257.7 33.9V34.8L258.5 35.2L259.3 34.8V33.9L258.5 33.5L257.7 33.9ZM262 49.311V50.811L263.3 51.611L264.6 50.811V49.311L263.3 48.511L262 49.311ZM269.1 66.1V63.3L271.5 61.9L273.9 63.3V66.1L271.5 67.5L269.1 66.1ZM281.8 77.3V81L285 82.8L288.2 81V77.3L285 75.5L281.8 77.3ZM297 95V92.6L299.1 91.4L301.2 92.6V95L299.1 96.2L297 95ZM308.5 105.5V106.5L309.4 107L310.3 106.5V105.5L309.4 105L308.5 105.5Z" fill="url(#paint4_linear)"/>
<path d="M250.8 28.5C250.1 28.4 249.5 29 249.4 29.7C243.4 56.2 245.8 76.1 278.8 110.1C324.8 157.5 286.4 193.8 266.3 206.8C266 207 265.5 207.6 265.8 208.4C266.1 209.3 267 209.3 267.3 209.3C313.3 198.1 342.9 143.5 297.6 103C272.6 80.6 253.6 67.2 252 30C252 29.2 251.5 28.6 250.8 28.5Z" fill="url(#paint5_linear)"/>
<path d="M238.9 32.511C238.3 32.111 237.5 32.411 237.1 33.011C217.7 63.511 221.6 95.511 240.1 120.711C273 165.411 263 194.5 255.3 207.9C255.1 208.2 254.9 209 255.5 209.5C256.1 210.1 256.9 209.8 257.2 209.6C279.5 191.5 291.2 155.011 261 114.711C244.5 92.711 225.8 74.311 239.5 34.211C239.7 33.711 239.5 32.911 238.9 32.511Z" fill="url(#paint6_linear)"/>
<path d="M223.7 44.411C223.1 44.011 222.3 44.311 221.9 44.811C199.2 77.211 197 111.5 206.8 138.211C220.6 171.111 247 187 248.8 208.3C248.9 208.8 249.1 209.7 250.1 209.7C251.1 209.7 251.4 208.9 251.5 208.5C255.5 176 235.5 154.5 225.5 136.5C213.3 112.5 205.8 86.211 224.3 46.011C224.4 45.511 224.2 44.711 223.7 44.411Z" fill="url(#paint7_linear)"/>
<path d="M242.055 207.317C242.416 208.596 241.293 209.728 239.985 209.495C215.85 205.189 183 186.658 183 141.511C183 128.611 186 116.011 189.5 105.011C189.7 104.311 190.4 103.811 191.1 104.011C191.7 104.111 192.2 104.711 192.1 105.411C188.4 130.711 190.8 159.7 213.5 178C228.533 190.081 239.227 197.315 242.055 207.317Z" fill="url(#paint8_linear)"/>
<path d="M284 64.811C272.561 51.988 266.738 40.2714 264.963 33.1941C264.776 32.4486 265.498 31.8409 266.206 32.1399C285.021 40.0867 302.887 67.8343 313 96.811C313.1 97.011 313.1 97.811 312.3 98.011C311.7 98.211 311.2 97.711 311.1 97.511C305.7 86.011 295.2 77.311 284 64.811Z" fill="url(#paint9_linear)"/>
<path d="M131.4 207H127.8V186H119.6V182.6H139.7V186H131.5V207H131.4Z" fill="white"/>
<path d="M159.8 207H156.2V196.9C156.2 195.1 155.9 193.8 155.3 193C154.8 192.2 154 191.9 153 191.9C152.5 191.9 151.9 192 151.4 192.2C150.8 192.4 150.3 192.7 149.8 193.1C149.3 193.5 148.9 194 148.5 194.5C148.2 195 147.9 195.5 147.7 196.1V207H144.1V182H147.7V191.2C148.2 190.6 148.8 190.1 149.5 189.7C150.8 188.9 152.2 188.5 153.7 188.5C154.8 188.5 155.7 188.7 156.5 189.1C157.3 189.5 157.9 190.1 158.4 190.8C158.9 191.5 159.2 192.3 159.4 193.3C159.6 194.2 159.7 195.3 159.7 196.4V207H159.8Z" fill="white"/>
<path d="M173 207.4C171.7 207.4 170.4 207.2 169.3 206.7C168.2 206.2 167.2 205.5 166.4 204.6C165.6 203.7 164.9 202.7 164.5 201.6C164.1 200.5 163.8 199.2 163.8 197.9C163.8 196.6 164 195.4 164.5 194.3C165 193.2 165.6 192.2 166.4 191.3C167.2 190.4 168.2 189.7 169.3 189.3C170.4 188.8 171.6 188.5 172.9 188.5C174.2 188.5 175.5 188.8 176.6 189.3C177.7 189.8 178.7 190.5 179.5 191.3C180.3 192.2 180.9 193.2 181.4 194.3C181.8 195.4 182.1 196.6 182.1 197.9V198.4C182.1 198.7 182.1 198.8 182 199L181.8 199.5H167.6C167.7 200.1 167.9 200.6 168.1 201.1C168.4 201.8 168.9 202.4 169.4 202.9C169.9 203.4 170.5 203.8 171.1 204.1C172.1 204.5 173.4 204.6 174.6 204.3C175.1 204.2 175.5 204 175.9 203.7C176.3 203.5 176.7 203.2 177 202.9C177.3 202.6 177.5 202.2 177.7 201.8L177.9 201.3L181.1 202.2L180.8 202.9C180.5 203.6 180.1 204.2 179.6 204.8C179.1 205.3 178.5 205.8 177.8 206.2C177.1 206.6 176.3 206.9 175.5 207.1C174.8 207.2 173.9 207.4 173 207.4ZM167.6 196.3H178.5C178.4 195.8 178.2 195.3 178 194.8C177.7 194.1 177.3 193.5 176.8 193C176.3 192.5 175.7 192.1 175.1 191.9C173.8 191.4 172.3 191.4 171 191.9C170.3 192.2 169.8 192.6 169.3 193C168.8 193.5 168.4 194.1 168.1 194.7C167.8 195.3 167.7 195.8 167.6 196.3Z" fill="white"/>
<path d="M94.3 254.9C91.8 254.9 89.4 254.3 87.3 253.2C85.2 252.1 83.4 250.6 81.8 248.9C80.3 247.1 79.1 245.1 78.2 242.8C77.4 240.5 77 238.2 77 235.8C77 233.6 77.4 231.4 78.1 229.2C78.9 227 80.1 225 81.5 223.3C83 221.6 84.9 220.1 87 219.1C89.2 218 91.7 217.4 94.5 217.4C97.8 217.4 100.7 218.2 103 219.7C105.4 221.2 107.2 223.2 108.3 225.6L108.6 226.2L104.6 228.7L104.2 228C103.7 226.9 103 226 102.3 225.3C101.5 224.5 100.7 223.9 99.9 223.5C99 223 98.1 222.7 97.2 222.5C96.2 222.3 95.3 222.2 94.4 222.2C92.4 222.2 90.6 222.6 89.1 223.4C87.6 224.2 86.2 225.3 85.2 226.6C84.2 227.9 83.4 229.4 82.8 231.1C82.3 232.8 82 234.5 82 236.2C82 238.1 82.3 239.9 83 241.6C83.7 243.3 84.6 244.9 85.7 246.2C86.8 247.5 88.2 248.5 89.7 249.3C92 250.4 94.7 250.7 97.5 250.1C98.5 249.9 99.4 249.5 100.4 249C101.3 248.5 102.2 247.8 103 247.1C103.8 246.3 104.4 245.4 104.9 244.3L105.2 243.6L109.4 245.8L109.1 246.4C108.5 247.8 107.6 249.1 106.5 250.2C105.4 251.3 104.2 252.1 102.9 252.9C101.6 253.6 100.2 254.2 98.7 254.6C97.2 254.7 95.7 254.9 94.3 254.9Z" fill="white"/>
<path d="M125.7 255.1C123.7 255.1 121.9 254.7 120.2 254C118.5 253.2 117.1 252.2 115.9 250.9C114.7 249.6 113.8 248.1 113.1 246.4C112.4 244.7 112.1 242.9 112.1 241C112.1 239.1 112.4 237.2 113.1 235.5C113.8 233.8 114.8 232.3 115.9 231C117.1 229.7 118.6 228.6 120.2 227.9C121.9 227.1 123.7 226.7 125.7 226.7C127.7 226.7 129.5 227.1 131.2 227.9C132.9 228.7 134.3 229.7 135.5 231C136.7 232.3 137.7 233.8 138.3 235.5C139 237.2 139.4 239 139.4 241C139.4 242.9 139.1 244.7 138.4 246.4C137.7 248.1 136.8 249.6 135.5 250.9C134.3 252.2 132.9 253.2 131.2 254C129.6 254.7 127.7 255.1 125.7 255.1ZM125.7 231.1C124.5 231.1 123.4 231.4 122.4 231.9C121.3 232.4 120.4 233.1 119.6 234C118.8 234.9 118.2 236 117.7 237.2C117.2 238.4 117 239.7 117 241C117 242.4 117.2 243.7 117.7 244.8C118.2 245.9 118.8 247 119.6 247.9C120.4 248.7 121.3 249.4 122.4 249.9C124.5 250.9 127.1 250.9 129.1 249.9C130.2 249.4 131.1 248.7 131.9 247.8C132.7 246.9 133.3 245.9 133.8 244.7C134.3 243.5 134.5 242.2 134.5 240.9C134.5 239.6 134.3 238.3 133.8 237.1C133.3 235.9 132.7 234.8 131.9 234C131.1 233.1 130.2 232.4 129.1 231.9C128 231.4 126.9 231.1 125.7 231.1Z" fill="white"/>
<path d="M183.8 254.6H178.9V239.3C178.9 236.4 178.5 234.3 177.6 233C176.8 231.8 175.6 231.2 173.9 231.2C173 231.2 172.1 231.4 171.3 231.7C170.5 232 169.8 232.5 169.1 233.1C168.4 233.7 167.8 234.5 167.3 235.3C166.8 236.1 166.4 237 166.1 238V254.5H161.2V239.3C161.2 236.4 160.8 234.2 159.9 233C159.1 231.8 157.9 231.2 156.2 231.2C154.4 231.2 152.9 231.8 151.4 233.1C150 234.3 149 236 148.4 238.1V254.7H143.5V227.1H148.1V231.2C149 230.1 150 229.2 151.1 228.4C152.9 227.2 155 226.6 157.3 226.6C159.7 226.6 161.6 227.3 163.1 228.7C164.1 229.6 164.9 230.8 165.3 232.2C167.8 228.5 171 226.7 175.1 226.7C176.7 226.7 178 227 179.2 227.6C180.3 228.2 181.3 229.1 181.9 230.2C182.6 231.2 183.1 232.5 183.3 234C183.6 235.4 183.8 237 183.8 238.7V254.6Z" fill="white"/>
<path d="M229.8 254.6H224.9V239.3C224.9 236.4 224.5 234.3 223.6 233C222.8 231.8 221.6 231.2 219.9 231.2C219 231.2 218.1 231.4 217.3 231.7C216.5 232 215.8 232.5 215.1 233.1C214.4 233.7 213.8 234.5 213.3 235.3C212.8 236.1 212.4 237 212.1 238V254.5H207.2V239.3C207.2 236.4 206.8 234.2 205.9 233C205.1 231.8 203.9 231.2 202.2 231.2C200.4 231.2 198.9 231.8 197.4 233.1C196 234.3 195 236 194.4 238.1V254.7H189.5V227.1H194.1V231.2C195 230.1 196 229.2 197.1 228.4C198.9 227.2 201 226.6 203.3 226.6C205.7 226.6 207.6 227.3 209.1 228.7C210.1 229.6 210.9 230.8 211.3 232.2C213.8 228.5 217 226.7 221.1 226.7C222.7 226.7 224 227 225.2 227.6C226.3 228.2 227.3 229.1 227.9 230.2C228.6 231.2 229.1 232.5 229.3 234C229.6 235.4 229.8 237 229.8 238.7V254.6Z" fill="white"/>
<path d="M247.3 255.1C245.3 255.1 243.5 254.7 241.8 254C240.1 253.2 238.7 252.2 237.5 250.9C236.3 249.6 235.4 248.1 234.7 246.4C234 244.7 233.7 242.9 233.7 241C233.7 239.1 234 237.2 234.7 235.5C235.4 233.8 236.4 232.3 237.5 231C238.7 229.7 240.2 228.6 241.8 227.9C243.5 227.1 245.3 226.7 247.3 226.7C249.3 226.7 251.1 227.1 252.8 227.9C254.5 228.7 255.9 229.7 257.1 231C258.3 232.3 259.3 233.8 259.9 235.5C260.6 237.2 261 239 261 241C261 242.9 260.7 244.7 260 246.4C259.3 248.1 258.4 249.6 257.1 250.9C255.9 252.2 254.5 253.2 252.8 254C251.2 254.7 249.3 255.1 247.3 255.1ZM247.3 231.1C246.1 231.1 245 231.4 244 231.9C242.9 232.4 242 233.1 241.2 234C240.4 234.9 239.8 236 239.3 237.2C238.8 238.4 238.6 239.7 238.6 241C238.6 242.4 238.8 243.7 239.3 244.8C239.8 245.9 240.4 247 241.2 247.9C242 248.7 242.9 249.4 244 249.9C246.1 250.9 248.7 250.9 250.7 249.9C251.8 249.4 252.7 248.7 253.5 247.8C254.3 246.9 254.9 245.9 255.4 244.7C255.9 243.5 256.1 242.2 256.1 240.9C256.1 239.6 255.9 238.3 255.4 237.1C254.9 235.9 254.3 234.8 253.5 234C252.7 233.1 251.8 232.4 250.7 231.9C249.6 231.4 248.5 231.1 247.3 231.1Z" fill="white"/>
<path d="M288.6 254.6H283.7V239.3C283.7 236.4 283.3 234.2 282.4 233C281.6 231.8 280.5 231.2 278.8 231.2C277.9 231.2 277 231.4 276.1 231.7C275.2 232 274.3 232.5 273.5 233.1C272.7 233.7 272 234.5 271.4 235.3C270.8 236.1 270.4 237 270.1 237.9V254.5H265.2V227.1H269.8V231.4C270.7 230.3 271.9 229.3 273.2 228.5C275.3 227.3 277.6 226.6 280.1 226.6C281.7 226.6 283 226.9 284.1 227.5C285.2 228.1 286.1 228.9 286.8 230C287.4 231 287.9 232.3 288.2 233.8C288.5 235.2 288.6 236.9 288.6 238.6V254.6Z" fill="white"/>
<path d="M303.8 255.1C301.7 255.1 299.6 254.7 297.6 254.1C295.6 253.4 293.8 252.4 292.3 251L291.8 250.6L294.2 247.1L294.8 247.6C296.2 248.7 297.6 249.6 299.1 250.2C300.5 250.8 302.1 251 303.7 251C305.6 251 307.2 250.6 308.3 249.9C309.4 249.2 309.9 248.2 309.9 246.9C309.9 246.3 309.8 245.9 309.5 245.5C309.2 245.1 308.8 244.7 308.2 244.4C307.6 244.1 306.9 243.8 305.9 243.5C304.9 243.2 303.8 242.9 302.5 242.6C301 242.2 299.6 241.9 298.5 241.5C297.3 241.1 296.4 240.7 295.6 240.2C294.8 239.7 294.2 239 293.7 238.2C293.3 237.4 293.1 236.4 293.1 235.2C293.1 233.8 293.4 232.5 293.9 231.4C294.5 230.3 295.3 229.4 296.2 228.7C297.2 228 298.3 227.4 299.5 227.1C300.8 226.7 302.1 226.6 303.5 226.6C305.6 226.6 307.5 227 309.2 227.7C310.9 228.4 312.3 229.3 313.4 230.4L313.9 230.9L311.3 234.1L310.7 233.5C309.8 232.6 308.7 231.9 307.4 231.4C306.1 230.9 304.8 230.7 303.4 230.7C302.6 230.7 301.8 230.8 301.1 231C300.4 231.2 299.8 231.4 299.3 231.7C298.8 232 298.5 232.4 298.2 233C297.9 233.5 297.8 234.1 297.8 234.8C297.8 235.4 297.9 235.8 298.1 236.1C298.3 236.4 298.6 236.7 299 237C299.5 237.3 300.1 237.5 300.8 237.8C301.6 238 302.6 238.3 303.7 238.5C305.4 238.9 306.9 239.3 308.2 239.7C309.5 240.1 310.6 240.6 311.5 241.2C312.5 241.8 313.2 242.5 313.7 243.4C314.2 244.3 314.4 245.3 314.4 246.6C314.4 249.2 313.4 251.4 311.4 252.9C309.7 254.4 307 255.1 303.8 255.1Z" fill="white"/>
<path d="M197.5 304.2C191.8 304.2 186.9 302.4 182.8 298.9L182.3 298.5L184.9 294.3L185.6 295C186.2 295.6 186.9 296.2 187.7 296.8C188.5 297.4 189.5 297.9 190.5 298.3C191.5 298.7 192.7 299 193.9 299.3C195.1 299.5 196.3 299.6 197.6 299.6C200.3 299.6 202.4 299.1 203.8 298.2C205.2 297.3 205.9 296 205.9 294.2C205.9 293.3 205.7 292.5 205.3 291.9C204.9 291.2 204.3 290.7 203.6 290.2C202.7 289.7 201.7 289.2 200.4 288.8C199.1 288.4 197.5 288 195.8 287.6C193.9 287.2 192.2 286.7 190.8 286.2C189.3 285.7 188.1 285.1 187 284.4C185.9 283.6 185.1 282.7 184.6 281.7C184.1 280.6 183.8 279.3 183.8 277.8C183.8 276.1 184.1 274.5 184.8 273.2C185.5 271.8 186.5 270.7 187.7 269.8C188.9 268.9 190.3 268.2 191.9 267.8C193.5 267.3 195.3 267.1 197.2 267.1C199.7 267.1 201.9 267.5 203.8 268.2C205.7 268.9 207.5 270 209.1 271.3L209.6 271.7L207 275.9L206.3 275.1C205.4 274.1 204.1 273.2 202.6 272.6C201 272 199.2 271.6 197.2 271.6C194.3 271.6 192.1 272.1 190.8 273.2C189.5 274.2 188.9 275.6 188.9 277.4C188.9 278.3 189.1 279.1 189.4 279.7C189.7 280.2 190.2 280.7 190.9 281.1C191.6 281.6 192.6 282 193.8 282.3C195 282.7 196.5 283 198.2 283.4C200.1 283.8 201.9 284.3 203.4 284.8C205 285.3 206.4 286 207.5 286.8C208.6 287.6 209.6 288.6 210.2 289.7C210.8 290.9 211.1 292.3 211.1 294C211.1 295.7 210.8 297.3 210.1 298.5C209.4 299.8 208.4 300.9 207.2 301.7C206 302.5 204.6 303.2 202.9 303.6C201.2 304 199.4 304.2 197.5 304.2Z" fill="white"/>
<path d="M222.1 304.2C221.3 304.2 220.5 304.1 219.8 303.9C219 303.7 218.4 303.3 217.8 302.9C217.2 302.4 216.7 301.8 216.4 301.1C216.1 300.4 215.9 299.5 215.9 298.6V280.9H212.3V276.8H215.9V268H220.8V276.7H226.8V280.8H220.8V297.5C220.8 298.2 221.1 298.7 221.5 299C222 299.3 222.5 299.5 223.2 299.5C224.1 299.5 224.8 299.4 225.5 299.1C226.4 298.7 226.7 298.5 226.8 298.5L227.6 298L229 302.2L228.4 302.5C228.2 302.6 227.9 302.7 227.5 302.9C227.1 303.1 226.7 303.2 226.1 303.4C225.6 303.6 225 303.7 224.3 303.9C223.5 304.2 222.8 304.2 222.1 304.2Z" fill="white"/>
<path d="M240.8 304.4C239.5 304.4 238.2 304.2 237.1 303.8C236 303.3 235 302.7 234.1 301.9C233.3 301.1 232.6 300.2 232.1 299.1C231.6 298 231.4 296.9 231.4 295.6C231.4 294.4 231.7 293.2 232.3 292.1C232.9 291.1 233.7 290.1 234.8 289.4C235.8 288.7 237.1 288.1 238.5 287.7C241 287 244.2 286.9 247.3 287.4C248.3 287.6 249.2 287.8 250.1 288.1V287C250.1 284.9 249.5 283.3 248.4 282.1C247.2 280.9 245.6 280.3 243.5 280.3C242.3 280.3 241 280.5 239.7 281C238.4 281.5 237 282.2 235.6 283.2L234.9 283.7L233 280.2L233.6 279.8C237.1 277.5 240.5 276.3 243.8 276.3C247.3 276.3 250 277.3 252 279.2C254 281.1 255 283.8 255 287.2V298.8C255 299.4 255.2 299.4 255.5 299.4H256.3V303.7L255.7 303.8C255.1 303.9 254.6 304 254.3 304C253.3 304 252.4 303.7 251.8 303.2C251.2 302.6 250.8 301.9 250.8 300.9V300.7C249.8 301.7 248.6 302.5 247.2 303.1C245 304 243 304.4 240.8 304.4ZM243.5 290.8C241.3 290.8 239.4 291.3 238.1 292.2C236.8 293 236.2 294.1 236.2 295.5C236.2 296.2 236.3 296.8 236.6 297.4C236.9 298 237.3 298.5 237.7 299C238.2 299.4 238.8 299.8 239.4 300C240.1 300.3 240.8 300.4 241.6 300.4C243.3 300.4 244.8 300.1 246.1 299.5C247.5 298.9 248.5 298.1 249.2 297.1L249.3 297C249.5 296.8 249.7 296.5 249.8 296.3C249.9 296 250 295.8 250 295.6V291.9C249.1 291.6 248.1 291.3 247.1 291.1C245.9 290.9 244.7 290.8 243.5 290.8Z" fill="white"/>
<path d="M273.8 304.4C271.8 304.4 269.9 304 268.2 303.3C266.5 302.5 265 301.5 263.8 300.2C262.6 298.9 261.6 297.4 260.9 295.7C260.2 294 259.9 292.2 259.9 290.2C259.9 288.3 260.2 286.5 260.9 284.8C261.6 283.1 262.5 281.6 263.7 280.4C264.9 279.1 266.4 278.1 268.1 277.4C269.8 276.7 271.7 276.3 273.7 276.3C276.3 276.3 278.6 276.9 280.5 278.1C282.4 279.2 283.9 280.8 284.9 282.8L285.3 283.6L280.6 285.1L280.3 284.6C279.6 283.4 278.7 282.5 277.5 281.8C276.3 281.1 275 280.8 273.5 280.8C272.3 280.8 271.1 281 270.1 281.5C269.1 282 268.1 282.7 267.3 283.5C266.5 284.3 265.9 285.3 265.4 286.5C265 287.6 264.8 288.9 264.8 290.3C264.8 291.6 265 292.9 265.5 294.1C266 295.3 266.6 296.3 267.4 297.2C268.2 298 269.1 298.7 270.2 299.3C271.9 300.1 273.9 300.2 275.8 299.7C276.6 299.5 277.3 299.2 277.9 298.8C278.5 298.4 279.1 298 279.5 297.5C279.9 297.1 280.2 296.6 280.4 296.1L280.6 295.4L285.4 296.8L285.1 297.5C284.7 298.5 284.1 299.4 283.4 300.3C282.6 301.1 281.8 301.8 280.7 302.5C279.7 303.1 278.6 303.6 277.3 303.9C276.3 304.2 275.1 304.4 273.8 304.4Z" fill="white"/>
<path d="M313.7 303.9H308.2L298.9 291.1L294.2 295.4V303.9H289.3V266.4H294.2V289.9L307.8 276.8H313.8L302.3 288.1L313.7 303.9Z" fill="white"/>
<defs>
<linearGradient id="paint0_linear" x1="265.49" y1="78.4693" x2="265.49" y2="174.134" gradientUnits="userSpaceOnUse">
<stop stop-color="#67DE69"/>
<stop offset="1" stop-color="#0047B0"/>
</linearGradient>
<linearGradient id="paint1_linear" x1="265.49" y1="78.469" x2="265.49" y2="174.134" gradientUnits="userSpaceOnUse">
<stop stop-color="#67DE69"/>
<stop offset="1" stop-color="#0047B0"/>
</linearGradient>
<linearGradient id="paint2_linear" x1="237.815" y1="96.4146" x2="237.815" y2="183.471" gradientUnits="userSpaceOnUse">
<stop stop-color="#67DE69"/>
<stop offset="1" stop-color="#0047B0"/>
</linearGradient>
<linearGradient id="paint3_linear" x1="216.655" y1="127.245" x2="216.655" y2="193.558" gradientUnits="userSpaceOnUse">
<stop stop-color="#67DE69"/>
<stop offset="1" stop-color="#0047B0"/>
</linearGradient>
<linearGradient id="paint4_linear" x1="284.171" y1="54.5868" x2="284.171" y2="108.297" gradientUnits="userSpaceOnUse">
<stop stop-color="#67DE69"/>
<stop offset="1" stop-color="#0047B0"/>
</linearGradient>
<linearGradient id="paint5_linear" x1="283.252" y1="80.0605" x2="283.252" y2="209.758" gradientUnits="userSpaceOnUse">
<stop stop-color="#67DE69"/>
<stop offset="1" stop-color="#0047B0"/>
</linearGradient>
<linearGradient id="paint6_linear" x1="251.941" y1="81.5639" x2="251.941" y2="206.563" gradientUnits="userSpaceOnUse">
<stop stop-color="#67DE69"/>
<stop offset="1" stop-color="#0047B0"/>
</linearGradient>
<linearGradient id="paint7_linear" x1="225.332" y1="89.2963" x2="225.332" y2="203.773" gradientUnits="userSpaceOnUse">
<stop stop-color="#67DE69"/>
<stop offset="1" stop-color="#0047B0"/>
</linearGradient>
<linearGradient id="paint8_linear" x1="212.864" y1="133.887" x2="212.864" y2="209.901" gradientUnits="userSpaceOnUse">
<stop stop-color="#67DE69"/>
<stop offset="1" stop-color="#0047B0"/>
</linearGradient>
<linearGradient id="paint9_linear" x1="288.407" y1="50.0154" x2="289.771" y2="98.6776" gradientUnits="userSpaceOnUse">
<stop stop-color="#67DE69"/>
<stop offset="1" stop-color="#0047B0"/>
</linearGradient>
</defs>
</svg>
