<svg width="80" height="80" viewBox="0 0 80 80" fill="none" xmlns="http://www.w3.org/2000/svg">
<path d="M33.3148 34.8271C32.8837 34.6851 32.4278 34.6342 31.976 34.6776C31.5242 34.721 31.0864 34.8578 30.6902 35.0792L1.57278 51.9175C1.55498 51.9175 1.55498 51.9353 1.53719 51.9353C0.063225 52.833 -0.40437 54.5204 0.368694 56.118C1.33947 58.0931 4.754 59.9596 8.87042 60.7672C10.3687 61.0579 11.8917 61.2022 13.4178 61.1983C16.689 61.1983 20.7145 60.5517 25.1908 58.4698C28.6597 56.8545 31.9486 53.3351 33.997 49.0447C36.154 44.521 36.585 39.9795 35.1654 36.5512C34.8422 35.7435 34.1591 35.1148 33.3139 34.8271H33.3148ZM78.4639 51.9531C78.4461 51.9531 78.4461 51.9353 78.4283 51.9353L49.3099 35.097C48.9173 34.8665 48.4791 34.7245 48.026 34.681C47.5728 34.6374 47.1156 34.6934 46.6863 34.8449C45.841 35.1326 45.1579 35.7613 44.8347 36.569C43.4141 39.9973 43.8461 44.5566 46.0032 49.0625C48.0515 53.3529 51.3415 56.8723 54.8094 58.4876C59.2678 60.5695 63.2933 61.216 66.5833 61.216C68.1095 61.2203 69.6325 61.0759 71.1307 60.785C75.2461 59.9952 78.6607 58.1287 79.6324 56.1358C80.4035 54.5382 79.9369 52.8685 78.4629 51.9541L78.4639 51.9531Z" fill="#7CE0D6"/>
<path d="M37.197 20.4838C36.8254 20.4835 36.469 20.3359 36.2061 20.0734C35.9431 19.8108 35.795 19.4546 35.7942 19.083C35.7942 15.619 32.9728 12.8006 29.5039 12.8006C29.1325 12.8001 28.7764 12.6524 28.5136 12.3898C28.2509 12.1273 28.1029 11.7713 28.1021 11.3998C28.1021 10.6287 28.7308 10 29.5039 10C34.518 10 38.58 14.0749 38.58 19.0652C38.5852 19.25 38.5532 19.4339 38.4859 19.6061C38.4186 19.7783 38.3174 19.9352 38.1883 20.0675C38.0592 20.1998 37.9049 20.3048 37.7344 20.3764C37.5639 20.4479 37.3808 20.4844 37.196 20.4838H37.197ZM42.9841 20.4838C42.6128 20.4833 42.2569 20.3357 41.9941 20.0734C41.7314 19.811 41.5833 19.4553 41.5823 19.084C41.5823 14.0927 45.6621 10.0188 50.6772 10.0188C51.0484 10.0193 51.4044 10.1669 51.6671 10.4292C51.9298 10.6916 52.0779 11.0473 52.079 11.4186C52.0779 11.7899 51.9298 12.1456 51.6671 12.408C51.4044 12.6703 51.0484 12.8179 50.6772 12.8184C47.2073 12.8184 44.3859 15.6368 44.3859 19.1018C44.3784 19.4694 44.2277 19.8196 43.9659 20.0777C43.704 20.3359 43.3518 20.4816 42.9841 20.4838ZM53.7328 58.7386H23.6446L37.3225 66.6195C38.149 67.1039 39.0842 67.3372 40.0184 67.3372C40.9536 67.3372 41.8878 67.1039 42.7142 66.6195L56.3921 58.7386H53.7328ZM57.956 41.3437H20.6611V50.3733H59.3578V41.3437H57.956Z" fill="#2C3437"/>
<path d="M56.6622 33.1582L56.3211 32.9604H23.6982L23.3572 33.1582C22.5414 33.6307 21.8633 34.3084 21.3904 35.1239C20.9175 35.9395 20.6662 36.8647 20.6613 37.8074V41.3435H59.3936V37.8084C59.3718 36.8649 59.1094 35.9426 58.6312 35.1289C58.153 34.3153 57.4749 33.6373 56.6612 33.1592L56.6622 33.1582ZM57.9562 50.3732H20.6436V53.9281C20.6446 54.8716 20.8943 55.7982 21.3676 56.6144C21.8409 57.4307 22.521 58.1077 23.3394 58.5773L23.6261 58.7385H56.3567L56.6632 58.5595C57.4752 58.0843 58.1492 57.4055 58.6187 56.5902C59.0882 55.7748 59.3369 54.8511 59.3402 53.9103V50.3554H57.9562V50.3732Z" fill="#FFDD0F"/>
<path d="M42.6964 25.1153C41.881 24.6391 40.9537 24.3882 40.0094 24.3882C39.0652 24.3882 38.1379 24.6391 37.3225 25.1153L23.698 32.9784H56.3387L42.6964 25.1153Z" fill="#2C3437"/>
</svg>
