<svg width="1959" height="1685" viewBox="0 0 1959 1685" fill="none" xmlns="http://www.w3.org/2000/svg">
<path fill-rule="evenodd" clip-rule="evenodd" d="M490.399 10.4079C492.464 6.84266 496.284 4.64665 500.417 4.64814L1462.84 4.99296C1463.96 4.99332 1465 5.59165 1465.57 6.56275L1947.08 837.093C1949.15 840.653 1949.15 845.04 1947.08 848.602L1466.17 1678.78C1465.61 1679.76 1464.56 1680.36 1463.44 1680.36L501.012 1680.01C496.883 1680.01 493.068 1677.81 491.004 1674.25L9.48978 843.724C8.92677 842.753 8.92656 841.556 9.48922 840.585L490.399 10.4079ZM500.415 10.9276C498.536 10.927 496.8 11.9251 495.861 13.5457L17.6778 839.016L977.677 839.36L1457.38 11.2705L500.415 10.9276ZM1462.84 14.4141L983.138 842.5L1463.44 1670.93L1941.62 845.464C1942.56 843.845 1942.56 841.851 1941.62 840.232L1462.84 14.4141ZM1457.98 1674.07L977.677 845.64L17.6824 845.296L496.465 1671.11C497.403 1672.73 499.137 1673.73 501.014 1673.73L1457.98 1674.07ZM525.78 54.6781C523.901 54.6775 522.165 55.6757 521.226 57.2962L98.2543 787.458C96.2338 790.945 98.7607 795.304 102.804 795.305L137.579 795.318L543.578 93.707C544.142 92.7335 545.184 92.1339 546.313 92.1349L823.434 92.3617C827.561 92.365 831.373 94.5588 833.436 98.1178L853.926 133.458C855.99 137.019 855.991 141.406 853.928 144.967L476.817 795.956C474.752 799.521 470.932 801.717 466.799 801.715L102.802 801.585C93.9062 801.582 88.3471 791.993 92.7922 784.32L515.764 54.1584C517.83 50.5932 521.649 48.3972 525.782 48.3987L844.214 48.5128C848.343 48.5143 852.157 50.7083 854.222 54.269L901.645 136.066L1028.41 136.135L987.649 65.8364C983.198 58.1598 988.764 48.5646 997.665 48.5678L1372.25 48.7017C1381.15 48.705 1386.71 58.2934 1382.26 65.9668L1207.73 367.26C1205.66 370.826 1201.84 373.022 1197.71 373.02L902.166 372.914L883.62 404.929C881.599 408.417 884.126 412.775 888.17 412.777L1161.29 412.875C1170.19 412.878 1175.75 422.467 1171.3 430.14L956.864 800.319C956.301 801.291 955.259 801.89 954.132 801.89L532.407 801.739C523.511 801.736 517.952 792.147 522.397 784.474L896.184 139.205L848.761 57.4088C847.822 55.7903 846.089 54.793 844.212 54.7923L525.78 54.6781ZM901.644 142.345L527.859 787.612C525.838 791.099 528.365 795.458 532.409 795.459L650.087 795.501L770.812 587.099L798.863 534.258C799.4 533.247 800.446 532.607 801.594 532.586L859.315 531.559L859.36 531.558L1105.78 530.69L1165.84 427.002C1167.86 423.514 1165.34 419.156 1161.29 419.154L888.167 419.056C879.272 419.053 873.713 409.465 878.158 401.791L1028.41 142.414L901.644 142.345ZM1102.13 536.983L864.821 537.819L983.283 742.146L1102.13 536.983ZM979.644 748.428L857.57 537.87L807.056 538.77L954.132 792.469L979.644 748.428ZM948.671 795.608L801.772 542.215L777.174 588.55L897.209 795.59L948.671 795.608ZM889.926 795.587L773.573 594.898L657.365 795.504L889.926 795.587ZM905.802 366.636L1197.71 366.741C1199.59 366.741 1201.33 365.743 1202.27 364.123L1355.8 99.0767L1014.04 98.7971L1036.6 137.708C1037.16 138.679 1037.16 139.875 1036.6 140.846L905.802 366.636ZM1010.4 92.5146L1359.44 92.8001L1376.8 62.829C1378.82 59.3411 1376.3 54.9827 1372.25 54.9813L997.663 54.8472C993.617 54.8458 991.087 59.2073 993.11 62.6966L1010.4 92.5146ZM144.855 795.32L466.801 795.436C468.68 795.436 470.416 794.438 471.355 792.818L679.752 433.072L516.96 152.284L144.855 795.32ZM520.597 145.998L683.391 426.79L709.115 382.384L546.312 101.559L520.597 145.998ZM551.773 98.4188L712.754 376.102L738.257 332.077L602.814 98.4606L551.773 98.4188ZM610.099 98.4666L741.896 325.795L848.466 141.829C849.403 140.21 849.403 138.217 848.465 136.598L827.975 101.258C827.037 99.6398 825.305 98.6427 823.429 98.6411L610.099 98.4666ZM102.805 889.095C98.7588 889.093 96.2291 893.455 98.2521 896.944L287.622 1223.57C289.645 1227.06 294.702 1227.06 296.724 1223.57L314.709 1192.53L138.796 889.108L102.805 889.095ZM146.079 889.11L318.348 1186.24L341.021 1147.1C341.585 1146.13 342.627 1145.53 343.755 1145.53L618.641 1145.76L471.428 891.842C470.49 890.223 468.756 889.226 466.879 889.225L146.079 889.11ZM625.925 1145.76L476.889 888.702C474.825 885.141 471.01 882.947 466.882 882.946L102.807 882.815C93.9058 882.812 88.3405 892.407 92.7911 900.084L282.161 1226.71C286.611 1234.39 297.738 1234.39 302.186 1226.71L343.754 1154.95L410.534 1270.14L359.866 1357.6C359.303 1358.58 359.304 1359.77 359.867 1360.74L518.717 1634.73C519.28 1635.7 520.32 1636.3 521.446 1636.3L1372.82 1636.61C1381.72 1636.61 1387.29 1627.02 1382.84 1619.34L1364.2 1587.2L1364.21 1585.3L1363.1 1585.29L1208.08 1317.91C1206.01 1314.35 1202.2 1312.16 1198.08 1312.15L445.629 1311.54C441.493 1311.54 437.671 1313.73 435.605 1317.3L413.156 1356.05L368.055 1356.04L415.994 1273.28L1162.52 1273.89C1171.43 1273.9 1177 1264.3 1172.54 1256.62L956.911 884.69C956.348 883.719 955.307 883.121 954.181 883.12L532.501 882.969C523.6 882.966 518.035 892.561 522.485 900.238L660.297 1137.94C662.32 1141.43 659.789 1145.79 655.742 1145.79L625.925 1145.76ZM415.995 1267L1162.53 1267.61C1166.58 1267.61 1169.11 1263.25 1167.08 1259.76L1104.86 1152.44L804.399 1152.19C803.274 1152.19 802.234 1151.59 801.671 1150.62L774.811 1104.29L773.833 1103.73L774.159 1103.17L650.161 889.291L532.499 889.249C528.453 889.247 525.923 893.609 527.946 897.098L665.758 1134.8C670.209 1142.48 664.64 1152.07 655.736 1152.07L349.216 1151.82L415.995 1267ZM657.444 889.293L777.798 1096.88L898.02 889.38L657.444 889.293ZM905.299 889.382L781.44 1103.16L804.378 1142.73L948.767 889.398L905.299 889.382ZM954.204 892.58L809.814 1145.91L850.798 1145.95L975.905 930.011L954.204 892.58ZM979.546 936.292L858.075 1145.95L1101.22 1146.15L979.546 936.292ZM368.059 1362.32L521.446 1626.88L544.218 1587.58C543.496 1586.87 542.863 1586.05 542.341 1585.15L413.156 1362.33L368.059 1362.32ZM418.617 1359.19L522.257 1537.95L649.699 1317.99L445.623 1317.82C443.744 1317.82 442.006 1318.81 441.067 1320.44L418.617 1359.19ZM656.976 1317.99L525.898 1544.23L547.622 1581.7L700.388 1318.03L656.976 1317.99ZM707.664 1318.03L553.205 1584.63L596.617 1584.67L751.077 1318.07L707.664 1318.03ZM758.353 1318.07L603.894 1584.67L1355.81 1585.29L1202.62 1321.05C1201.68 1319.43 1199.95 1318.44 1198.07 1318.43L758.353 1318.07ZM1359.46 1591.57L552.344 1590.91C551.456 1590.91 550.584 1590.81 549.74 1590.61L526.905 1630.03L1372.82 1630.33C1376.87 1630.33 1379.4 1625.97 1377.38 1622.48L1359.46 1591.57ZM1452.86 106.613C1457.3 98.9353 1468.43 98.9333 1472.88 106.61L1898.81 841.259C1899.37 842.23 1899.37 843.427 1898.81 844.398L1739.87 1118.76C1739.31 1119.73 1738.27 1120.33 1737.14 1120.33L1634.82 1120.25L1570.33 1231.58L1654.48 1231.65C1663.37 1231.65 1668.92 1241.24 1664.48 1248.91L1473.39 1578.79C1468.94 1586.47 1457.81 1586.47 1453.36 1578.79L1278.63 1277.42C1276.57 1273.86 1276.57 1269.47 1278.63 1265.91L1428.91 1006.48L1411.28 976.082C1409.26 972.593 1404.2 972.594 1402.18 976.083L1263.13 1216.13C1258.68 1223.81 1247.55 1223.81 1243.1 1216.13L1027.44 844.143C1026.87 843.172 1026.87 841.975 1027.43 841.004L1241.9 470.786C1246.34 463.108 1257.47 463.106 1261.92 470.783L1634.82 1113.97L1731.68 1114.05L1709.08 1075.06L1665.1 1075.03C1660.98 1075.02 1657.16 1072.83 1655.1 1069.27L1278.33 419.405C1276.27 415.845 1276.26 411.458 1278.33 407.897L1452.86 106.613ZM1714.54 1071.92L1737.14 1110.91L1890.62 845.967L1844.97 845.954C1844.71 846.769 1844.37 847.564 1843.93 848.321L1714.54 1071.92ZM1845.1 839.674L1890.62 839.688L1467.42 109.75C1465.4 106.26 1460.34 106.261 1458.32 109.751L1440.37 140.743L1843.93 836.817C1844.45 837.725 1844.84 838.686 1845.1 839.674ZM1436.73 147.026L1283.79 411.034C1282.85 412.653 1282.85 414.647 1283.79 416.266L1503.85 795.83L1812.94 795.922L1436.73 147.026ZM1816.58 802.202L1838.3 839.672L1529.21 839.581L1507.49 802.111L1816.58 802.202ZM1532.86 845.861L1838.02 845.952L1816.35 883.409L1554.58 883.331L1532.86 845.861ZM1558.22 889.612L1660.56 1066.13C1661.5 1067.75 1663.23 1068.75 1665.11 1068.75L1709.08 1068.78L1812.72 889.687L1558.22 889.612ZM1629.36 1117.11L1256.46 473.923C1254.44 470.433 1249.38 470.434 1247.36 473.924L1187.42 577.395L1339.04 838.913C1339.6 839.884 1339.6 841.08 1339.04 842.051L1186.34 1105.66L1248.56 1212.99C1250.59 1216.48 1255.64 1216.48 1257.67 1212.99L1396.72 972.946C1401.17 965.268 1412.29 965.266 1416.75 972.942L1564.87 1228.43L1629.36 1117.11ZM1182.69 1099.38L1304.25 889.537L1060.99 889.465L1182.69 1099.38ZM1057.35 883.184L1307.89 883.258L1330.83 843.66L1035.61 845.676L1057.35 883.184ZM1035.65 839.396L1330.87 837.38L1310.39 802.053L1057.32 801.977L1035.65 839.396ZM1060.96 795.699L1306.75 795.772L1183.78 583.677L1060.96 795.699ZM1432.55 1012.77L1284.09 1269.04C1283.16 1270.66 1283.16 1272.66 1284.09 1274.28L1437.28 1538.49L1611.22 1237.89L1564.87 1237.85C1563.74 1237.85 1562.7 1237.25 1562.14 1236.28L1432.55 1012.77ZM1618.5 1237.9L1440.92 1544.77L1458.82 1575.65C1460.84 1579.14 1465.9 1579.14 1467.92 1575.65L1659.02 1245.77C1661.04 1242.29 1658.51 1237.93 1654.47 1237.93L1618.5 1237.9Z" fill="url(#paint0_linear)"/>
<defs>
<linearGradient id="paint0_linear" x1="758.488" y1="2071.74" x2="2199.28" y2="1236.42" gradientUnits="userSpaceOnUse">
<stop stop-color="#16ABF9"/>
<stop offset="1" stop-color="#89F7FE"/>
</linearGradient>
</defs>
</svg>
