<svg width="80" height="80" viewBox="0 0 80 80" fill="none" xmlns="http://www.w3.org/2000/svg">
<path d="M26.4794 67.9333C20.6378 67.9333 15.3672 64.4196 13.1272 59.0173C10.8872 53.6149 12.117 47.4 16.2676 43.2714L16.3774 43.1616L35.5053 24.0337L38.6237 27.1521L19.408 46.3898C16.7947 48.9153 15.7405 52.6486 16.6629 56.1624C17.5853 59.6761 20.3304 62.4212 23.8441 63.3435C27.3578 64.2659 31.0911 63.2118 33.6166 60.6204C33.6606 60.5765 35.4614 58.7757 35.4614 58.7757L38.5798 61.8941L36.7351 63.7608C33.99 66.4181 30.3225 67.9333 26.4794 67.9333Z" fill="#E65125"/>
<path d="M52.8331 38.5718L33.5954 19.3341C31.048 16.8086 27.3586 15.8204 23.8887 16.7427C20.4189 17.6651 17.7178 20.3882 16.7734 23.8361C15.8511 27.3059 16.8393 30.9953 19.3648 33.5427L21.2095 35.3874L18.0911 38.5059L16.2464 36.6612C12.6009 33.0157 11.1734 27.6792 12.513 22.6941C13.8527 17.709 17.7397 13.8 22.7248 12.4823C27.7099 11.1647 33.0464 12.5702 36.6919 16.2157L36.8017 16.3255L55.9515 35.4533L52.8331 38.5718Z" fill="#F9BA16"/>
<path d="M44.5535 55.9652L41.4351 52.8687L60.6727 33.6311C64.4939 29.7001 64.428 23.4193 60.5629 19.5322C56.6759 15.6452 50.417 15.6013 46.4641 19.4224L44.6194 21.2671L41.5009 18.1487L43.3456 16.304C46.9911 12.6585 52.3276 11.2311 57.3127 12.5707C62.2978 13.9103 66.2069 17.7973 67.5245 22.7824C68.8641 27.7675 67.4367 33.104 63.7912 36.7495L44.5535 55.9652Z" fill="#7AC6C0"/>
<path d="M53.5574 67.9998C49.7142 68.0218 46.0468 66.4845 43.3456 63.7614L24.1079 44.5237L27.2263 41.4053L46.464 60.6429C50.395 64.5739 56.7417 64.5739 60.6727 60.6429C64.6036 56.712 64.6036 50.3653 60.6727 46.4343L58.828 44.5896L61.9464 41.4712L63.7911 43.3159C67.9197 47.4445 69.1715 53.6594 66.9315 59.0618C64.6695 64.4641 59.3989 67.9998 53.5574 67.9998Z" fill="#39A9E0"/>
</svg>
