<svg width="108" height="63" viewBox="0 0 108 63" fill="none" xmlns="http://www.w3.org/2000/svg">
<path fill-rule="evenodd" clip-rule="evenodd" d="M86.0869 48.7456C81.8087 48.7456 78.3394 45.2552 78.3394 40.9496C78.3394 36.644 81.8087 33.1536 86.0869 33.1536C90.3657 33.1536 93.8343 36.644 93.8343 40.9496C93.8343 45.2552 90.3657 48.7456 86.0869 48.7456ZM86.0869 18.8999C73.9847 18.8999 64.1738 28.7716 64.1738 40.9496C64.1738 53.1276 73.9847 62.9999 86.0869 62.9999C98.1891 62.9999 108 53.1276 108 40.9496C108 28.7716 98.1891 18.8999 86.0869 18.8999Z" fill="#00D2FF"/>
<path fill-rule="evenodd" clip-rule="evenodd" d="M0 18.8999V62.9999H15.6522V18.8999H15.6175H0Z" fill="#00D2FF"/>
<path fill-rule="evenodd" clip-rule="evenodd" d="M40.6961 29.9247L29.7397 18.8999H18.7827V29.9247L29.7397 40.9496L18.7827 51.9744V62.9999H29.7397L40.6961 51.9744L51.6524 62.9999V62.9993V62.9999H62.6088V51.9744L51.6524 40.9496L62.6088 29.9247V18.8999H51.6524L40.6961 29.9247Z" fill="#00D2FF"/>
<path fill-rule="evenodd" clip-rule="evenodd" d="M7.82609 15.75C3.50385 15.75 0 12.2243 0 7.875C0 3.52575 3.50385 0 7.82609 0C12.1483 0 15.6522 3.52575 15.6522 7.875C15.6522 12.2243 12.1483 15.75 7.82609 15.75Z" fill="#00D2FF"/>
</svg>
