<svg width="1114" height="523" viewBox="0 0 1114 523" fill="none" xmlns="http://www.w3.org/2000/svg">
<path d="M1.99937 261.533C1.99937 256.97 2.2512 252.434 2.74863 247.929M556.863 1.99999C863.306 1.99996 1111.73 118.197 1111.73 261.533M556.863 1.99999L556.863 521.066M556.863 1.99999C545.216 1.99999 533.653 2.16784 522.184 2.49865M556.863 1.99999C568.51 1.99999 580.073 2.16784 591.542 2.49864M522.184 2.49865C556.863 59.5577 517.038 172.371 433.809 209.208C329.772 255.254 215.667 239.591 119.46 228.045C35.5597 217.976 5.12988 233.801 2.74863 247.929M522.184 2.49865C241.503 10.5947 17.2821 116.295 2.74863 247.929M522.184 2.49865C514.353 18.03 499.587 54.7438 503.166 77.3483C507.641 105.604 534.489 139.092 534.489 169.964C534.489 194.661 534.489 263.975 534.489 295.544M522.184 2.49865C494.963 19.4253 460.657 52.2322 503.166 169.964C545.676 287.696 475.2 350.091 264.888 334.788C63.5266 320.137 45.6509 366.183 92.0644 403.334M534.489 295.544C534.489 327.114 522.184 378.883 420.384 403.334C296.211 433.16 146.309 389.73 174.276 449.506M534.489 295.544C534.489 327.114 534.489 372.462 386.824 425.311C257.78 471.495 376.723 507.991 420.384 513.157M534.489 295.544C534.489 327.114 534.489 360.951 433.809 413.799C391.237 436.145 428.549 501.915 478.556 518.501M591.542 2.49864C573.222 32.6416 575.694 78.3442 594.373 120.185M591.542 2.49864C599.373 18.03 614.139 54.7438 610.559 77.3482C608.44 90.7314 601.301 105.288 594.373 120.185M591.542 2.49864C617.666 18.7429 650.314 49.6126 615.332 156.134M594.373 120.185C599.954 132.685 606.981 144.841 615.332 156.134M594.373 120.185C586.675 136.74 579.236 153.714 579.236 169.964L579.236 295.544M615.332 156.134C631.942 178.595 653.791 197.645 679.917 209.208C783.954 255.254 898.059 239.591 994.265 228.045C1078.17 217.976 1108.6 233.801 1110.98 247.928M615.332 156.134C613.862 160.609 612.273 165.217 610.559 169.964C568.05 287.696 638.526 350.09 848.838 334.788C1050.2 320.137 1068.08 366.183 1021.66 403.334M579.236 295.544C579.236 327.114 591.542 378.883 693.342 403.334C817.515 433.16 967.417 389.73 939.45 449.506M579.236 295.544C579.236 327.114 579.237 372.462 726.902 425.311C855.946 471.495 737.003 507.991 693.342 513.157M579.236 295.544C579.236 327.114 579.237 360.951 679.917 413.799C722.489 436.145 685.177 501.915 635.17 518.501" stroke="url(#paint0_linear)" stroke-width="3" stroke-linecap="round" stroke-linejoin="round"/>
<defs>
<linearGradient id="paint0_linear" x1="556.863" y1="521.066" x2="556.863" y2="2.00011" gradientUnits="userSpaceOnUse">
<stop stop-color="#67DE69"/>
<stop offset="1" stop-color="#0047B0"/>
</linearGradient>
</defs>
</svg>
