<svg width="7897" height="1406" viewBox="0 0 7897 1406" fill="none" xmlns="http://www.w3.org/2000/svg">
<path d="M7896.58 254.631C7520.91 64.6306 6612.58 -135.57 5984.58 583.63C5199.58 1482.63 4451.58 1076.63 3800.58 679.128C2974.22 174.558 2480.58 -297.374 965.078 254.63" stroke="url(#paint0_linear)"/>
<path d="M7874.86 248.857C7499.19 58.8571 6590.86 -141.343 5962.86 577.857C5177.86 1476.86 4429.86 1070.85 3778.86 673.355C2952.5 168.785 2458.86 -303.147 943.359 248.857" stroke="url(#paint1_linear)"/>
<path d="M7851.11 251.379C7475.44 61.3786 6567.11 -138.822 5939.11 580.378C5154.11 1479.38 4406.11 1073.37 3755.11 675.876C2928.75 171.306 2435.11 -300.626 919.609 251.378" stroke="url(#paint2_linear)"/>
<path d="M7829.15 260.76C7453.48 70.7605 6545.15 -129.44 5917.15 589.76C5132.15 1488.76 4384.15 1082.76 3733.15 685.258C2906.79 180.688 2413.15 -291.244 897.645 260.76" stroke="url(#paint3_linear)"/>
<path d="M7809.37 274.154C7433.7 84.154 6525.37 -116.046 5897.37 603.154C5112.37 1502.15 4364.37 1096.15 3713.37 698.651C2887.01 194.082 2393.37 -277.85 877.871 274.154" stroke="url(#paint4_linear)"/>
<path d="M7791.36 289.838C7415.69 99.8376 6507.36 -100.363 5879.36 618.837C5094.36 1517.84 4346.36 1111.83 3695.36 714.335C2869 209.765 2375.36 -262.167 859.859 289.837" stroke="url(#paint5_linear)"/>
<path d="M7774.65 306.904C7398.99 116.904 6490.65 -83.2961 5862.65 635.904C5077.65 1534.9 4329.65 1128.9 3678.65 731.401C2852.29 226.832 2358.65 -245.1 843.152 306.904" stroke="url(#paint6_linear)"/>
<path d="M7758.9 324.857C7383.23 134.857 6474.9 -65.343 5846.9 653.857C5061.9 1552.86 4313.9 1146.85 3662.9 749.355C2836.54 244.785 2342.9 -227.147 827.4 324.857" stroke="url(#paint7_linear)"/>
<path d="M7743.84 343.395C7368.18 153.395 6459.84 -46.8049 5831.84 672.395C5046.84 1571.4 4298.84 1165.39 3647.84 767.893C2821.48 263.323 2327.84 -208.609 812.343 343.395" stroke="url(#paint8_linear)"/>
<path d="M7729.28 362.324C7353.61 172.324 6445.28 -27.8762 5817.28 691.324C5032.28 1590.32 4284.28 1184.32 3633.28 786.821C2806.92 282.252 2313.28 -189.68 797.778 362.324" stroke="url(#paint9_linear)"/>
<path d="M7715.04 381.501C7339.38 191.501 6431.04 -8.69946 5803.04 710.501C5018.04 1609.5 4270.04 1203.5 3619.04 805.998C2792.69 301.428 2299.04 -170.504 783.543 381.5" stroke="url(#paint10_linear)"/>
<path d="M7700.99 400.812C7325.32 210.812 6416.99 10.6121 5788.99 729.812C5003.99 1628.81 4255.99 1222.81 3604.99 825.31C2778.63 320.74 2284.99 -151.192 769.489 400.812" stroke="url(#paint11_linear)"/>
<path d="M7686.98 420.152C7311.31 230.152 6402.98 29.9519 5774.98 749.152C4989.98 1648.15 4241.98 1242.15 3590.98 844.649C2764.62 340.08 2270.98 -131.852 755.477 420.152" stroke="url(#paint12_linear)"/>
<path d="M7672.85 439.411C7297.18 249.411 6388.85 49.2107 5760.85 768.411C4975.85 1667.41 4227.85 1261.41 3576.85 863.908C2750.49 359.338 2256.85 -112.594 741.352 439.411" stroke="url(#paint13_linear)"/>
<path d="M7658.43 458.448C7282.76 268.448 6374.43 68.2478 5746.43 787.448C4961.43 1686.45 4213.43 1280.44 3562.43 882.945C2736.07 378.376 2242.43 -93.5565 726.93 458.448" stroke="url(#paint14_linear)"/>
<path d="M7643.46 477.057C7267.79 287.057 6359.46 86.8572 5731.46 806.057C4946.46 1705.06 4198.46 1299.05 3547.46 901.555C2721.1 396.985 2227.46 -74.9471 711.96 477.057" stroke="url(#paint15_linear)"/>
<path d="M7627.56 494.876C7251.89 304.876 6343.56 104.676 5715.56 823.876C4930.56 1722.88 4182.56 1316.87 3531.56 919.373C2705.2 414.803 2211.56 -57.1287 696.057 494.875" stroke="url(#paint16_linear)"/>
<path d="M7610.04 511.115C7234.38 321.115 6326.04 120.915 5698.04 840.115C4913.04 1739.11 4165.04 1333.11 3514.04 935.612C2687.69 431.043 2194.04 -40.8895 678.543 511.115" stroke="url(#paint17_linear)"/>
<path d="M7589.62 523.506C7213.96 333.506 6305.62 133.305 5677.62 852.505C4892.62 1751.51 4144.62 1345.5 3493.62 948.003C2667.27 443.433 2173.62 -28.4988 658.124 523.505" stroke="url(#paint18_linear)"/>
<path d="M7565.75 524.266C7190.09 334.266 6281.75 134.066 5653.75 853.266C4868.75 1752.27 4120.75 1346.26 3469.75 948.764C2643.4 444.194 2149.75 -27.7381 634.253 524.266" stroke="url(#paint19_linear)"/>
<path d="M7547.42 508.974C7171.75 318.974 6263.42 118.774 5635.42 837.974C4850.42 1736.97 4102.42 1330.97 3451.42 933.472C2625.06 428.902 2131.42 -43.0301 615.916 508.974" stroke="url(#paint20_linear)"/>
<path d="M7535.76 488.13C7160.1 298.13 6251.76 97.9294 5623.76 817.129C4838.76 1716.13 4090.76 1310.12 3439.76 912.627C2613.4 408.057 2119.76 -63.8748 604.262 488.129" stroke="url(#paint21_linear)"/>
<path d="M7527.48 465.726C7151.82 275.726 6243.48 75.5261 5615.48 794.726C4830.48 1693.73 4082.48 1287.72 3431.48 890.224C2605.13 385.654 2111.48 -86.2781 595.983 465.726" stroke="url(#paint22_linear)"/>
<path d="M7520.45 442.729C7144.79 252.729 6236.45 52.5291 5608.45 771.729C4823.45 1670.73 4075.45 1264.72 3424.45 867.227C2598.09 362.657 2104.45 -109.275 588.952 442.729" stroke="url(#paint23_linear)"/>
<path d="M7510.13 421.496C7134.47 231.496 6226.13 31.2957 5598.13 750.496C4813.13 1649.5 4065.13 1243.49 3414.13 845.993C2587.77 341.423 2094.13 -130.509 578.632 421.496" stroke="url(#paint24_linear)"/>
<path d="M7494.6 403.458C7118.93 213.458 6210.6 13.2576 5582.6 732.458C4797.6 1631.46 4049.6 1225.45 3398.6 827.955C2572.24 323.385 2078.6 -148.547 563.101 403.457" stroke="url(#paint25_linear)"/>
<path d="M7474.16 391.102C7098.49 201.102 6190.16 0.902105 5562.16 720.102C4777.16 1619.1 4029.16 1213.1 3378.16 815.6C2551.8 311.03 2058.16 -160.902 542.661 391.102" stroke="url(#paint26_linear)"/>
<path d="M7451.1 385.185C7075.43 195.185 6167.1 -5.01489 5539.1 714.185C4754.1 1613.19 4006.1 1207.18 3355.1 809.683C2528.74 305.113 2035.1 -166.819 519.599 385.185" stroke="url(#paint27_linear)"/>
<path d="M7427.33 384.315C7051.66 194.315 6143.33 -5.885 5515.33 713.315C4730.33 1612.31 3982.33 1206.31 3331.33 808.813C2504.97 304.243 2011.33 -167.689 495.828 384.315" stroke="url(#paint28_linear)"/>
<path d="M7403.66 386.884C7027.99 196.884 6119.66 -3.31665 5491.66 715.883C4706.66 1614.88 3958.66 1208.88 3307.66 811.381C2481.3 306.811 1987.66 -165.121 472.161 386.883" stroke="url(#paint29_linear)"/>
<path d="M7380.34 391.764C7004.67 201.764 6096.34 1.56421 5468.34 720.764C4683.34 1619.76 3935.34 1213.76 3284.34 816.262C2457.98 311.692 1964.34 -160.24 448.838 391.764" stroke="url(#paint30_linear)"/>
<path d="M7357.39 398.237C6981.72 208.237 6073.39 8.03687 5445.39 727.237C4660.39 1626.24 3912.39 1220.23 3261.39 822.734C2435.03 318.165 1941.39 -153.767 425.886 398.237" stroke="url(#paint31_linear)"/>
<path d="M7334.77 405.837C6959.1 215.837 6050.77 15.6365 5422.77 734.836C4637.77 1633.84 3889.77 1227.83 3238.77 830.334C2412.41 325.764 1918.77 -146.168 403.269 405.836" stroke="url(#paint32_linear)"/>
<path d="M7312.43 414.247C6936.76 224.247 6028.43 24.0466 5400.43 743.247C4615.43 1642.25 3867.43 1236.24 3216.43 838.744C2390.07 334.174 1896.43 -137.758 380.93 414.247" stroke="url(#paint33_linear)"/>
<path d="M7290.32 423.244C6914.65 233.244 6006.32 33.0437 5378.32 752.244C4593.32 1651.24 3845.32 1245.24 3194.32 847.741C2367.96 343.171 1874.32 -128.761 358.815 423.244" stroke="url(#paint34_linear)"/>
<path d="M7268.37 432.661C6892.71 242.661 5984.37 42.4607 5356.37 761.661C4571.37 1660.66 3823.37 1254.66 3172.37 857.158C2346.01 352.588 1852.37 -119.344 336.872 432.661" stroke="url(#paint35_linear)"/>
<path d="M7246.55 442.365C6870.88 252.365 5962.55 52.1648 5334.55 771.365C4549.55 1670.36 3801.55 1264.36 3150.55 866.862C2324.19 362.293 1830.55 -109.639 315.051 442.365" stroke="url(#paint36_linear)"/>
<path d="M7224.81 452.243C6849.14 262.243 5940.81 62.0427 5312.81 781.243C4527.81 1680.24 3779.81 1274.24 3128.81 876.74C2302.45 372.17 1808.81 -99.7615 293.307 452.243" stroke="url(#paint37_linear)"/>
<path d="M7203.1 462.197C6827.43 272.197 5919.1 71.9968 5291.1 791.197C4506.1 1690.2 3758.1 1284.19 3107.1 886.694C2280.74 382.125 1787.1 -89.8074 271.597 462.197" stroke="url(#paint38_linear)"/>
<path d="M7181.38 472.133C6805.71 282.133 5897.38 81.9324 5269.38 801.132C4484.38 1700.13 3736.38 1294.13 3085.38 896.63C2259.02 392.06 1765.38 -79.8719 249.878 472.132" stroke="url(#paint39_linear)"/>
<path d="M7159.61 481.952C6783.94 291.952 5875.61 91.7517 5247.61 810.952C4462.61 1709.95 3714.61 1303.95 3063.61 906.449C2237.25 401.879 1743.61 -70.0526 228.108 481.952" stroke="url(#paint40_linear)"/>
<path d="M7137.74 491.552C6762.08 301.552 5853.74 101.352 5225.74 820.552C4440.74 1719.55 3692.74 1313.55 3041.74 916.05C2215.39 411.48 1721.74 -60.452 206.244 491.552" stroke="url(#paint41_linear)"/>
<path d="M7115.74 500.812C6740.07 310.812 5831.74 110.612 5203.74 829.812C4418.74 1728.81 3670.74 1322.81 3019.74 925.31C2193.38 420.74 1699.74 -51.1922 184.237 500.812" stroke="url(#paint42_linear)"/>
<path d="M7093.54 509.583C6717.87 319.583 5809.54 119.383 5181.54 838.583C4396.54 1737.58 3648.54 1331.58 2997.54 934.08C2171.18 429.51 1677.54 -42.4217 162.037 509.582" stroke="url(#paint43_linear)"/>
<path d="M7071.09 517.671C6695.42 327.671 5787.09 127.47 5159.09 846.67C4374.09 1745.67 3626.09 1339.67 2975.09 942.168C2148.73 437.598 1655.09 -34.3338 139.589 517.67" stroke="url(#paint44_linear)"/>
<path d="M7048.33 524.811C6672.67 334.811 5764.33 134.611 5136.33 853.811C4351.33 1752.81 3603.33 1346.81 2952.33 949.309C2125.98 444.739 1632.33 -27.1932 116.834 524.811" stroke="url(#paint45_linear)"/>
<path d="M7025.22 530.617C6649.55 340.617 5741.22 140.417 5113.22 859.617C4328.22 1758.62 3580.22 1352.61 2929.22 955.114C2102.86 450.544 1609.22 -21.3875 93.7207 530.617" stroke="url(#paint46_linear)"/>
<path d="M7001.75 534.498C6626.08 344.498 5717.75 144.298 5089.75 863.498C4304.75 1762.5 3556.75 1356.49 2905.75 958.995C2079.39 454.425 1585.75 -17.5067 70.25 534.497" stroke="url(#paint47_linear)"/>
<path d="M6978.02 535.526C6602.35 345.526 5694.02 145.326 5066.02 864.526C4281.02 1763.53 3533.02 1357.52 2882.02 960.024C2055.66 455.454 1562.02 -16.4783 46.5215 535.526" stroke="url(#paint48_linear)"/>
<path d="M6954.08 532.155C6578.41 342.155 5670.08 141.955 5042.08 861.155C4257.08 1760.15 3509.08 1354.15 2858.08 956.652C2031.72 452.083 1538.08 -19.8494 22.581 532.155" stroke="url(#paint49_linear)"/>
<path d="M6932.08 522.627C6556.41 332.627 5648.08 132.427 5020.08 851.627C4235.08 1750.63 3487.08 1344.62 2836.08 947.124C2009.72 442.554 1516.08 -29.3778 0.578114 522.626" stroke="url(#paint50_linear)"/>
<defs>
<linearGradient id="paint0_linear" x1="7896.58" y1="565.526" x2="965.078" y2="565.526" gradientUnits="userSpaceOnUse">
<stop stop-color="#67DE69"/>
<stop offset="1" stop-color="#0047B0"/>
</linearGradient>
<linearGradient id="paint1_linear" x1="7874.86" y1="559.753" x2="943.359" y2="559.752" gradientUnits="userSpaceOnUse">
<stop stop-color="#67DE69"/>
<stop offset="1" stop-color="#0047B0"/>
</linearGradient>
<linearGradient id="paint2_linear" x1="7851.11" y1="562.274" x2="919.609" y2="562.274" gradientUnits="userSpaceOnUse">
<stop stop-color="#67DE69"/>
<stop offset="1" stop-color="#0047B0"/>
</linearGradient>
<linearGradient id="paint3_linear" x1="7829.15" y1="571.656" x2="897.645" y2="571.656" gradientUnits="userSpaceOnUse">
<stop stop-color="#67DE69"/>
<stop offset="1" stop-color="#0047B0"/>
</linearGradient>
<linearGradient id="paint4_linear" x1="7809.37" y1="585.049" x2="877.871" y2="585.049" gradientUnits="userSpaceOnUse">
<stop stop-color="#67DE69"/>
<stop offset="1" stop-color="#0047B0"/>
</linearGradient>
<linearGradient id="paint5_linear" x1="7791.36" y1="600.733" x2="859.859" y2="600.733" gradientUnits="userSpaceOnUse">
<stop stop-color="#67DE69"/>
<stop offset="1" stop-color="#0047B0"/>
</linearGradient>
<linearGradient id="paint6_linear" x1="7774.65" y1="617.799" x2="843.152" y2="617.799" gradientUnits="userSpaceOnUse">
<stop stop-color="#67DE69"/>
<stop offset="1" stop-color="#0047B0"/>
</linearGradient>
<linearGradient id="paint7_linear" x1="7758.9" y1="635.753" x2="827.4" y2="635.752" gradientUnits="userSpaceOnUse">
<stop stop-color="#67DE69"/>
<stop offset="1" stop-color="#0047B0"/>
</linearGradient>
<linearGradient id="paint8_linear" x1="7743.84" y1="654.291" x2="812.343" y2="654.29" gradientUnits="userSpaceOnUse">
<stop stop-color="#67DE69"/>
<stop offset="1" stop-color="#0047B0"/>
</linearGradient>
<linearGradient id="paint9_linear" x1="7729.28" y1="673.219" x2="797.778" y2="673.219" gradientUnits="userSpaceOnUse">
<stop stop-color="#67DE69"/>
<stop offset="1" stop-color="#0047B0"/>
</linearGradient>
<linearGradient id="paint10_linear" x1="7715.04" y1="692.396" x2="783.543" y2="692.396" gradientUnits="userSpaceOnUse">
<stop stop-color="#67DE69"/>
<stop offset="1" stop-color="#0047B0"/>
</linearGradient>
<linearGradient id="paint11_linear" x1="7700.99" y1="711.708" x2="769.489" y2="711.707" gradientUnits="userSpaceOnUse">
<stop stop-color="#67DE69"/>
<stop offset="1" stop-color="#0047B0"/>
</linearGradient>
<linearGradient id="paint12_linear" x1="7686.98" y1="731.047" x2="755.477" y2="731.047" gradientUnits="userSpaceOnUse">
<stop stop-color="#67DE69"/>
<stop offset="1" stop-color="#0047B0"/>
</linearGradient>
<linearGradient id="paint13_linear" x1="7672.85" y1="750.306" x2="741.352" y2="750.306" gradientUnits="userSpaceOnUse">
<stop stop-color="#67DE69"/>
<stop offset="1" stop-color="#0047B0"/>
</linearGradient>
<linearGradient id="paint14_linear" x1="7658.43" y1="769.343" x2="726.93" y2="769.343" gradientUnits="userSpaceOnUse">
<stop stop-color="#67DE69"/>
<stop offset="1" stop-color="#0047B0"/>
</linearGradient>
<linearGradient id="paint15_linear" x1="7643.46" y1="787.953" x2="711.96" y2="787.952" gradientUnits="userSpaceOnUse">
<stop stop-color="#67DE69"/>
<stop offset="1" stop-color="#0047B0"/>
</linearGradient>
<linearGradient id="paint16_linear" x1="7627.56" y1="805.771" x2="696.057" y2="805.771" gradientUnits="userSpaceOnUse">
<stop stop-color="#67DE69"/>
<stop offset="1" stop-color="#0047B0"/>
</linearGradient>
<linearGradient id="paint17_linear" x1="7610.04" y1="822.01" x2="678.543" y2="822.01" gradientUnits="userSpaceOnUse">
<stop stop-color="#67DE69"/>
<stop offset="1" stop-color="#0047B0"/>
</linearGradient>
<linearGradient id="paint18_linear" x1="7589.62" y1="834.401" x2="658.124" y2="834.401" gradientUnits="userSpaceOnUse">
<stop stop-color="#67DE69"/>
<stop offset="1" stop-color="#0047B0"/>
</linearGradient>
<linearGradient id="paint19_linear" x1="7565.75" y1="835.162" x2="634.253" y2="835.161" gradientUnits="userSpaceOnUse">
<stop stop-color="#67DE69"/>
<stop offset="1" stop-color="#0047B0"/>
</linearGradient>
<linearGradient id="paint20_linear" x1="7547.42" y1="819.87" x2="615.916" y2="819.869" gradientUnits="userSpaceOnUse">
<stop stop-color="#67DE69"/>
<stop offset="1" stop-color="#0047B0"/>
</linearGradient>
<linearGradient id="paint21_linear" x1="7535.76" y1="799.025" x2="604.262" y2="799.025" gradientUnits="userSpaceOnUse">
<stop stop-color="#67DE69"/>
<stop offset="1" stop-color="#0047B0"/>
</linearGradient>
<linearGradient id="paint22_linear" x1="7527.48" y1="776.622" x2="595.983" y2="776.621" gradientUnits="userSpaceOnUse">
<stop stop-color="#67DE69"/>
<stop offset="1" stop-color="#0047B0"/>
</linearGradient>
<linearGradient id="paint23_linear" x1="7520.45" y1="753.625" x2="588.952" y2="753.624" gradientUnits="userSpaceOnUse">
<stop stop-color="#67DE69"/>
<stop offset="1" stop-color="#0047B0"/>
</linearGradient>
<linearGradient id="paint24_linear" x1="7510.13" y1="732.391" x2="578.632" y2="732.391" gradientUnits="userSpaceOnUse">
<stop stop-color="#67DE69"/>
<stop offset="1" stop-color="#0047B0"/>
</linearGradient>
<linearGradient id="paint25_linear" x1="7494.6" y1="714.353" x2="563.101" y2="714.353" gradientUnits="userSpaceOnUse">
<stop stop-color="#67DE69"/>
<stop offset="1" stop-color="#0047B0"/>
</linearGradient>
<linearGradient id="paint26_linear" x1="7474.16" y1="701.998" x2="542.661" y2="701.997" gradientUnits="userSpaceOnUse">
<stop stop-color="#67DE69"/>
<stop offset="1" stop-color="#0047B0"/>
</linearGradient>
<linearGradient id="paint27_linear" x1="7451.1" y1="696.081" x2="519.599" y2="696.08" gradientUnits="userSpaceOnUse">
<stop stop-color="#67DE69"/>
<stop offset="1" stop-color="#0047B0"/>
</linearGradient>
<linearGradient id="paint28_linear" x1="7427.33" y1="695.211" x2="495.828" y2="695.21" gradientUnits="userSpaceOnUse">
<stop stop-color="#67DE69"/>
<stop offset="1" stop-color="#0047B0"/>
</linearGradient>
<linearGradient id="paint29_linear" x1="7403.66" y1="697.779" x2="472.161" y2="697.779" gradientUnits="userSpaceOnUse">
<stop stop-color="#67DE69"/>
<stop offset="1" stop-color="#0047B0"/>
</linearGradient>
<linearGradient id="paint30_linear" x1="7380.34" y1="702.66" x2="448.838" y2="702.659" gradientUnits="userSpaceOnUse">
<stop stop-color="#67DE69"/>
<stop offset="1" stop-color="#0047B0"/>
</linearGradient>
<linearGradient id="paint31_linear" x1="7357.39" y1="709.132" x2="425.886" y2="709.132" gradientUnits="userSpaceOnUse">
<stop stop-color="#67DE69"/>
<stop offset="1" stop-color="#0047B0"/>
</linearGradient>
<linearGradient id="paint32_linear" x1="7334.77" y1="716.732" x2="403.269" y2="716.732" gradientUnits="userSpaceOnUse">
<stop stop-color="#67DE69"/>
<stop offset="1" stop-color="#0047B0"/>
</linearGradient>
<linearGradient id="paint33_linear" x1="7312.43" y1="725.142" x2="380.93" y2="725.142" gradientUnits="userSpaceOnUse">
<stop stop-color="#67DE69"/>
<stop offset="1" stop-color="#0047B0"/>
</linearGradient>
<linearGradient id="paint34_linear" x1="7290.32" y1="734.139" x2="358.815" y2="734.139" gradientUnits="userSpaceOnUse">
<stop stop-color="#67DE69"/>
<stop offset="1" stop-color="#0047B0"/>
</linearGradient>
<linearGradient id="paint35_linear" x1="7268.37" y1="743.556" x2="336.872" y2="743.556" gradientUnits="userSpaceOnUse">
<stop stop-color="#67DE69"/>
<stop offset="1" stop-color="#0047B0"/>
</linearGradient>
<linearGradient id="paint36_linear" x1="7246.55" y1="753.26" x2="315.051" y2="753.26" gradientUnits="userSpaceOnUse">
<stop stop-color="#67DE69"/>
<stop offset="1" stop-color="#0047B0"/>
</linearGradient>
<linearGradient id="paint37_linear" x1="7224.81" y1="763.138" x2="293.307" y2="763.138" gradientUnits="userSpaceOnUse">
<stop stop-color="#67DE69"/>
<stop offset="1" stop-color="#0047B0"/>
</linearGradient>
<linearGradient id="paint38_linear" x1="7203.1" y1="773.092" x2="271.597" y2="773.092" gradientUnits="userSpaceOnUse">
<stop stop-color="#67DE69"/>
<stop offset="1" stop-color="#0047B0"/>
</linearGradient>
<linearGradient id="paint39_linear" x1="7181.38" y1="783.028" x2="249.878" y2="783.028" gradientUnits="userSpaceOnUse">
<stop stop-color="#67DE69"/>
<stop offset="1" stop-color="#0047B0"/>
</linearGradient>
<linearGradient id="paint40_linear" x1="7159.61" y1="792.847" x2="228.108" y2="792.847" gradientUnits="userSpaceOnUse">
<stop stop-color="#67DE69"/>
<stop offset="1" stop-color="#0047B0"/>
</linearGradient>
<linearGradient id="paint41_linear" x1="7137.74" y1="802.448" x2="206.244" y2="802.448" gradientUnits="userSpaceOnUse">
<stop stop-color="#67DE69"/>
<stop offset="1" stop-color="#0047B0"/>
</linearGradient>
<linearGradient id="paint42_linear" x1="7115.74" y1="811.708" x2="184.237" y2="811.707" gradientUnits="userSpaceOnUse">
<stop stop-color="#67DE69"/>
<stop offset="1" stop-color="#0047B0"/>
</linearGradient>
<linearGradient id="paint43_linear" x1="7093.54" y1="820.478" x2="162.037" y2="820.478" gradientUnits="userSpaceOnUse">
<stop stop-color="#67DE69"/>
<stop offset="1" stop-color="#0047B0"/>
</linearGradient>
<linearGradient id="paint44_linear" x1="7071.09" y1="828.566" x2="139.589" y2="828.566" gradientUnits="userSpaceOnUse">
<stop stop-color="#67DE69"/>
<stop offset="1" stop-color="#0047B0"/>
</linearGradient>
<linearGradient id="paint45_linear" x1="7048.33" y1="835.707" x2="116.834" y2="835.706" gradientUnits="userSpaceOnUse">
<stop stop-color="#67DE69"/>
<stop offset="1" stop-color="#0047B0"/>
</linearGradient>
<linearGradient id="paint46_linear" x1="7025.22" y1="841.512" x2="93.7207" y2="841.512" gradientUnits="userSpaceOnUse">
<stop stop-color="#67DE69"/>
<stop offset="1" stop-color="#0047B0"/>
</linearGradient>
<linearGradient id="paint47_linear" x1="7001.75" y1="845.393" x2="70.25" y2="845.393" gradientUnits="userSpaceOnUse">
<stop stop-color="#67DE69"/>
<stop offset="1" stop-color="#0047B0"/>
</linearGradient>
<linearGradient id="paint48_linear" x1="6978.02" y1="846.422" x2="46.5215" y2="846.421" gradientUnits="userSpaceOnUse">
<stop stop-color="#67DE69"/>
<stop offset="1" stop-color="#0047B0"/>
</linearGradient>
<linearGradient id="paint49_linear" x1="6954.08" y1="843.05" x2="22.581" y2="843.05" gradientUnits="userSpaceOnUse">
<stop stop-color="#67DE69"/>
<stop offset="1" stop-color="#0047B0"/>
</linearGradient>
<linearGradient id="paint50_linear" x1="6932.08" y1="833.522" x2="0.578101" y2="833.522" gradientUnits="userSpaceOnUse">
<stop stop-color="#67DE69"/>
<stop offset="1" stop-color="#0047B0"/>
</linearGradient>
</defs>
</svg>
