<svg width="3896" height="1067" viewBox="0 0 3896 1067" fill="none" xmlns="http://www.w3.org/2000/svg">
<path d="M640.579 532.74C1061.58 1281.24 1751.58 927.737 2071.08 695.737C2487.27 393.524 3231.58 -372.263 3895.08 259.738" stroke="url(#paint0_linear)"/>
<path d="M631.98 543.395C1052.98 1291.89 1742.98 938.392 2062.48 706.392C2478.67 404.179 3222.98 -361.608 3886.48 270.393" stroke="url(#paint1_linear)"/>
<path d="M622.947 553.628C1043.95 1302.13 1733.95 948.625 2053.45 716.625C2469.64 414.412 3213.95 -351.374 3877.45 280.627" stroke="url(#paint2_linear)"/>
<path d="M613.416 563.399C1034.42 1311.9 1724.42 958.396 2043.92 726.396C2460.11 424.183 3204.42 -341.604 3867.92 290.397" stroke="url(#paint3_linear)"/>
<path d="M603.348 572.615C1024.35 1321.11 1714.35 967.613 2033.85 735.613C2450.04 433.4 3194.35 -332.387 3857.85 299.614" stroke="url(#paint4_linear)"/>
<path d="M592.714 581.174C1013.71 1329.67 1703.71 976.171 2023.21 744.171C2439.41 441.958 3183.71 -323.828 3847.21 308.173" stroke="url(#paint5_linear)"/>
<path d="M581.496 588.955C1002.5 1337.45 1692.5 983.953 2012 751.953C2428.19 449.74 3172.5 -316.047 3836 315.954" stroke="url(#paint6_linear)"/>
<path d="M569.698 595.832C990.698 1344.33 1680.7 990.83 2000.2 758.83C2416.39 456.617 3160.7 -309.17 3824.2 322.831" stroke="url(#paint7_linear)"/>
<path d="M557.353 601.682C978.353 1350.18 1668.35 996.679 1987.85 764.679C2404.05 462.466 3148.35 -303.321 3811.85 328.68" stroke="url(#paint8_linear)"/>
<path d="M544.531 606.401C965.531 1354.9 1655.53 1001.4 1975.03 769.398C2391.22 467.185 3135.53 -298.602 3799.03 333.399" stroke="url(#paint9_linear)"/>
<path d="M531.327 609.925C952.327 1358.42 1642.33 1004.92 1961.83 772.922C2378.02 470.709 3122.33 -295.077 3785.83 336.924" stroke="url(#paint10_linear)"/>
<path d="M517.857 612.241C938.857 1360.74 1628.86 1007.24 1948.36 775.239C2364.55 473.026 3108.86 -292.761 3772.36 339.24" stroke="url(#paint11_linear)"/>
<path d="M504.238 613.39C925.238 1361.89 1615.24 1008.39 1934.74 776.387C2350.93 474.174 3095.24 -291.613 3758.74 340.388" stroke="url(#paint12_linear)"/>
<path d="M490.571 613.458C911.571 1361.96 1601.57 1008.46 1921.07 776.456C2337.26 474.242 3081.57 -291.544 3745.07 340.457" stroke="url(#paint13_linear)"/>
<path d="M476.935 612.559C897.935 1361.06 1587.94 1007.56 1907.44 775.556C2323.63 473.343 3067.94 -292.444 3731.44 339.557" stroke="url(#paint14_linear)"/>
<path d="M463.381 610.82C884.381 1359.32 1574.38 1005.82 1893.88 773.817C2310.08 471.604 3054.38 -294.183 3717.88 337.818" stroke="url(#paint15_linear)"/>
<path d="M449.938 608.366C870.938 1356.86 1560.94 1003.36 1880.44 771.364C2296.63 469.151 3040.94 -296.636 3704.44 335.365" stroke="url(#paint16_linear)"/>
<path d="M436.619 605.318C857.619 1353.82 1547.62 1000.31 1867.12 768.315C2283.31 466.102 3027.62 -299.685 3691.12 332.316" stroke="url(#paint17_linear)"/>
<path d="M423.419 601.781C844.419 1350.28 1534.42 996.778 1853.92 764.778C2270.11 462.565 3014.42 -303.222 3677.92 328.779" stroke="url(#paint18_linear)"/>
<path d="M410.333 597.849C831.333 1346.35 1521.33 992.846 1840.83 760.846C2257.03 458.633 3001.33 -307.154 3664.83 324.847" stroke="url(#paint19_linear)"/>
<path d="M397.343 593.605C818.343 1342.1 1508.34 988.602 1827.84 756.602C2244.04 454.389 2988.34 -311.398 3651.84 320.603" stroke="url(#paint20_linear)"/>
<path d="M384.434 589.12C805.434 1337.62 1495.43 984.118 1814.93 752.118C2231.13 449.905 2975.43 -315.882 3638.93 316.119" stroke="url(#paint21_linear)"/>
<path d="M371.587 584.46C792.587 1332.96 1482.59 979.458 1802.09 747.457C2218.28 445.244 2962.59 -320.542 3626.09 311.459" stroke="url(#paint22_linear)"/>
<path d="M358.786 579.678C779.786 1328.18 1469.79 974.675 1789.29 742.675C2205.48 440.462 2949.79 -325.324 3613.29 306.676" stroke="url(#paint23_linear)"/>
<path d="M346.01 574.826C767.01 1323.32 1457.01 969.824 1776.51 737.824C2192.7 435.611 2937.01 -330.176 3600.51 301.825" stroke="url(#paint24_linear)"/>
<path d="M333.244 569.948C754.244 1318.45 1444.24 964.946 1763.74 732.946C2179.94 430.733 2924.24 -335.054 3587.74 296.947" stroke="url(#paint25_linear)"/>
<path d="M320.47 565.088C741.47 1313.59 1431.47 960.085 1750.97 728.085C2167.16 425.872 2911.47 -339.914 3574.97 292.087" stroke="url(#paint26_linear)"/>
<path d="M307.676 560.282C728.676 1308.78 1418.68 955.28 1738.18 723.28C2154.37 421.067 2898.68 -344.72 3562.18 287.281" stroke="url(#paint27_linear)"/>
<path d="M294.848 555.57C715.848 1304.07 1405.85 950.567 1725.35 718.567C2141.54 416.354 2885.85 -349.433 3549.35 282.568" stroke="url(#paint28_linear)"/>
<path d="M281.973 550.984C702.973 1299.48 1392.97 945.981 1712.47 713.981C2128.67 411.768 2872.97 -354.019 3536.47 277.982" stroke="url(#paint29_linear)"/>
<path d="M269.042 546.559C690.042 1295.06 1380.04 941.556 1699.54 709.556C2115.74 407.343 2860.04 -358.444 3523.54 273.557" stroke="url(#paint30_linear)"/>
<path d="M256.046 542.328C677.046 1290.83 1367.05 937.326 1686.55 705.326C2102.74 403.113 2847.05 -362.674 3510.55 269.327" stroke="url(#paint31_linear)"/>
<path d="M242.979 538.323C663.979 1286.82 1353.98 933.321 1673.48 701.321C2089.67 399.108 2833.98 -366.679 3497.48 265.322" stroke="url(#paint32_linear)"/>
<path d="M229.836 534.574C650.836 1283.07 1340.84 929.572 1660.34 697.572C2076.53 395.359 2820.84 -370.428 3484.34 261.573" stroke="url(#paint33_linear)"/>
<path d="M216.615 531.114C637.615 1279.61 1327.61 926.111 1647.11 694.111C2063.31 391.898 2807.61 -373.889 3471.11 258.112" stroke="url(#paint34_linear)"/>
<path d="M203.314 527.97C624.314 1276.47 1314.31 922.967 1633.81 690.967C2050.01 388.754 2794.31 -377.033 3457.81 254.968" stroke="url(#paint35_linear)"/>
<path d="M189.936 525.17C610.936 1273.67 1300.94 920.167 1620.44 688.167C2036.63 385.954 2780.94 -379.832 3444.44 252.169" stroke="url(#paint36_linear)"/>
<path d="M176.487 522.744C597.487 1271.24 1287.49 917.742 1606.99 685.742C2023.18 383.529 2767.49 -382.258 3430.99 249.743" stroke="url(#paint37_linear)"/>
<path d="M162.971 520.715C583.971 1269.21 1273.97 915.712 1593.47 683.712C2009.67 381.499 2753.97 -384.287 3417.47 247.714" stroke="url(#paint38_linear)"/>
<path d="M149.399 519.108C570.399 1267.61 1260.4 914.105 1579.9 682.105C1996.09 379.892 2740.4 -385.895 3403.9 246.106" stroke="url(#paint39_linear)"/>
<path d="M135.782 517.942C556.782 1266.44 1246.78 912.939 1566.28 680.939C1982.48 378.726 2726.78 -387.061 3390.28 244.94" stroke="url(#paint40_linear)"/>
<path d="M122.133 517.236C543.133 1265.73 1233.13 912.233 1552.63 680.233C1968.83 378.02 2713.13 -387.767 3376.63 244.234" stroke="url(#paint41_linear)"/>
<path d="M108.469 517.003C529.469 1265.5 1219.47 912 1538.97 680C1955.16 377.787 2699.47 -387.999 3362.97 244.002" stroke="url(#paint42_linear)"/>
<path d="M94.8052 517.256C515.805 1265.75 1205.81 912.253 1525.31 680.253C1941.5 378.04 2685.81 -387.746 3349.31 244.255" stroke="url(#paint43_linear)"/>
<path d="M81.1597 518.001C502.16 1266.5 1192.16 912.999 1511.66 680.998C1927.85 378.785 2672.16 -387.001 3335.66 245" stroke="url(#paint44_linear)"/>
<path d="M67.5503 519.241C488.55 1267.74 1178.55 914.239 1498.05 682.239C1914.24 380.026 2658.55 -385.761 3322.05 246.24" stroke="url(#paint45_linear)"/>
<path d="M53.9956 520.976C474.996 1269.47 1165 915.973 1484.5 683.973C1900.69 381.76 2645 -384.027 3308.5 247.974" stroke="url(#paint46_linear)"/>
<path d="M40.5122 523.199C461.512 1271.7 1151.51 918.197 1471.01 686.197C1887.21 383.984 2631.51 -381.803 3295.01 250.198" stroke="url(#paint47_linear)"/>
<path d="M27.1167 525.906C448.117 1274.4 1138.12 920.904 1457.62 688.904C1873.81 386.691 2618.12 -379.096 3281.62 252.905" stroke="url(#paint48_linear)"/>
<path d="M13.7974 529.09C434.797 1277.59 1124.8 924.087 1444.3 692.087C1860.49 389.874 2604.8 -375.912 3268.3 256.089" stroke="url(#paint49_linear)"/>
<path d="M640.579 532.74C1061.58 1281.24 1751.58 927.737 2071.08 695.737C2487.27 393.524 3231.58 -372.263 3895.08 259.738" stroke="url(#paint50_linear)"/>
<path d="M631.695 543.137C1052.69 1291.63 1742.69 938.134 2062.19 706.134C2478.39 403.921 3222.69 -361.866 3886.19 270.135" stroke="url(#paint51_linear)"/>
<path d="M622.417 553.13C1043.42 1301.63 1733.42 948.127 2052.92 716.127C2469.11 413.914 3213.42 -351.872 3876.92 280.129" stroke="url(#paint52_linear)"/>
<path d="M612.684 562.682C1033.68 1311.18 1723.68 957.679 2043.18 725.679C2459.38 423.466 3203.68 -342.321 3867.18 289.68" stroke="url(#paint53_linear)"/>
<path d="M602.466 571.711C1023.47 1320.21 1713.47 966.708 2032.97 734.708C2449.16 432.495 3193.47 -333.291 3856.97 298.71" stroke="url(#paint54_linear)"/>
<path d="M591.735 580.125C1012.73 1328.62 1702.73 975.123 2022.23 743.122C2438.43 440.909 3182.73 -324.877 3846.23 307.124" stroke="url(#paint55_linear)"/>
<path d="M580.474 587.819C1001.47 1336.32 1691.47 982.816 2010.97 750.816C2427.17 448.603 3171.47 -317.184 3834.97 314.817" stroke="url(#paint56_linear)"/>
<path d="M568.682 594.677C989.682 1343.17 1679.68 989.674 1999.18 757.674C2415.38 455.461 3159.68 -310.325 3823.18 321.676" stroke="url(#paint57_linear)"/>
<path d="M556.383 600.586C977.383 1349.08 1667.38 995.583 1986.88 763.583C2403.08 461.37 3147.38 -304.416 3810.88 327.585" stroke="url(#paint58_linear)"/>
<path d="M543.63 605.445C964.63 1353.94 1654.63 1000.44 1974.13 768.442C2390.32 466.229 3134.63 -299.558 3798.13 332.443" stroke="url(#paint59_linear)"/>
<path d="M530.5 609.177C951.5 1357.67 1641.5 1004.17 1961 772.174C2377.19 469.961 3121.5 -295.825 3785 336.176" stroke="url(#paint60_linear)"/>
<path d="M517.092 611.753C938.092 1360.25 1628.09 1006.75 1947.59 774.75C2363.79 472.537 3108.09 -293.249 3771.59 338.752" stroke="url(#paint61_linear)"/>
<path d="M503.515 613.188C924.515 1361.69 1614.52 1008.19 1934.02 776.185C2350.21 473.972 3094.52 -291.815 3758.02 340.186" stroke="url(#paint62_linear)"/>
<path d="M489.867 613.542C910.867 1362.04 1600.87 1008.54 1920.37 776.539C2336.56 474.326 3080.87 -291.46 3744.37 340.541" stroke="url(#paint63_linear)"/>
<path d="M476.229 612.91C897.229 1361.41 1587.23 1007.91 1906.73 775.908C2322.92 473.695 3067.23 -292.092 3730.73 339.909" stroke="url(#paint64_linear)"/>
<path d="M462.661 611.406C883.661 1359.9 1573.66 1006.4 1893.16 774.404C2309.35 472.191 3053.66 -293.596 3717.16 338.405" stroke="url(#paint65_linear)"/>
<path d="M449.197 609.15C870.197 1357.65 1560.2 1004.15 1879.7 772.147C2295.89 469.934 3040.2 -295.853 3703.7 336.148" stroke="url(#paint66_linear)"/>
<path d="M435.857 606.257C856.857 1354.75 1546.86 1001.25 1866.36 769.254C2282.55 467.041 3026.86 -298.745 3690.36 333.256" stroke="url(#paint67_linear)"/>
<path d="M422.641 602.837C843.641 1351.33 1533.64 997.834 1853.14 765.834C2269.34 463.621 3013.64 -302.165 3677.14 329.836" stroke="url(#paint68_linear)"/>
<path d="M409.545 598.986C830.545 1347.48 1520.55 993.983 1840.05 761.983C2256.24 459.77 3000.55 -306.017 3664.05 325.984" stroke="url(#paint69_linear)"/>
<path d="M396.554 594.791C817.554 1343.29 1507.55 989.789 1827.05 757.789C2243.25 455.576 2987.55 -310.211 3651.05 321.79" stroke="url(#paint70_linear)"/>
<path d="M383.654 590.328C804.654 1338.83 1494.65 985.326 1814.15 753.326C2230.35 451.113 2974.65 -314.674 3638.15 317.327" stroke="url(#paint71_linear)"/>
<path d="M370.824 585.664C791.824 1334.16 1481.82 980.662 1801.32 748.662C2217.52 446.449 2961.82 -319.338 3625.32 312.663" stroke="url(#paint72_linear)"/>
<path d="M358.045 580.86C779.045 1329.36 1469.05 975.857 1788.55 743.857C2204.74 441.644 2949.05 -324.143 3612.55 307.858" stroke="url(#paint73_linear)"/>
<path d="M345.3 575.967C766.3 1324.46 1456.3 970.964 1775.8 738.964C2191.99 436.751 2936.3 -329.035 3599.8 302.966" stroke="url(#paint74_linear)"/>
<path d="M332.57 571.035C753.57 1319.53 1443.57 966.033 1763.07 734.033C2179.26 431.82 2923.57 -333.967 3587.07 298.034" stroke="url(#paint75_linear)"/>
<path d="M319.837 566.11C740.837 1314.61 1430.84 961.107 1750.34 729.107C2166.53 426.894 2910.84 -338.893 3574.34 293.108" stroke="url(#paint76_linear)"/>
<path d="M307.086 561.23C728.086 1309.73 1418.09 956.227 1737.59 724.227C2153.78 422.014 2898.09 -343.773 3561.59 288.228" stroke="url(#paint77_linear)"/>
<path d="M294.303 556.437C715.303 1304.93 1405.3 951.434 1724.8 719.434C2141 417.221 2885.3 -348.566 3548.8 283.435" stroke="url(#paint78_linear)"/>
<path d="M281.474 551.766C702.474 1300.26 1392.47 946.763 1711.97 714.763C2128.17 412.55 2872.47 -353.237 3535.97 278.764" stroke="url(#paint79_linear)"/>
<path d="M268.588 547.254C689.588 1295.75 1379.59 942.251 1699.09 710.251C2115.28 408.038 2859.59 -357.748 3523.09 274.253" stroke="url(#paint80_linear)"/>
<path d="M255.637 542.936C676.637 1291.43 1366.64 937.933 1686.14 705.933C2102.33 403.72 2846.64 -362.067 3510.14 269.934" stroke="url(#paint81_linear)"/>
<path d="M242.612 538.845C663.612 1287.34 1353.61 933.842 1673.11 701.842C2089.31 399.629 2833.61 -366.158 3497.11 265.843" stroke="url(#paint82_linear)"/>
<path d="M229.507 535.014C650.507 1283.51 1340.51 930.011 1660.01 698.011C2076.2 395.798 2820.51 -369.989 3484.01 262.012" stroke="url(#paint83_linear)"/>
<path d="M216.322 531.474C637.322 1279.97 1327.32 926.471 1646.82 694.471C2063.02 392.258 2807.32 -373.529 3470.82 258.472" stroke="url(#paint84_linear)"/>
<path d="M203.053 528.257C624.053 1276.75 1314.05 923.254 1633.55 691.254C2049.75 389.041 2794.05 -376.745 3457.55 255.256" stroke="url(#paint85_linear)"/>
<path d="M189.705 525.392C610.705 1273.89 1300.7 920.389 1620.2 688.389C2036.4 386.176 2780.7 -379.611 3444.2 252.39" stroke="url(#paint86_linear)"/>
<path d="M176.28 522.906C597.28 1271.4 1287.28 917.904 1606.78 685.904C2022.97 383.691 2767.28 -382.096 3430.78 249.905" stroke="url(#paint87_linear)"/>
<path d="M162.787 520.828C583.787 1269.33 1273.79 915.826 1593.29 683.826C2009.48 381.613 2753.79 -384.174 3417.29 247.827" stroke="url(#paint88_linear)"/>
<path d="M149.235 519.179C570.235 1267.68 1260.23 914.176 1579.73 682.176C1995.93 379.963 2740.23 -385.824 3403.73 246.177" stroke="url(#paint89_linear)"/>
<path d="M135.635 517.981C556.635 1266.48 1246.64 912.978 1566.14 680.978C1982.33 378.765 2726.64 -387.022 3390.14 244.979" stroke="url(#paint90_linear)"/>
<path d="M122.002 517.251C543.002 1265.75 1233 912.249 1552.5 680.248C1968.7 378.035 2713 -387.751 3376.5 244.25" stroke="url(#paint91_linear)"/>
<path d="M108.353 517.003C529.353 1265.5 1219.35 912 1538.85 680C1955.05 377.787 2699.35 -387.999 3362.85 244.002" stroke="url(#paint92_linear)"/>
<path d="M94.7036 517.247C515.704 1265.74 1205.7 912.245 1525.2 680.245C1941.4 378.032 2685.7 -387.755 3349.2 244.246" stroke="url(#paint93_linear)"/>
<path d="M81.0718 517.989C502.072 1266.49 1192.07 912.986 1511.57 680.986C1927.77 378.773 2672.07 -387.014 3335.57 244.987" stroke="url(#paint94_linear)"/>
<path d="M67.478 519.23C488.478 1267.73 1178.48 914.227 1497.98 682.227C1914.17 380.014 2658.48 -385.773 3321.98 246.228" stroke="url(#paint95_linear)"/>
<path d="M53.938 520.967C474.938 1269.46 1164.94 915.964 1484.44 683.964C1900.63 381.751 2644.94 -384.035 3308.44 247.966" stroke="url(#paint96_linear)"/>
<path d="M40.4702 523.196C461.47 1271.69 1151.47 918.193 1470.97 686.193C1887.16 383.98 2631.47 -381.807 3294.97 250.194" stroke="url(#paint97_linear)"/>
<path d="M27.0913 525.906C448.091 1274.4 1138.09 920.903 1457.59 688.903C1873.79 386.69 2618.09 -379.097 3281.59 252.904" stroke="url(#paint98_linear)"/>
<path d="M13.7856 529.092C434.786 1277.59 1124.79 924.089 1444.29 692.089C1860.48 389.876 2604.79 -375.91 3268.29 256.091" stroke="url(#paint99_linear)"/>
<path d="M0.578613 532.74C421.579 1281.24 1111.58 927.737 1431.08 695.737C1847.27 393.524 2591.58 -372.263 3255.08 259.738" stroke="url(#paint100_linear)"/>
<defs>
<linearGradient id="paint0_linear" x1="2267.83" y1="16.7363" x2="2267.83" y2="985.266" gradientUnits="userSpaceOnUse">
<stop stop-color="#67DE69"/>
<stop offset="1" stop-color="#0047B0"/>
</linearGradient>
<linearGradient id="paint1_linear" x1="2259.23" y1="27.3916" x2="2259.23" y2="995.921" gradientUnits="userSpaceOnUse">
<stop stop-color="#67DE69"/>
<stop offset="1" stop-color="#0047B0"/>
</linearGradient>
<linearGradient id="paint2_linear" x1="2250.2" y1="37.625" x2="2250.2" y2="1006.15" gradientUnits="userSpaceOnUse">
<stop stop-color="#67DE69"/>
<stop offset="1" stop-color="#0047B0"/>
</linearGradient>
<linearGradient id="paint3_linear" x1="2240.67" y1="47.3955" x2="2240.67" y2="1015.93" gradientUnits="userSpaceOnUse">
<stop stop-color="#67DE69"/>
<stop offset="1" stop-color="#0047B0"/>
</linearGradient>
<linearGradient id="paint4_linear" x1="2230.6" y1="56.6123" x2="2230.6" y2="1025.14" gradientUnits="userSpaceOnUse">
<stop stop-color="#67DE69"/>
<stop offset="1" stop-color="#0047B0"/>
</linearGradient>
<linearGradient id="paint5_linear" x1="2219.96" y1="65.1709" x2="2219.96" y2="1033.7" gradientUnits="userSpaceOnUse">
<stop stop-color="#67DE69"/>
<stop offset="1" stop-color="#0047B0"/>
</linearGradient>
<linearGradient id="paint6_linear" x1="2208.75" y1="72.9521" x2="2208.75" y2="1041.48" gradientUnits="userSpaceOnUse">
<stop stop-color="#67DE69"/>
<stop offset="1" stop-color="#0047B0"/>
</linearGradient>
<linearGradient id="paint7_linear" x1="2196.95" y1="79.8291" x2="2196.95" y2="1048.36" gradientUnits="userSpaceOnUse">
<stop stop-color="#67DE69"/>
<stop offset="1" stop-color="#0047B0"/>
</linearGradient>
<linearGradient id="paint8_linear" x1="2184.6" y1="85.6787" x2="2184.6" y2="1054.21" gradientUnits="userSpaceOnUse">
<stop stop-color="#67DE69"/>
<stop offset="1" stop-color="#0047B0"/>
</linearGradient>
<linearGradient id="paint9_linear" x1="2171.78" y1="90.3975" x2="2171.78" y2="1058.93" gradientUnits="userSpaceOnUse">
<stop stop-color="#67DE69"/>
<stop offset="1" stop-color="#0047B0"/>
</linearGradient>
<linearGradient id="paint10_linear" x1="2158.58" y1="93.9219" x2="2158.58" y2="1062.45" gradientUnits="userSpaceOnUse">
<stop stop-color="#67DE69"/>
<stop offset="1" stop-color="#0047B0"/>
</linearGradient>
<linearGradient id="paint11_linear" x1="2145.11" y1="96.2383" x2="2145.11" y2="1064.77" gradientUnits="userSpaceOnUse">
<stop stop-color="#67DE69"/>
<stop offset="1" stop-color="#0047B0"/>
</linearGradient>
<linearGradient id="paint12_linear" x1="2131.49" y1="97.3867" x2="2131.49" y2="1065.92" gradientUnits="userSpaceOnUse">
<stop stop-color="#67DE69"/>
<stop offset="1" stop-color="#0047B0"/>
</linearGradient>
<linearGradient id="paint13_linear" x1="2117.82" y1="97.4551" x2="2117.82" y2="1065.98" gradientUnits="userSpaceOnUse">
<stop stop-color="#67DE69"/>
<stop offset="1" stop-color="#0047B0"/>
</linearGradient>
<linearGradient id="paint14_linear" x1="2104.19" y1="96.5557" x2="2104.19" y2="1065.09" gradientUnits="userSpaceOnUse">
<stop stop-color="#67DE69"/>
<stop offset="1" stop-color="#0047B0"/>
</linearGradient>
<linearGradient id="paint15_linear" x1="2090.63" y1="94.8164" x2="2090.63" y2="1063.35" gradientUnits="userSpaceOnUse">
<stop stop-color="#67DE69"/>
<stop offset="1" stop-color="#0047B0"/>
</linearGradient>
<linearGradient id="paint16_linear" x1="2077.19" y1="92.3633" x2="2077.19" y2="1060.89" gradientUnits="userSpaceOnUse">
<stop stop-color="#67DE69"/>
<stop offset="1" stop-color="#0047B0"/>
</linearGradient>
<linearGradient id="paint17_linear" x1="2063.87" y1="89.3145" x2="2063.87" y2="1057.84" gradientUnits="userSpaceOnUse">
<stop stop-color="#67DE69"/>
<stop offset="1" stop-color="#0047B0"/>
</linearGradient>
<linearGradient id="paint18_linear" x1="2050.67" y1="85.7773" x2="2050.67" y2="1054.31" gradientUnits="userSpaceOnUse">
<stop stop-color="#67DE69"/>
<stop offset="1" stop-color="#0047B0"/>
</linearGradient>
<linearGradient id="paint19_linear" x1="2037.58" y1="81.8457" x2="2037.58" y2="1050.38" gradientUnits="userSpaceOnUse">
<stop stop-color="#67DE69"/>
<stop offset="1" stop-color="#0047B0"/>
</linearGradient>
<linearGradient id="paint20_linear" x1="2024.59" y1="77.6016" x2="2024.59" y2="1046.13" gradientUnits="userSpaceOnUse">
<stop stop-color="#67DE69"/>
<stop offset="1" stop-color="#0047B0"/>
</linearGradient>
<linearGradient id="paint21_linear" x1="2011.68" y1="73.1172" x2="2011.68" y2="1041.65" gradientUnits="userSpaceOnUse">
<stop stop-color="#67DE69"/>
<stop offset="1" stop-color="#0047B0"/>
</linearGradient>
<linearGradient id="paint22_linear" x1="1998.84" y1="68.457" x2="1998.84" y2="1036.99" gradientUnits="userSpaceOnUse">
<stop stop-color="#67DE69"/>
<stop offset="1" stop-color="#0047B0"/>
</linearGradient>
<linearGradient id="paint23_linear" x1="1986.04" y1="63.6748" x2="1986.04" y2="1032.2" gradientUnits="userSpaceOnUse">
<stop stop-color="#67DE69"/>
<stop offset="1" stop-color="#0047B0"/>
</linearGradient>
<linearGradient id="paint24_linear" x1="1973.26" y1="58.8232" x2="1973.26" y2="1027.35" gradientUnits="userSpaceOnUse">
<stop stop-color="#67DE69"/>
<stop offset="1" stop-color="#0047B0"/>
</linearGradient>
<linearGradient id="paint25_linear" x1="1960.49" y1="53.9453" x2="1960.49" y2="1022.47" gradientUnits="userSpaceOnUse">
<stop stop-color="#67DE69"/>
<stop offset="1" stop-color="#0047B0"/>
</linearGradient>
<linearGradient id="paint26_linear" x1="1947.72" y1="49.085" x2="1947.72" y2="1017.61" gradientUnits="userSpaceOnUse">
<stop stop-color="#67DE69"/>
<stop offset="1" stop-color="#0047B0"/>
</linearGradient>
<linearGradient id="paint27_linear" x1="1934.93" y1="44.2793" x2="1934.93" y2="1012.81" gradientUnits="userSpaceOnUse">
<stop stop-color="#67DE69"/>
<stop offset="1" stop-color="#0047B0"/>
</linearGradient>
<linearGradient id="paint28_linear" x1="1922.1" y1="39.5664" x2="1922.1" y2="1008.1" gradientUnits="userSpaceOnUse">
<stop stop-color="#67DE69"/>
<stop offset="1" stop-color="#0047B0"/>
</linearGradient>
<linearGradient id="paint29_linear" x1="1909.22" y1="34.9805" x2="1909.22" y2="1003.51" gradientUnits="userSpaceOnUse">
<stop stop-color="#67DE69"/>
<stop offset="1" stop-color="#0047B0"/>
</linearGradient>
<linearGradient id="paint30_linear" x1="1896.29" y1="30.5557" x2="1896.29" y2="999.085" gradientUnits="userSpaceOnUse">
<stop stop-color="#67DE69"/>
<stop offset="1" stop-color="#0047B0"/>
</linearGradient>
<linearGradient id="paint31_linear" x1="1883.3" y1="26.3252" x2="1883.3" y2="994.855" gradientUnits="userSpaceOnUse">
<stop stop-color="#67DE69"/>
<stop offset="1" stop-color="#0047B0"/>
</linearGradient>
<linearGradient id="paint32_linear" x1="1870.23" y1="22.3203" x2="1870.23" y2="990.85" gradientUnits="userSpaceOnUse">
<stop stop-color="#67DE69"/>
<stop offset="1" stop-color="#0047B0"/>
</linearGradient>
<linearGradient id="paint33_linear" x1="1857.09" y1="18.5713" x2="1857.09" y2="987.101" gradientUnits="userSpaceOnUse">
<stop stop-color="#67DE69"/>
<stop offset="1" stop-color="#0047B0"/>
</linearGradient>
<linearGradient id="paint34_linear" x1="1843.86" y1="15.1104" x2="1843.86" y2="983.64" gradientUnits="userSpaceOnUse">
<stop stop-color="#67DE69"/>
<stop offset="1" stop-color="#0047B0"/>
</linearGradient>
<linearGradient id="paint35_linear" x1="1830.56" y1="11.9668" x2="1830.56" y2="980.496" gradientUnits="userSpaceOnUse">
<stop stop-color="#67DE69"/>
<stop offset="1" stop-color="#0047B0"/>
</linearGradient>
<linearGradient id="paint36_linear" x1="1817.19" y1="9.16699" x2="1817.19" y2="977.697" gradientUnits="userSpaceOnUse">
<stop stop-color="#67DE69"/>
<stop offset="1" stop-color="#0047B0"/>
</linearGradient>
<linearGradient id="paint37_linear" x1="1803.74" y1="6.74121" x2="1803.74" y2="975.271" gradientUnits="userSpaceOnUse">
<stop stop-color="#67DE69"/>
<stop offset="1" stop-color="#0047B0"/>
</linearGradient>
<linearGradient id="paint38_linear" x1="1790.22" y1="4.71191" x2="1790.22" y2="973.241" gradientUnits="userSpaceOnUse">
<stop stop-color="#67DE69"/>
<stop offset="1" stop-color="#0047B0"/>
</linearGradient>
<linearGradient id="paint39_linear" x1="1776.65" y1="3.10449" x2="1776.65" y2="971.634" gradientUnits="userSpaceOnUse">
<stop stop-color="#67DE69"/>
<stop offset="1" stop-color="#0047B0"/>
</linearGradient>
<linearGradient id="paint40_linear" x1="1763.03" y1="1.93848" x2="1763.03" y2="970.468" gradientUnits="userSpaceOnUse">
<stop stop-color="#67DE69"/>
<stop offset="1" stop-color="#0047B0"/>
</linearGradient>
<linearGradient id="paint41_linear" x1="1749.38" y1="1.23242" x2="1749.38" y2="969.762" gradientUnits="userSpaceOnUse">
<stop stop-color="#67DE69"/>
<stop offset="1" stop-color="#0047B0"/>
</linearGradient>
<linearGradient id="paint42_linear" x1="1735.72" y1="1" x2="1735.72" y2="969.53" gradientUnits="userSpaceOnUse">
<stop stop-color="#67DE69"/>
<stop offset="1" stop-color="#0047B0"/>
</linearGradient>
<linearGradient id="paint43_linear" x1="1722.06" y1="1.25293" x2="1722.06" y2="969.782" gradientUnits="userSpaceOnUse">
<stop stop-color="#67DE69"/>
<stop offset="1" stop-color="#0047B0"/>
</linearGradient>
<linearGradient id="paint44_linear" x1="1708.41" y1="1.99805" x2="1708.41" y2="970.528" gradientUnits="userSpaceOnUse">
<stop stop-color="#67DE69"/>
<stop offset="1" stop-color="#0047B0"/>
</linearGradient>
<linearGradient id="paint45_linear" x1="1694.8" y1="3.23828" x2="1694.8" y2="971.768" gradientUnits="userSpaceOnUse">
<stop stop-color="#67DE69"/>
<stop offset="1" stop-color="#0047B0"/>
</linearGradient>
<linearGradient id="paint46_linear" x1="1681.25" y1="4.97266" x2="1681.25" y2="973.502" gradientUnits="userSpaceOnUse">
<stop stop-color="#67DE69"/>
<stop offset="1" stop-color="#0047B0"/>
</linearGradient>
<linearGradient id="paint47_linear" x1="1667.76" y1="7.19629" x2="1667.76" y2="975.726" gradientUnits="userSpaceOnUse">
<stop stop-color="#67DE69"/>
<stop offset="1" stop-color="#0047B0"/>
</linearGradient>
<linearGradient id="paint48_linear" x1="1654.37" y1="9.90332" x2="1654.37" y2="978.433" gradientUnits="userSpaceOnUse">
<stop stop-color="#67DE69"/>
<stop offset="1" stop-color="#0047B0"/>
</linearGradient>
<linearGradient id="paint49_linear" x1="1641.05" y1="13.0869" x2="1641.05" y2="981.616" gradientUnits="userSpaceOnUse">
<stop stop-color="#67DE69"/>
<stop offset="1" stop-color="#0047B0"/>
</linearGradient>
<linearGradient id="paint50_linear" x1="2267.83" y1="16.7363" x2="2267.83" y2="985.266" gradientUnits="userSpaceOnUse">
<stop stop-color="#67DE69"/>
<stop offset="1" stop-color="#0047B0"/>
</linearGradient>
<linearGradient id="paint51_linear" x1="2258.94" y1="27.1338" x2="2258.94" y2="995.663" gradientUnits="userSpaceOnUse">
<stop stop-color="#67DE69"/>
<stop offset="1" stop-color="#0047B0"/>
</linearGradient>
<linearGradient id="paint52_linear" x1="2249.67" y1="37.127" x2="2249.67" y2="1005.66" gradientUnits="userSpaceOnUse">
<stop stop-color="#67DE69"/>
<stop offset="1" stop-color="#0047B0"/>
</linearGradient>
<linearGradient id="paint53_linear" x1="2239.93" y1="46.6787" x2="2239.93" y2="1015.21" gradientUnits="userSpaceOnUse">
<stop stop-color="#67DE69"/>
<stop offset="1" stop-color="#0047B0"/>
</linearGradient>
<linearGradient id="paint54_linear" x1="2229.72" y1="55.708" x2="2229.72" y2="1024.24" gradientUnits="userSpaceOnUse">
<stop stop-color="#67DE69"/>
<stop offset="1" stop-color="#0047B0"/>
</linearGradient>
<linearGradient id="paint55_linear" x1="2218.98" y1="64.1221" x2="2218.98" y2="1032.65" gradientUnits="userSpaceOnUse">
<stop stop-color="#67DE69"/>
<stop offset="1" stop-color="#0047B0"/>
</linearGradient>
<linearGradient id="paint56_linear" x1="2207.72" y1="71.8154" x2="2207.72" y2="1040.34" gradientUnits="userSpaceOnUse">
<stop stop-color="#67DE69"/>
<stop offset="1" stop-color="#0047B0"/>
</linearGradient>
<linearGradient id="paint57_linear" x1="2195.93" y1="78.6738" x2="2195.93" y2="1047.2" gradientUnits="userSpaceOnUse">
<stop stop-color="#67DE69"/>
<stop offset="1" stop-color="#0047B0"/>
</linearGradient>
<linearGradient id="paint58_linear" x1="2183.63" y1="84.583" x2="2183.63" y2="1053.11" gradientUnits="userSpaceOnUse">
<stop stop-color="#67DE69"/>
<stop offset="1" stop-color="#0047B0"/>
</linearGradient>
<linearGradient id="paint59_linear" x1="2170.88" y1="89.4414" x2="2170.88" y2="1057.97" gradientUnits="userSpaceOnUse">
<stop stop-color="#67DE69"/>
<stop offset="1" stop-color="#0047B0"/>
</linearGradient>
<linearGradient id="paint60_linear" x1="2157.75" y1="93.1738" x2="2157.75" y2="1061.7" gradientUnits="userSpaceOnUse">
<stop stop-color="#67DE69"/>
<stop offset="1" stop-color="#0047B0"/>
</linearGradient>
<linearGradient id="paint61_linear" x1="2144.34" y1="95.75" x2="2144.34" y2="1064.28" gradientUnits="userSpaceOnUse">
<stop stop-color="#67DE69"/>
<stop offset="1" stop-color="#0047B0"/>
</linearGradient>
<linearGradient id="paint62_linear" x1="2130.77" y1="97.1846" x2="2130.77" y2="1065.71" gradientUnits="userSpaceOnUse">
<stop stop-color="#67DE69"/>
<stop offset="1" stop-color="#0047B0"/>
</linearGradient>
<linearGradient id="paint63_linear" x1="2117.12" y1="97.5391" x2="2117.12" y2="1066.07" gradientUnits="userSpaceOnUse">
<stop stop-color="#67DE69"/>
<stop offset="1" stop-color="#0047B0"/>
</linearGradient>
<linearGradient id="paint64_linear" x1="2103.48" y1="96.9072" x2="2103.48" y2="1065.44" gradientUnits="userSpaceOnUse">
<stop stop-color="#67DE69"/>
<stop offset="1" stop-color="#0047B0"/>
</linearGradient>
<linearGradient id="paint65_linear" x1="2089.91" y1="95.4033" x2="2089.91" y2="1063.93" gradientUnits="userSpaceOnUse">
<stop stop-color="#67DE69"/>
<stop offset="1" stop-color="#0047B0"/>
</linearGradient>
<linearGradient id="paint66_linear" x1="2076.45" y1="93.1465" x2="2076.45" y2="1061.68" gradientUnits="userSpaceOnUse">
<stop stop-color="#67DE69"/>
<stop offset="1" stop-color="#0047B0"/>
</linearGradient>
<linearGradient id="paint67_linear" x1="2063.11" y1="90.2539" x2="2063.11" y2="1058.78" gradientUnits="userSpaceOnUse">
<stop stop-color="#67DE69"/>
<stop offset="1" stop-color="#0047B0"/>
</linearGradient>
<linearGradient id="paint68_linear" x1="2049.89" y1="86.834" x2="2049.89" y2="1055.36" gradientUnits="userSpaceOnUse">
<stop stop-color="#67DE69"/>
<stop offset="1" stop-color="#0047B0"/>
</linearGradient>
<linearGradient id="paint69_linear" x1="2036.8" y1="82.9824" x2="2036.8" y2="1051.51" gradientUnits="userSpaceOnUse">
<stop stop-color="#67DE69"/>
<stop offset="1" stop-color="#0047B0"/>
</linearGradient>
<linearGradient id="paint70_linear" x1="2023.8" y1="78.7881" x2="2023.8" y2="1047.32" gradientUnits="userSpaceOnUse">
<stop stop-color="#67DE69"/>
<stop offset="1" stop-color="#0047B0"/>
</linearGradient>
<linearGradient id="paint71_linear" x1="2010.9" y1="74.3252" x2="2010.9" y2="1042.85" gradientUnits="userSpaceOnUse">
<stop stop-color="#67DE69"/>
<stop offset="1" stop-color="#0047B0"/>
</linearGradient>
<linearGradient id="paint72_linear" x1="1998.07" y1="69.6611" x2="1998.07" y2="1038.19" gradientUnits="userSpaceOnUse">
<stop stop-color="#67DE69"/>
<stop offset="1" stop-color="#0047B0"/>
</linearGradient>
<linearGradient id="paint73_linear" x1="1985.3" y1="64.8564" x2="1985.3" y2="1033.39" gradientUnits="userSpaceOnUse">
<stop stop-color="#67DE69"/>
<stop offset="1" stop-color="#0047B0"/>
</linearGradient>
<linearGradient id="paint74_linear" x1="1972.55" y1="59.9639" x2="1972.55" y2="1028.49" gradientUnits="userSpaceOnUse">
<stop stop-color="#67DE69"/>
<stop offset="1" stop-color="#0047B0"/>
</linearGradient>
<linearGradient id="paint75_linear" x1="1959.82" y1="55.0322" x2="1959.82" y2="1023.56" gradientUnits="userSpaceOnUse">
<stop stop-color="#67DE69"/>
<stop offset="1" stop-color="#0047B0"/>
</linearGradient>
<linearGradient id="paint76_linear" x1="1947.09" y1="50.1064" x2="1947.09" y2="1018.64" gradientUnits="userSpaceOnUse">
<stop stop-color="#67DE69"/>
<stop offset="1" stop-color="#0047B0"/>
</linearGradient>
<linearGradient id="paint77_linear" x1="1934.34" y1="45.2266" x2="1934.34" y2="1013.76" gradientUnits="userSpaceOnUse">
<stop stop-color="#67DE69"/>
<stop offset="1" stop-color="#0047B0"/>
</linearGradient>
<linearGradient id="paint78_linear" x1="1921.55" y1="40.4336" x2="1921.55" y2="1008.96" gradientUnits="userSpaceOnUse">
<stop stop-color="#67DE69"/>
<stop offset="1" stop-color="#0047B0"/>
</linearGradient>
<linearGradient id="paint79_linear" x1="1908.72" y1="35.7627" x2="1908.72" y2="1004.29" gradientUnits="userSpaceOnUse">
<stop stop-color="#67DE69"/>
<stop offset="1" stop-color="#0047B0"/>
</linearGradient>
<linearGradient id="paint80_linear" x1="1895.84" y1="31.251" x2="1895.84" y2="999.781" gradientUnits="userSpaceOnUse">
<stop stop-color="#67DE69"/>
<stop offset="1" stop-color="#0047B0"/>
</linearGradient>
<linearGradient id="paint81_linear" x1="1882.89" y1="26.9326" x2="1882.89" y2="995.462" gradientUnits="userSpaceOnUse">
<stop stop-color="#67DE69"/>
<stop offset="1" stop-color="#0047B0"/>
</linearGradient>
<linearGradient id="paint82_linear" x1="1869.86" y1="22.8418" x2="1869.86" y2="991.371" gradientUnits="userSpaceOnUse">
<stop stop-color="#67DE69"/>
<stop offset="1" stop-color="#0047B0"/>
</linearGradient>
<linearGradient id="paint83_linear" x1="1856.76" y1="19.0107" x2="1856.76" y2="987.54" gradientUnits="userSpaceOnUse">
<stop stop-color="#67DE69"/>
<stop offset="1" stop-color="#0047B0"/>
</linearGradient>
<linearGradient id="paint84_linear" x1="1843.57" y1="15.4707" x2="1843.57" y2="984" gradientUnits="userSpaceOnUse">
<stop stop-color="#67DE69"/>
<stop offset="1" stop-color="#0047B0"/>
</linearGradient>
<linearGradient id="paint85_linear" x1="1830.3" y1="12.2539" x2="1830.3" y2="980.783" gradientUnits="userSpaceOnUse">
<stop stop-color="#67DE69"/>
<stop offset="1" stop-color="#0047B0"/>
</linearGradient>
<linearGradient id="paint86_linear" x1="1816.95" y1="9.38867" x2="1816.95" y2="977.918" gradientUnits="userSpaceOnUse">
<stop stop-color="#67DE69"/>
<stop offset="1" stop-color="#0047B0"/>
</linearGradient>
<linearGradient id="paint87_linear" x1="1803.53" y1="6.90332" x2="1803.53" y2="975.433" gradientUnits="userSpaceOnUse">
<stop stop-color="#67DE69"/>
<stop offset="1" stop-color="#0047B0"/>
</linearGradient>
<linearGradient id="paint88_linear" x1="1790.04" y1="4.8252" x2="1790.04" y2="973.355" gradientUnits="userSpaceOnUse">
<stop stop-color="#67DE69"/>
<stop offset="1" stop-color="#0047B0"/>
</linearGradient>
<linearGradient id="paint89_linear" x1="1776.48" y1="3.17578" x2="1776.48" y2="971.705" gradientUnits="userSpaceOnUse">
<stop stop-color="#67DE69"/>
<stop offset="1" stop-color="#0047B0"/>
</linearGradient>
<linearGradient id="paint90_linear" x1="1762.89" y1="1.97754" x2="1762.89" y2="970.507" gradientUnits="userSpaceOnUse">
<stop stop-color="#67DE69"/>
<stop offset="1" stop-color="#0047B0"/>
</linearGradient>
<linearGradient id="paint91_linear" x1="1749.25" y1="1.24805" x2="1749.25" y2="969.778" gradientUnits="userSpaceOnUse">
<stop stop-color="#67DE69"/>
<stop offset="1" stop-color="#0047B0"/>
</linearGradient>
<linearGradient id="paint92_linear" x1="1735.6" y1="1" x2="1735.6" y2="969.53" gradientUnits="userSpaceOnUse">
<stop stop-color="#67DE69"/>
<stop offset="1" stop-color="#0047B0"/>
</linearGradient>
<linearGradient id="paint93_linear" x1="1721.95" y1="1.24414" x2="1721.95" y2="969.774" gradientUnits="userSpaceOnUse">
<stop stop-color="#67DE69"/>
<stop offset="1" stop-color="#0047B0"/>
</linearGradient>
<linearGradient id="paint94_linear" x1="1708.32" y1="1.98535" x2="1708.32" y2="970.515" gradientUnits="userSpaceOnUse">
<stop stop-color="#67DE69"/>
<stop offset="1" stop-color="#0047B0"/>
</linearGradient>
<linearGradient id="paint95_linear" x1="1694.73" y1="3.22656" x2="1694.73" y2="971.756" gradientUnits="userSpaceOnUse">
<stop stop-color="#67DE69"/>
<stop offset="1" stop-color="#0047B0"/>
</linearGradient>
<linearGradient id="paint96_linear" x1="1681.19" y1="4.96387" x2="1681.19" y2="973.493" gradientUnits="userSpaceOnUse">
<stop stop-color="#67DE69"/>
<stop offset="1" stop-color="#0047B0"/>
</linearGradient>
<linearGradient id="paint97_linear" x1="1667.72" y1="7.19238" x2="1667.72" y2="975.722" gradientUnits="userSpaceOnUse">
<stop stop-color="#67DE69"/>
<stop offset="1" stop-color="#0047B0"/>
</linearGradient>
<linearGradient id="paint98_linear" x1="1654.34" y1="9.90234" x2="1654.34" y2="978.432" gradientUnits="userSpaceOnUse">
<stop stop-color="#67DE69"/>
<stop offset="1" stop-color="#0047B0"/>
</linearGradient>
<linearGradient id="paint99_linear" x1="1641.04" y1="13.0889" x2="1641.04" y2="981.618" gradientUnits="userSpaceOnUse">
<stop stop-color="#67DE69"/>
<stop offset="1" stop-color="#0047B0"/>
</linearGradient>
<linearGradient id="paint100_linear" x1="1627.83" y1="16.7363" x2="1627.83" y2="985.266" gradientUnits="userSpaceOnUse">
<stop stop-color="#67DE69"/>
<stop offset="1" stop-color="#0047B0"/>
</linearGradient>
</defs>
</svg>
