<svg width="2394" height="1468" viewBox="0 0 2394 1468" fill="none" xmlns="http://www.w3.org/2000/svg">
<path d="M381.487 683.236C454.193 529.38 632.239 343.762 1004.1 579.418C1316.82 777.603 1685.02 1262.35 2393.43 758.327" stroke="url(#paint0_linear)"/>
<path d="M375.02 690.446C447.726 536.59 625.772 350.971 997.629 586.627C1310.36 784.812 1678.55 1269.56 2386.96 765.536" stroke="url(#paint1_linear)"/>
<path d="M368.372 697.464C441.077 543.608 619.123 357.989 990.98 593.645C1303.71 791.83 1671.91 1276.58 2380.31 772.555" stroke="url(#paint2_linear)"/>
<path d="M361.565 704.252C434.27 550.397 612.316 364.778 984.173 600.434C1296.9 798.619 1665.1 1283.37 2373.5 779.343" stroke="url(#paint3_linear)"/>
<path d="M354.603 710.798C427.309 556.942 605.355 371.323 977.212 606.979C1289.94 805.164 1658.14 1289.91 2366.54 785.889" stroke="url(#paint4_linear)"/>
<path d="M347.494 717.086C420.199 563.23 598.245 377.611 970.102 613.267C1282.83 811.452 1651.03 1296.2 2359.43 792.177" stroke="url(#paint5_linear)"/>
<path d="M340.236 723.102C412.942 569.246 590.988 383.627 962.845 619.283C1275.57 817.468 1643.77 1302.22 2352.17 798.193" stroke="url(#paint6_linear)"/>
<path d="M332.839 728.832C405.545 574.976 583.591 389.358 955.448 625.014C1268.18 823.199 1636.37 1307.95 2344.78 803.923" stroke="url(#paint7_linear)"/>
<path d="M325.309 734.261C398.014 580.405 576.06 394.787 947.917 630.443C1260.65 828.628 1628.84 1313.38 2337.25 809.352" stroke="url(#paint8_linear)"/>
<path d="M317.651 739.375C390.357 585.519 568.403 399.9 940.26 635.556C1252.99 833.741 1621.18 1318.49 2329.59 814.466" stroke="url(#paint9_linear)"/>
<path d="M309.875 744.157C382.58 590.302 560.626 404.683 932.483 640.339C1245.21 838.524 1613.41 1323.27 2321.81 819.248" stroke="url(#paint10_linear)"/>
<path d="M301.991 748.596C374.696 594.74 552.742 409.121 924.599 644.777C1237.33 842.962 1605.52 1327.71 2313.93 823.687" stroke="url(#paint11_linear)"/>
<path d="M294.008 752.677C366.713 598.821 544.759 413.202 916.616 648.858C1229.35 847.043 1597.54 1331.79 2305.95 827.768" stroke="url(#paint12_linear)"/>
<path d="M285.939 756.389C358.645 602.533 536.691 416.914 908.548 652.57C1221.28 850.755 1589.47 1335.5 2297.88 831.48" stroke="url(#paint13_linear)"/>
<path d="M277.798 759.722C350.503 605.866 528.549 420.248 900.406 655.904C1213.13 854.089 1581.33 1338.84 2289.74 834.813" stroke="url(#paint14_linear)"/>
<path d="M269.594 762.667C342.299 608.812 520.345 423.193 892.202 658.849C1204.93 857.034 1573.13 1341.78 2281.53 837.758" stroke="url(#paint15_linear)"/>
<path d="M261.344 765.219C334.049 611.363 512.095 425.744 883.952 661.4C1196.68 859.585 1564.88 1344.33 2273.28 840.31" stroke="url(#paint16_linear)"/>
<path d="M253.061 767.372C325.767 613.516 503.813 427.897 875.669 663.553C1188.4 861.738 1556.59 1346.49 2265 842.463" stroke="url(#paint17_linear)"/>
<path d="M244.76 769.125C317.465 615.269 495.511 429.651 867.368 665.307C1180.1 863.492 1548.29 1348.24 2256.7 844.216" stroke="url(#paint18_linear)"/>
<path d="M236.454 770.479C309.16 616.623 487.206 431.005 859.063 666.661C1171.79 864.845 1539.99 1349.59 2248.39 845.57" stroke="url(#paint19_linear)"/>
<path d="M228.158 771.436C300.863 617.58 478.909 431.962 850.766 667.618C1163.5 865.803 1531.69 1350.55 2240.1 846.527" stroke="url(#paint20_linear)"/>
<path d="M219.884 772.002C292.59 618.146 470.636 432.527 842.493 668.183C1155.22 866.368 1523.42 1351.12 2231.82 847.093" stroke="url(#paint21_linear)"/>
<path d="M211.645 772.183C284.351 618.327 462.397 432.708 834.253 668.364C1146.98 866.549 1515.18 1351.3 2223.58 847.274" stroke="url(#paint22_linear)"/>
<path d="M203.45 771.987C276.156 618.131 454.202 432.513 826.059 668.169C1138.79 866.354 1506.98 1351.1 2215.39 847.078" stroke="url(#paint23_linear)"/>
<path d="M195.313 771.427C268.018 617.571 446.064 431.952 817.921 667.608C1130.65 865.793 1498.85 1350.54 2207.25 846.517" stroke="url(#paint24_linear)"/>
<path d="M187.239 770.511C259.945 616.655 437.991 431.037 809.847 666.693C1122.58 864.878 1490.77 1349.63 2199.18 845.602" stroke="url(#paint25_linear)"/>
<path d="M179.238 769.254C251.943 615.399 429.989 429.78 801.846 665.436C1114.58 863.621 1482.77 1348.37 2191.18 844.345" stroke="url(#paint26_linear)"/>
<path d="M171.316 767.668C244.021 613.813 422.067 428.194 793.924 663.85C1106.65 862.035 1474.85 1346.78 2183.25 842.759" stroke="url(#paint27_linear)"/>
<path d="M163.479 765.768C236.184 611.912 414.23 426.294 786.087 661.95C1098.82 860.135 1467.01 1344.88 2175.42 840.859" stroke="url(#paint28_linear)"/>
<path d="M155.731 763.566C228.437 609.711 406.483 424.092 778.34 659.748C1091.07 857.933 1459.26 1342.68 2167.67 838.657" stroke="url(#paint29_linear)"/>
<path d="M148.075 761.077C220.781 607.221 398.827 421.603 770.684 657.259C1083.41 855.444 1451.61 1340.19 2160.01 836.168" stroke="url(#paint30_linear)"/>
<path d="M140.515 758.314C213.22 604.459 391.266 418.84 763.123 654.496C1075.85 852.681 1444.05 1337.43 2152.45 833.405" stroke="url(#paint31_linear)"/>
<path d="M133.053 755.291C205.758 601.435 383.804 415.817 755.661 651.473C1068.39 849.658 1436.59 1334.41 2144.99 830.382" stroke="url(#paint32_linear)"/>
<path d="M125.688 752.021C198.394 598.165 376.44 412.546 748.296 648.202C1061.03 846.387 1429.22 1331.14 2137.63 827.112" stroke="url(#paint33_linear)"/>
<path d="M118.423 748.516C191.129 594.66 369.175 409.041 741.032 644.697C1053.76 842.882 1421.96 1327.63 2130.36 823.607" stroke="url(#paint34_linear)"/>
<path d="M111.257 744.789C183.963 590.933 362.009 405.314 733.866 640.97C1046.59 839.155 1414.79 1323.9 2123.2 819.879" stroke="url(#paint35_linear)"/>
<path d="M104.189 740.851C176.894 586.995 354.94 401.376 726.797 637.032C1039.53 835.217 1407.72 1319.97 2116.13 815.941" stroke="url(#paint36_linear)"/>
<path d="M97.2196 736.713C169.925 582.857 347.971 397.238 719.828 632.894C1032.56 831.079 1400.75 1315.83 2109.16 811.804" stroke="url(#paint37_linear)"/>
<path d="M90.3466 732.386C163.052 578.53 341.098 392.911 712.955 628.567C1025.68 826.752 1393.88 1311.5 2102.29 807.477" stroke="url(#paint38_linear)"/>
<path d="M83.5695 727.88C156.275 574.024 334.321 388.405 706.178 624.061C1018.91 822.246 1387.1 1306.99 2095.51 802.971" stroke="url(#paint39_linear)"/>
<path d="M76.8866 723.204C149.592 569.348 327.638 383.729 699.495 619.385C1012.22 817.57 1380.42 1302.32 2088.83 798.295" stroke="url(#paint40_linear)"/>
<path d="M70.2953 718.366C143.001 564.51 321.047 378.892 692.904 614.548C1005.63 812.733 1373.83 1297.48 2082.23 793.457" stroke="url(#paint41_linear)"/>
<path d="M63.7958 713.376C136.501 559.52 314.547 373.902 686.404 609.558C999.133 807.743 1367.33 1292.49 2075.73 788.467" stroke="url(#paint42_linear)"/>
<path d="M57.3852 708.242C130.091 554.386 308.137 368.767 679.993 604.423C992.722 802.608 1360.92 1287.36 2069.32 783.333" stroke="url(#paint43_linear)"/>
<path d="M51.0605 702.969C123.766 549.113 301.812 363.495 673.669 599.151C986.398 797.336 1354.59 1282.08 2063 778.06" stroke="url(#paint44_linear)"/>
<path d="M44.8212 697.567C117.527 543.711 295.573 358.092 667.43 593.748C980.158 791.933 1348.35 1276.68 2056.76 772.658" stroke="url(#paint45_linear)"/>
<path d="M38.6657 692.039C111.371 538.183 289.417 352.565 661.274 588.221C974.003 786.406 1342.2 1271.15 2050.6 767.13" stroke="url(#paint46_linear)"/>
<path d="M32.5902 686.394C105.296 532.538 283.342 346.919 655.199 582.575C967.928 780.76 1336.12 1265.51 2044.53 761.485" stroke="url(#paint47_linear)"/>
<path d="M26.5927 680.636C99.2981 526.78 277.344 341.161 649.201 576.817C961.93 775.002 1330.13 1259.75 2038.53 755.727" stroke="url(#paint48_linear)"/>
<path d="M20.6547 674.753C93.3601 520.897 271.406 335.278 643.263 570.934C955.992 769.119 1324.19 1253.87 2032.59 749.844" stroke="url(#paint49_linear)"/>
<path d="M14.7775 668.751C87.4829 514.896 265.529 329.277 637.386 564.933C950.115 763.118 1318.31 1247.87 2026.72 743.842" stroke="url(#paint50_linear)"/>
<defs>
<linearGradient id="paint0_linear" x1="1487.7" y1="437.656" x2="1287.22" y2="1003.91" gradientUnits="userSpaceOnUse">
<stop offset="0.458333" stop-color="#0047B0"/>
<stop offset="0.739583" stop-color="#67DE69"/>
</linearGradient>
<linearGradient id="paint1_linear" x1="1481.23" y1="444.865" x2="1280.75" y2="1011.12" gradientUnits="userSpaceOnUse">
<stop offset="0.458333" stop-color="#0047B0"/>
<stop offset="0.739583" stop-color="#67DE69"/>
</linearGradient>
<linearGradient id="paint2_linear" x1="1474.58" y1="451.883" x2="1274.1" y2="1018.14" gradientUnits="userSpaceOnUse">
<stop offset="0.458333" stop-color="#0047B0"/>
<stop offset="0.739583" stop-color="#67DE69"/>
</linearGradient>
<linearGradient id="paint3_linear" x1="1467.77" y1="458.672" x2="1267.29" y2="1024.92" gradientUnits="userSpaceOnUse">
<stop offset="0.458333" stop-color="#0047B0"/>
<stop offset="0.739583" stop-color="#67DE69"/>
</linearGradient>
<linearGradient id="paint4_linear" x1="1460.81" y1="465.217" x2="1260.33" y2="1031.47" gradientUnits="userSpaceOnUse">
<stop offset="0.458333" stop-color="#0047B0"/>
<stop offset="0.739583" stop-color="#67DE69"/>
</linearGradient>
<linearGradient id="paint5_linear" x1="1453.7" y1="471.505" x2="1253.22" y2="1037.76" gradientUnits="userSpaceOnUse">
<stop offset="0.458333" stop-color="#0047B0"/>
<stop offset="0.739583" stop-color="#67DE69"/>
</linearGradient>
<linearGradient id="paint6_linear" x1="1446.45" y1="477.521" x2="1245.97" y2="1043.77" gradientUnits="userSpaceOnUse">
<stop offset="0.458333" stop-color="#0047B0"/>
<stop offset="0.739583" stop-color="#67DE69"/>
</linearGradient>
<linearGradient id="paint7_linear" x1="1439.05" y1="483.252" x2="1238.57" y2="1049.5" gradientUnits="userSpaceOnUse">
<stop offset="0.458333" stop-color="#0047B0"/>
<stop offset="0.739583" stop-color="#67DE69"/>
</linearGradient>
<linearGradient id="paint8_linear" x1="1431.52" y1="488.681" x2="1231.04" y2="1054.93" gradientUnits="userSpaceOnUse">
<stop offset="0.458333" stop-color="#0047B0"/>
<stop offset="0.739583" stop-color="#67DE69"/>
</linearGradient>
<linearGradient id="paint9_linear" x1="1423.86" y1="493.794" x2="1223.38" y2="1060.05" gradientUnits="userSpaceOnUse">
<stop offset="0.458333" stop-color="#0047B0"/>
<stop offset="0.739583" stop-color="#67DE69"/>
</linearGradient>
<linearGradient id="paint10_linear" x1="1416.08" y1="498.577" x2="1215.6" y2="1064.83" gradientUnits="userSpaceOnUse">
<stop offset="0.458333" stop-color="#0047B0"/>
<stop offset="0.739583" stop-color="#67DE69"/>
</linearGradient>
<linearGradient id="paint11_linear" x1="1408.2" y1="503.015" x2="1207.72" y2="1069.27" gradientUnits="userSpaceOnUse">
<stop offset="0.458333" stop-color="#0047B0"/>
<stop offset="0.739583" stop-color="#67DE69"/>
</linearGradient>
<linearGradient id="paint12_linear" x1="1400.22" y1="507.096" x2="1199.74" y2="1073.35" gradientUnits="userSpaceOnUse">
<stop offset="0.458333" stop-color="#0047B0"/>
<stop offset="0.739583" stop-color="#67DE69"/>
</linearGradient>
<linearGradient id="paint13_linear" x1="1392.15" y1="510.809" x2="1191.67" y2="1077.06" gradientUnits="userSpaceOnUse">
<stop offset="0.458333" stop-color="#0047B0"/>
<stop offset="0.739583" stop-color="#67DE69"/>
</linearGradient>
<linearGradient id="paint14_linear" x1="1384.01" y1="514.142" x2="1183.53" y2="1080.39" gradientUnits="userSpaceOnUse">
<stop offset="0.458333" stop-color="#0047B0"/>
<stop offset="0.739583" stop-color="#67DE69"/>
</linearGradient>
<linearGradient id="paint15_linear" x1="1375.8" y1="517.087" x2="1175.32" y2="1083.34" gradientUnits="userSpaceOnUse">
<stop offset="0.458333" stop-color="#0047B0"/>
<stop offset="0.739583" stop-color="#67DE69"/>
</linearGradient>
<linearGradient id="paint16_linear" x1="1367.55" y1="519.639" x2="1167.07" y2="1085.89" gradientUnits="userSpaceOnUse">
<stop offset="0.458333" stop-color="#0047B0"/>
<stop offset="0.739583" stop-color="#67DE69"/>
</linearGradient>
<linearGradient id="paint17_linear" x1="1359.27" y1="521.791" x2="1158.79" y2="1088.04" gradientUnits="userSpaceOnUse">
<stop offset="0.458333" stop-color="#0047B0"/>
<stop offset="0.739583" stop-color="#67DE69"/>
</linearGradient>
<linearGradient id="paint18_linear" x1="1350.97" y1="523.545" x2="1150.49" y2="1089.8" gradientUnits="userSpaceOnUse">
<stop offset="0.458333" stop-color="#0047B0"/>
<stop offset="0.739583" stop-color="#67DE69"/>
</linearGradient>
<linearGradient id="paint19_linear" x1="1342.66" y1="524.899" x2="1142.18" y2="1091.15" gradientUnits="userSpaceOnUse">
<stop offset="0.458333" stop-color="#0047B0"/>
<stop offset="0.739583" stop-color="#67DE69"/>
</linearGradient>
<linearGradient id="paint20_linear" x1="1334.37" y1="525.856" x2="1133.89" y2="1092.11" gradientUnits="userSpaceOnUse">
<stop offset="0.458333" stop-color="#0047B0"/>
<stop offset="0.739583" stop-color="#67DE69"/>
</linearGradient>
<linearGradient id="paint21_linear" x1="1326.09" y1="526.421" x2="1125.61" y2="1092.67" gradientUnits="userSpaceOnUse">
<stop offset="0.458333" stop-color="#0047B0"/>
<stop offset="0.739583" stop-color="#67DE69"/>
</linearGradient>
<linearGradient id="paint22_linear" x1="1317.85" y1="526.602" x2="1117.37" y2="1092.85" gradientUnits="userSpaceOnUse">
<stop offset="0.458333" stop-color="#0047B0"/>
<stop offset="0.739583" stop-color="#67DE69"/>
</linearGradient>
<linearGradient id="paint23_linear" x1="1309.66" y1="526.407" x2="1109.18" y2="1092.66" gradientUnits="userSpaceOnUse">
<stop offset="0.458333" stop-color="#0047B0"/>
<stop offset="0.739583" stop-color="#67DE69"/>
</linearGradient>
<linearGradient id="paint24_linear" x1="1301.52" y1="525.846" x2="1101.04" y2="1092.1" gradientUnits="userSpaceOnUse">
<stop offset="0.458333" stop-color="#0047B0"/>
<stop offset="0.739583" stop-color="#67DE69"/>
</linearGradient>
<linearGradient id="paint25_linear" x1="1293.45" y1="524.931" x2="1092.97" y2="1091.18" gradientUnits="userSpaceOnUse">
<stop offset="0.458333" stop-color="#0047B0"/>
<stop offset="0.739583" stop-color="#67DE69"/>
</linearGradient>
<linearGradient id="paint26_linear" x1="1285.45" y1="523.674" x2="1084.97" y2="1089.93" gradientUnits="userSpaceOnUse">
<stop offset="0.458333" stop-color="#0047B0"/>
<stop offset="0.739583" stop-color="#67DE69"/>
</linearGradient>
<linearGradient id="paint27_linear" x1="1277.53" y1="522.088" x2="1077.05" y2="1088.34" gradientUnits="userSpaceOnUse">
<stop offset="0.458333" stop-color="#0047B0"/>
<stop offset="0.739583" stop-color="#67DE69"/>
</linearGradient>
<linearGradient id="paint28_linear" x1="1269.69" y1="520.188" x2="1069.21" y2="1086.44" gradientUnits="userSpaceOnUse">
<stop offset="0.458333" stop-color="#0047B0"/>
<stop offset="0.739583" stop-color="#67DE69"/>
</linearGradient>
<linearGradient id="paint29_linear" x1="1261.94" y1="517.986" x2="1061.46" y2="1084.24" gradientUnits="userSpaceOnUse">
<stop offset="0.458333" stop-color="#0047B0"/>
<stop offset="0.739583" stop-color="#67DE69"/>
</linearGradient>
<linearGradient id="paint30_linear" x1="1254.28" y1="515.497" x2="1053.8" y2="1081.75" gradientUnits="userSpaceOnUse">
<stop offset="0.458333" stop-color="#0047B0"/>
<stop offset="0.739583" stop-color="#67DE69"/>
</linearGradient>
<linearGradient id="paint31_linear" x1="1246.72" y1="512.734" x2="1046.24" y2="1078.99" gradientUnits="userSpaceOnUse">
<stop offset="0.458333" stop-color="#0047B0"/>
<stop offset="0.739583" stop-color="#67DE69"/>
</linearGradient>
<linearGradient id="paint32_linear" x1="1239.26" y1="509.711" x2="1038.78" y2="1075.96" gradientUnits="userSpaceOnUse">
<stop offset="0.458333" stop-color="#0047B0"/>
<stop offset="0.739583" stop-color="#67DE69"/>
</linearGradient>
<linearGradient id="paint33_linear" x1="1231.9" y1="506.44" x2="1031.42" y2="1072.69" gradientUnits="userSpaceOnUse">
<stop offset="0.458333" stop-color="#0047B0"/>
<stop offset="0.739583" stop-color="#67DE69"/>
</linearGradient>
<linearGradient id="paint34_linear" x1="1224.63" y1="502.935" x2="1024.15" y2="1069.19" gradientUnits="userSpaceOnUse">
<stop offset="0.458333" stop-color="#0047B0"/>
<stop offset="0.739583" stop-color="#67DE69"/>
</linearGradient>
<linearGradient id="paint35_linear" x1="1217.47" y1="499.208" x2="1016.99" y2="1065.46" gradientUnits="userSpaceOnUse">
<stop offset="0.458333" stop-color="#0047B0"/>
<stop offset="0.739583" stop-color="#67DE69"/>
</linearGradient>
<linearGradient id="paint36_linear" x1="1210.4" y1="495.27" x2="1009.92" y2="1061.52" gradientUnits="userSpaceOnUse">
<stop offset="0.458333" stop-color="#0047B0"/>
<stop offset="0.739583" stop-color="#67DE69"/>
</linearGradient>
<linearGradient id="paint37_linear" x1="1203.43" y1="491.132" x2="1002.95" y2="1057.38" gradientUnits="userSpaceOnUse">
<stop offset="0.458333" stop-color="#0047B0"/>
<stop offset="0.739583" stop-color="#67DE69"/>
</linearGradient>
<linearGradient id="paint38_linear" x1="1196.56" y1="486.805" x2="996.076" y2="1053.06" gradientUnits="userSpaceOnUse">
<stop offset="0.458333" stop-color="#0047B0"/>
<stop offset="0.739583" stop-color="#67DE69"/>
</linearGradient>
<linearGradient id="paint39_linear" x1="1189.78" y1="482.299" x2="989.299" y2="1048.55" gradientUnits="userSpaceOnUse">
<stop offset="0.458333" stop-color="#0047B0"/>
<stop offset="0.739583" stop-color="#67DE69"/>
</linearGradient>
<linearGradient id="paint40_linear" x1="1183.1" y1="477.623" x2="982.616" y2="1043.87" gradientUnits="userSpaceOnUse">
<stop offset="0.458333" stop-color="#0047B0"/>
<stop offset="0.739583" stop-color="#67DE69"/>
</linearGradient>
<linearGradient id="paint41_linear" x1="1176.5" y1="472.786" x2="976.025" y2="1039.04" gradientUnits="userSpaceOnUse">
<stop offset="0.458333" stop-color="#0047B0"/>
<stop offset="0.739583" stop-color="#67DE69"/>
</linearGradient>
<linearGradient id="paint42_linear" x1="1170.01" y1="467.796" x2="969.525" y2="1034.05" gradientUnits="userSpaceOnUse">
<stop offset="0.458333" stop-color="#0047B0"/>
<stop offset="0.739583" stop-color="#67DE69"/>
</linearGradient>
<linearGradient id="paint43_linear" x1="1163.59" y1="462.661" x2="963.114" y2="1028.91" gradientUnits="userSpaceOnUse">
<stop offset="0.458333" stop-color="#0047B0"/>
<stop offset="0.739583" stop-color="#67DE69"/>
</linearGradient>
<linearGradient id="paint44_linear" x1="1157.27" y1="457.389" x2="956.79" y2="1023.64" gradientUnits="userSpaceOnUse">
<stop offset="0.458333" stop-color="#0047B0"/>
<stop offset="0.739583" stop-color="#67DE69"/>
</linearGradient>
<linearGradient id="paint45_linear" x1="1151.03" y1="451.986" x2="950.551" y2="1018.24" gradientUnits="userSpaceOnUse">
<stop offset="0.458333" stop-color="#0047B0"/>
<stop offset="0.739583" stop-color="#67DE69"/>
</linearGradient>
<linearGradient id="paint46_linear" x1="1144.88" y1="446.459" x2="944.395" y2="1012.71" gradientUnits="userSpaceOnUse">
<stop offset="0.458333" stop-color="#0047B0"/>
<stop offset="0.739583" stop-color="#67DE69"/>
</linearGradient>
<linearGradient id="paint47_linear" x1="1138.8" y1="440.813" x2="938.32" y2="1007.07" gradientUnits="userSpaceOnUse">
<stop offset="0.458333" stop-color="#0047B0"/>
<stop offset="0.739583" stop-color="#67DE69"/>
</linearGradient>
<linearGradient id="paint48_linear" x1="1132.8" y1="435.056" x2="932.322" y2="1001.31" gradientUnits="userSpaceOnUse">
<stop offset="0.458333" stop-color="#0047B0"/>
<stop offset="0.739583" stop-color="#67DE69"/>
</linearGradient>
<linearGradient id="paint49_linear" x1="1126.86" y1="429.172" x2="926.384" y2="995.424" gradientUnits="userSpaceOnUse">
<stop offset="0.458333" stop-color="#0047B0"/>
<stop offset="0.739583" stop-color="#67DE69"/>
</linearGradient>
<linearGradient id="paint50_linear" x1="1120.99" y1="423.171" x2="920.507" y2="989.423" gradientUnits="userSpaceOnUse">
<stop offset="0.458333" stop-color="#0047B0"/>
<stop offset="0.739583" stop-color="#67DE69"/>
</linearGradient>
</defs>
</svg>
