<svg width="4033" height="1063" viewBox="0 0 4033 1063" fill="none" xmlns="http://www.w3.org/2000/svg">
<path d="M1705.58 578.5C2072.08 724 2251.08 578.5 2327.58 425" stroke="black"/>
<path d="M622.579 849C653.079 610 840.979 279.1 1602.58 417.5C2243.08 533.893 3146.08 1005.5 4032.58 1" stroke="url(#paint0_linear)"/>
<path d="M616.033 861.641C646.533 622.641 834.433 291.741 1596.03 430.141C2236.53 546.534 3139.53 1018.14 4026.03 13.6406" stroke="url(#paint1_linear)"/>
<path d="M609.067 874.113C639.567 635.113 827.467 304.213 1589.07 442.613C2229.57 559.006 3132.57 1030.61 4019.07 26.1128" stroke="url(#paint2_linear)"/>
<path d="M601.702 886.354C632.202 647.354 820.102 316.454 1581.7 454.854C2222.2 571.247 3125.2 1042.85 4011.7 38.3535" stroke="url(#paint3_linear)"/>
<path d="M593.934 898.343C624.434 659.343 812.334 328.443 1573.93 466.843C2214.43 583.237 3117.43 1054.84 4003.93 50.3433" stroke="url(#paint4_linear)"/>
<path d="M585.763 910.062C616.263 671.062 804.163 340.162 1565.76 478.562C2206.26 594.955 3109.26 1066.56 3995.76 62.0615" stroke="url(#paint5_linear)"/>
<path d="M577.187 921.487C607.687 682.487 795.587 351.587 1557.19 489.987C2197.69 606.38 3100.69 1077.99 3987.19 73.4868" stroke="url(#paint6_linear)"/>
<path d="M568.208 932.598C598.708 693.598 786.608 362.698 1548.21 501.098C2188.71 617.491 3091.71 1089.1 3978.21 84.5977" stroke="url(#paint7_linear)"/>
<path d="M558.825 943.371C589.325 704.371 777.225 373.471 1538.82 511.871C2179.32 628.264 3082.32 1099.87 3968.82 95.3706" stroke="url(#paint8_linear)"/>
<path d="M549.044 953.783C579.544 714.783 767.444 383.883 1529.04 522.283C2169.54 638.677 3072.54 1110.28 3959.04 105.783" stroke="url(#paint9_linear)"/>
<path d="M538.87 963.811C569.37 724.811 757.27 393.911 1518.87 532.311C2159.37 648.704 3062.37 1120.31 3948.87 115.811" stroke="url(#paint10_linear)"/>
<path d="M528.309 973.433C558.809 734.433 746.709 403.533 1508.31 541.933C2148.81 658.326 3051.81 1129.93 3938.31 125.433" stroke="url(#paint11_linear)"/>
<path d="M517.374 982.624C547.874 743.624 735.774 412.724 1497.37 551.124C2137.87 667.517 3040.87 1139.12 3927.37 134.624" stroke="url(#paint12_linear)"/>
<path d="M506.075 991.366C536.575 752.366 724.475 421.466 1486.07 559.866C2126.57 676.259 3029.57 1147.87 3916.07 143.366" stroke="url(#paint13_linear)"/>
<path d="M494.428 999.638C524.928 760.638 712.828 429.738 1474.43 568.138C2114.93 684.531 3017.93 1156.14 3904.43 151.638" stroke="url(#paint14_linear)"/>
<path d="M482.451 1007.42C512.951 768.422 700.851 437.522 1462.45 575.922C2102.95 692.315 3005.95 1163.92 3892.45 159.422" stroke="url(#paint15_linear)"/>
<path d="M470.161 1014.7C500.661 775.705 688.561 444.805 1450.16 583.205C2090.66 699.598 2993.66 1171.2 3880.16 166.705" stroke="url(#paint16_linear)"/>
<path d="M457.581 1021.47C488.081 782.472 675.981 451.572 1437.58 589.972C2078.08 706.366 2981.08 1177.97 3867.58 173.472" stroke="url(#paint17_linear)"/>
<path d="M444.733 1027.72C475.233 788.717 663.133 457.817 1424.73 596.217C2065.23 712.61 2968.23 1184.22 3854.73 179.717" stroke="url(#paint18_linear)"/>
<path d="M431.642 1033.43C462.142 794.431 650.042 463.531 1411.64 601.931C2052.14 718.325 2955.14 1189.93 3841.64 185.431" stroke="url(#paint19_linear)"/>
<path d="M418.331 1038.61C448.831 799.614 636.731 468.714 1398.33 607.114C2038.83 723.507 2941.83 1195.11 3828.33 190.614" stroke="url(#paint20_linear)"/>
<path d="M404.826 1043.26C435.326 804.265 623.226 473.365 1384.83 611.765C2025.33 728.158 2928.33 1199.76 3814.83 195.265" stroke="url(#paint21_linear)"/>
<path d="M391.15 1047.39C421.65 808.387 609.55 477.487 1371.15 615.887C2011.65 732.281 2914.65 1203.89 3801.15 199.387" stroke="url(#paint22_linear)"/>
<path d="M377.327 1050.99C407.827 811.988 595.727 481.088 1357.33 619.488C1997.83 735.882 2900.83 1207.49 3787.33 202.988" stroke="url(#paint23_linear)"/>
<path d="M363.381 1054.08C393.881 815.076 581.781 484.176 1343.38 622.576C1983.88 738.97 2886.88 1210.58 3773.38 206.076" stroke="url(#paint24_linear)"/>
<path d="M349.334 1056.66C379.834 817.662 567.734 486.762 1329.33 625.162C1969.83 741.555 2872.83 1213.16 3759.33 208.662" stroke="url(#paint25_linear)"/>
<path d="M335.206 1058.76C365.706 819.759 553.606 488.859 1315.21 627.259C1955.71 743.653 2858.71 1215.26 3745.21 210.759" stroke="url(#paint26_linear)"/>
<path d="M321.015 1060.38C351.515 821.381 539.415 490.481 1301.02 628.881C1941.52 745.275 2844.52 1216.88 3731.02 212.381" stroke="url(#paint27_linear)"/>
<path d="M306.78 1061.54C337.28 822.545 525.18 491.645 1286.78 630.045C1927.28 746.438 2830.28 1218.04 3716.78 213.545" stroke="url(#paint28_linear)"/>
<path d="M292.515 1062.27C323.015 823.265 510.915 492.365 1272.52 630.765C1913.02 747.159 2816.02 1218.77 3702.52 214.265" stroke="url(#paint29_linear)"/>
<path d="M278.235 1062.56C308.735 823.56 496.635 492.66 1258.23 631.06C1898.73 747.453 2801.73 1219.06 3688.23 214.56" stroke="url(#paint30_linear)"/>
<path d="M263.953 1062.44C294.453 823.445 482.353 492.545 1243.95 630.945C1884.45 747.338 2787.45 1218.94 3673.95 214.445" stroke="url(#paint31_linear)"/>
<path d="M249.679 1061.94C280.179 822.938 468.079 492.038 1229.68 630.438C1870.18 746.831 2773.18 1218.44 3659.68 213.938" stroke="url(#paint32_linear)"/>
<path d="M235.423 1061.06C265.923 822.055 453.823 491.155 1215.42 629.555C1855.92 745.949 2758.92 1217.56 3645.42 213.055" stroke="url(#paint33_linear)"/>
<path d="M221.194 1059.81C251.694 820.814 439.594 489.914 1201.19 628.314C1841.69 744.708 2744.69 1216.31 3631.19 211.814" stroke="url(#paint34_linear)"/>
<path d="M207 1058.23C237.5 819.23 425.4 488.33 1187 626.73C1827.5 743.124 2730.5 1214.73 3617 210.23" stroke="url(#paint35_linear)"/>
<path d="M192.844 1056.32C223.344 817.32 411.244 486.42 1172.84 624.82C1813.34 741.213 2716.34 1212.82 3602.84 208.32" stroke="url(#paint36_linear)"/>
<path d="M178.736 1054.1C209.236 815.097 397.136 484.197 1158.74 622.597C1799.24 738.991 2702.24 1210.6 3588.74 206.097" stroke="url(#paint37_linear)"/>
<path d="M164.676 1051.58C195.176 812.577 383.076 481.677 1144.68 620.077C1785.18 736.471 2688.18 1208.08 3574.68 203.577" stroke="url(#paint38_linear)"/>
<path d="M150.67 1048.77C181.17 809.774 369.07 478.874 1130.67 617.274C1771.17 733.667 2674.17 1205.27 3560.67 200.774" stroke="url(#paint39_linear)"/>
<path d="M136.722 1045.7C167.222 806.7 355.122 475.8 1116.72 614.2C1757.22 730.593 2660.22 1202.2 3546.72 197.7" stroke="url(#paint40_linear)"/>
<path d="M122.833 1042.37C153.333 803.368 341.233 472.468 1102.83 610.868C1743.33 727.261 2646.33 1198.87 3532.83 194.368" stroke="url(#paint41_linear)"/>
<path d="M109.004 1038.79C139.504 799.79 327.404 468.89 1089 607.29C1729.5 723.683 2632.5 1195.29 3519 190.79" stroke="url(#paint42_linear)"/>
<path d="M95.2388 1034.98C125.739 795.977 313.639 465.077 1075.24 603.477C1715.74 719.87 2618.74 1191.48 3505.24 186.977" stroke="url(#paint43_linear)"/>
<path d="M81.5376 1030.94C112.038 791.94 299.938 461.04 1061.54 599.44C1702.04 715.834 2605.04 1187.44 3491.54 182.94" stroke="url(#paint44_linear)"/>
<path d="M67.9009 1026.69C98.4009 787.69 286.301 456.79 1047.9 595.19C1688.4 711.584 2591.4 1183.19 3477.9 178.69" stroke="url(#paint45_linear)"/>
<path d="M54.3296 1022.24C84.8296 783.235 272.73 452.335 1034.33 590.735C1674.83 707.129 2577.83 1178.74 3464.33 174.235" stroke="url(#paint46_linear)"/>
<path d="M40.8228 1017.59C71.3228 778.585 259.223 447.685 1020.82 586.085C1661.32 702.479 2564.32 1174.09 3450.82 169.585" stroke="url(#paint47_linear)"/>
<path d="M27.3813 1012.75C57.8813 773.749 245.781 442.849 1007.38 581.249C1647.88 697.642 2550.88 1169.25 3437.38 164.749" stroke="url(#paint48_linear)"/>
<path d="M13.9634 1007.72C44.4634 768.717 232.363 437.817 993.963 576.217C1634.46 692.61 2537.46 1164.22 3423.96 159.717" stroke="url(#paint49_linear)"/>
<path d="M0.578613 1002.5C31.0786 763.5 218.979 432.6 980.579 571C1621.08 687.393 2524.08 1159 3410.58 154.5" stroke="url(#paint50_linear)"/>
<defs>
<linearGradient id="paint0_linear" x1="2327.58" y1="1" x2="2327.58" y2="849" gradientUnits="userSpaceOnUse">
<stop stop-color="#67DE69"/>
<stop offset="1" stop-color="#0047B0"/>
</linearGradient>
<linearGradient id="paint1_linear" x1="2321.03" y1="13.6406" x2="2321.03" y2="861.641" gradientUnits="userSpaceOnUse">
<stop stop-color="#67DE69"/>
<stop offset="1" stop-color="#0047B0"/>
</linearGradient>
<linearGradient id="paint2_linear" x1="2314.07" y1="26.1128" x2="2314.07" y2="874.113" gradientUnits="userSpaceOnUse">
<stop stop-color="#67DE69"/>
<stop offset="1" stop-color="#0047B0"/>
</linearGradient>
<linearGradient id="paint3_linear" x1="2306.7" y1="38.3535" x2="2306.7" y2="886.354" gradientUnits="userSpaceOnUse">
<stop stop-color="#67DE69"/>
<stop offset="1" stop-color="#0047B0"/>
</linearGradient>
<linearGradient id="paint4_linear" x1="2298.93" y1="50.3433" x2="2298.93" y2="898.343" gradientUnits="userSpaceOnUse">
<stop stop-color="#67DE69"/>
<stop offset="1" stop-color="#0047B0"/>
</linearGradient>
<linearGradient id="paint5_linear" x1="2290.76" y1="62.0615" x2="2290.76" y2="910.062" gradientUnits="userSpaceOnUse">
<stop stop-color="#67DE69"/>
<stop offset="1" stop-color="#0047B0"/>
</linearGradient>
<linearGradient id="paint6_linear" x1="2282.19" y1="73.4868" x2="2282.19" y2="921.487" gradientUnits="userSpaceOnUse">
<stop stop-color="#67DE69"/>
<stop offset="1" stop-color="#0047B0"/>
</linearGradient>
<linearGradient id="paint7_linear" x1="2273.21" y1="84.5977" x2="2273.21" y2="932.598" gradientUnits="userSpaceOnUse">
<stop stop-color="#67DE69"/>
<stop offset="1" stop-color="#0047B0"/>
</linearGradient>
<linearGradient id="paint8_linear" x1="2263.82" y1="95.3706" x2="2263.82" y2="943.371" gradientUnits="userSpaceOnUse">
<stop stop-color="#67DE69"/>
<stop offset="1" stop-color="#0047B0"/>
</linearGradient>
<linearGradient id="paint9_linear" x1="2254.04" y1="105.783" x2="2254.04" y2="953.783" gradientUnits="userSpaceOnUse">
<stop stop-color="#67DE69"/>
<stop offset="1" stop-color="#0047B0"/>
</linearGradient>
<linearGradient id="paint10_linear" x1="2243.87" y1="115.811" x2="2243.87" y2="963.811" gradientUnits="userSpaceOnUse">
<stop stop-color="#67DE69"/>
<stop offset="1" stop-color="#0047B0"/>
</linearGradient>
<linearGradient id="paint11_linear" x1="2233.31" y1="125.433" x2="2233.31" y2="973.433" gradientUnits="userSpaceOnUse">
<stop stop-color="#67DE69"/>
<stop offset="1" stop-color="#0047B0"/>
</linearGradient>
<linearGradient id="paint12_linear" x1="2222.37" y1="134.624" x2="2222.37" y2="982.624" gradientUnits="userSpaceOnUse">
<stop stop-color="#67DE69"/>
<stop offset="1" stop-color="#0047B0"/>
</linearGradient>
<linearGradient id="paint13_linear" x1="2211.07" y1="143.366" x2="2211.07" y2="991.366" gradientUnits="userSpaceOnUse">
<stop stop-color="#67DE69"/>
<stop offset="1" stop-color="#0047B0"/>
</linearGradient>
<linearGradient id="paint14_linear" x1="2199.43" y1="151.638" x2="2199.43" y2="999.638" gradientUnits="userSpaceOnUse">
<stop stop-color="#67DE69"/>
<stop offset="1" stop-color="#0047B0"/>
</linearGradient>
<linearGradient id="paint15_linear" x1="2187.45" y1="159.422" x2="2187.45" y2="1007.42" gradientUnits="userSpaceOnUse">
<stop stop-color="#67DE69"/>
<stop offset="1" stop-color="#0047B0"/>
</linearGradient>
<linearGradient id="paint16_linear" x1="2175.16" y1="166.705" x2="2175.16" y2="1014.7" gradientUnits="userSpaceOnUse">
<stop stop-color="#67DE69"/>
<stop offset="1" stop-color="#0047B0"/>
</linearGradient>
<linearGradient id="paint17_linear" x1="2162.58" y1="173.472" x2="2162.58" y2="1021.47" gradientUnits="userSpaceOnUse">
<stop stop-color="#67DE69"/>
<stop offset="1" stop-color="#0047B0"/>
</linearGradient>
<linearGradient id="paint18_linear" x1="2149.73" y1="179.717" x2="2149.73" y2="1027.72" gradientUnits="userSpaceOnUse">
<stop stop-color="#67DE69"/>
<stop offset="1" stop-color="#0047B0"/>
</linearGradient>
<linearGradient id="paint19_linear" x1="2136.64" y1="185.431" x2="2136.64" y2="1033.43" gradientUnits="userSpaceOnUse">
<stop stop-color="#67DE69"/>
<stop offset="1" stop-color="#0047B0"/>
</linearGradient>
<linearGradient id="paint20_linear" x1="2123.33" y1="190.614" x2="2123.33" y2="1038.61" gradientUnits="userSpaceOnUse">
<stop stop-color="#67DE69"/>
<stop offset="1" stop-color="#0047B0"/>
</linearGradient>
<linearGradient id="paint21_linear" x1="2109.83" y1="195.265" x2="2109.83" y2="1043.26" gradientUnits="userSpaceOnUse">
<stop stop-color="#67DE69"/>
<stop offset="1" stop-color="#0047B0"/>
</linearGradient>
<linearGradient id="paint22_linear" x1="2096.15" y1="199.387" x2="2096.15" y2="1047.39" gradientUnits="userSpaceOnUse">
<stop stop-color="#67DE69"/>
<stop offset="1" stop-color="#0047B0"/>
</linearGradient>
<linearGradient id="paint23_linear" x1="2082.33" y1="202.988" x2="2082.33" y2="1050.99" gradientUnits="userSpaceOnUse">
<stop stop-color="#67DE69"/>
<stop offset="1" stop-color="#0047B0"/>
</linearGradient>
<linearGradient id="paint24_linear" x1="2068.38" y1="206.076" x2="2068.38" y2="1054.08" gradientUnits="userSpaceOnUse">
<stop stop-color="#67DE69"/>
<stop offset="1" stop-color="#0047B0"/>
</linearGradient>
<linearGradient id="paint25_linear" x1="2054.33" y1="208.662" x2="2054.33" y2="1056.66" gradientUnits="userSpaceOnUse">
<stop stop-color="#67DE69"/>
<stop offset="1" stop-color="#0047B0"/>
</linearGradient>
<linearGradient id="paint26_linear" x1="2040.21" y1="210.759" x2="2040.21" y2="1058.76" gradientUnits="userSpaceOnUse">
<stop stop-color="#67DE69"/>
<stop offset="1" stop-color="#0047B0"/>
</linearGradient>
<linearGradient id="paint27_linear" x1="2026.02" y1="212.381" x2="2026.02" y2="1060.38" gradientUnits="userSpaceOnUse">
<stop stop-color="#67DE69"/>
<stop offset="1" stop-color="#0047B0"/>
</linearGradient>
<linearGradient id="paint28_linear" x1="2011.78" y1="213.545" x2="2011.78" y2="1061.54" gradientUnits="userSpaceOnUse">
<stop stop-color="#67DE69"/>
<stop offset="1" stop-color="#0047B0"/>
</linearGradient>
<linearGradient id="paint29_linear" x1="1997.52" y1="214.265" x2="1997.52" y2="1062.27" gradientUnits="userSpaceOnUse">
<stop stop-color="#67DE69"/>
<stop offset="1" stop-color="#0047B0"/>
</linearGradient>
<linearGradient id="paint30_linear" x1="1983.23" y1="214.56" x2="1983.23" y2="1062.56" gradientUnits="userSpaceOnUse">
<stop stop-color="#67DE69"/>
<stop offset="1" stop-color="#0047B0"/>
</linearGradient>
<linearGradient id="paint31_linear" x1="1968.95" y1="214.445" x2="1968.95" y2="1062.44" gradientUnits="userSpaceOnUse">
<stop stop-color="#67DE69"/>
<stop offset="1" stop-color="#0047B0"/>
</linearGradient>
<linearGradient id="paint32_linear" x1="1954.68" y1="213.937" x2="1954.68" y2="1061.94" gradientUnits="userSpaceOnUse">
<stop stop-color="#67DE69"/>
<stop offset="1" stop-color="#0047B0"/>
</linearGradient>
<linearGradient id="paint33_linear" x1="1940.42" y1="213.055" x2="1940.42" y2="1061.06" gradientUnits="userSpaceOnUse">
<stop stop-color="#67DE69"/>
<stop offset="1" stop-color="#0047B0"/>
</linearGradient>
<linearGradient id="paint34_linear" x1="1926.19" y1="211.814" x2="1926.19" y2="1059.81" gradientUnits="userSpaceOnUse">
<stop stop-color="#67DE69"/>
<stop offset="1" stop-color="#0047B0"/>
</linearGradient>
<linearGradient id="paint35_linear" x1="1912" y1="210.23" x2="1912" y2="1058.23" gradientUnits="userSpaceOnUse">
<stop stop-color="#67DE69"/>
<stop offset="1" stop-color="#0047B0"/>
</linearGradient>
<linearGradient id="paint36_linear" x1="1897.84" y1="208.32" x2="1897.84" y2="1056.32" gradientUnits="userSpaceOnUse">
<stop stop-color="#67DE69"/>
<stop offset="1" stop-color="#0047B0"/>
</linearGradient>
<linearGradient id="paint37_linear" x1="1883.74" y1="206.097" x2="1883.74" y2="1054.1" gradientUnits="userSpaceOnUse">
<stop stop-color="#67DE69"/>
<stop offset="1" stop-color="#0047B0"/>
</linearGradient>
<linearGradient id="paint38_linear" x1="1869.68" y1="203.577" x2="1869.68" y2="1051.58" gradientUnits="userSpaceOnUse">
<stop stop-color="#67DE69"/>
<stop offset="1" stop-color="#0047B0"/>
</linearGradient>
<linearGradient id="paint39_linear" x1="1855.67" y1="200.774" x2="1855.67" y2="1048.77" gradientUnits="userSpaceOnUse">
<stop stop-color="#67DE69"/>
<stop offset="1" stop-color="#0047B0"/>
</linearGradient>
<linearGradient id="paint40_linear" x1="1841.72" y1="197.7" x2="1841.72" y2="1045.7" gradientUnits="userSpaceOnUse">
<stop stop-color="#67DE69"/>
<stop offset="1" stop-color="#0047B0"/>
</linearGradient>
<linearGradient id="paint41_linear" x1="1827.83" y1="194.368" x2="1827.83" y2="1042.37" gradientUnits="userSpaceOnUse">
<stop stop-color="#67DE69"/>
<stop offset="1" stop-color="#0047B0"/>
</linearGradient>
<linearGradient id="paint42_linear" x1="1814" y1="190.79" x2="1814" y2="1038.79" gradientUnits="userSpaceOnUse">
<stop stop-color="#67DE69"/>
<stop offset="1" stop-color="#0047B0"/>
</linearGradient>
<linearGradient id="paint43_linear" x1="1800.24" y1="186.977" x2="1800.24" y2="1034.98" gradientUnits="userSpaceOnUse">
<stop stop-color="#67DE69"/>
<stop offset="1" stop-color="#0047B0"/>
</linearGradient>
<linearGradient id="paint44_linear" x1="1786.54" y1="182.94" x2="1786.54" y2="1030.94" gradientUnits="userSpaceOnUse">
<stop stop-color="#67DE69"/>
<stop offset="1" stop-color="#0047B0"/>
</linearGradient>
<linearGradient id="paint45_linear" x1="1772.9" y1="178.69" x2="1772.9" y2="1026.69" gradientUnits="userSpaceOnUse">
<stop stop-color="#67DE69"/>
<stop offset="1" stop-color="#0047B0"/>
</linearGradient>
<linearGradient id="paint46_linear" x1="1759.33" y1="174.235" x2="1759.33" y2="1022.24" gradientUnits="userSpaceOnUse">
<stop stop-color="#67DE69"/>
<stop offset="1" stop-color="#0047B0"/>
</linearGradient>
<linearGradient id="paint47_linear" x1="1745.82" y1="169.585" x2="1745.82" y2="1017.59" gradientUnits="userSpaceOnUse">
<stop stop-color="#67DE69"/>
<stop offset="1" stop-color="#0047B0"/>
</linearGradient>
<linearGradient id="paint48_linear" x1="1732.38" y1="164.749" x2="1732.38" y2="1012.75" gradientUnits="userSpaceOnUse">
<stop stop-color="#67DE69"/>
<stop offset="1" stop-color="#0047B0"/>
</linearGradient>
<linearGradient id="paint49_linear" x1="1718.96" y1="159.717" x2="1718.96" y2="1007.72" gradientUnits="userSpaceOnUse">
<stop stop-color="#67DE69"/>
<stop offset="1" stop-color="#0047B0"/>
</linearGradient>
<linearGradient id="paint50_linear" x1="1705.58" y1="154.5" x2="1705.58" y2="1002.5" gradientUnits="userSpaceOnUse">
<stop stop-color="#67DE69"/>
<stop offset="1" stop-color="#0047B0"/>
</linearGradient>
</defs>
</svg>
