<svg width="7862" height="1405" viewBox="0 0 7862 1405" fill="none" xmlns="http://www.w3.org/2000/svg">
<path d="M7861.58 248.857C7485.91 58.8571 6577.58 -141.343 5949.58 577.857C5164.58 1476.86 4416.58 1070.85 3765.58 673.355C2939.22 168.785 2445.58 -303.147 930.078 248.857" stroke="url(#paint0_linear)"/>
<path d="M7824.48 263.294C7448.82 73.2937 6540.48 -126.906 5912.48 592.293C5127.48 1491.29 4379.48 1085.29 3728.48 687.791C2902.13 183.221 2408.48 -288.711 892.983 263.293" stroke="url(#paint1_linear)"/>
<path d="M7793.22 287.931C7417.55 97.9314 6509.22 -102.269 5881.22 616.931C5096.22 1515.93 4348.22 1109.93 3697.22 712.429C2870.86 207.859 2377.22 -264.073 861.72 287.931" stroke="url(#paint2_linear)"/>
<path d="M7765.76 316.748C7390.09 126.748 6481.76 -73.4524 5853.76 645.748C5068.76 1544.75 4320.76 1138.74 3669.76 741.245C2843.4 236.675 2349.76 -235.257 834.259 316.747" stroke="url(#paint3_linear)"/>
<path d="M7740.54 347.55C7364.88 157.55 6456.54 -42.6506 5828.54 676.549C5043.54 1575.55 4295.54 1169.54 3644.54 772.047C2818.19 267.477 2324.54 -204.455 809.045 347.549" stroke="url(#paint4_linear)"/>
<path d="M7716.6 379.345C7340.93 189.345 6432.6 -10.8547 5804.6 708.345C5019.6 1607.35 4271.6 1201.34 3620.6 803.843C2794.24 299.273 2300.6 -172.659 785.098 379.345" stroke="url(#paint5_linear)"/>
<path d="M7693.2 411.546C7317.53 221.546 6409.2 21.3455 5781.2 740.545C4996.2 1639.55 4248.2 1233.54 3597.2 836.043C2770.84 331.473 2277.2 -140.459 761.696 411.545" stroke="url(#paint6_linear)"/>
<path d="M7669.66 443.648C7294 253.648 6385.66 53.448 5757.66 772.648C4972.66 1671.65 4224.66 1265.64 3573.66 868.146C2747.3 363.576 2253.66 -108.356 738.162 443.648" stroke="url(#paint7_linear)"/>
<path d="M7645.12 474.989C7269.45 284.989 6361.12 84.7888 5733.12 803.989C4948.12 1702.99 4200.12 1296.98 3549.12 899.486C2722.76 394.917 2229.12 -77.0154 713.621 474.989" stroke="url(#paint8_linear)"/>
<path d="M7617.99 504.117C7242.32 314.117 6333.99 113.917 5705.99 833.117C4920.99 1732.12 4172.99 1326.11 3521.99 928.614C2695.63 424.044 2201.99 -47.8875 686.489 504.117" stroke="url(#paint9_linear)"/>
<path d="M7584.04 524.922C7208.37 334.922 6300.04 134.721 5672.04 853.921C4887.04 1752.92 4139.04 1346.92 3488.04 949.419C2661.68 444.849 2168.04 -27.0828 652.536 524.921" stroke="url(#paint10_linear)"/>
<path d="M7547.73 508.654C7172.07 318.654 6263.73 118.454 5635.73 837.654C4850.73 1736.65 4102.73 1330.65 3451.73 933.151C2625.38 428.582 2131.73 -43.3504 616.234 508.654" stroke="url(#paint11_linear)"/>
<path d="M7530.24 472.894C7154.58 282.894 6246.24 82.6941 5618.24 801.894C4833.24 1700.89 4085.24 1294.89 3434.24 897.392C2607.89 392.822 2114.24 -79.1102 598.744 472.894" stroke="url(#paint12_linear)"/>
<path d="M7518.41 436.487C7142.75 246.487 6234.41 46.2869 5606.41 765.487C4821.41 1664.49 4073.41 1258.48 3422.41 860.984C2596.06 356.415 2102.41 -115.517 586.913 436.487" stroke="url(#paint13_linear)"/>
<path d="M7495.71 403.793C7120.04 213.793 6211.71 13.5925 5583.71 732.793C4798.71 1631.79 4050.71 1225.79 3399.71 828.29C2573.35 323.72 2079.71 -148.212 564.207 403.792" stroke="url(#paint14_linear)"/>
<path d="M7459.96 386.277C7084.3 196.277 6175.96 -3.92309 5547.96 715.277C4762.96 1614.28 4014.96 1208.27 3363.96 810.774C2537.6 306.205 2043.96 -165.727 528.462 386.277" stroke="url(#paint15_linear)"/>
<path d="M7420.2 384.414C7044.53 194.414 6136.2 -5.78637 5508.2 713.414C4723.2 1612.41 3975.2 1206.41 3324.2 808.911C2497.84 304.341 2004.2 -167.591 488.7 384.414" stroke="url(#paint16_linear)"/>
<path d="M7380.99 391.273C7005.32 201.273 6096.99 1.073 5468.99 720.273C4683.99 1619.27 3935.99 1213.27 3284.99 815.771C2458.63 311.201 1964.99 -160.731 449.49 391.273" stroke="url(#paint17_linear)"/>
<path d="M7342.86 402.695C6967.19 212.695 6058.86 12.4949 5430.86 731.695C4645.86 1630.69 3897.86 1224.69 3246.86 827.192C2420.5 322.623 1926.86 -149.309 411.359 402.695" stroke="url(#paint18_linear)"/>
<path d="M7305.59 416.677C6929.92 226.677 6021.59 26.4773 5393.59 745.677C4608.59 1644.68 3860.59 1238.67 3209.59 841.175C2383.23 336.605 1889.59 -135.327 374.091 416.677" stroke="url(#paint19_linear)"/>
<path d="M7268.91 432.145C6893.25 242.145 5984.91 41.9451 5356.91 761.145C4571.91 1660.15 3823.91 1254.14 3172.91 856.643C2346.56 352.073 1852.91 -119.859 337.413 432.145" stroke="url(#paint20_linear)"/>
<path d="M7232.59 448.418C6856.92 258.418 5948.59 58.2175 5320.59 777.418C4535.59 1676.42 3787.59 1270.41 3136.59 872.915C2310.23 368.345 1816.59 -103.587 301.086 448.417" stroke="url(#paint21_linear)"/>
<path d="M7196.4 464.996C6820.73 274.996 5912.4 74.7957 5284.4 793.996C4499.4 1693 3751.4 1286.99 3100.4 889.493C2274.04 384.923 1780.4 -87.0086 264.896 464.996" stroke="url(#paint22_linear)"/>
<path d="M7160.15 481.435C6784.48 291.435 5876.15 91.2351 5248.15 810.435C4463.15 1709.44 3715.15 1303.43 3064.15 905.933C2237.79 401.363 1744.15 -70.5692 228.645 481.435" stroke="url(#paint23_linear)"/>
<path d="M7123.62 497.265C6747.96 307.265 5839.62 107.065 5211.62 826.265C4426.62 1725.27 3678.62 1319.26 3027.62 921.763C2201.27 417.193 1707.62 -54.7391 192.123 497.265" stroke="url(#paint24_linear)"/>
<path d="M7086.6 511.88C6710.93 321.88 5802.6 121.679 5174.6 840.879C4389.6 1739.88 3641.6 1333.87 2990.6 936.377C2164.24 431.807 1670.6 -40.1248 155.097 511.879" stroke="url(#paint25_linear)"/>
<path d="M7048.8 524.359C6673.13 334.359 5764.8 134.159 5136.8 853.359C4351.8 1752.36 3603.8 1346.35 2952.8 948.857C2126.44 444.287 1632.8 -27.6453 117.299 524.359" stroke="url(#paint26_linear)"/>
<path d="M7009.96 533.059C6634.29 343.059 5725.96 142.859 5097.96 862.059C4312.96 1761.06 3564.96 1355.05 2913.96 957.557C2087.6 452.987 1593.96 -18.9451 78.4551 533.059" stroke="url(#paint27_linear)"/>
<path d="M6970.18 534.59C6594.51 344.59 5686.18 144.389 5058.18 863.589C4273.18 1762.59 3525.18 1356.58 2874.18 959.087C2047.82 454.517 1554.18 -17.4149 38.6797 534.589" stroke="url(#paint28_linear)"/>
<path d="M6932.34 522.232C6556.67 332.232 5648.34 132.032 5020.34 851.232C4235.34 1750.23 3487.34 1344.23 2836.34 946.73C2009.98 442.16 1516.34 -29.7723 0.840809 522.232" stroke="url(#paint29_linear)"/>
<defs>
<linearGradient id="paint0_linear" x1="7861.58" y1="559.753" x2="930.078" y2="559.752" gradientUnits="userSpaceOnUse">
<stop stop-color="#67DE69"/>
<stop offset="1" stop-color="#0047B0"/>
</linearGradient>
<linearGradient id="paint1_linear" x1="7824.48" y1="574.189" x2="892.983" y2="574.189" gradientUnits="userSpaceOnUse">
<stop stop-color="#67DE69"/>
<stop offset="1" stop-color="#0047B0"/>
</linearGradient>
<linearGradient id="paint2_linear" x1="7793.22" y1="598.827" x2="861.72" y2="598.826" gradientUnits="userSpaceOnUse">
<stop stop-color="#67DE69"/>
<stop offset="1" stop-color="#0047B0"/>
</linearGradient>
<linearGradient id="paint3_linear" x1="7765.76" y1="627.643" x2="834.259" y2="627.643" gradientUnits="userSpaceOnUse">
<stop stop-color="#67DE69"/>
<stop offset="1" stop-color="#0047B0"/>
</linearGradient>
<linearGradient id="paint4_linear" x1="7740.54" y1="658.445" x2="809.045" y2="658.445" gradientUnits="userSpaceOnUse">
<stop stop-color="#67DE69"/>
<stop offset="1" stop-color="#0047B0"/>
</linearGradient>
<linearGradient id="paint5_linear" x1="7716.6" y1="690.241" x2="785.098" y2="690.241" gradientUnits="userSpaceOnUse">
<stop stop-color="#67DE69"/>
<stop offset="1" stop-color="#0047B0"/>
</linearGradient>
<linearGradient id="paint6_linear" x1="7693.2" y1="722.441" x2="761.696" y2="722.441" gradientUnits="userSpaceOnUse">
<stop stop-color="#67DE69"/>
<stop offset="1" stop-color="#0047B0"/>
</linearGradient>
<linearGradient id="paint7_linear" x1="7669.66" y1="754.544" x2="738.162" y2="754.543" gradientUnits="userSpaceOnUse">
<stop stop-color="#67DE69"/>
<stop offset="1" stop-color="#0047B0"/>
</linearGradient>
<linearGradient id="paint8_linear" x1="7645.12" y1="785.884" x2="713.621" y2="785.884" gradientUnits="userSpaceOnUse">
<stop stop-color="#67DE69"/>
<stop offset="1" stop-color="#0047B0"/>
</linearGradient>
<linearGradient id="paint9_linear" x1="7617.99" y1="815.012" x2="686.489" y2="815.012" gradientUnits="userSpaceOnUse">
<stop stop-color="#67DE69"/>
<stop offset="1" stop-color="#0047B0"/>
</linearGradient>
<linearGradient id="paint10_linear" x1="7584.04" y1="835.817" x2="652.536" y2="835.817" gradientUnits="userSpaceOnUse">
<stop stop-color="#67DE69"/>
<stop offset="1" stop-color="#0047B0"/>
</linearGradient>
<linearGradient id="paint11_linear" x1="7547.73" y1="819.549" x2="616.234" y2="819.549" gradientUnits="userSpaceOnUse">
<stop stop-color="#67DE69"/>
<stop offset="1" stop-color="#0047B0"/>
</linearGradient>
<linearGradient id="paint12_linear" x1="7530.24" y1="783.79" x2="598.744" y2="783.789" gradientUnits="userSpaceOnUse">
<stop stop-color="#67DE69"/>
<stop offset="1" stop-color="#0047B0"/>
</linearGradient>
<linearGradient id="paint13_linear" x1="7518.41" y1="747.382" x2="586.913" y2="747.382" gradientUnits="userSpaceOnUse">
<stop stop-color="#67DE69"/>
<stop offset="1" stop-color="#0047B0"/>
</linearGradient>
<linearGradient id="paint14_linear" x1="7495.71" y1="714.688" x2="564.207" y2="714.688" gradientUnits="userSpaceOnUse">
<stop stop-color="#67DE69"/>
<stop offset="1" stop-color="#0047B0"/>
</linearGradient>
<linearGradient id="paint15_linear" x1="7459.96" y1="697.172" x2="528.462" y2="697.172" gradientUnits="userSpaceOnUse">
<stop stop-color="#67DE69"/>
<stop offset="1" stop-color="#0047B0"/>
</linearGradient>
<linearGradient id="paint16_linear" x1="7420.2" y1="695.309" x2="488.7" y2="695.309" gradientUnits="userSpaceOnUse">
<stop stop-color="#67DE69"/>
<stop offset="1" stop-color="#0047B0"/>
</linearGradient>
<linearGradient id="paint17_linear" x1="7380.99" y1="702.169" x2="449.49" y2="702.168" gradientUnits="userSpaceOnUse">
<stop stop-color="#67DE69"/>
<stop offset="1" stop-color="#0047B0"/>
</linearGradient>
<linearGradient id="paint18_linear" x1="7342.86" y1="713.59" x2="411.359" y2="713.59" gradientUnits="userSpaceOnUse">
<stop stop-color="#67DE69"/>
<stop offset="1" stop-color="#0047B0"/>
</linearGradient>
<linearGradient id="paint19_linear" x1="7305.59" y1="727.573" x2="374.091" y2="727.573" gradientUnits="userSpaceOnUse">
<stop stop-color="#67DE69"/>
<stop offset="1" stop-color="#0047B0"/>
</linearGradient>
<linearGradient id="paint20_linear" x1="7268.91" y1="743.041" x2="337.413" y2="743.04" gradientUnits="userSpaceOnUse">
<stop stop-color="#67DE69"/>
<stop offset="1" stop-color="#0047B0"/>
</linearGradient>
<linearGradient id="paint21_linear" x1="7232.59" y1="759.313" x2="301.086" y2="759.313" gradientUnits="userSpaceOnUse">
<stop stop-color="#67DE69"/>
<stop offset="1" stop-color="#0047B0"/>
</linearGradient>
<linearGradient id="paint22_linear" x1="7196.4" y1="775.891" x2="264.896" y2="775.891" gradientUnits="userSpaceOnUse">
<stop stop-color="#67DE69"/>
<stop offset="1" stop-color="#0047B0"/>
</linearGradient>
<linearGradient id="paint23_linear" x1="7160.15" y1="792.331" x2="228.645" y2="792.33" gradientUnits="userSpaceOnUse">
<stop stop-color="#67DE69"/>
<stop offset="1" stop-color="#0047B0"/>
</linearGradient>
<linearGradient id="paint24_linear" x1="7123.62" y1="808.161" x2="192.123" y2="808.16" gradientUnits="userSpaceOnUse">
<stop stop-color="#67DE69"/>
<stop offset="1" stop-color="#0047B0"/>
</linearGradient>
<linearGradient id="paint25_linear" x1="7086.6" y1="822.775" x2="155.097" y2="822.775" gradientUnits="userSpaceOnUse">
<stop stop-color="#67DE69"/>
<stop offset="1" stop-color="#0047B0"/>
</linearGradient>
<linearGradient id="paint26_linear" x1="7048.8" y1="835.255" x2="117.299" y2="835.254" gradientUnits="userSpaceOnUse">
<stop stop-color="#67DE69"/>
<stop offset="1" stop-color="#0047B0"/>
</linearGradient>
<linearGradient id="paint27_linear" x1="7009.96" y1="843.955" x2="78.4551" y2="843.954" gradientUnits="userSpaceOnUse">
<stop stop-color="#67DE69"/>
<stop offset="1" stop-color="#0047B0"/>
</linearGradient>
<linearGradient id="paint28_linear" x1="6970.18" y1="845.485" x2="38.6797" y2="845.485" gradientUnits="userSpaceOnUse">
<stop stop-color="#67DE69"/>
<stop offset="1" stop-color="#0047B0"/>
</linearGradient>
<linearGradient id="paint29_linear" x1="6932.34" y1="833.128" x2="0.840796" y2="833.127" gradientUnits="userSpaceOnUse">
<stop stop-color="#67DE69"/>
<stop offset="1" stop-color="#0047B0"/>
</linearGradient>
</defs>
</svg>
