<svg width="7891" height="1406" viewBox="0 0 7891 1406" fill="none" xmlns="http://www.w3.org/2000/svg">
<path d="M7890.58 252.442C7514.91 62.4421 6606.58 -137.758 5978.58 581.442C5193.58 1480.44 4445.58 1074.44 3794.58 676.94C2968.22 172.37 2474.58 -299.562 959.078 252.442" stroke="url(#paint0_linear)"/>
<path d="M7884.87 250.702C7509.2 60.7019 6600.87 -139.498 5972.87 579.702C5187.87 1478.7 4439.87 1072.7 3788.87 675.199C2962.51 170.629 2468.87 -301.303 953.368 250.702" stroke="url(#paint1_linear)"/>
<path d="M7879.02 249.513C7503.35 59.5134 6595.02 -140.687 5967.02 578.513C5182.02 1477.51 4434.02 1071.51 3783.02 674.011C2956.66 169.441 2463.02 -302.491 947.518 249.513" stroke="url(#paint2_linear)"/>
<path d="M7873.08 248.897C7497.41 58.8972 6589.08 -141.303 5961.08 577.897C5176.08 1476.9 4428.08 1070.89 3777.08 673.395C2950.72 168.825 2457.08 -303.107 941.579 248.897" stroke="url(#paint3_linear)"/>
<path d="M7867.11 248.857C7491.44 58.8571 6583.11 -141.343 5955.11 577.857C5170.11 1476.86 4422.11 1070.85 3771.11 673.355C2944.75 168.785 2451.11 -303.147 935.608 248.857" stroke="url(#paint4_linear)"/>
<path d="M7861.16 249.37C7485.49 59.3698 6577.16 -140.83 5949.16 578.37C5164.16 1477.37 4416.16 1071.36 3765.16 673.867C2938.8 169.297 2445.16 -302.635 929.66 249.37" stroke="url(#paint5_linear)"/>
<path d="M7855.28 250.399C7479.61 60.3991 6571.28 -139.801 5943.28 579.399C5158.28 1478.4 4410.28 1072.39 3759.28 674.897C2932.92 170.327 2439.28 -301.605 923.779 250.399" stroke="url(#paint6_linear)"/>
<path d="M7849.5 251.895C7473.83 61.8952 6565.5 -138.305 5937.5 580.895C5152.5 1479.9 4404.5 1073.89 3753.5 676.393C2927.14 171.823 2433.5 -300.109 918 251.895" stroke="url(#paint7_linear)"/>
<path d="M7843.85 253.807C7468.18 63.8073 6559.85 -136.393 5931.85 582.807C5146.85 1481.81 4398.85 1075.8 3747.85 678.305C2921.49 173.735 2427.85 -298.197 912.346 253.807" stroke="url(#paint8_linear)"/>
<path d="M7838.33 256.083C7462.66 66.0827 6554.33 -134.117 5926.33 585.083C5141.33 1484.08 4393.33 1078.08 3742.33 680.58C2915.97 176.01 2422.33 -295.922 906.828 256.082" stroke="url(#paint9_linear)"/>
<path d="M7832.95 258.676C7457.28 68.6755 6548.95 -131.525 5920.95 587.675C5135.95 1486.68 4387.95 1080.67 3736.95 683.173C2910.59 178.603 2416.95 -293.329 901.451 258.675" stroke="url(#paint10_linear)"/>
<path d="M7827.72 261.541C7452.05 71.5407 6543.72 -128.659 5915.72 590.541C5130.72 1489.54 4382.72 1083.54 3731.72 686.038C2905.36 181.468 2411.72 -290.464 896.216 261.54" stroke="url(#paint11_linear)"/>
<path d="M7822.62 264.643C7446.95 74.6433 6538.62 -125.557 5910.62 593.643C5125.62 1492.64 4377.62 1086.64 3726.62 689.141C2900.26 184.571 2406.62 -287.361 891.116 264.643" stroke="url(#paint12_linear)"/>
<path d="M7817.65 267.951C7441.98 77.9509 6533.65 -122.249 5905.65 596.951C5120.65 1495.95 4372.65 1089.95 3721.65 692.448C2895.29 187.878 2401.65 -284.054 886.147 267.951" stroke="url(#paint13_linear)"/>
<path d="M7812.8 271.435C7437.13 81.4353 6528.8 -118.765 5900.8 600.435C5115.8 1499.44 4367.8 1093.43 3716.8 695.933C2890.44 191.363 2396.8 -280.569 881.301 271.435" stroke="url(#paint14_linear)"/>
<path d="M7808.07 275.076C7432.4 85.0759 6524.07 -115.124 5896.07 604.076C5111.07 1503.08 4363.07 1097.07 3712.07 699.573C2885.71 195.003 2392.07 -276.929 876.57 275.076" stroke="url(#paint15_linear)"/>
<path d="M7803.45 278.852C7427.78 88.8523 6519.45 -111.348 5891.45 607.852C5106.45 1506.85 4358.45 1100.85 3707.45 703.35C2881.09 198.78 2387.45 -273.152 871.946 278.852" stroke="url(#paint16_linear)"/>
<path d="M7798.92 282.748C7423.26 92.7478 6514.92 -107.452 5886.92 611.748C5101.92 1510.75 4353.92 1104.74 3702.92 707.245C2876.56 202.675 2382.92 -269.257 867.423 282.747" stroke="url(#paint17_linear)"/>
<path d="M7794.49 286.748C7418.83 96.7478 6510.49 -103.452 5882.49 615.748C5097.49 1514.75 4349.49 1108.74 3698.49 711.245C2872.13 206.675 2378.49 -265.257 862.992 286.747" stroke="url(#paint18_linear)"/>
<path d="M7790.15 290.842C7414.48 100.842 6506.15 -99.3586 5878.15 619.841C5093.15 1518.84 4345.15 1112.84 3694.15 715.339C2867.79 210.769 2374.15 -261.163 858.646 290.841" stroke="url(#paint19_linear)"/>
<path d="M7785.88 295.018C7410.21 105.018 6501.88 -95.1819 5873.88 624.018C5088.88 1523.02 4340.88 1117.01 3689.88 719.516C2863.52 214.946 2369.88 -256.986 854.381 295.018" stroke="url(#paint20_linear)"/>
<path d="M7781.69 299.268C7406.02 109.268 6497.69 -90.9319 5869.69 628.268C5084.69 1527.27 4336.69 1121.26 3685.69 723.766C2859.33 219.196 2365.69 -252.736 850.188 299.268" stroke="url(#paint21_linear)"/>
<path d="M7777.56 303.585C7401.9 113.585 6493.56 -86.6155 5865.56 632.585C5080.56 1531.58 4332.56 1125.58 3681.56 728.082C2855.21 223.512 2361.56 -248.42 846.063 303.584" stroke="url(#paint22_linear)"/>
<path d="M7773.5 307.961C7397.84 117.961 6489.5 -82.2395 5861.5 636.96C5076.5 1535.96 4328.5 1129.96 3677.5 732.458C2851.14 227.888 2357.5 -244.044 842.002 307.96" stroke="url(#paint23_linear)"/>
<path d="M7769.5 312.389C7393.83 122.389 6485.5 -77.8108 5857.5 641.389C5072.5 1540.39 4324.5 1134.38 3673.5 736.887C2847.14 232.317 2353.5 -239.615 837.998 312.389" stroke="url(#paint24_linear)"/>
<path d="M7765.55 316.867C7389.88 126.867 6481.55 -73.3332 5853.55 645.867C5068.55 1544.87 4320.55 1138.86 3669.55 741.364C2843.19 236.794 2349.55 -235.138 834.048 316.867" stroke="url(#paint25_linear)"/>
<path d="M7761.65 321.387C7385.98 131.387 6477.65 -68.8127 5849.65 650.387C5064.65 1549.39 4316.65 1143.38 3665.65 745.885C2839.29 241.315 2345.65 -230.617 830.148 321.387" stroke="url(#paint26_linear)"/>
<path d="M7757.79 325.947C7382.13 135.947 6473.79 -64.2532 5845.79 654.947C5060.79 1553.95 4312.79 1147.94 3661.79 750.444C2835.44 245.875 2341.79 -226.057 826.294 325.947" stroke="url(#paint27_linear)"/>
<path d="M7753.98 330.543C7378.31 140.543 6469.98 -59.6575 5841.98 659.543C5056.98 1558.54 4308.98 1152.54 3657.98 755.04C2831.62 250.47 2337.98 -221.462 822.481 330.542" stroke="url(#paint28_linear)"/>
<path d="M7750.21 335.17C7374.54 145.17 6466.21 -55.0305 5838.21 664.169C5053.21 1563.17 4305.21 1157.16 3654.21 759.667C2827.85 255.097 2334.21 -216.835 818.709 335.169" stroke="url(#paint29_linear)"/>
<path d="M7746.47 339.827C7370.81 149.827 6462.47 -50.3733 5834.47 668.827C5049.47 1567.83 4301.47 1161.82 3650.47 764.324C2824.11 259.754 2330.47 -212.178 814.972 339.827" stroke="url(#paint30_linear)"/>
<path d="M7742.77 344.51C7367.1 154.509 6458.77 -45.6907 5830.77 673.509C5045.77 1572.51 4297.77 1166.5 3646.77 769.007C2820.41 264.437 2326.77 -207.495 811.268 344.509" stroke="url(#paint31_linear)"/>
<path d="M7739.09 349.216C7363.43 159.216 6455.09 -40.9846 5827.09 678.215C5042.09 1577.22 4294.09 1171.21 3643.09 773.713C2816.73 269.143 2323.09 -202.789 807.593 349.215" stroke="url(#paint32_linear)"/>
<path d="M7735.45 353.943C7359.78 163.943 6451.45 -36.2571 5823.45 682.943C5038.45 1581.94 4290.45 1175.94 3639.45 778.44C2813.09 273.871 2319.45 -198.061 803.946 353.943" stroke="url(#paint33_linear)"/>
<path d="M7731.82 358.69C7356.16 168.69 6447.82 -31.51 5819.82 687.69C5034.82 1586.69 4286.82 1180.68 3635.82 783.188C2809.47 278.618 2315.82 -193.314 800.324 358.69" stroke="url(#paint34_linear)"/>
<path d="M7728.22 363.453C7352.56 173.453 6444.22 -26.7473 5816.22 692.453C5031.22 1591.45 4283.22 1185.45 3632.22 787.95C2805.87 283.38 2312.22 -188.552 796.725 363.453" stroke="url(#paint35_linear)"/>
<path d="M7724.64 368.232C7348.98 178.232 6440.64 -21.968 5812.64 697.232C5027.64 1596.23 4279.64 1190.23 3628.64 792.73C2802.29 288.16 2308.64 -183.772 793.145 368.232" stroke="url(#paint36_linear)"/>
<path d="M7721.08 373.024C7345.42 183.024 6437.08 -17.176 5809.08 702.024C5024.08 1601.02 4276.08 1195.02 3625.08 797.522C2798.72 292.952 2305.08 -178.98 789.582 373.024" stroke="url(#paint37_linear)"/>
<path d="M7717.54 377.827C7341.87 187.827 6433.54 -12.3733 5805.54 706.827C5020.54 1605.83 4272.54 1199.82 3621.54 802.324C2795.18 297.754 2301.54 -174.178 786.035 377.827" stroke="url(#paint38_linear)"/>
<path d="M7714 382.639C7338.34 192.639 6430 -7.56079 5802 711.639C5017 1610.64 4269 1204.63 3618 807.137C2791.64 302.567 2298 -169.365 782.502 382.639" stroke="url(#paint39_linear)"/>
<path d="M7710.48 387.461C7334.81 197.461 6426.48 -2.7395 5798.48 716.46C5013.48 1615.46 4265.48 1209.46 3614.48 811.958C2788.12 307.388 2294.48 -164.544 778.979 387.46" stroke="url(#paint40_linear)"/>
<path d="M7706.96 392.288C7331.3 202.288 6422.96 2.08765 5794.96 721.288C5009.96 1620.29 4261.96 1214.28 3610.96 816.785C2784.61 312.215 2290.96 -159.717 775.465 392.288" stroke="url(#paint41_linear)"/>
<path d="M7703.46 397.12C7327.79 207.12 6419.46 6.91968 5791.46 726.12C5006.46 1625.12 4258.46 1219.11 3607.46 821.617C2781.1 317.047 2287.46 -154.885 771.957 397.12" stroke="url(#paint42_linear)"/>
<path d="M7699.95 401.955C7324.29 211.955 6415.95 11.7546 5787.95 730.955C5002.95 1629.95 4254.95 1223.95 3603.95 826.452C2777.6 321.882 2283.95 -150.05 768.454 401.955" stroke="url(#paint43_linear)"/>
<path d="M7696.45 406.792C7320.79 216.792 6412.45 16.5916 5784.45 735.792C4999.45 1634.79 4251.45 1228.79 3600.45 831.289C2774.1 326.719 2280.45 -145.213 764.953 406.791" stroke="url(#paint44_linear)"/>
<path d="M7692.95 411.628C7317.29 221.628 6408.95 21.4275 5780.95 740.627C4995.95 1639.63 4247.95 1233.62 3596.95 836.125C2770.59 331.555 2276.95 -140.377 761.452 411.627" stroke="url(#paint45_linear)"/>
<path d="M7689.45 416.463C7313.78 226.463 6405.45 26.2625 5777.45 745.462C4992.45 1644.46 4244.45 1238.46 3593.45 840.96C2767.09 336.39 2273.45 -135.542 757.948 416.462" stroke="url(#paint46_linear)"/>
<path d="M7685.94 421.294C7310.27 231.294 6401.94 31.0935 5773.94 750.293C4988.94 1649.29 4240.94 1243.29 3589.94 845.791C2763.58 341.221 2269.94 -130.711 754.439 421.293" stroke="url(#paint47_linear)"/>
<path d="M7682.42 426.12C7306.76 236.12 6398.42 35.9197 5770.42 755.12C4985.42 1654.12 4237.42 1248.11 3586.42 850.617C2760.07 346.047 2266.42 -125.885 750.924 426.12" stroke="url(#paint48_linear)"/>
<path d="M7678.9 430.937C7303.23 240.937 6394.9 40.7371 5766.9 759.937C4981.9 1658.94 4233.9 1252.93 3582.9 855.435C2756.54 350.865 2262.9 -121.067 747.398 430.937" stroke="url(#paint49_linear)"/>
<path d="M7675.36 435.747C7299.69 245.747 6391.36 45.5466 5763.36 764.747C4978.36 1663.75 4230.36 1257.74 3579.36 860.244C2753 355.674 2259.36 -116.258 743.859 435.747" stroke="url(#paint50_linear)"/>
<path d="M7671.8 440.544C7296.14 250.544 6387.8 50.3435 5759.8 769.543C4974.8 1668.54 4226.8 1262.54 3575.8 865.041C2749.45 360.471 2255.8 -111.461 740.305 440.543" stroke="url(#paint51_linear)"/>
<path d="M7668.23 445.327C7292.56 255.327 6384.23 55.1267 5756.23 774.327C4971.23 1673.33 4223.23 1267.32 3572.23 869.824C2745.87 365.254 2252.23 -106.678 736.731 445.327" stroke="url(#paint52_linear)"/>
<path d="M7664.64 450.093C7288.97 260.093 6380.64 59.8933 5752.64 779.093C4967.64 1678.09 4219.64 1272.09 3568.64 874.591C2742.28 370.021 2248.64 -101.911 733.137 450.093" stroke="url(#paint53_linear)"/>
<path d="M7661.01 454.84C7285.35 264.84 6377.01 64.6394 5749.01 783.839C4964.01 1682.84 4216.01 1276.83 3565.01 879.337C2738.66 374.767 2245.01 -97.1649 729.515 454.839" stroke="url(#paint54_linear)"/>
<path d="M7657.36 459.562C7281.7 269.562 6373.36 69.3621 5745.36 788.562C4960.36 1687.56 4212.36 1281.56 3561.36 884.06C2735.01 379.49 2241.36 -92.4422 725.863 459.562" stroke="url(#paint55_linear)"/>
<path d="M7653.68 464.259C7278.01 274.259 6369.68 74.0584 5741.68 793.258C4956.68 1692.26 4208.68 1286.25 3557.68 888.756C2731.32 384.186 2237.68 -87.7459 722.177 464.258" stroke="url(#paint56_linear)"/>
<path d="M7649.95 468.924C7274.29 278.924 6365.95 78.7234 5737.95 797.923C4952.95 1696.92 4204.95 1290.92 3553.95 893.421C2727.59 388.851 2233.95 -83.0809 718.452 468.923" stroke="url(#paint57_linear)"/>
<path d="M7646.18 473.551C7270.51 283.551 6362.18 83.3513 5734.18 802.551C4949.18 1701.55 4201.18 1295.55 3550.18 898.049C2723.82 393.479 2230.18 -78.4529 714.682 473.551" stroke="url(#paint58_linear)"/>
<path d="M7642.36 478.137C7266.69 288.137 6358.36 87.9373 5730.36 807.137C4945.36 1706.14 4197.36 1300.13 3546.36 902.635C2720 398.065 2226.36 -73.867 710.859 478.137" stroke="url(#paint59_linear)"/>
<path d="M7638.48 482.674C7262.81 292.674 6354.48 92.4734 5726.48 811.673C4941.48 1710.67 4193.48 1304.67 3542.48 907.171C2716.12 402.601 2222.48 -69.3309 706.979 482.673" stroke="url(#paint60_linear)"/>
<path d="M7634.53 487.151C7258.87 297.151 6350.53 96.9509 5722.53 816.151C4937.53 1715.15 4189.53 1309.15 3538.53 911.649C2712.18 407.079 2218.53 -64.8533 703.034 487.151" stroke="url(#paint61_linear)"/>
<path d="M7630.51 491.56C7254.85 301.56 6346.51 101.36 5718.51 820.56C4933.51 1719.56 4185.51 1313.55 3534.51 916.058C2708.15 411.488 2214.51 -60.4442 699.012 491.56" stroke="url(#paint62_linear)"/>
<path d="M7626.4 495.888C7250.74 305.888 6342.4 105.688 5714.4 824.888C4929.4 1723.89 4181.4 1317.88 3530.4 920.386C2704.05 415.816 2210.4 -56.116 694.903 495.888" stroke="url(#paint63_linear)"/>
<path d="M7622.2 500.12C7246.53 310.12 6338.2 109.92 5710.2 829.12C4925.2 1728.12 4177.2 1322.11 3526.2 924.617C2699.84 420.047 2206.2 -51.8846 690.695 500.12" stroke="url(#paint64_linear)"/>
<path d="M7617.87 504.232C7242.21 314.232 6333.87 114.032 5705.87 833.232C4920.87 1732.23 4172.87 1326.23 3521.87 928.73C2695.52 424.16 2201.87 -47.7723 686.373 504.232" stroke="url(#paint65_linear)"/>
<path d="M7613.42 508.199C7237.75 318.199 6329.42 117.999 5701.42 837.199C4916.42 1736.2 4168.42 1330.19 3517.42 932.696C2691.06 428.127 2197.42 -43.8055 681.919 508.199" stroke="url(#paint66_linear)"/>
<path d="M7608.81 511.985C7233.14 321.985 6324.81 121.785 5696.81 840.985C4911.81 1739.98 4163.81 1333.98 3512.81 936.482C2686.45 431.913 2192.81 -40.0194 677.312 511.985" stroke="url(#paint67_linear)"/>
<path d="M7604.03 515.542C7228.36 325.542 6320.03 125.342 5692.03 844.542C4907.03 1743.54 4159.03 1337.54 3508.03 940.039C2681.67 435.469 2188.03 -36.4627 672.526 515.541" stroke="url(#paint68_linear)"/>
<path d="M7599.04 518.801C7223.37 328.801 6315.04 128.6 5687.04 847.8C4902.04 1746.8 4154.04 1340.8 3503.04 943.298C2676.68 438.728 2183.04 -33.2039 667.537 518.8" stroke="url(#paint69_linear)"/>
<path d="M7593.81 521.668C7218.15 331.668 6309.81 131.468 5681.81 850.668C4896.81 1749.67 4148.81 1343.66 3497.81 946.165C2671.46 441.595 2177.81 -30.3367 662.313 521.667" stroke="url(#paint70_linear)"/>
<path d="M7588.34 524.01C7212.67 334.009 6304.34 133.809 5676.34 853.009C4891.34 1752.01 4143.34 1346 3492.34 948.507C2665.98 443.937 2172.34 -27.9949 656.836 524.009" stroke="url(#paint71_linear)"/>
<path d="M7582.6 525.643C7206.94 335.643 6298.6 135.443 5670.6 854.643C4885.6 1753.64 4137.6 1347.64 3486.6 950.141C2660.25 445.571 2166.6 -26.3612 651.104 525.643" stroke="url(#paint72_linear)"/>
<path d="M7576.68 526.342C7201.01 336.342 6292.68 136.141 5664.68 855.341C4879.68 1754.34 4131.68 1348.34 3480.68 950.839C2654.32 446.269 2160.68 -25.6629 645.179 526.341" stroke="url(#paint73_linear)"/>
<path d="M7570.72 525.895C7195.06 335.895 6286.72 135.695 5658.72 854.895C4873.72 1753.9 4125.72 1347.89 3474.72 950.393C2648.37 445.823 2154.72 -26.1092 639.224 525.895" stroke="url(#paint74_linear)"/>
<path d="M7565 524.227C7189.33 334.227 6281 134.027 5653 853.227C4868 1752.23 4120 1346.22 3469 948.725C2642.64 444.155 2149 -27.7772 633.497 524.227" stroke="url(#paint75_linear)"/>
<path d="M7559.72 521.469C7184.05 331.469 6275.72 131.269 5647.72 850.469C4862.72 1749.47 4114.72 1343.46 3463.72 945.967C2637.36 441.397 2143.72 -30.535 628.221 521.469" stroke="url(#paint76_linear)"/>
<path d="M7554.99 517.868C7179.32 327.868 6270.99 127.668 5642.99 846.868C4857.99 1745.87 4109.99 1339.86 3458.99 942.365C2632.63 437.795 2138.99 -34.1365 623.489 517.868" stroke="url(#paint77_linear)"/>
<path d="M7550.79 513.662C7175.12 323.662 6266.79 123.462 5638.79 842.662C4853.79 1741.66 4105.79 1335.66 3454.79 938.159C2628.43 433.589 2134.79 -38.3426 619.287 513.662" stroke="url(#paint78_linear)"/>
<path d="M7547.05 509.035C7171.38 319.035 6263.05 118.835 5635.05 838.035C4850.05 1737.03 4102.05 1331.03 3451.05 933.532C2624.69 428.962 2131.05 -42.9696 615.55 509.035" stroke="url(#paint79_linear)"/>
<path d="M7543.71 504.111C7168.04 314.111 6259.71 113.911 5631.71 833.111C4846.71 1732.11 4098.71 1326.11 3447.71 928.608C2621.35 424.039 2127.71 -47.8934 612.208 504.111" stroke="url(#paint80_linear)"/>
<path d="M7540.7 498.976C7165.03 308.976 6256.7 108.776 5628.7 827.976C4843.7 1726.98 4095.7 1320.97 3444.7 923.474C2618.34 418.904 2124.7 -53.0281 609.195 498.976" stroke="url(#paint81_linear)"/>
<path d="M7537.96 493.685C7162.29 303.685 6253.96 103.485 5625.96 822.685C4840.96 1721.69 4092.96 1315.68 3441.96 918.183C2615.6 413.613 2121.96 -58.3192 606.46 493.685" stroke="url(#paint82_linear)"/>
<path d="M7535.46 488.277C7159.79 298.277 6251.46 98.0769 5623.46 817.277C4838.46 1716.28 4090.46 1310.27 3439.46 912.774C2613.1 408.205 2119.46 -63.7274 603.957 488.277" stroke="url(#paint83_linear)"/>
<path d="M7533.15 482.78C7157.49 292.78 6249.15 92.5798 5621.15 811.78C4836.15 1710.78 4088.15 1304.77 3437.15 907.277C2610.8 402.708 2117.15 -69.2244 601.654 482.78" stroke="url(#paint84_linear)"/>
<path d="M7531.02 477.212C7155.36 287.212 6247.02 87.0115 5619.02 806.211C4834.02 1705.21 4086.02 1299.21 3435.02 901.709C2608.67 397.139 2115.02 -74.7928 599.523 477.211" stroke="url(#paint85_linear)"/>
<path d="M7529.04 471.587C7153.38 281.587 6245.04 81.3865 5617.04 800.586C4832.04 1699.59 4084.04 1293.58 3433.04 896.084C2606.68 391.514 2113.04 -80.4178 597.542 471.586" stroke="url(#paint86_linear)"/>
<path d="M7527.19 465.916C7151.52 275.916 6243.19 75.7156 5615.19 794.916C4830.19 1693.92 4082.19 1287.91 3431.19 890.413C2604.83 385.843 2111.19 -86.0887 595.69 465.915" stroke="url(#paint87_linear)"/>
<path d="M7525.46 460.207C7149.79 270.207 6241.46 70.0066 5613.46 789.207C4828.46 1688.21 4080.46 1282.2 3429.46 884.704C2603.1 380.134 2109.46 -91.7977 593.956 460.206" stroke="url(#paint88_linear)"/>
<path d="M7523.81 454.408C7148.14 264.408 6239.81 64.2078 5611.81 783.408C4826.81 1682.41 4078.81 1276.4 3427.81 878.905C2601.45 374.336 2107.81 -97.5965 592.308 454.408" stroke="url(#paint89_linear)"/>
<path d="M7522.11 448.64C7146.44 258.64 6238.11 58.4402 5610.11 777.64C4825.11 1676.64 4077.11 1270.63 3426.11 873.138C2599.75 368.568 2106.11 -103.364 590.608 448.64" stroke="url(#paint90_linear)"/>
<path d="M7520.19 442.991C7144.52 252.991 6236.19 52.7908 5608.19 771.991C4823.19 1670.99 4075.19 1264.99 3424.19 867.488C2597.83 362.919 2104.19 -109.013 588.688 442.991" stroke="url(#paint91_linear)"/>
<path d="M7518.02 437.434C7142.35 247.434 6234.02 47.2341 5606.02 766.434C4821.02 1665.43 4073.02 1259.43 3422.02 861.932C2595.66 357.362 2102.02 -114.57 586.517 437.434" stroke="url(#paint92_linear)"/>
<path d="M7515.57 431.992C7139.9 241.992 6231.57 41.7918 5603.57 760.992C4818.57 1659.99 4070.57 1253.99 3419.57 856.489C2593.21 351.919 2099.57 -120.013 584.07 431.992" stroke="url(#paint93_linear)"/>
<path d="M7512.83 426.691C7137.16 236.691 6228.83 36.491 5600.83 755.691C4815.83 1654.69 4067.83 1248.69 3416.83 851.189C2590.47 346.619 2096.83 -125.313 581.331 426.691" stroke="url(#paint94_linear)"/>
<path d="M7509.78 421.564C7134.11 231.564 6225.78 31.364 5597.78 750.564C4812.78 1649.56 4064.78 1243.56 3413.78 846.062C2587.42 341.492 2093.78 -130.44 578.278 421.564" stroke="url(#paint95_linear)"/>
<path d="M7506.4 416.645C7130.73 226.645 6222.4 26.4451 5594.4 745.645C4809.4 1644.65 4061.4 1238.64 3410.4 841.143C2584.04 336.573 2090.4 -135.359 574.898 416.645" stroke="url(#paint96_linear)"/>
<path d="M7502.68 411.976C7127.01 221.976 6218.68 21.7761 5590.68 740.976C4805.68 1639.98 4057.68 1233.97 3406.68 836.474C2580.32 331.904 2086.68 -140.028 571.182 411.976" stroke="url(#paint97_linear)"/>
<path d="M7498.62 407.596C7122.96 217.596 6214.63 17.3962 5586.62 736.596C4801.62 1635.6 4053.62 1229.59 3402.62 832.094C2576.27 327.524 2082.63 -144.408 567.125 407.596" stroke="url(#paint98_linear)"/>
<path d="M7494.24 403.549C7118.57 213.549 6210.24 13.3484 5582.24 732.548C4797.24 1631.55 4049.24 1225.54 3398.24 828.046C2571.88 323.476 2078.24 -148.456 562.737 403.548" stroke="url(#paint99_linear)"/>
<path d="M7489.54 399.868C7113.87 209.868 6205.54 9.66773 5577.54 728.868C4792.54 1627.87 4044.54 1221.86 3393.54 824.365C2567.18 319.795 2073.54 -152.137 558.036 399.868" stroke="url(#paint100_linear)"/>
<path d="M7484.55 396.582C7108.88 206.582 6200.55 6.3816 5572.55 725.582C4787.55 1624.58 4039.55 1218.58 3388.55 821.079C2562.19 316.509 2068.55 -155.423 553.051 396.581" stroke="url(#paint101_linear)"/>
<path d="M7479.32 393.708C7103.65 203.708 6195.32 3.50757 5567.32 722.708C4782.32 1621.71 4034.32 1215.7 3383.32 818.205C2556.96 313.635 2063.32 -158.297 547.817 393.707" stroke="url(#paint102_linear)"/>
<path d="M7473.88 391.251C7098.21 201.251 6189.88 1.05054 5561.88 720.251C4776.88 1619.25 4028.88 1213.25 3377.88 815.748C2551.52 311.178 2057.88 -160.754 542.376 391.25" stroke="url(#paint103_linear)"/>
<path d="M7468.27 389.203C7092.6 199.203 6184.27 -0.99731 5556.27 718.203C4771.27 1617.2 4023.27 1211.2 3372.27 813.7C2545.91 309.13 2052.27 -162.802 536.769 389.203" stroke="url(#paint104_linear)"/>
<path d="M7462.53 387.549C7086.87 197.549 6178.53 -2.65161 5550.53 716.548C4765.53 1615.55 4017.53 1209.54 3366.53 812.046C2540.17 307.476 2046.53 -164.456 531.032 387.548" stroke="url(#paint105_linear)"/>
<path d="M7456.7 386.265C7081.04 196.265 6172.7 -3.93481 5544.7 715.265C4759.7 1614.27 4011.7 1208.26 3360.7 810.763C2534.34 306.193 2040.7 -165.739 525.202 386.265" stroke="url(#paint106_linear)"/>
<path d="M7450.81 385.326C7075.14 195.326 6166.81 -4.87426 5538.81 714.326C4753.81 1613.33 4005.81 1207.32 3354.81 809.823C2528.45 305.253 2034.81 -166.679 519.307 385.326" stroke="url(#paint107_linear)"/>
<path d="M7444.87 384.703C7069.2 194.703 6160.87 -5.49731 5532.87 713.703C4747.87 1612.7 3999.87 1206.7 3348.87 809.2C2522.51 304.63 2028.87 -167.302 513.37 384.703" stroke="url(#paint108_linear)"/>
<path d="M7438.91 384.368C7063.24 194.368 6154.91 -5.83227 5526.91 713.368C4741.91 1612.37 3993.91 1206.36 3342.91 808.865C2516.55 304.295 2022.91 -167.637 507.41 384.368" stroke="url(#paint109_linear)"/>
<path d="M7432.94 384.294C7057.27 194.294 6148.94 -5.90649 5520.94 713.293C4735.94 1612.29 3987.94 1206.29 3336.94 808.791C2510.58 304.221 2016.94 -167.711 501.441 384.293" stroke="url(#paint110_linear)"/>
<path d="M7426.97 384.456C7051.31 194.456 6142.97 -5.74438 5514.97 713.456C4729.97 1612.46 3981.97 1206.45 3330.97 808.953C2504.62 304.383 2010.97 -167.549 495.475 384.455" stroke="url(#paint111_linear)"/>
<path d="M7421.02 384.831C7045.35 194.831 6137.02 -5.36938 5509.02 713.831C4724.02 1612.83 3976.02 1206.83 3325.02 809.328C2498.66 304.758 2005.02 -167.174 489.517 384.83" stroke="url(#paint112_linear)"/>
<path d="M7415.07 385.399C7039.41 195.399 6131.07 -4.80102 5503.07 714.399C4718.07 1613.4 3970.07 1207.39 3319.07 809.897C2492.72 305.327 1999.07 -166.605 483.574 385.399" stroke="url(#paint113_linear)"/>
<path d="M7409.15 386.14C7033.48 196.14 6125.15 -4.05981 5497.15 715.14C4712.15 1614.14 3964.15 1208.13 3313.15 810.638C2486.79 306.068 1993.15 -165.864 477.651 386.14" stroke="url(#paint114_linear)"/>
<path d="M7403.25 387.04C7027.58 197.04 6119.25 -3.1604 5491.25 716.04C4706.25 1615.04 3958.25 1209.03 3307.25 811.537C2480.89 306.967 1987.25 -164.965 471.75 387.039" stroke="url(#paint115_linear)"/>
<path d="M7397.37 388.082C7021.7 198.082 6113.37 -2.1184 5485.37 717.082C4700.37 1616.08 3952.37 1210.08 3301.37 812.579C2475.01 308.009 1981.37 -163.923 465.871 388.081" stroke="url(#paint116_linear)"/>
<path d="M7391.52 389.253C7015.85 199.253 6107.52 -0.947505 5479.52 718.252C4694.52 1617.25 3946.52 1211.25 3295.52 813.75C2469.16 309.18 1975.52 -162.752 460.018 389.252" stroke="url(#paint117_linear)"/>
<path d="M7385.69 390.543C7010.02 200.543 6101.69 0.342534 5473.69 719.543C4688.69 1618.54 3940.69 1212.54 3289.69 815.04C2463.33 310.47 1969.69 -161.462 454.188 390.542" stroke="url(#paint118_linear)"/>
<path d="M7379.88 391.939C7004.22 201.939 6095.88 1.73902 5467.88 720.939C4682.88 1619.94 3934.88 1213.93 3283.88 816.437C2457.53 311.867 1963.88 -160.065 448.385 391.939" stroke="url(#paint119_linear)"/>
<path d="M7374.1 393.434C6998.44 203.434 6090.1 3.23414 5462.1 722.434C4677.1 1621.43 3929.1 1215.43 3278.1 817.932C2451.75 313.362 1958.1 -158.57 442.604 393.434" stroke="url(#paint120_linear)"/>
<path d="M7368.35 395.019C6992.68 205.019 6084.35 4.8191 5456.35 724.019C4671.35 1623.02 3923.35 1217.01 3272.35 819.517C2445.99 314.947 1952.35 -156.985 436.849 395.019" stroke="url(#paint121_linear)"/>
<path d="M7362.62 396.687C6986.95 206.687 6078.62 6.48707 5450.62 725.687C4665.62 1624.69 3917.62 1218.68 3266.62 821.185C2440.26 316.615 1946.62 -155.317 431.116 396.687" stroke="url(#paint122_linear)"/>
<path d="M7356.91 398.429C6981.24 208.429 6072.91 8.22925 5444.91 727.429C4659.91 1626.43 3911.91 1220.42 3260.91 822.927C2434.55 318.357 1940.91 -153.575 425.405 398.429" stroke="url(#paint123_linear)"/>
<path d="M7351.22 400.242C6975.55 210.242 6067.22 10.0418 5439.22 729.242C4654.22 1628.24 3906.22 1222.24 3255.22 824.739C2428.86 320.169 1935.22 -151.763 419.717 400.242" stroke="url(#paint124_linear)"/>
<path d="M7345.55 402.118C6969.88 212.118 6061.55 11.9177 5433.55 731.118C4648.55 1630.12 3900.55 1224.11 3249.55 826.615C2423.19 322.045 1929.55 -149.887 414.049 402.118" stroke="url(#paint125_linear)"/>
<path d="M7339.9 404.053C6964.23 214.053 6055.9 13.8533 5427.9 733.053C4642.9 1632.05 3894.9 1226.05 3243.9 828.551C2417.54 323.981 1923.9 -147.951 408.401 404.053" stroke="url(#paint126_linear)"/>
<path d="M7334.27 406.043C6958.6 216.043 6050.27 15.8425 5422.27 735.043C4637.27 1634.04 3889.27 1228.04 3238.27 830.54C2411.91 325.97 1918.27 -145.962 402.771 406.042" stroke="url(#paint127_linear)"/>
<path d="M7328.66 408.082C6952.99 218.082 6044.66 17.8816 5416.66 737.082C4631.66 1636.08 3883.66 1230.08 3232.66 832.579C2406.3 328.009 1912.66 -143.923 397.16 408.081" stroke="url(#paint128_linear)"/>
<path d="M7323.07 410.168C6947.4 220.168 6039.07 19.9675 5411.07 739.168C4626.07 1638.17 3878.07 1232.16 3227.07 834.665C2400.71 330.095 1907.07 -141.837 391.565 410.167" stroke="url(#paint129_linear)"/>
<path d="M7317.49 412.296C6941.82 222.296 6033.49 22.0955 5405.49 741.295C4620.49 1640.3 3872.49 1234.29 3221.49 836.793C2395.13 332.223 1901.49 -139.709 385.987 412.295" stroke="url(#paint130_linear)"/>
<path d="M7311.92 414.463C6936.26 224.463 6027.92 24.2625 5399.92 743.462C4614.92 1642.46 3866.92 1236.46 3215.92 838.96C2389.57 334.39 1895.92 -137.542 380.424 414.462" stroke="url(#paint131_linear)"/>
<path d="M7306.37 416.667C6930.71 226.667 6022.38 26.4666 5394.37 745.667C4609.37 1644.67 3861.37 1238.66 3210.37 841.164C2384.02 336.594 1890.38 -135.338 374.875 416.666" stroke="url(#paint132_linear)"/>
<path d="M7300.84 418.904C6925.17 228.904 6016.84 28.7039 5388.84 747.904C4603.84 1646.9 3855.84 1240.9 3204.84 843.401C2378.48 338.832 1884.84 -133.1 369.339 418.904" stroke="url(#paint133_linear)"/>
<path d="M7295.32 421.172C6919.65 231.172 6011.32 30.9714 5383.32 750.171C4598.32 1649.17 3850.32 1243.17 3199.32 845.669C2372.96 341.099 1879.32 -130.833 363.816 421.171" stroke="url(#paint134_linear)"/>
<path d="M7289.8 423.468C6914.14 233.467 6005.8 33.2673 5377.8 752.467C4592.8 1651.47 3844.8 1245.46 3193.8 847.965C2367.45 343.395 1873.8 -128.537 358.305 423.467" stroke="url(#paint135_linear)"/>
<path d="M7284.3 425.79C6908.64 235.79 6000.3 35.5896 5372.3 754.79C4587.3 1653.79 3839.3 1247.78 3188.3 850.287C2361.95 345.717 1868.3 -126.215 352.804 425.789" stroke="url(#paint136_linear)"/>
<path d="M7278.81 428.135C6903.15 238.135 5994.81 37.9353 5366.81 757.135C4581.81 1656.14 3833.81 1250.13 3182.81 852.633C2356.46 348.063 1862.81 -123.869 347.313 428.135" stroke="url(#paint137_linear)"/>
<path d="M7273.33 430.503C6897.67 240.503 5989.33 40.3025 5361.33 759.502C4576.33 1658.5 3828.33 1252.5 3177.33 855C2350.97 350.43 1857.33 -121.502 341.832 430.502" stroke="url(#paint138_linear)"/>
<path d="M7267.86 432.889C6892.19 242.889 5983.86 42.6892 5355.86 761.889C4570.86 1660.89 3822.86 1254.88 3171.86 857.387C2345.5 352.817 1851.86 -119.115 336.358 432.889" stroke="url(#paint139_linear)"/>
<path d="M7262.39 435.294C6886.73 245.294 5978.39 45.0935 5350.39 764.293C4565.39 1663.29 3817.39 1257.29 3166.39 859.791C2340.04 355.221 1846.39 -116.711 330.894 435.293" stroke="url(#paint140_linear)"/>
<path d="M7256.94 437.715C6881.27 247.715 5972.94 47.5144 5344.94 766.714C4559.94 1665.71 3811.94 1259.71 3160.94 862.212C2334.58 357.642 1840.94 -114.29 325.436 437.714" stroke="url(#paint141_linear)"/>
<path d="M7251.48 440.149C6875.82 250.149 5967.48 49.949 5339.48 769.149C4554.48 1668.15 3806.48 1262.14 3155.48 864.647C2329.13 360.077 1835.48 -111.855 319.983 440.149" stroke="url(#paint142_linear)"/>
<path d="M7246.04 442.595C6870.37 252.595 5962.04 52.3953 5334.04 771.595C4549.04 1670.6 3801.04 1264.59 3150.04 867.093C2323.68 362.523 1830.04 -109.409 314.537 442.595" stroke="url(#paint143_linear)"/>
<path d="M7240.6 445.053C6864.93 255.053 5956.6 54.8533 5328.6 774.053C4543.6 1673.05 3795.6 1267.05 3144.6 869.551C2318.24 364.981 1824.6 -106.951 309.096 445.053" stroke="url(#paint144_linear)"/>
<path d="M7235.16 447.52C6859.49 257.52 5951.16 57.3201 5323.16 776.52C4538.16 1675.52 3790.16 1269.51 3139.16 872.018C2312.8 367.448 1819.16 -104.484 303.658 447.52" stroke="url(#paint145_linear)"/>
<path d="M7229.72 449.995C6854.06 259.995 5945.72 59.7947 5317.72 778.995C4532.72 1677.99 3784.72 1271.99 3133.72 874.492C2307.37 369.922 1813.72 -102.01 298.225 449.995" stroke="url(#paint146_linear)"/>
<path d="M7224.29 452.475C6848.63 262.475 5940.29 62.2752 5312.29 781.475C4527.29 1680.48 3779.29 1274.47 3128.29 876.973C2301.94 372.403 1808.29 -99.5291 292.793 452.475" stroke="url(#paint147_linear)"/>
<path d="M7218.86 454.961C6843.2 264.961 5934.86 64.7605 5306.86 783.96C4521.86 1682.96 3773.86 1276.96 3122.86 879.458C2296.51 374.888 1802.86 -97.0438 287.364 454.96" stroke="url(#paint148_linear)"/>
<path d="M7213.44 457.449C6837.77 267.449 5929.44 67.2488 5301.44 786.449C4516.44 1685.45 3768.44 1279.44 3117.44 881.946C2291.08 377.377 1797.44 -94.5555 281.937 457.449" stroke="url(#paint149_linear)"/>
<path d="M7208.01 459.939C6832.34 269.939 5924.01 69.739 5296.01 788.939C4511.01 1687.94 3763.01 1281.93 3112.01 884.437C2285.65 379.867 1792.01 -92.0653 276.51 459.939" stroke="url(#paint150_linear)"/>
<path d="M7202.58 462.43C6826.92 272.43 5918.58 72.2302 5290.58 791.43C4505.58 1690.43 3757.58 1284.43 3106.58 886.928C2280.23 382.358 1786.58 -89.574 271.083 462.43" stroke="url(#paint151_linear)"/>
<path d="M7197.16 464.919C6821.49 274.919 5913.16 74.7185 5285.16 793.918C4500.16 1692.92 3752.16 1286.91 3101.16 889.416C2274.8 384.846 1781.16 -87.0858 265.656 464.918" stroke="url(#paint152_linear)"/>
<path d="M7191.73 467.406C6816.06 277.406 5907.73 77.2058 5279.73 796.406C4494.73 1695.41 3746.73 1289.4 3095.73 891.903C2269.37 387.334 1775.73 -84.5985 260.228 467.406" stroke="url(#paint153_linear)"/>
<path d="M7186.3 469.887C6810.63 279.887 5902.3 79.6873 5274.3 798.887C4489.3 1697.89 3741.3 1291.88 3090.3 894.385C2263.94 389.815 1770.3 -82.117 254.798 469.887" stroke="url(#paint154_linear)"/>
<path d="M7180.86 472.364C6805.2 282.364 5896.86 82.1638 5268.86 801.364C4483.86 1700.36 3735.86 1294.36 3084.86 896.861C2258.51 392.292 1764.86 -79.6404 249.364 472.364" stroke="url(#paint155_linear)"/>
<path d="M7175.43 474.834C6799.76 284.834 5891.43 84.6335 5263.43 803.834C4478.43 1702.83 3730.43 1296.83 3079.43 899.331C2253.07 394.761 1759.43 -77.1707 243.929 474.833" stroke="url(#paint156_linear)"/>
<path d="M7169.99 477.295C6794.32 287.295 5885.99 87.0945 5257.99 806.294C4472.99 1705.29 3724.99 1299.29 3073.99 901.792C2247.63 397.222 1753.99 -74.7098 238.488 477.294" stroke="url(#paint157_linear)"/>
<path d="M7164.54 479.745C6788.88 289.745 5880.54 89.5447 5252.54 808.745C4467.54 1707.74 3719.54 1301.74 3068.54 904.242C2242.19 399.672 1748.54 -72.2596 233.043 479.745" stroke="url(#paint158_linear)"/>
<path d="M7159.09 482.183C6783.43 292.183 5875.09 91.9832 5247.09 811.183C4462.09 1710.18 3714.09 1304.18 3063.09 906.681C2236.73 402.111 1743.09 -69.8211 227.593 482.183" stroke="url(#paint159_linear)"/>
<path d="M7153.64 484.608C6777.97 294.608 5869.64 94.408 5241.64 813.608C4456.64 1712.61 3708.64 1306.6 3057.64 909.106C2231.28 404.536 1737.64 -67.3963 222.137 484.608" stroke="url(#paint160_linear)"/>
<path d="M7148.17 487.017C6772.51 297.017 5864.17 96.8171 5236.17 816.017C4451.17 1715.02 3703.17 1309.01 3052.17 911.515C2225.82 406.945 1732.17 -64.9871 216.674 487.017" stroke="url(#paint161_linear)"/>
<path d="M7142.7 489.41C6767.04 299.41 5858.7 99.2097 5230.7 818.41C4445.7 1717.41 3697.7 1311.4 3046.7 913.907C2220.35 409.337 1726.7 -62.5946 211.203 489.41" stroke="url(#paint162_linear)"/>
<path d="M7137.22 491.782C6761.56 301.782 5853.22 101.582 5225.22 820.782C4440.22 1719.78 3692.22 1313.78 3041.22 916.279C2214.87 411.71 1721.22 -60.2225 205.725 491.782" stroke="url(#paint163_linear)"/>
<path d="M7131.74 494.135C6756.07 304.134 5847.74 103.934 5219.74 823.134C4434.74 1722.13 3686.74 1316.13 3035.74 918.632C2209.38 414.062 1715.74 -57.8699 200.236 494.134" stroke="url(#paint164_linear)"/>
<path d="M7126.24 496.463C6750.57 306.463 5842.24 106.262 5214.24 825.462C4429.24 1724.46 3681.24 1318.46 3030.24 920.96C2203.88 416.39 1710.24 -55.5418 194.738 496.462" stroke="url(#paint165_linear)"/>
<path d="M7120.73 498.765C6745.06 308.765 5836.73 108.565 5208.73 827.765C4423.73 1726.77 3675.73 1320.76 3024.73 923.263C2198.37 418.693 1704.73 -53.2391 189.229 498.765" stroke="url(#paint166_linear)"/>
<path d="M7115.21 501.041C6739.54 311.041 5831.21 110.841 5203.21 830.041C4418.21 1729.04 3670.21 1323.04 3019.21 925.538C2192.85 420.968 1699.21 -50.9637 183.709 501.04" stroke="url(#paint167_linear)"/>
<path d="M7109.68 503.286C6734.01 313.286 5825.68 113.086 5197.68 832.286C4412.68 1731.29 3664.68 1325.28 3013.68 927.783C2187.32 423.213 1693.68 -48.7186 178.177 503.286" stroke="url(#paint168_linear)"/>
<path d="M7104.13 505.498C6728.46 315.498 5820.13 115.298 5192.13 834.498C4407.13 1733.5 3659.13 1327.49 3008.13 929.995C2181.77 425.425 1688.13 -46.5067 172.631 505.497" stroke="url(#paint169_linear)"/>
<path d="M7098.57 507.674C6722.9 317.674 5814.57 117.473 5186.57 836.673C4401.57 1735.67 3653.57 1329.67 3002.57 932.171C2176.21 427.601 1682.57 -44.3309 167.071 507.673" stroke="url(#paint170_linear)"/>
<path d="M7093 509.81C6717.33 319.81 5809 119.61 5181 838.81C4396 1737.81 3648 1331.8 2997 934.308C2170.64 429.738 1677 -42.1942 161.496 509.81" stroke="url(#paint171_linear)"/>
<path d="M7087.4 511.904C6711.74 321.904 5803.4 121.704 5175.4 840.904C4390.4 1739.9 3642.4 1333.9 2991.4 936.401C2165.05 431.832 1671.4 -40.1004 155.904 511.904" stroke="url(#paint172_linear)"/>
<path d="M7081.8 513.953C6706.13 323.953 5797.8 123.753 5169.8 842.953C4384.8 1741.95 3636.8 1335.95 2985.8 938.45C2159.44 433.88 1665.8 -38.0516 150.297 513.953" stroke="url(#paint173_linear)"/>
<path d="M7076.17 515.952C6700.5 325.952 5792.17 125.752 5164.17 844.952C4379.17 1743.95 3631.17 1337.95 2980.17 940.449C2153.81 435.879 1660.17 -36.0526 144.671 515.952" stroke="url(#paint174_linear)"/>
<path d="M7070.53 517.896C6694.86 327.896 5786.53 127.696 5158.53 846.896C4373.53 1745.9 3625.53 1339.89 2974.53 942.394C2148.17 437.824 1654.53 -34.1082 139.025 517.896" stroke="url(#paint175_linear)"/>
<path d="M7064.86 519.782C6689.19 329.782 5780.86 129.582 5152.86 848.782C4367.86 1747.78 3619.86 1341.78 2968.86 944.279C2142.5 439.71 1648.86 -32.2225 133.361 519.782" stroke="url(#paint176_linear)"/>
<path d="M7059.18 521.603C6683.51 331.603 5775.18 131.403 5147.18 850.603C4362.18 1749.6 3614.18 1343.6 2963.18 946.101C2136.82 441.531 1643.18 -30.4012 127.676 521.603" stroke="url(#paint177_linear)"/>
<path d="M7053.47 523.355C6677.8 333.355 5769.47 133.155 5141.47 852.355C4356.47 1751.35 3608.47 1345.35 2957.47 947.853C2131.11 443.283 1637.47 -28.6492 121.968 523.355" stroke="url(#paint178_linear)"/>
<path d="M7047.74 525.032C6672.07 335.032 5763.74 134.832 5135.74 854.032C4350.74 1753.03 3602.74 1347.03 2951.74 949.529C2125.38 444.96 1631.74 -26.9725 116.238 525.032" stroke="url(#paint179_linear)"/>
<path d="M7041.98 526.626C6666.32 336.626 5757.98 136.426 5129.98 855.626C4344.98 1754.63 3596.98 1348.62 2945.98 951.123C2119.63 446.553 1625.98 -25.3787 110.484 526.625" stroke="url(#paint180_linear)"/>
<path d="M7036.21 528.128C6660.54 338.128 5752.21 137.927 5124.21 857.127C4339.21 1756.13 3591.21 1350.12 2940.21 952.625C2113.85 448.055 1620.21 -23.8768 104.707 528.127" stroke="url(#paint181_linear)"/>
<path d="M7030.4 529.532C6654.74 339.532 5746.4 139.332 5118.4 858.532C4333.4 1757.53 3585.4 1351.53 2934.4 954.029C2108.05 449.46 1614.4 -22.4725 98.9043 529.532" stroke="url(#paint182_linear)"/>
<path d="M7024.58 530.827C6648.91 340.827 5740.58 140.627 5112.58 859.827C4327.58 1758.83 3579.58 1352.82 2928.58 955.324C2102.22 450.754 1608.58 -21.1776 93.0762 530.827" stroke="url(#paint183_linear)"/>
<path d="M7018.72 532.003C6643.06 342.003 5734.72 141.802 5106.72 861.002C4321.72 1760 3573.72 1354 2922.72 956.5C2096.37 451.93 1602.72 -20.0018 87.2236 532.002" stroke="url(#paint184_linear)"/>
<path d="M7012.85 533.047C6637.18 343.047 5728.85 142.846 5100.85 862.046C4315.85 1761.05 3567.85 1355.04 2916.85 957.544C2090.49 452.974 1596.85 -18.9578 81.3457 533.046" stroke="url(#paint185_linear)"/>
<path d="M7006.94 533.945C6631.28 343.945 5722.94 143.745 5094.94 862.945C4309.94 1761.94 3561.94 1355.94 2910.94 958.442C2084.59 453.873 1590.94 -18.0594 75.4443 533.945" stroke="url(#paint186_linear)"/>
<path d="M7001.02 534.682C6625.35 344.682 5717.02 144.482 5089.02 863.682C4304.02 1762.68 3556.02 1356.68 2905.02 959.18C2078.66 454.61 1585.02 -17.3221 69.5215 534.682" stroke="url(#paint187_linear)"/>
<path d="M6995.08 535.242C6619.41 345.242 5711.08 145.042 5083.08 864.242C4298.08 1763.24 3550.08 1357.24 2899.08 959.739C2072.72 455.169 1579.08 -16.7625 63.5781 535.242" stroke="url(#paint188_linear)"/>
<path d="M6989.12 535.604C6613.45 345.604 5705.12 145.404 5077.12 864.604C4292.12 1763.6 3544.12 1357.6 2893.12 960.102C2066.76 455.532 1573.12 -16.4002 57.6201 535.604" stroke="url(#paint189_linear)"/>
<path d="M6983.15 535.747C6607.49 345.747 5699.15 145.547 5071.15 864.747C4286.15 1763.75 3538.15 1357.74 2887.15 960.244C2060.79 455.674 1567.15 -16.2576 51.6523 535.747" stroke="url(#paint190_linear)"/>
<path d="M6977.18 535.645C6601.52 345.645 5693.18 145.445 5065.18 864.645C4280.18 1763.65 3532.18 1357.64 2881.18 960.143C2054.83 455.573 1561.18 -16.3592 45.6846 535.645" stroke="url(#paint191_linear)"/>
<path d="M6971.23 535.274C6595.56 345.274 5687.23 145.074 5059.23 864.274C4274.23 1763.27 3526.23 1357.27 2875.23 959.772C2048.87 455.202 1555.23 -16.7303 39.7266 535.274" stroke="url(#paint192_linear)"/>
<path d="M6965.29 534.603C6589.63 344.603 5681.29 144.403 5053.29 863.603C4268.29 1762.6 3520.29 1356.6 2869.29 959.101C2042.94 454.531 1549.29 -17.4012 33.7949 534.603" stroke="url(#paint193_linear)"/>
<path d="M6959.41 533.604C6583.74 343.604 5675.41 143.404 5047.41 862.604C4262.41 1761.6 3514.41 1355.6 2863.41 958.102C2037.05 453.532 1543.41 -18.4002 27.9101 533.604" stroke="url(#paint194_linear)"/>
<path d="M6953.6 532.247C6577.93 342.247 5669.6 142.047 5041.6 861.247C4256.6 1760.25 3508.6 1354.24 2857.6 956.744C2031.24 452.174 1537.6 -19.7576 22.0967 532.247" stroke="url(#paint195_linear)"/>
<path d="M6947.89 530.503C6572.22 340.503 5663.89 140.302 5035.89 859.502C4250.89 1758.5 3502.89 1352.5 2851.89 955C2025.53 450.43 1531.89 -21.5018 16.3867 530.502" stroke="url(#paint196_linear)"/>
<path d="M6942.32 528.35C6566.65 338.35 5658.32 138.15 5030.32 857.35C4245.32 1756.35 3497.32 1350.34 2846.32 952.848C2019.96 448.278 1526.32 -23.6541 10.8183 528.35" stroke="url(#paint197_linear)"/>
<path d="M6936.93 525.77C6561.26 335.77 5652.93 135.57 5024.93 854.77C4239.93 1753.77 3491.93 1347.76 2840.93 950.268C2014.57 445.698 1520.93 -26.2342 5.42772 525.77" stroke="url(#paint198_linear)"/>
<path d="M6931.77 522.765C6556.1 332.765 5647.77 132.565 5019.77 851.765C4234.77 1750.77 3486.77 1344.76 2835.77 947.263C2009.41 442.693 1515.77 -29.2391 0.26952 522.765" stroke="url(#paint199_linear)"/>
<defs>
<linearGradient id="paint0_linear" x1="7890.58" y1="563.338" x2="959.078" y2="563.337" gradientUnits="userSpaceOnUse">
<stop stop-color="#67DE69"/>
<stop offset="1" stop-color="#0047B0"/>
</linearGradient>
<linearGradient id="paint1_linear" x1="7884.87" y1="561.597" x2="953.368" y2="561.597" gradientUnits="userSpaceOnUse">
<stop stop-color="#67DE69"/>
<stop offset="1" stop-color="#0047B0"/>
</linearGradient>
<linearGradient id="paint2_linear" x1="7879.02" y1="560.409" x2="947.518" y2="560.409" gradientUnits="userSpaceOnUse">
<stop stop-color="#67DE69"/>
<stop offset="1" stop-color="#0047B0"/>
</linearGradient>
<linearGradient id="paint3_linear" x1="7873.08" y1="559.793" x2="941.579" y2="559.792" gradientUnits="userSpaceOnUse">
<stop stop-color="#67DE69"/>
<stop offset="1" stop-color="#0047B0"/>
</linearGradient>
<linearGradient id="paint4_linear" x1="7867.11" y1="559.753" x2="935.608" y2="559.752" gradientUnits="userSpaceOnUse">
<stop stop-color="#67DE69"/>
<stop offset="1" stop-color="#0047B0"/>
</linearGradient>
<linearGradient id="paint5_linear" x1="7861.16" y1="560.265" x2="929.66" y2="560.265" gradientUnits="userSpaceOnUse">
<stop stop-color="#67DE69"/>
<stop offset="1" stop-color="#0047B0"/>
</linearGradient>
<linearGradient id="paint6_linear" x1="7855.28" y1="561.295" x2="923.779" y2="561.294" gradientUnits="userSpaceOnUse">
<stop stop-color="#67DE69"/>
<stop offset="1" stop-color="#0047B0"/>
</linearGradient>
<linearGradient id="paint7_linear" x1="7849.5" y1="562.791" x2="918" y2="562.79" gradientUnits="userSpaceOnUse">
<stop stop-color="#67DE69"/>
<stop offset="1" stop-color="#0047B0"/>
</linearGradient>
<linearGradient id="paint8_linear" x1="7843.85" y1="564.703" x2="912.346" y2="564.702" gradientUnits="userSpaceOnUse">
<stop stop-color="#67DE69"/>
<stop offset="1" stop-color="#0047B0"/>
</linearGradient>
<linearGradient id="paint9_linear" x1="7838.33" y1="566.978" x2="906.828" y2="566.978" gradientUnits="userSpaceOnUse">
<stop stop-color="#67DE69"/>
<stop offset="1" stop-color="#0047B0"/>
</linearGradient>
<linearGradient id="paint10_linear" x1="7832.95" y1="569.571" x2="901.451" y2="569.571" gradientUnits="userSpaceOnUse">
<stop stop-color="#67DE69"/>
<stop offset="1" stop-color="#0047B0"/>
</linearGradient>
<linearGradient id="paint11_linear" x1="7827.72" y1="572.436" x2="896.216" y2="572.436" gradientUnits="userSpaceOnUse">
<stop stop-color="#67DE69"/>
<stop offset="1" stop-color="#0047B0"/>
</linearGradient>
<linearGradient id="paint12_linear" x1="7822.62" y1="575.539" x2="891.116" y2="575.538" gradientUnits="userSpaceOnUse">
<stop stop-color="#67DE69"/>
<stop offset="1" stop-color="#0047B0"/>
</linearGradient>
<linearGradient id="paint13_linear" x1="7817.65" y1="578.846" x2="886.147" y2="578.846" gradientUnits="userSpaceOnUse">
<stop stop-color="#67DE69"/>
<stop offset="1" stop-color="#0047B0"/>
</linearGradient>
<linearGradient id="paint14_linear" x1="7812.8" y1="582.331" x2="881.301" y2="582.33" gradientUnits="userSpaceOnUse">
<stop stop-color="#67DE69"/>
<stop offset="1" stop-color="#0047B0"/>
</linearGradient>
<linearGradient id="paint15_linear" x1="7808.07" y1="585.971" x2="876.57" y2="585.971" gradientUnits="userSpaceOnUse">
<stop stop-color="#67DE69"/>
<stop offset="1" stop-color="#0047B0"/>
</linearGradient>
<linearGradient id="paint16_linear" x1="7803.45" y1="589.748" x2="871.946" y2="589.747" gradientUnits="userSpaceOnUse">
<stop stop-color="#67DE69"/>
<stop offset="1" stop-color="#0047B0"/>
</linearGradient>
<linearGradient id="paint17_linear" x1="7798.92" y1="593.643" x2="867.423" y2="593.643" gradientUnits="userSpaceOnUse">
<stop stop-color="#67DE69"/>
<stop offset="1" stop-color="#0047B0"/>
</linearGradient>
<linearGradient id="paint18_linear" x1="7794.49" y1="597.643" x2="862.992" y2="597.643" gradientUnits="userSpaceOnUse">
<stop stop-color="#67DE69"/>
<stop offset="1" stop-color="#0047B0"/>
</linearGradient>
<linearGradient id="paint19_linear" x1="7790.15" y1="601.737" x2="858.646" y2="601.737" gradientUnits="userSpaceOnUse">
<stop stop-color="#67DE69"/>
<stop offset="1" stop-color="#0047B0"/>
</linearGradient>
<linearGradient id="paint20_linear" x1="7785.88" y1="605.914" x2="854.381" y2="605.913" gradientUnits="userSpaceOnUse">
<stop stop-color="#67DE69"/>
<stop offset="1" stop-color="#0047B0"/>
</linearGradient>
<linearGradient id="paint21_linear" x1="7781.69" y1="610.164" x2="850.188" y2="610.163" gradientUnits="userSpaceOnUse">
<stop stop-color="#67DE69"/>
<stop offset="1" stop-color="#0047B0"/>
</linearGradient>
<linearGradient id="paint22_linear" x1="7777.56" y1="614.48" x2="846.063" y2="614.48" gradientUnits="userSpaceOnUse">
<stop stop-color="#67DE69"/>
<stop offset="1" stop-color="#0047B0"/>
</linearGradient>
<linearGradient id="paint23_linear" x1="7773.5" y1="618.856" x2="842.002" y2="618.856" gradientUnits="userSpaceOnUse">
<stop stop-color="#67DE69"/>
<stop offset="1" stop-color="#0047B0"/>
</linearGradient>
<linearGradient id="paint24_linear" x1="7769.5" y1="623.285" x2="837.998" y2="623.284" gradientUnits="userSpaceOnUse">
<stop stop-color="#67DE69"/>
<stop offset="1" stop-color="#0047B0"/>
</linearGradient>
<linearGradient id="paint25_linear" x1="7765.55" y1="627.762" x2="834.048" y2="627.762" gradientUnits="userSpaceOnUse">
<stop stop-color="#67DE69"/>
<stop offset="1" stop-color="#0047B0"/>
</linearGradient>
<linearGradient id="paint26_linear" x1="7761.65" y1="632.283" x2="830.148" y2="632.283" gradientUnits="userSpaceOnUse">
<stop stop-color="#67DE69"/>
<stop offset="1" stop-color="#0047B0"/>
</linearGradient>
<linearGradient id="paint27_linear" x1="7757.79" y1="636.842" x2="826.294" y2="636.842" gradientUnits="userSpaceOnUse">
<stop stop-color="#67DE69"/>
<stop offset="1" stop-color="#0047B0"/>
</linearGradient>
<linearGradient id="paint28_linear" x1="7753.98" y1="641.438" x2="822.481" y2="641.438" gradientUnits="userSpaceOnUse">
<stop stop-color="#67DE69"/>
<stop offset="1" stop-color="#0047B0"/>
</linearGradient>
<linearGradient id="paint29_linear" x1="7750.21" y1="646.065" x2="818.709" y2="646.065" gradientUnits="userSpaceOnUse">
<stop stop-color="#67DE69"/>
<stop offset="1" stop-color="#0047B0"/>
</linearGradient>
<linearGradient id="paint30_linear" x1="7746.47" y1="650.722" x2="814.972" y2="650.722" gradientUnits="userSpaceOnUse">
<stop stop-color="#67DE69"/>
<stop offset="1" stop-color="#0047B0"/>
</linearGradient>
<linearGradient id="paint31_linear" x1="7742.77" y1="655.405" x2="811.268" y2="655.405" gradientUnits="userSpaceOnUse">
<stop stop-color="#67DE69"/>
<stop offset="1" stop-color="#0047B0"/>
</linearGradient>
<linearGradient id="paint32_linear" x1="7739.09" y1="660.111" x2="807.593" y2="660.111" gradientUnits="userSpaceOnUse">
<stop stop-color="#67DE69"/>
<stop offset="1" stop-color="#0047B0"/>
</linearGradient>
<linearGradient id="paint33_linear" x1="7735.45" y1="664.839" x2="803.946" y2="664.838" gradientUnits="userSpaceOnUse">
<stop stop-color="#67DE69"/>
<stop offset="1" stop-color="#0047B0"/>
</linearGradient>
<linearGradient id="paint34_linear" x1="7731.82" y1="669.586" x2="800.324" y2="669.585" gradientUnits="userSpaceOnUse">
<stop stop-color="#67DE69"/>
<stop offset="1" stop-color="#0047B0"/>
</linearGradient>
<linearGradient id="paint35_linear" x1="7728.22" y1="674.348" x2="796.725" y2="674.348" gradientUnits="userSpaceOnUse">
<stop stop-color="#67DE69"/>
<stop offset="1" stop-color="#0047B0"/>
</linearGradient>
<linearGradient id="paint36_linear" x1="7724.64" y1="679.128" x2="793.145" y2="679.127" gradientUnits="userSpaceOnUse">
<stop stop-color="#67DE69"/>
<stop offset="1" stop-color="#0047B0"/>
</linearGradient>
<linearGradient id="paint37_linear" x1="7721.08" y1="683.92" x2="789.582" y2="683.919" gradientUnits="userSpaceOnUse">
<stop stop-color="#67DE69"/>
<stop offset="1" stop-color="#0047B0"/>
</linearGradient>
<linearGradient id="paint38_linear" x1="7717.54" y1="688.722" x2="786.035" y2="688.722" gradientUnits="userSpaceOnUse">
<stop stop-color="#67DE69"/>
<stop offset="1" stop-color="#0047B0"/>
</linearGradient>
<linearGradient id="paint39_linear" x1="7714" y1="693.535" x2="782.502" y2="693.534" gradientUnits="userSpaceOnUse">
<stop stop-color="#67DE69"/>
<stop offset="1" stop-color="#0047B0"/>
</linearGradient>
<linearGradient id="paint40_linear" x1="7710.48" y1="698.356" x2="778.978" y2="698.356" gradientUnits="userSpaceOnUse">
<stop stop-color="#67DE69"/>
<stop offset="1" stop-color="#0047B0"/>
</linearGradient>
<linearGradient id="paint41_linear" x1="7706.96" y1="703.183" x2="775.465" y2="703.183" gradientUnits="userSpaceOnUse">
<stop stop-color="#67DE69"/>
<stop offset="1" stop-color="#0047B0"/>
</linearGradient>
<linearGradient id="paint42_linear" x1="7703.46" y1="708.015" x2="771.957" y2="708.015" gradientUnits="userSpaceOnUse">
<stop stop-color="#67DE69"/>
<stop offset="1" stop-color="#0047B0"/>
</linearGradient>
<linearGradient id="paint43_linear" x1="7699.95" y1="712.85" x2="768.454" y2="712.85" gradientUnits="userSpaceOnUse">
<stop stop-color="#67DE69"/>
<stop offset="1" stop-color="#0047B0"/>
</linearGradient>
<linearGradient id="paint44_linear" x1="7696.45" y1="717.687" x2="764.953" y2="717.687" gradientUnits="userSpaceOnUse">
<stop stop-color="#67DE69"/>
<stop offset="1" stop-color="#0047B0"/>
</linearGradient>
<linearGradient id="paint45_linear" x1="7692.95" y1="722.523" x2="761.452" y2="722.523" gradientUnits="userSpaceOnUse">
<stop stop-color="#67DE69"/>
<stop offset="1" stop-color="#0047B0"/>
</linearGradient>
<linearGradient id="paint46_linear" x1="7689.45" y1="727.358" x2="757.948" y2="727.358" gradientUnits="userSpaceOnUse">
<stop stop-color="#67DE69"/>
<stop offset="1" stop-color="#0047B0"/>
</linearGradient>
<linearGradient id="paint47_linear" x1="7685.94" y1="732.189" x2="754.439" y2="732.189" gradientUnits="userSpaceOnUse">
<stop stop-color="#67DE69"/>
<stop offset="1" stop-color="#0047B0"/>
</linearGradient>
<linearGradient id="paint48_linear" x1="7682.42" y1="737.015" x2="750.924" y2="737.015" gradientUnits="userSpaceOnUse">
<stop stop-color="#67DE69"/>
<stop offset="1" stop-color="#0047B0"/>
</linearGradient>
<linearGradient id="paint49_linear" x1="7678.9" y1="741.833" x2="747.398" y2="741.832" gradientUnits="userSpaceOnUse">
<stop stop-color="#67DE69"/>
<stop offset="1" stop-color="#0047B0"/>
</linearGradient>
<linearGradient id="paint50_linear" x1="7675.36" y1="746.642" x2="743.859" y2="746.642" gradientUnits="userSpaceOnUse">
<stop stop-color="#67DE69"/>
<stop offset="1" stop-color="#0047B0"/>
</linearGradient>
<linearGradient id="paint51_linear" x1="7671.8" y1="751.439" x2="740.305" y2="751.439" gradientUnits="userSpaceOnUse">
<stop stop-color="#67DE69"/>
<stop offset="1" stop-color="#0047B0"/>
</linearGradient>
<linearGradient id="paint52_linear" x1="7668.23" y1="756.222" x2="736.731" y2="756.222" gradientUnits="userSpaceOnUse">
<stop stop-color="#67DE69"/>
<stop offset="1" stop-color="#0047B0"/>
</linearGradient>
<linearGradient id="paint53_linear" x1="7664.64" y1="760.989" x2="733.137" y2="760.989" gradientUnits="userSpaceOnUse">
<stop stop-color="#67DE69"/>
<stop offset="1" stop-color="#0047B0"/>
</linearGradient>
<linearGradient id="paint54_linear" x1="7661.01" y1="765.735" x2="729.515" y2="765.735" gradientUnits="userSpaceOnUse">
<stop stop-color="#67DE69"/>
<stop offset="1" stop-color="#0047B0"/>
</linearGradient>
<linearGradient id="paint55_linear" x1="7657.36" y1="770.458" x2="725.863" y2="770.457" gradientUnits="userSpaceOnUse">
<stop stop-color="#67DE69"/>
<stop offset="1" stop-color="#0047B0"/>
</linearGradient>
<linearGradient id="paint56_linear" x1="7653.68" y1="775.154" x2="722.177" y2="775.154" gradientUnits="userSpaceOnUse">
<stop stop-color="#67DE69"/>
<stop offset="1" stop-color="#0047B0"/>
</linearGradient>
<linearGradient id="paint57_linear" x1="7649.95" y1="779.819" x2="718.452" y2="779.819" gradientUnits="userSpaceOnUse">
<stop stop-color="#67DE69"/>
<stop offset="1" stop-color="#0047B0"/>
</linearGradient>
<linearGradient id="paint58_linear" x1="7646.18" y1="784.447" x2="714.682" y2="784.447" gradientUnits="userSpaceOnUse">
<stop stop-color="#67DE69"/>
<stop offset="1" stop-color="#0047B0"/>
</linearGradient>
<linearGradient id="paint59_linear" x1="7642.36" y1="789.033" x2="710.859" y2="789.033" gradientUnits="userSpaceOnUse">
<stop stop-color="#67DE69"/>
<stop offset="1" stop-color="#0047B0"/>
</linearGradient>
<linearGradient id="paint60_linear" x1="7638.48" y1="793.569" x2="706.979" y2="793.569" gradientUnits="userSpaceOnUse">
<stop stop-color="#67DE69"/>
<stop offset="1" stop-color="#0047B0"/>
</linearGradient>
<linearGradient id="paint61_linear" x1="7634.53" y1="798.047" x2="703.034" y2="798.046" gradientUnits="userSpaceOnUse">
<stop stop-color="#67DE69"/>
<stop offset="1" stop-color="#0047B0"/>
</linearGradient>
<linearGradient id="paint62_linear" x1="7630.51" y1="802.456" x2="699.012" y2="802.455" gradientUnits="userSpaceOnUse">
<stop stop-color="#67DE69"/>
<stop offset="1" stop-color="#0047B0"/>
</linearGradient>
<linearGradient id="paint63_linear" x1="7626.4" y1="806.784" x2="694.903" y2="806.784" gradientUnits="userSpaceOnUse">
<stop stop-color="#67DE69"/>
<stop offset="1" stop-color="#0047B0"/>
</linearGradient>
<linearGradient id="paint64_linear" x1="7622.2" y1="811.015" x2="690.695" y2="811.015" gradientUnits="userSpaceOnUse">
<stop stop-color="#67DE69"/>
<stop offset="1" stop-color="#0047B0"/>
</linearGradient>
<linearGradient id="paint65_linear" x1="7617.87" y1="815.128" x2="686.373" y2="815.127" gradientUnits="userSpaceOnUse">
<stop stop-color="#67DE69"/>
<stop offset="1" stop-color="#0047B0"/>
</linearGradient>
<linearGradient id="paint66_linear" x1="7613.42" y1="819.094" x2="681.919" y2="819.094" gradientUnits="userSpaceOnUse">
<stop stop-color="#67DE69"/>
<stop offset="1" stop-color="#0047B0"/>
</linearGradient>
<linearGradient id="paint67_linear" x1="7608.81" y1="822.88" x2="677.311" y2="822.88" gradientUnits="userSpaceOnUse">
<stop stop-color="#67DE69"/>
<stop offset="1" stop-color="#0047B0"/>
</linearGradient>
<linearGradient id="paint68_linear" x1="7604.03" y1="826.437" x2="672.526" y2="826.437" gradientUnits="userSpaceOnUse">
<stop stop-color="#67DE69"/>
<stop offset="1" stop-color="#0047B0"/>
</linearGradient>
<linearGradient id="paint69_linear" x1="7599.04" y1="829.696" x2="667.537" y2="829.696" gradientUnits="userSpaceOnUse">
<stop stop-color="#67DE69"/>
<stop offset="1" stop-color="#0047B0"/>
</linearGradient>
<linearGradient id="paint70_linear" x1="7593.81" y1="832.563" x2="662.313" y2="832.563" gradientUnits="userSpaceOnUse">
<stop stop-color="#67DE69"/>
<stop offset="1" stop-color="#0047B0"/>
</linearGradient>
<linearGradient id="paint71_linear" x1="7588.34" y1="834.905" x2="656.836" y2="834.905" gradientUnits="userSpaceOnUse">
<stop stop-color="#67DE69"/>
<stop offset="1" stop-color="#0047B0"/>
</linearGradient>
<linearGradient id="paint72_linear" x1="7582.6" y1="836.539" x2="651.104" y2="836.538" gradientUnits="userSpaceOnUse">
<stop stop-color="#67DE69"/>
<stop offset="1" stop-color="#0047B0"/>
</linearGradient>
<linearGradient id="paint73_linear" x1="7576.68" y1="837.237" x2="645.179" y2="837.237" gradientUnits="userSpaceOnUse">
<stop stop-color="#67DE69"/>
<stop offset="1" stop-color="#0047B0"/>
</linearGradient>
<linearGradient id="paint74_linear" x1="7570.72" y1="836.791" x2="639.224" y2="836.79" gradientUnits="userSpaceOnUse">
<stop stop-color="#67DE69"/>
<stop offset="1" stop-color="#0047B0"/>
</linearGradient>
<linearGradient id="paint75_linear" x1="7565" y1="835.123" x2="633.497" y2="835.122" gradientUnits="userSpaceOnUse">
<stop stop-color="#67DE69"/>
<stop offset="1" stop-color="#0047B0"/>
</linearGradient>
<linearGradient id="paint76_linear" x1="7559.72" y1="832.365" x2="628.221" y2="832.365" gradientUnits="userSpaceOnUse">
<stop stop-color="#67DE69"/>
<stop offset="1" stop-color="#0047B0"/>
</linearGradient>
<linearGradient id="paint77_linear" x1="7554.99" y1="828.763" x2="623.489" y2="828.763" gradientUnits="userSpaceOnUse">
<stop stop-color="#67DE69"/>
<stop offset="1" stop-color="#0047B0"/>
</linearGradient>
<linearGradient id="paint78_linear" x1="7550.79" y1="824.557" x2="619.287" y2="824.557" gradientUnits="userSpaceOnUse">
<stop stop-color="#67DE69"/>
<stop offset="1" stop-color="#0047B0"/>
</linearGradient>
<linearGradient id="paint79_linear" x1="7547.05" y1="819.93" x2="615.55" y2="819.93" gradientUnits="userSpaceOnUse">
<stop stop-color="#67DE69"/>
<stop offset="1" stop-color="#0047B0"/>
</linearGradient>
<linearGradient id="paint80_linear" x1="7543.71" y1="815.006" x2="612.208" y2="815.006" gradientUnits="userSpaceOnUse">
<stop stop-color="#67DE69"/>
<stop offset="1" stop-color="#0047B0"/>
</linearGradient>
<linearGradient id="paint81_linear" x1="7540.7" y1="809.872" x2="609.195" y2="809.871" gradientUnits="userSpaceOnUse">
<stop stop-color="#67DE69"/>
<stop offset="1" stop-color="#0047B0"/>
</linearGradient>
<linearGradient id="paint82_linear" x1="7537.96" y1="804.581" x2="606.46" y2="804.58" gradientUnits="userSpaceOnUse">
<stop stop-color="#67DE69"/>
<stop offset="1" stop-color="#0047B0"/>
</linearGradient>
<linearGradient id="paint83_linear" x1="7535.46" y1="799.172" x2="603.957" y2="799.172" gradientUnits="userSpaceOnUse">
<stop stop-color="#67DE69"/>
<stop offset="1" stop-color="#0047B0"/>
</linearGradient>
<linearGradient id="paint84_linear" x1="7533.15" y1="793.675" x2="601.654" y2="793.675" gradientUnits="userSpaceOnUse">
<stop stop-color="#67DE69"/>
<stop offset="1" stop-color="#0047B0"/>
</linearGradient>
<linearGradient id="paint85_linear" x1="7531.02" y1="788.107" x2="599.523" y2="788.107" gradientUnits="userSpaceOnUse">
<stop stop-color="#67DE69"/>
<stop offset="1" stop-color="#0047B0"/>
</linearGradient>
<linearGradient id="paint86_linear" x1="7529.04" y1="782.482" x2="597.542" y2="782.482" gradientUnits="userSpaceOnUse">
<stop stop-color="#67DE69"/>
<stop offset="1" stop-color="#0047B0"/>
</linearGradient>
<linearGradient id="paint87_linear" x1="7527.19" y1="776.811" x2="595.69" y2="776.811" gradientUnits="userSpaceOnUse">
<stop stop-color="#67DE69"/>
<stop offset="1" stop-color="#0047B0"/>
</linearGradient>
<linearGradient id="paint88_linear" x1="7525.46" y1="771.102" x2="593.956" y2="771.102" gradientUnits="userSpaceOnUse">
<stop stop-color="#67DE69"/>
<stop offset="1" stop-color="#0047B0"/>
</linearGradient>
<linearGradient id="paint89_linear" x1="7523.81" y1="765.303" x2="592.308" y2="765.303" gradientUnits="userSpaceOnUse">
<stop stop-color="#67DE69"/>
<stop offset="1" stop-color="#0047B0"/>
</linearGradient>
<linearGradient id="paint90_linear" x1="7522.11" y1="759.536" x2="590.608" y2="759.535" gradientUnits="userSpaceOnUse">
<stop stop-color="#67DE69"/>
<stop offset="1" stop-color="#0047B0"/>
</linearGradient>
<linearGradient id="paint91_linear" x1="7520.19" y1="753.886" x2="588.688" y2="753.886" gradientUnits="userSpaceOnUse">
<stop stop-color="#67DE69"/>
<stop offset="1" stop-color="#0047B0"/>
</linearGradient>
<linearGradient id="paint92_linear" x1="7518.02" y1="748.33" x2="586.517" y2="748.329" gradientUnits="userSpaceOnUse">
<stop stop-color="#67DE69"/>
<stop offset="1" stop-color="#0047B0"/>
</linearGradient>
<linearGradient id="paint93_linear" x1="7515.57" y1="742.887" x2="584.07" y2="742.887" gradientUnits="userSpaceOnUse">
<stop stop-color="#67DE69"/>
<stop offset="1" stop-color="#0047B0"/>
</linearGradient>
<linearGradient id="paint94_linear" x1="7512.83" y1="737.587" x2="581.331" y2="737.586" gradientUnits="userSpaceOnUse">
<stop stop-color="#67DE69"/>
<stop offset="1" stop-color="#0047B0"/>
</linearGradient>
<linearGradient id="paint95_linear" x1="7509.78" y1="732.46" x2="578.278" y2="732.459" gradientUnits="userSpaceOnUse">
<stop stop-color="#67DE69"/>
<stop offset="1" stop-color="#0047B0"/>
</linearGradient>
<linearGradient id="paint96_linear" x1="7506.4" y1="727.541" x2="574.898" y2="727.54" gradientUnits="userSpaceOnUse">
<stop stop-color="#67DE69"/>
<stop offset="1" stop-color="#0047B0"/>
</linearGradient>
<linearGradient id="paint97_linear" x1="7502.68" y1="722.872" x2="571.182" y2="722.871" gradientUnits="userSpaceOnUse">
<stop stop-color="#67DE69"/>
<stop offset="1" stop-color="#0047B0"/>
</linearGradient>
<linearGradient id="paint98_linear" x1="7498.62" y1="718.492" x2="567.125" y2="718.492" gradientUnits="userSpaceOnUse">
<stop stop-color="#67DE69"/>
<stop offset="1" stop-color="#0047B0"/>
</linearGradient>
<linearGradient id="paint99_linear" x1="7494.24" y1="714.444" x2="562.737" y2="714.444" gradientUnits="userSpaceOnUse">
<stop stop-color="#67DE69"/>
<stop offset="1" stop-color="#0047B0"/>
</linearGradient>
<linearGradient id="paint100_linear" x1="7489.54" y1="710.763" x2="558.036" y2="710.763" gradientUnits="userSpaceOnUse">
<stop stop-color="#67DE69"/>
<stop offset="1" stop-color="#0047B0"/>
</linearGradient>
<linearGradient id="paint101_linear" x1="7484.55" y1="707.477" x2="553.051" y2="707.477" gradientUnits="userSpaceOnUse">
<stop stop-color="#67DE69"/>
<stop offset="1" stop-color="#0047B0"/>
</linearGradient>
<linearGradient id="paint102_linear" x1="7479.32" y1="704.603" x2="547.817" y2="704.603" gradientUnits="userSpaceOnUse">
<stop stop-color="#67DE69"/>
<stop offset="1" stop-color="#0047B0"/>
</linearGradient>
<linearGradient id="paint103_linear" x1="7473.88" y1="702.146" x2="542.376" y2="702.146" gradientUnits="userSpaceOnUse">
<stop stop-color="#67DE69"/>
<stop offset="1" stop-color="#0047B0"/>
</linearGradient>
<linearGradient id="paint104_linear" x1="7468.27" y1="700.098" x2="536.769" y2="700.098" gradientUnits="userSpaceOnUse">
<stop stop-color="#67DE69"/>
<stop offset="1" stop-color="#0047B0"/>
</linearGradient>
<linearGradient id="paint105_linear" x1="7462.53" y1="698.444" x2="531.032" y2="698.444" gradientUnits="userSpaceOnUse">
<stop stop-color="#67DE69"/>
<stop offset="1" stop-color="#0047B0"/>
</linearGradient>
<linearGradient id="paint106_linear" x1="7456.7" y1="697.161" x2="525.202" y2="697.16" gradientUnits="userSpaceOnUse">
<stop stop-color="#67DE69"/>
<stop offset="1" stop-color="#0047B0"/>
</linearGradient>
<linearGradient id="paint107_linear" x1="7450.81" y1="696.221" x2="519.307" y2="696.221" gradientUnits="userSpaceOnUse">
<stop stop-color="#67DE69"/>
<stop offset="1" stop-color="#0047B0"/>
</linearGradient>
<linearGradient id="paint108_linear" x1="7444.87" y1="695.598" x2="513.37" y2="695.598" gradientUnits="userSpaceOnUse">
<stop stop-color="#67DE69"/>
<stop offset="1" stop-color="#0047B0"/>
</linearGradient>
<linearGradient id="paint109_linear" x1="7438.91" y1="695.263" x2="507.41" y2="695.263" gradientUnits="userSpaceOnUse">
<stop stop-color="#67DE69"/>
<stop offset="1" stop-color="#0047B0"/>
</linearGradient>
<linearGradient id="paint110_linear" x1="7432.94" y1="695.189" x2="501.441" y2="695.189" gradientUnits="userSpaceOnUse">
<stop stop-color="#67DE69"/>
<stop offset="1" stop-color="#0047B0"/>
</linearGradient>
<linearGradient id="paint111_linear" x1="7426.97" y1="695.351" x2="495.475" y2="695.351" gradientUnits="userSpaceOnUse">
<stop stop-color="#67DE69"/>
<stop offset="1" stop-color="#0047B0"/>
</linearGradient>
<linearGradient id="paint112_linear" x1="7421.02" y1="695.726" x2="489.517" y2="695.726" gradientUnits="userSpaceOnUse">
<stop stop-color="#67DE69"/>
<stop offset="1" stop-color="#0047B0"/>
</linearGradient>
<linearGradient id="paint113_linear" x1="7415.07" y1="696.295" x2="483.574" y2="696.294" gradientUnits="userSpaceOnUse">
<stop stop-color="#67DE69"/>
<stop offset="1" stop-color="#0047B0"/>
</linearGradient>
<linearGradient id="paint114_linear" x1="7409.15" y1="697.036" x2="477.651" y2="697.035" gradientUnits="userSpaceOnUse">
<stop stop-color="#67DE69"/>
<stop offset="1" stop-color="#0047B0"/>
</linearGradient>
<linearGradient id="paint115_linear" x1="7403.25" y1="697.935" x2="471.75" y2="697.935" gradientUnits="userSpaceOnUse">
<stop stop-color="#67DE69"/>
<stop offset="1" stop-color="#0047B0"/>
</linearGradient>
<linearGradient id="paint116_linear" x1="7397.37" y1="698.977" x2="465.871" y2="698.977" gradientUnits="userSpaceOnUse">
<stop stop-color="#67DE69"/>
<stop offset="1" stop-color="#0047B0"/>
</linearGradient>
<linearGradient id="paint117_linear" x1="7391.52" y1="700.148" x2="460.018" y2="700.148" gradientUnits="userSpaceOnUse">
<stop stop-color="#67DE69"/>
<stop offset="1" stop-color="#0047B0"/>
</linearGradient>
<linearGradient id="paint118_linear" x1="7385.69" y1="701.438" x2="454.188" y2="701.438" gradientUnits="userSpaceOnUse">
<stop stop-color="#67DE69"/>
<stop offset="1" stop-color="#0047B0"/>
</linearGradient>
<linearGradient id="paint119_linear" x1="7379.88" y1="702.835" x2="448.385" y2="702.834" gradientUnits="userSpaceOnUse">
<stop stop-color="#67DE69"/>
<stop offset="1" stop-color="#0047B0"/>
</linearGradient>
<linearGradient id="paint120_linear" x1="7374.1" y1="704.33" x2="442.604" y2="704.329" gradientUnits="userSpaceOnUse">
<stop stop-color="#67DE69"/>
<stop offset="1" stop-color="#0047B0"/>
</linearGradient>
<linearGradient id="paint121_linear" x1="7368.35" y1="705.915" x2="436.849" y2="705.914" gradientUnits="userSpaceOnUse">
<stop stop-color="#67DE69"/>
<stop offset="1" stop-color="#0047B0"/>
</linearGradient>
<linearGradient id="paint122_linear" x1="7362.62" y1="707.583" x2="431.116" y2="707.582" gradientUnits="userSpaceOnUse">
<stop stop-color="#67DE69"/>
<stop offset="1" stop-color="#0047B0"/>
</linearGradient>
<linearGradient id="paint123_linear" x1="7356.91" y1="709.325" x2="425.405" y2="709.325" gradientUnits="userSpaceOnUse">
<stop stop-color="#67DE69"/>
<stop offset="1" stop-color="#0047B0"/>
</linearGradient>
<linearGradient id="paint124_linear" x1="7351.22" y1="711.137" x2="419.717" y2="711.137" gradientUnits="userSpaceOnUse">
<stop stop-color="#67DE69"/>
<stop offset="1" stop-color="#0047B0"/>
</linearGradient>
<linearGradient id="paint125_linear" x1="7345.55" y1="713.013" x2="414.049" y2="713.013" gradientUnits="userSpaceOnUse">
<stop stop-color="#67DE69"/>
<stop offset="1" stop-color="#0047B0"/>
</linearGradient>
<linearGradient id="paint126_linear" x1="7339.9" y1="714.949" x2="408.401" y2="714.949" gradientUnits="userSpaceOnUse">
<stop stop-color="#67DE69"/>
<stop offset="1" stop-color="#0047B0"/>
</linearGradient>
<linearGradient id="paint127_linear" x1="7334.27" y1="716.938" x2="402.771" y2="716.938" gradientUnits="userSpaceOnUse">
<stop stop-color="#67DE69"/>
<stop offset="1" stop-color="#0047B0"/>
</linearGradient>
<linearGradient id="paint128_linear" x1="7328.66" y1="718.977" x2="397.16" y2="718.977" gradientUnits="userSpaceOnUse">
<stop stop-color="#67DE69"/>
<stop offset="1" stop-color="#0047B0"/>
</linearGradient>
<linearGradient id="paint129_linear" x1="7323.07" y1="721.063" x2="391.565" y2="721.063" gradientUnits="userSpaceOnUse">
<stop stop-color="#67DE69"/>
<stop offset="1" stop-color="#0047B0"/>
</linearGradient>
<linearGradient id="paint130_linear" x1="7317.49" y1="723.191" x2="385.987" y2="723.191" gradientUnits="userSpaceOnUse">
<stop stop-color="#67DE69"/>
<stop offset="1" stop-color="#0047B0"/>
</linearGradient>
<linearGradient id="paint131_linear" x1="7311.92" y1="725.358" x2="380.424" y2="725.358" gradientUnits="userSpaceOnUse">
<stop stop-color="#67DE69"/>
<stop offset="1" stop-color="#0047B0"/>
</linearGradient>
<linearGradient id="paint132_linear" x1="7306.37" y1="727.562" x2="374.875" y2="727.562" gradientUnits="userSpaceOnUse">
<stop stop-color="#67DE69"/>
<stop offset="1" stop-color="#0047B0"/>
</linearGradient>
<linearGradient id="paint133_linear" x1="7300.84" y1="729.799" x2="369.339" y2="729.799" gradientUnits="userSpaceOnUse">
<stop stop-color="#67DE69"/>
<stop offset="1" stop-color="#0047B0"/>
</linearGradient>
<linearGradient id="paint134_linear" x1="7295.32" y1="732.067" x2="363.816" y2="732.067" gradientUnits="userSpaceOnUse">
<stop stop-color="#67DE69"/>
<stop offset="1" stop-color="#0047B0"/>
</linearGradient>
<linearGradient id="paint135_linear" x1="7289.8" y1="734.363" x2="358.305" y2="734.363" gradientUnits="userSpaceOnUse">
<stop stop-color="#67DE69"/>
<stop offset="1" stop-color="#0047B0"/>
</linearGradient>
<linearGradient id="paint136_linear" x1="7284.3" y1="736.685" x2="352.804" y2="736.685" gradientUnits="userSpaceOnUse">
<stop stop-color="#67DE69"/>
<stop offset="1" stop-color="#0047B0"/>
</linearGradient>
<linearGradient id="paint137_linear" x1="7278.81" y1="739.031" x2="347.313" y2="739.031" gradientUnits="userSpaceOnUse">
<stop stop-color="#67DE69"/>
<stop offset="1" stop-color="#0047B0"/>
</linearGradient>
<linearGradient id="paint138_linear" x1="7273.33" y1="741.398" x2="341.832" y2="741.398" gradientUnits="userSpaceOnUse">
<stop stop-color="#67DE69"/>
<stop offset="1" stop-color="#0047B0"/>
</linearGradient>
<linearGradient id="paint139_linear" x1="7267.86" y1="743.785" x2="336.358" y2="743.784" gradientUnits="userSpaceOnUse">
<stop stop-color="#67DE69"/>
<stop offset="1" stop-color="#0047B0"/>
</linearGradient>
<linearGradient id="paint140_linear" x1="7262.39" y1="746.189" x2="330.894" y2="746.189" gradientUnits="userSpaceOnUse">
<stop stop-color="#67DE69"/>
<stop offset="1" stop-color="#0047B0"/>
</linearGradient>
<linearGradient id="paint141_linear" x1="7256.94" y1="748.61" x2="325.436" y2="748.61" gradientUnits="userSpaceOnUse">
<stop stop-color="#67DE69"/>
<stop offset="1" stop-color="#0047B0"/>
</linearGradient>
<linearGradient id="paint142_linear" x1="7251.48" y1="751.045" x2="319.983" y2="751.044" gradientUnits="userSpaceOnUse">
<stop stop-color="#67DE69"/>
<stop offset="1" stop-color="#0047B0"/>
</linearGradient>
<linearGradient id="paint143_linear" x1="7246.04" y1="753.491" x2="314.537" y2="753.491" gradientUnits="userSpaceOnUse">
<stop stop-color="#67DE69"/>
<stop offset="1" stop-color="#0047B0"/>
</linearGradient>
<linearGradient id="paint144_linear" x1="7240.6" y1="755.949" x2="309.096" y2="755.949" gradientUnits="userSpaceOnUse">
<stop stop-color="#67DE69"/>
<stop offset="1" stop-color="#0047B0"/>
</linearGradient>
<linearGradient id="paint145_linear" x1="7235.16" y1="758.416" x2="303.658" y2="758.415" gradientUnits="userSpaceOnUse">
<stop stop-color="#67DE69"/>
<stop offset="1" stop-color="#0047B0"/>
</linearGradient>
<linearGradient id="paint146_linear" x1="7229.72" y1="760.89" x2="298.225" y2="760.89" gradientUnits="userSpaceOnUse">
<stop stop-color="#67DE69"/>
<stop offset="1" stop-color="#0047B0"/>
</linearGradient>
<linearGradient id="paint147_linear" x1="7224.29" y1="763.371" x2="292.793" y2="763.37" gradientUnits="userSpaceOnUse">
<stop stop-color="#67DE69"/>
<stop offset="1" stop-color="#0047B0"/>
</linearGradient>
<linearGradient id="paint148_linear" x1="7218.86" y1="765.856" x2="287.364" y2="765.856" gradientUnits="userSpaceOnUse">
<stop stop-color="#67DE69"/>
<stop offset="1" stop-color="#0047B0"/>
</linearGradient>
<linearGradient id="paint149_linear" x1="7213.44" y1="768.344" x2="281.936" y2="768.344" gradientUnits="userSpaceOnUse">
<stop stop-color="#67DE69"/>
<stop offset="1" stop-color="#0047B0"/>
</linearGradient>
<linearGradient id="paint150_linear" x1="7208.01" y1="770.835" x2="276.51" y2="770.834" gradientUnits="userSpaceOnUse">
<stop stop-color="#67DE69"/>
<stop offset="1" stop-color="#0047B0"/>
</linearGradient>
<linearGradient id="paint151_linear" x1="7202.58" y1="773.326" x2="271.083" y2="773.326" gradientUnits="userSpaceOnUse">
<stop stop-color="#67DE69"/>
<stop offset="1" stop-color="#0047B0"/>
</linearGradient>
<linearGradient id="paint152_linear" x1="7197.16" y1="775.814" x2="265.656" y2="775.814" gradientUnits="userSpaceOnUse">
<stop stop-color="#67DE69"/>
<stop offset="1" stop-color="#0047B0"/>
</linearGradient>
<linearGradient id="paint153_linear" x1="7191.73" y1="778.301" x2="260.228" y2="778.301" gradientUnits="userSpaceOnUse">
<stop stop-color="#67DE69"/>
<stop offset="1" stop-color="#0047B0"/>
</linearGradient>
<linearGradient id="paint154_linear" x1="7186.3" y1="780.783" x2="254.798" y2="780.783" gradientUnits="userSpaceOnUse">
<stop stop-color="#67DE69"/>
<stop offset="1" stop-color="#0047B0"/>
</linearGradient>
<linearGradient id="paint155_linear" x1="7180.86" y1="783.259" x2="249.364" y2="783.259" gradientUnits="userSpaceOnUse">
<stop stop-color="#67DE69"/>
<stop offset="1" stop-color="#0047B0"/>
</linearGradient>
<linearGradient id="paint156_linear" x1="7175.43" y1="785.729" x2="243.929" y2="785.729" gradientUnits="userSpaceOnUse">
<stop stop-color="#67DE69"/>
<stop offset="1" stop-color="#0047B0"/>
</linearGradient>
<linearGradient id="paint157_linear" x1="7169.99" y1="788.19" x2="238.488" y2="788.19" gradientUnits="userSpaceOnUse">
<stop stop-color="#67DE69"/>
<stop offset="1" stop-color="#0047B0"/>
</linearGradient>
<linearGradient id="paint158_linear" x1="7164.54" y1="790.64" x2="233.043" y2="790.64" gradientUnits="userSpaceOnUse">
<stop stop-color="#67DE69"/>
<stop offset="1" stop-color="#0047B0"/>
</linearGradient>
<linearGradient id="paint159_linear" x1="7159.09" y1="793.079" x2="227.593" y2="793.078" gradientUnits="userSpaceOnUse">
<stop stop-color="#67DE69"/>
<stop offset="1" stop-color="#0047B0"/>
</linearGradient>
<linearGradient id="paint160_linear" x1="7153.64" y1="795.504" x2="222.137" y2="795.503" gradientUnits="userSpaceOnUse">
<stop stop-color="#67DE69"/>
<stop offset="1" stop-color="#0047B0"/>
</linearGradient>
<linearGradient id="paint161_linear" x1="7148.17" y1="797.913" x2="216.674" y2="797.912" gradientUnits="userSpaceOnUse">
<stop stop-color="#67DE69"/>
<stop offset="1" stop-color="#0047B0"/>
</linearGradient>
<linearGradient id="paint162_linear" x1="7142.7" y1="800.305" x2="211.203" y2="800.305" gradientUnits="userSpaceOnUse">
<stop stop-color="#67DE69"/>
<stop offset="1" stop-color="#0047B0"/>
</linearGradient>
<linearGradient id="paint163_linear" x1="7137.22" y1="802.677" x2="205.725" y2="802.677" gradientUnits="userSpaceOnUse">
<stop stop-color="#67DE69"/>
<stop offset="1" stop-color="#0047B0"/>
</linearGradient>
<linearGradient id="paint164_linear" x1="7131.74" y1="805.03" x2="200.236" y2="805.03" gradientUnits="userSpaceOnUse">
<stop stop-color="#67DE69"/>
<stop offset="1" stop-color="#0047B0"/>
</linearGradient>
<linearGradient id="paint165_linear" x1="7126.24" y1="807.358" x2="194.738" y2="807.358" gradientUnits="userSpaceOnUse">
<stop stop-color="#67DE69"/>
<stop offset="1" stop-color="#0047B0"/>
</linearGradient>
<linearGradient id="paint166_linear" x1="7120.73" y1="809.661" x2="189.229" y2="809.66" gradientUnits="userSpaceOnUse">
<stop stop-color="#67DE69"/>
<stop offset="1" stop-color="#0047B0"/>
</linearGradient>
<linearGradient id="paint167_linear" x1="7115.21" y1="811.936" x2="183.709" y2="811.936" gradientUnits="userSpaceOnUse">
<stop stop-color="#67DE69"/>
<stop offset="1" stop-color="#0047B0"/>
</linearGradient>
<linearGradient id="paint168_linear" x1="7109.68" y1="814.181" x2="178.177" y2="814.181" gradientUnits="userSpaceOnUse">
<stop stop-color="#67DE69"/>
<stop offset="1" stop-color="#0047B0"/>
</linearGradient>
<linearGradient id="paint169_linear" x1="7104.13" y1="816.393" x2="172.631" y2="816.393" gradientUnits="userSpaceOnUse">
<stop stop-color="#67DE69"/>
<stop offset="1" stop-color="#0047B0"/>
</linearGradient>
<linearGradient id="paint170_linear" x1="7098.57" y1="818.569" x2="167.071" y2="818.569" gradientUnits="userSpaceOnUse">
<stop stop-color="#67DE69"/>
<stop offset="1" stop-color="#0047B0"/>
</linearGradient>
<linearGradient id="paint171_linear" x1="7093" y1="820.706" x2="161.496" y2="820.705" gradientUnits="userSpaceOnUse">
<stop stop-color="#67DE69"/>
<stop offset="1" stop-color="#0047B0"/>
</linearGradient>
<linearGradient id="paint172_linear" x1="7087.4" y1="822.799" x2="155.904" y2="822.799" gradientUnits="userSpaceOnUse">
<stop stop-color="#67DE69"/>
<stop offset="1" stop-color="#0047B0"/>
</linearGradient>
<linearGradient id="paint173_linear" x1="7081.8" y1="824.848" x2="150.297" y2="824.848" gradientUnits="userSpaceOnUse">
<stop stop-color="#67DE69"/>
<stop offset="1" stop-color="#0047B0"/>
</linearGradient>
<linearGradient id="paint174_linear" x1="7076.17" y1="826.847" x2="144.671" y2="826.847" gradientUnits="userSpaceOnUse">
<stop stop-color="#67DE69"/>
<stop offset="1" stop-color="#0047B0"/>
</linearGradient>
<linearGradient id="paint175_linear" x1="7070.53" y1="828.792" x2="139.025" y2="828.791" gradientUnits="userSpaceOnUse">
<stop stop-color="#67DE69"/>
<stop offset="1" stop-color="#0047B0"/>
</linearGradient>
<linearGradient id="paint176_linear" x1="7064.86" y1="830.677" x2="133.361" y2="830.677" gradientUnits="userSpaceOnUse">
<stop stop-color="#67DE69"/>
<stop offset="1" stop-color="#0047B0"/>
</linearGradient>
<linearGradient id="paint177_linear" x1="7059.18" y1="832.499" x2="127.676" y2="832.498" gradientUnits="userSpaceOnUse">
<stop stop-color="#67DE69"/>
<stop offset="1" stop-color="#0047B0"/>
</linearGradient>
<linearGradient id="paint178_linear" x1="7053.47" y1="834.251" x2="121.968" y2="834.25" gradientUnits="userSpaceOnUse">
<stop stop-color="#67DE69"/>
<stop offset="1" stop-color="#0047B0"/>
</linearGradient>
<linearGradient id="paint179_linear" x1="7047.74" y1="835.927" x2="116.238" y2="835.927" gradientUnits="userSpaceOnUse">
<stop stop-color="#67DE69"/>
<stop offset="1" stop-color="#0047B0"/>
</linearGradient>
<linearGradient id="paint180_linear" x1="7041.98" y1="837.521" x2="110.484" y2="837.521" gradientUnits="userSpaceOnUse">
<stop stop-color="#67DE69"/>
<stop offset="1" stop-color="#0047B0"/>
</linearGradient>
<linearGradient id="paint181_linear" x1="7036.21" y1="839.023" x2="104.707" y2="839.023" gradientUnits="userSpaceOnUse">
<stop stop-color="#67DE69"/>
<stop offset="1" stop-color="#0047B0"/>
</linearGradient>
<linearGradient id="paint182_linear" x1="7030.4" y1="840.427" x2="98.9043" y2="840.427" gradientUnits="userSpaceOnUse">
<stop stop-color="#67DE69"/>
<stop offset="1" stop-color="#0047B0"/>
</linearGradient>
<linearGradient id="paint183_linear" x1="7024.58" y1="841.722" x2="93.0761" y2="841.722" gradientUnits="userSpaceOnUse">
<stop stop-color="#67DE69"/>
<stop offset="1" stop-color="#0047B0"/>
</linearGradient>
<linearGradient id="paint184_linear" x1="7018.72" y1="842.898" x2="87.2236" y2="842.898" gradientUnits="userSpaceOnUse">
<stop stop-color="#67DE69"/>
<stop offset="1" stop-color="#0047B0"/>
</linearGradient>
<linearGradient id="paint185_linear" x1="7012.85" y1="843.942" x2="81.3457" y2="843.942" gradientUnits="userSpaceOnUse">
<stop stop-color="#67DE69"/>
<stop offset="1" stop-color="#0047B0"/>
</linearGradient>
<linearGradient id="paint186_linear" x1="7006.94" y1="844.84" x2="75.4443" y2="844.84" gradientUnits="userSpaceOnUse">
<stop stop-color="#67DE69"/>
<stop offset="1" stop-color="#0047B0"/>
</linearGradient>
<linearGradient id="paint187_linear" x1="7001.02" y1="845.578" x2="69.5215" y2="845.577" gradientUnits="userSpaceOnUse">
<stop stop-color="#67DE69"/>
<stop offset="1" stop-color="#0047B0"/>
</linearGradient>
<linearGradient id="paint188_linear" x1="6995.08" y1="846.137" x2="63.5781" y2="846.137" gradientUnits="userSpaceOnUse">
<stop stop-color="#67DE69"/>
<stop offset="1" stop-color="#0047B0"/>
</linearGradient>
<linearGradient id="paint189_linear" x1="6989.12" y1="846.5" x2="57.6201" y2="846.499" gradientUnits="userSpaceOnUse">
<stop stop-color="#67DE69"/>
<stop offset="1" stop-color="#0047B0"/>
</linearGradient>
<linearGradient id="paint190_linear" x1="6983.15" y1="846.642" x2="51.6523" y2="846.642" gradientUnits="userSpaceOnUse">
<stop stop-color="#67DE69"/>
<stop offset="1" stop-color="#0047B0"/>
</linearGradient>
<linearGradient id="paint191_linear" x1="6977.18" y1="846.541" x2="45.6845" y2="846.54" gradientUnits="userSpaceOnUse">
<stop stop-color="#67DE69"/>
<stop offset="1" stop-color="#0047B0"/>
</linearGradient>
<linearGradient id="paint192_linear" x1="6971.23" y1="846.17" x2="39.7265" y2="846.169" gradientUnits="userSpaceOnUse">
<stop stop-color="#67DE69"/>
<stop offset="1" stop-color="#0047B0"/>
</linearGradient>
<linearGradient id="paint193_linear" x1="6965.29" y1="845.499" x2="33.7949" y2="845.498" gradientUnits="userSpaceOnUse">
<stop stop-color="#67DE69"/>
<stop offset="1" stop-color="#0047B0"/>
</linearGradient>
<linearGradient id="paint194_linear" x1="6959.41" y1="844.5" x2="27.9101" y2="844.499" gradientUnits="userSpaceOnUse">
<stop stop-color="#67DE69"/>
<stop offset="1" stop-color="#0047B0"/>
</linearGradient>
<linearGradient id="paint195_linear" x1="6953.6" y1="843.142" x2="22.0967" y2="843.142" gradientUnits="userSpaceOnUse">
<stop stop-color="#67DE69"/>
<stop offset="1" stop-color="#0047B0"/>
</linearGradient>
<linearGradient id="paint196_linear" x1="6947.89" y1="841.398" x2="16.3867" y2="841.398" gradientUnits="userSpaceOnUse">
<stop stop-color="#67DE69"/>
<stop offset="1" stop-color="#0047B0"/>
</linearGradient>
<linearGradient id="paint197_linear" x1="6942.32" y1="839.246" x2="10.8183" y2="839.245" gradientUnits="userSpaceOnUse">
<stop stop-color="#67DE69"/>
<stop offset="1" stop-color="#0047B0"/>
</linearGradient>
<linearGradient id="paint198_linear" x1="6936.93" y1="836.666" x2="5.42771" y2="836.665" gradientUnits="userSpaceOnUse">
<stop stop-color="#67DE69"/>
<stop offset="1" stop-color="#0047B0"/>
</linearGradient>
<linearGradient id="paint199_linear" x1="6931.77" y1="833.661" x2="0.269507" y2="833.66" gradientUnits="userSpaceOnUse">
<stop stop-color="#67DE69"/>
<stop offset="1" stop-color="#0047B0"/>
</linearGradient>
</defs>
</svg>
