<svg width="5368" height="1107" viewBox="0 0 5368 1107" fill="none" xmlns="http://www.w3.org/2000/svg">
<path d="M1026.58 158.998C1138.41 297.831 1459.68 542.998 1850.08 412.998C2338.08 250.498 2680.98 -96.3579 3364.58 26.9978C4096.08 158.998 4635.08 839.998 5367.08 504.498" stroke="url(#paint0_linear)"/>
<path d="M1008.53 175.447C1120.36 314.28 1441.63 559.447 1832.03 429.447C2320.03 266.947 2662.93 -79.9087 3346.53 43.4471C4078.03 175.447 4617.03 856.447 5349.03 520.947" stroke="url(#paint1_linear)"/>
<path d="M988.526 189.562C1100.36 328.396 1421.63 573.562 1812.03 443.562C2300.03 281.062 2642.93 -65.7935 3326.53 57.5623C4058.03 189.562 4597.03 870.562 5329.03 535.062" stroke="url(#paint2_linear)"/>
<path d="M967.444 202.007C1079.28 340.84 1400.54 586.007 1790.94 456.007C2278.94 293.507 2621.85 -53.3486 3305.44 70.0071C4036.94 202.007 4575.94 883.007 5307.94 547.507" stroke="url(#paint3_linear)"/>
<path d="M945.624 213.107C1057.46 351.941 1378.72 597.107 1769.12 467.107C2257.12 304.607 2600.03 -42.2486 3283.62 81.1072C4015.12 213.107 4554.12 894.107 5286.12 558.607" stroke="url(#paint4_linear)"/>
<path d="M923.255 223.056C1035.09 361.889 1356.36 607.056 1746.76 477.056C2234.76 314.556 2577.66 -32.2998 3261.26 91.0559C3992.76 223.056 4531.76 904.056 5263.76 568.556" stroke="url(#paint5_linear)"/>
<path d="M900.459 231.984C1012.29 370.818 1333.56 615.984 1723.96 485.984C2211.96 323.484 2554.86 -23.3716 3238.46 99.9842C3969.96 231.984 4508.96 912.984 5240.96 577.484" stroke="url(#paint6_linear)"/>
<path d="M877.324 239.988C989.157 378.821 1310.42 623.988 1700.82 493.988C2188.82 331.488 2531.73 -15.3677 3215.32 107.988C3946.82 239.988 4485.82 920.988 5217.82 585.488" stroke="url(#paint7_linear)"/>
<path d="M853.912 247.143C965.745 385.976 1287.01 631.143 1677.41 501.143C2165.41 338.643 2508.31 -8.21291 3191.91 115.143C3923.41 247.143 4462.41 928.143 5194.41 592.643" stroke="url(#paint8_linear)"/>
<path d="M830.273 253.51C942.106 392.343 1263.37 637.51 1653.77 507.51C2141.77 345.01 2484.68 -1.84572 3168.27 121.51C3899.77 253.51 4438.77 934.51 5170.77 599.01" stroke="url(#paint9_linear)"/>
<path d="M806.449 259.141C918.282 397.975 1239.55 643.141 1629.95 513.141C2117.95 350.641 2460.85 3.78563 3144.45 127.141C3875.95 259.141 4414.95 940.141 5146.95 604.641" stroke="url(#paint10_linear)"/>
<path d="M782.47 264.081C894.304 402.915 1215.57 648.081 1605.97 518.081C2093.97 355.581 2436.87 8.72557 3120.47 132.081C3851.97 264.081 4390.97 945.081 5122.97 609.581" stroke="url(#paint11_linear)"/>
<path d="M758.368 268.369C870.201 407.203 1191.47 652.369 1581.87 522.369C2069.87 359.869 2412.77 13.0137 3096.37 136.369C3827.87 268.369 4366.87 949.369 5098.87 613.869" stroke="url(#paint12_linear)"/>
<path d="M734.164 272.04C845.997 410.873 1167.26 656.04 1557.66 526.04C2045.66 363.54 2388.57 16.6841 3072.16 140.04C3803.66 272.04 4342.66 953.04 5074.66 617.54" stroke="url(#paint13_linear)"/>
<path d="M709.877 275.124C821.711 413.958 1142.98 659.124 1533.38 529.124C2021.38 366.624 2364.28 19.7685 3047.88 143.124C3779.38 275.124 4318.38 956.124 5050.38 620.624" stroke="url(#paint14_linear)"/>
<path d="M685.527 277.651C797.36 416.485 1118.63 661.651 1509.03 531.651C1997.03 369.151 2339.93 22.2954 3023.53 145.651C3755.03 277.651 4294.03 958.651 5026.03 623.151" stroke="url(#paint15_linear)"/>
<path d="M661.127 279.646C772.961 418.48 1094.23 663.646 1484.63 533.646C1972.63 371.146 2315.53 24.2905 2999.13 147.646C3730.63 279.646 4269.63 960.646 5001.63 625.146" stroke="url(#paint16_linear)"/>
<path d="M636.691 281.134C748.524 419.967 1069.79 665.134 1460.19 535.134C1948.19 372.634 2291.09 25.7783 2974.69 149.134C3706.19 281.134 4245.19 962.134 4977.19 626.634" stroke="url(#paint17_linear)"/>
<path d="M612.231 282.137C724.064 420.97 1045.33 666.137 1435.73 536.137C1923.73 373.637 2266.63 26.7807 2950.23 150.137C3681.73 282.136 4220.73 963.136 4952.73 627.636" stroke="url(#paint18_linear)"/>
<path d="M587.755 282.674C699.589 421.507 1020.86 666.674 1411.26 536.674C1899.26 374.174 2242.16 27.3183 2925.76 150.674C3657.26 282.674 4196.26 963.674 4928.26 628.174" stroke="url(#paint19_linear)"/>
<path d="M563.274 282.766C675.107 421.6 996.374 666.766 1386.77 536.766C1874.77 374.266 2217.68 27.4106 2901.27 150.766C3632.77 282.766 4171.77 963.766 4903.77 628.266" stroke="url(#paint20_linear)"/>
<path d="M538.795 282.431C650.629 421.264 971.895 666.431 1362.3 536.431C1850.3 373.931 2193.2 27.0752 2876.8 150.431C3608.3 282.431 4147.3 963.431 4879.3 627.931" stroke="url(#paint21_linear)"/>
<path d="M515.273 281.801C627.106 420.634 948.373 665.801 1338.77 535.801C1826.77 373.301 2169.68 26.4448 2853.27 149.801C3584.77 281.8 4123.77 962.8 4855.77 627.3" stroke="url(#paint22_linear)"/>
<path d="M490.799 281.961C602.633 420.795 923.899 665.961 1314.3 535.961C1802.3 373.461 2145.2 26.6055 2828.8 149.961C3560.3 281.961 4099.3 962.961 4831.3 627.461" stroke="url(#paint23_linear)"/>
<path d="M466.363 283.329C578.196 422.163 899.463 667.329 1289.86 537.329C1777.86 374.829 2120.77 27.9736 2804.36 151.329C3535.86 283.329 4074.86 964.329 4806.86 628.829" stroke="url(#paint24_linear)"/>
<path d="M442.026 285.932C553.859 424.766 875.126 669.932 1265.53 539.932C1753.53 377.432 2096.43 30.5766 2780.03 153.932C3511.53 285.932 4050.53 966.932 4782.53 631.432" stroke="url(#paint25_linear)"/>
<path d="M417.855 289.786C529.688 428.62 850.955 673.786 1241.35 543.786C1729.35 381.286 2072.26 34.4306 2755.85 157.786C3487.35 289.786 4026.35 970.786 4758.35 635.286" stroke="url(#paint26_linear)"/>
<path d="M393.917 294.896C505.75 433.73 827.017 678.896 1217.42 548.896C1705.42 386.396 2048.32 39.5405 2731.92 162.896C3463.42 294.896 4002.42 975.896 4734.42 640.396" stroke="url(#paint27_linear)"/>
<path d="M370.279 301.256C482.112 440.089 803.379 685.256 1193.78 555.256C1681.78 392.756 2024.68 45.8999 2708.28 169.256C3439.78 301.256 3978.78 982.255 4710.78 646.756" stroke="url(#paint28_linear)"/>
<path d="M347.007 308.845C458.841 447.678 780.107 692.845 1170.51 562.845C1658.51 400.345 2001.41 53.4892 2685.01 176.845C3416.51 308.845 3955.51 989.845 4687.51 654.345" stroke="url(#paint29_linear)"/>
<path d="M324.161 317.635C435.994 456.468 757.261 701.635 1147.66 571.635C1635.66 409.135 1978.56 62.2793 2662.16 185.635C3393.66 317.635 3932.66 998.635 4664.66 663.135" stroke="url(#paint30_linear)"/>
<path d="M301.794 327.585C413.628 466.419 734.894 711.585 1125.29 581.585C1613.29 419.085 1956.2 72.2295 2639.79 195.585C3371.29 327.585 3910.29 1008.58 4642.29 673.085" stroke="url(#paint31_linear)"/>
<path d="M279.958 338.648C391.791 477.482 713.058 722.648 1103.46 592.648C1591.46 430.148 1934.36 83.2925 2617.96 206.648C3349.46 338.648 3888.46 1019.65 4620.46 684.148" stroke="url(#paint32_linear)"/>
<path d="M258.69 350.771C370.523 489.604 691.79 734.771 1082.19 604.771C1570.19 442.271 1913.09 95.415 2596.69 218.771C3328.19 350.771 3867.19 1031.77 4599.19 696.271" stroke="url(#paint33_linear)"/>
<path d="M238.025 363.895C349.858 502.728 671.125 747.895 1061.52 617.895C1549.52 455.395 1892.43 108.539 2576.02 231.895C3307.52 363.895 3846.52 1044.89 4578.52 709.395" stroke="url(#paint34_linear)"/>
<path d="M217.99 377.961C329.823 516.794 651.09 761.961 1041.49 631.961C1529.49 469.461 1872.39 122.605 2555.99 245.961C3287.49 377.961 3826.49 1058.96 4558.49 723.461" stroke="url(#paint35_linear)"/>
<path d="M198.604 392.909C310.437 531.742 631.704 776.908 1022.1 646.908C1510.1 484.408 1853.01 137.553 2536.6 260.908C3268.1 392.908 3807.1 1073.91 4539.1 738.408" stroke="url(#paint36_linear)"/>
<path d="M179.881 408.679C291.715 547.512 612.981 792.679 1003.38 662.679C1491.38 500.179 1834.28 153.323 2517.88 276.679C3249.38 408.679 3788.38 1089.68 4520.38 754.179" stroke="url(#paint37_linear)"/>
<path d="M161.832 425.215C273.665 564.048 594.932 809.215 985.332 679.215C1473.33 516.715 1816.23 169.859 2499.83 293.215C3231.33 425.215 3770.33 1106.21 4502.33 770.715" stroke="url(#paint38_linear)"/>
<path d="M144.461 442.463C256.295 581.297 577.561 826.463 967.961 696.463C1455.96 533.963 1798.86 187.107 2482.46 310.463C3213.96 442.463 3752.96 1123.46 4484.96 787.963" stroke="url(#paint39_linear)"/>
<path d="M127.775 460.372C239.608 599.205 560.875 844.372 951.275 714.372C1439.27 551.872 1782.18 205.016 2465.77 328.372C3197.27 460.372 3736.27 1141.37 4468.27 805.872" stroke="url(#paint40_linear)"/>
<path d="M111.775 478.896C223.608 617.73 544.875 862.896 935.275 732.896C1423.27 570.396 1766.18 223.541 2449.77 346.896C3181.27 478.896 3720.27 1159.9 4452.27 824.396" stroke="url(#paint41_linear)"/>
<path d="M96.4663 497.992C208.3 636.826 529.566 881.992 919.966 751.992C1407.97 589.492 1750.87 242.637 2434.47 365.992C3165.97 497.992 3704.97 1178.99 4436.97 843.492" stroke="url(#paint42_linear)"/>
<path d="M81.8521 517.624C193.685 656.457 514.952 901.624 905.352 771.624C1393.35 609.124 1736.25 262.268 2419.85 385.624C3151.35 517.624 3690.35 1198.62 4422.35 863.124" stroke="url(#paint43_linear)"/>
<path d="M67.9419 537.756C179.775 676.589 501.042 921.756 891.442 791.756C1379.44 629.256 1722.34 282.4 2405.94 405.756C3137.44 537.756 3676.44 1218.76 4408.44 883.256" stroke="url(#paint44_linear)"/>
<path d="M54.7505 558.361C166.584 697.194 487.85 942.361 878.25 812.361C1366.25 649.861 1709.15 303.005 2392.75 426.361C3124.25 558.36 3663.25 1239.36 4395.25 903.861" stroke="url(#paint45_linear)"/>
<path d="M42.2974 579.414C154.131 718.247 475.397 963.414 865.797 833.414C1353.8 670.914 1696.7 324.058 2380.3 447.414C3111.8 579.414 3650.8 1260.41 4382.8 924.914" stroke="url(#paint46_linear)"/>
<path d="M30.6284 600.879C142.462 739.713 463.728 984.879 854.128 854.879C1342.13 692.379 1685.03 345.523 2368.63 468.879C3100.13 600.879 3639.13 1281.88 4371.13 946.379" stroke="url(#paint47_linear)"/>
<path d="M19.8081 622.718C131.641 761.551 452.908 1006.72 843.308 876.718C1331.31 714.218 1674.21 367.362 2357.81 490.718C3089.31 622.718 3628.31 1303.72 4360.31 968.218" stroke="url(#paint48_linear)"/>
<path d="M9.60498 645.681C121.438 784.514 442.705 1029.68 833.105 899.681C1321.1 737.181 1664.01 390.325 2347.6 513.681C3079.1 645.681 3618.1 1326.68 4350.1 991.181" stroke="url(#paint49_linear)"/>
<path d="M0.578613 668.998C112.412 807.831 433.679 1053 824.079 922.998C1312.08 760.498 1654.98 413.642 2338.58 536.998C3070.08 668.998 3609.08 1350 4341.08 1014.5" stroke="url(#paint50_linear)"/>
<defs>
<linearGradient id="paint0_linear" x1="3196.83" y1="1" x2="3196.83" y2="596.418" gradientUnits="userSpaceOnUse">
<stop stop-color="#67DE69"/>
<stop offset="1" stop-color="#0047B0"/>
</linearGradient>
<linearGradient id="paint1_linear" x1="3178.78" y1="17.4492" x2="3178.78" y2="612.867" gradientUnits="userSpaceOnUse">
<stop stop-color="#67DE69"/>
<stop offset="1" stop-color="#0047B0"/>
</linearGradient>
<linearGradient id="paint2_linear" x1="3158.78" y1="31.5645" x2="3158.78" y2="626.982" gradientUnits="userSpaceOnUse">
<stop stop-color="#67DE69"/>
<stop offset="1" stop-color="#0047B0"/>
</linearGradient>
<linearGradient id="paint3_linear" x1="3137.69" y1="44.0093" x2="3137.69" y2="639.427" gradientUnits="userSpaceOnUse">
<stop stop-color="#67DE69"/>
<stop offset="1" stop-color="#0047B0"/>
</linearGradient>
<linearGradient id="paint4_linear" x1="3115.87" y1="55.1094" x2="3115.87" y2="650.527" gradientUnits="userSpaceOnUse">
<stop stop-color="#67DE69"/>
<stop offset="1" stop-color="#0047B0"/>
</linearGradient>
<linearGradient id="paint5_linear" x1="3093.51" y1="65.0581" x2="3093.51" y2="660.476" gradientUnits="userSpaceOnUse">
<stop stop-color="#67DE69"/>
<stop offset="1" stop-color="#0047B0"/>
</linearGradient>
<linearGradient id="paint6_linear" x1="3070.71" y1="73.9863" x2="3070.71" y2="669.404" gradientUnits="userSpaceOnUse">
<stop stop-color="#67DE69"/>
<stop offset="1" stop-color="#0047B0"/>
</linearGradient>
<linearGradient id="paint7_linear" x1="3047.57" y1="81.9902" x2="3047.57" y2="677.408" gradientUnits="userSpaceOnUse">
<stop stop-color="#67DE69"/>
<stop offset="1" stop-color="#0047B0"/>
</linearGradient>
<linearGradient id="paint8_linear" x1="3024.16" y1="89.145" x2="3024.16" y2="684.563" gradientUnits="userSpaceOnUse">
<stop stop-color="#67DE69"/>
<stop offset="1" stop-color="#0047B0"/>
</linearGradient>
<linearGradient id="paint9_linear" x1="3000.52" y1="95.5122" x2="3000.52" y2="690.93" gradientUnits="userSpaceOnUse">
<stop stop-color="#67DE69"/>
<stop offset="1" stop-color="#0047B0"/>
</linearGradient>
<linearGradient id="paint10_linear" x1="2976.7" y1="101.144" x2="2976.7" y2="696.562" gradientUnits="userSpaceOnUse">
<stop stop-color="#67DE69"/>
<stop offset="1" stop-color="#0047B0"/>
</linearGradient>
<linearGradient id="paint11_linear" x1="2952.72" y1="106.083" x2="2952.72" y2="701.501" gradientUnits="userSpaceOnUse">
<stop stop-color="#67DE69"/>
<stop offset="1" stop-color="#0047B0"/>
</linearGradient>
<linearGradient id="paint12_linear" x1="2928.62" y1="110.372" x2="2928.62" y2="705.79" gradientUnits="userSpaceOnUse">
<stop stop-color="#67DE69"/>
<stop offset="1" stop-color="#0047B0"/>
</linearGradient>
<linearGradient id="paint13_linear" x1="2904.41" y1="114.042" x2="2904.41" y2="709.46" gradientUnits="userSpaceOnUse">
<stop stop-color="#67DE69"/>
<stop offset="1" stop-color="#0047B0"/>
</linearGradient>
<linearGradient id="paint14_linear" x1="2880.13" y1="117.126" x2="2880.13" y2="712.544" gradientUnits="userSpaceOnUse">
<stop stop-color="#67DE69"/>
<stop offset="1" stop-color="#0047B0"/>
</linearGradient>
<linearGradient id="paint15_linear" x1="2855.78" y1="119.653" x2="2855.78" y2="715.071" gradientUnits="userSpaceOnUse">
<stop stop-color="#67DE69"/>
<stop offset="1" stop-color="#0047B0"/>
</linearGradient>
<linearGradient id="paint16_linear" x1="2831.38" y1="121.648" x2="2831.38" y2="717.066" gradientUnits="userSpaceOnUse">
<stop stop-color="#67DE69"/>
<stop offset="1" stop-color="#0047B0"/>
</linearGradient>
<linearGradient id="paint17_linear" x1="2806.94" y1="123.136" x2="2806.94" y2="718.554" gradientUnits="userSpaceOnUse">
<stop stop-color="#67DE69"/>
<stop offset="1" stop-color="#0047B0"/>
</linearGradient>
<linearGradient id="paint18_linear" x1="2782.48" y1="124.139" x2="2782.48" y2="719.557" gradientUnits="userSpaceOnUse">
<stop stop-color="#67DE69"/>
<stop offset="1" stop-color="#0047B0"/>
</linearGradient>
<linearGradient id="paint19_linear" x1="2758.01" y1="124.676" x2="2758.01" y2="720.094" gradientUnits="userSpaceOnUse">
<stop stop-color="#67DE69"/>
<stop offset="1" stop-color="#0047B0"/>
</linearGradient>
<linearGradient id="paint20_linear" x1="2733.52" y1="124.769" x2="2733.52" y2="720.187" gradientUnits="userSpaceOnUse">
<stop stop-color="#67DE69"/>
<stop offset="1" stop-color="#0047B0"/>
</linearGradient>
<linearGradient id="paint21_linear" x1="2709.05" y1="124.433" x2="2709.05" y2="719.851" gradientUnits="userSpaceOnUse">
<stop stop-color="#67DE69"/>
<stop offset="1" stop-color="#0047B0"/>
</linearGradient>
<linearGradient id="paint22_linear" x1="2685.52" y1="123.803" x2="2685.52" y2="719.221" gradientUnits="userSpaceOnUse">
<stop stop-color="#67DE69"/>
<stop offset="1" stop-color="#0047B0"/>
</linearGradient>
<linearGradient id="paint23_linear" x1="2661.05" y1="123.963" x2="2661.05" y2="719.381" gradientUnits="userSpaceOnUse">
<stop stop-color="#67DE69"/>
<stop offset="1" stop-color="#0047B0"/>
</linearGradient>
<linearGradient id="paint24_linear" x1="2636.61" y1="125.332" x2="2636.61" y2="720.75" gradientUnits="userSpaceOnUse">
<stop stop-color="#67DE69"/>
<stop offset="1" stop-color="#0047B0"/>
</linearGradient>
<linearGradient id="paint25_linear" x1="2612.28" y1="127.935" x2="2612.28" y2="723.353" gradientUnits="userSpaceOnUse">
<stop stop-color="#67DE69"/>
<stop offset="1" stop-color="#0047B0"/>
</linearGradient>
<linearGradient id="paint26_linear" x1="2588.1" y1="131.789" x2="2588.1" y2="727.207" gradientUnits="userSpaceOnUse">
<stop stop-color="#67DE69"/>
<stop offset="1" stop-color="#0047B0"/>
</linearGradient>
<linearGradient id="paint27_linear" x1="2564.17" y1="136.898" x2="2564.17" y2="732.316" gradientUnits="userSpaceOnUse">
<stop stop-color="#67DE69"/>
<stop offset="1" stop-color="#0047B0"/>
</linearGradient>
<linearGradient id="paint28_linear" x1="2540.53" y1="143.258" x2="2540.53" y2="738.676" gradientUnits="userSpaceOnUse">
<stop stop-color="#67DE69"/>
<stop offset="1" stop-color="#0047B0"/>
</linearGradient>
<linearGradient id="paint29_linear" x1="2517.26" y1="150.847" x2="2517.26" y2="746.265" gradientUnits="userSpaceOnUse">
<stop stop-color="#67DE69"/>
<stop offset="1" stop-color="#0047B0"/>
</linearGradient>
<linearGradient id="paint30_linear" x1="2494.41" y1="159.637" x2="2494.41" y2="755.055" gradientUnits="userSpaceOnUse">
<stop stop-color="#67DE69"/>
<stop offset="1" stop-color="#0047B0"/>
</linearGradient>
<linearGradient id="paint31_linear" x1="2472.04" y1="169.587" x2="2472.04" y2="765.005" gradientUnits="userSpaceOnUse">
<stop stop-color="#67DE69"/>
<stop offset="1" stop-color="#0047B0"/>
</linearGradient>
<linearGradient id="paint32_linear" x1="2450.21" y1="180.65" x2="2450.21" y2="776.068" gradientUnits="userSpaceOnUse">
<stop stop-color="#67DE69"/>
<stop offset="1" stop-color="#0047B0"/>
</linearGradient>
<linearGradient id="paint33_linear" x1="2428.94" y1="192.773" x2="2428.94" y2="788.191" gradientUnits="userSpaceOnUse">
<stop stop-color="#67DE69"/>
<stop offset="1" stop-color="#0047B0"/>
</linearGradient>
<linearGradient id="paint34_linear" x1="2408.27" y1="205.897" x2="2408.27" y2="801.315" gradientUnits="userSpaceOnUse">
<stop stop-color="#67DE69"/>
<stop offset="1" stop-color="#0047B0"/>
</linearGradient>
<linearGradient id="paint35_linear" x1="2388.24" y1="219.963" x2="2388.24" y2="815.381" gradientUnits="userSpaceOnUse">
<stop stop-color="#67DE69"/>
<stop offset="1" stop-color="#0047B0"/>
</linearGradient>
<linearGradient id="paint36_linear" x1="2368.85" y1="234.911" x2="2368.85" y2="830.329" gradientUnits="userSpaceOnUse">
<stop stop-color="#67DE69"/>
<stop offset="1" stop-color="#0047B0"/>
</linearGradient>
<linearGradient id="paint37_linear" x1="2350.13" y1="250.681" x2="2350.13" y2="846.099" gradientUnits="userSpaceOnUse">
<stop stop-color="#67DE69"/>
<stop offset="1" stop-color="#0047B0"/>
</linearGradient>
<linearGradient id="paint38_linear" x1="2332.08" y1="267.217" x2="2332.08" y2="862.635" gradientUnits="userSpaceOnUse">
<stop stop-color="#67DE69"/>
<stop offset="1" stop-color="#0047B0"/>
</linearGradient>
<linearGradient id="paint39_linear" x1="2314.71" y1="284.465" x2="2314.71" y2="879.883" gradientUnits="userSpaceOnUse">
<stop stop-color="#67DE69"/>
<stop offset="1" stop-color="#0047B0"/>
</linearGradient>
<linearGradient id="paint40_linear" x1="2298.02" y1="302.374" x2="2298.02" y2="897.792" gradientUnits="userSpaceOnUse">
<stop stop-color="#67DE69"/>
<stop offset="1" stop-color="#0047B0"/>
</linearGradient>
<linearGradient id="paint41_linear" x1="2282.02" y1="320.898" x2="2282.02" y2="916.316" gradientUnits="userSpaceOnUse">
<stop stop-color="#67DE69"/>
<stop offset="1" stop-color="#0047B0"/>
</linearGradient>
<linearGradient id="paint42_linear" x1="2266.72" y1="339.995" x2="2266.72" y2="935.413" gradientUnits="userSpaceOnUse">
<stop stop-color="#67DE69"/>
<stop offset="1" stop-color="#0047B0"/>
</linearGradient>
<linearGradient id="paint43_linear" x1="2252.1" y1="359.626" x2="2252.1" y2="955.044" gradientUnits="userSpaceOnUse">
<stop stop-color="#67DE69"/>
<stop offset="1" stop-color="#0047B0"/>
</linearGradient>
<linearGradient id="paint44_linear" x1="2238.19" y1="379.758" x2="2238.19" y2="975.176" gradientUnits="userSpaceOnUse">
<stop stop-color="#67DE69"/>
<stop offset="1" stop-color="#0047B0"/>
</linearGradient>
<linearGradient id="paint45_linear" x1="2225" y1="400.363" x2="2225" y2="995.781" gradientUnits="userSpaceOnUse">
<stop stop-color="#67DE69"/>
<stop offset="1" stop-color="#0047B0"/>
</linearGradient>
<linearGradient id="paint46_linear" x1="2212.55" y1="421.416" x2="2212.55" y2="1016.83" gradientUnits="userSpaceOnUse">
<stop stop-color="#67DE69"/>
<stop offset="1" stop-color="#0047B0"/>
</linearGradient>
<linearGradient id="paint47_linear" x1="2200.88" y1="442.881" x2="2200.88" y2="1038.3" gradientUnits="userSpaceOnUse">
<stop stop-color="#67DE69"/>
<stop offset="1" stop-color="#0047B0"/>
</linearGradient>
<linearGradient id="paint48_linear" x1="2190.06" y1="464.72" x2="2190.06" y2="1060.14" gradientUnits="userSpaceOnUse">
<stop stop-color="#67DE69"/>
<stop offset="1" stop-color="#0047B0"/>
</linearGradient>
<linearGradient id="paint49_linear" x1="2179.85" y1="487.683" x2="2179.85" y2="1083.1" gradientUnits="userSpaceOnUse">
<stop stop-color="#67DE69"/>
<stop offset="1" stop-color="#0047B0"/>
</linearGradient>
<linearGradient id="paint50_linear" x1="2170.83" y1="511" x2="2170.83" y2="1106.42" gradientUnits="userSpaceOnUse">
<stop stop-color="#67DE69"/>
<stop offset="1" stop-color="#0047B0"/>
</linearGradient>
</defs>
</svg>
