<svg width="2139" height="1436" viewBox="0 0 2139 1436" fill="none" xmlns="http://www.w3.org/2000/svg">
<path d="M2012.36 82.7552C1945.45 77.3341 1784.77 87.8573 1677.28 173.319C1542.92 280.147 1291.36 905.892 890.47 882.465C569.756 863.724 394.277 982.656 346.627 1044.47" stroke="url(#paint0_linear)"/>
<path d="M2014.39 88.7903C1947.49 83.3692 1786.8 93.8925 1679.31 179.354C1544.95 286.182 1293.4 911.927 892.508 888.5C571.793 869.759 396.314 988.691 348.664 1050.5" stroke="url(#paint1_linear)"/>
<path d="M2015.74 96.9905C1948.83 91.5694 1788.15 102.093 1680.66 187.555C1546.3 294.382 1294.75 920.127 893.854 896.7C573.14 877.959 397.661 996.891 350.011 1058.7" stroke="url(#paint2_linear)"/>
<path d="M2015.56 105.3C1948.66 99.8785 1787.97 110.402 1680.48 195.864C1546.12 302.691 1294.57 928.436 893.676 905.01C572.962 886.268 397.483 1005.2 349.833 1067.01" stroke="url(#paint3_linear)"/>
<path d="M2013.99 113.457C1947.08 108.036 1786.4 118.559 1678.91 204.021C1544.55 310.848 1292.99 936.594 892.101 913.167C571.387 894.425 395.908 1013.36 348.258 1075.17" stroke="url(#paint4_linear)"/>
<path d="M2011.25 121.297C1944.34 115.876 1783.66 126.399 1676.17 211.861C1541.81 318.688 1290.25 944.434 889.362 921.007C568.647 902.265 393.168 1021.2 345.518 1083.01" stroke="url(#paint5_linear)"/>
<path d="M2007.59 128.749C1940.68 123.328 1779.99 133.851 1672.51 219.313C1538.14 326.14 1286.59 951.886 885.698 928.459C564.984 909.717 389.505 1028.65 341.855 1090.46" stroke="url(#paint6_linear)"/>
<path d="M2003.2 135.803C1936.3 130.382 1775.61 140.905 1668.12 226.367C1533.76 333.195 1282.21 958.94 881.316 935.513C560.601 916.771 385.122 1035.7 337.472 1097.51" stroke="url(#paint7_linear)"/>
<path d="M1998.26 142.477C1931.35 137.056 1770.67 147.579 1663.18 233.041C1528.82 339.868 1277.26 965.614 876.371 942.187C555.656 923.445 380.178 1042.38 332.527 1104.19" stroke="url(#paint8_linear)"/>
<path d="M1992.87 148.798C1925.96 143.377 1765.28 153.9 1657.79 239.362C1523.43 346.19 1271.87 971.935 870.981 948.508C550.266 929.767 374.787 1048.7 327.137 1110.51" stroke="url(#paint9_linear)"/>
<path d="M1987.12 154.797C1920.21 149.376 1759.53 159.899 1652.04 245.361C1517.68 352.189 1266.13 977.934 865.232 954.507C544.518 935.766 369.039 1054.7 321.389 1116.51" stroke="url(#paint10_linear)"/>
<path d="M1981.08 160.5C1914.17 155.079 1753.48 165.602 1646 251.064C1511.64 357.892 1260.08 983.637 859.189 960.21C538.475 941.469 362.996 1060.4 315.346 1122.21" stroke="url(#paint11_linear)"/>
<path d="M1974.79 165.933C1907.88 160.512 1747.2 171.036 1639.71 256.498C1505.35 363.325 1253.79 989.07 852.901 965.643C532.186 946.902 356.707 1065.83 309.057 1127.64" stroke="url(#paint12_linear)"/>
<path d="M1968.29 171.115C1901.38 165.693 1740.7 176.217 1633.21 261.679C1498.85 368.506 1247.3 994.251 846.403 970.824C525.688 952.083 350.209 1071.02 302.559 1132.82" stroke="url(#paint13_linear)"/>
<path d="M1961.61 176.06C1894.7 170.639 1734.02 181.163 1626.53 266.624C1492.17 373.452 1240.62 999.197 839.723 975.77C519.009 957.029 343.53 1075.96 295.88 1137.77" stroke="url(#paint14_linear)"/>
<path d="M1954.77 180.783C1887.87 175.362 1727.18 185.886 1619.69 271.348C1485.33 378.175 1233.78 1003.92 832.884 980.493C512.17 961.752 336.691 1080.68 289.041 1142.49" stroke="url(#paint15_linear)"/>
<path d="M1947.79 185.292C1880.88 179.871 1720.2 190.394 1612.71 275.856C1478.35 382.684 1226.8 1008.43 825.903 985.002C505.188 966.261 329.709 1085.19 282.059 1147" stroke="url(#paint16_linear)"/>
<path d="M1940.68 189.594C1873.77 184.172 1713.09 194.696 1605.6 280.158C1471.24 386.985 1219.68 1012.73 818.79 989.303C498.076 970.562 322.597 1089.49 274.947 1151.3" stroke="url(#paint17_linear)"/>
<path d="M1933.45 193.689C1866.54 188.268 1705.85 198.791 1598.37 284.253C1464.01 391.08 1212.45 1016.83 811.559 993.399C490.844 974.657 315.366 1093.59 267.715 1155.4" stroke="url(#paint18_linear)"/>
<path d="M1926.1 197.577C1859.2 192.156 1698.51 202.679 1591.02 288.141C1456.66 394.969 1205.11 1020.71 804.215 997.287C483.5 978.545 308.021 1097.48 260.371 1159.29" stroke="url(#paint19_linear)"/>
<path d="M1918.65 201.253C1851.74 195.832 1691.06 206.355 1583.57 291.817C1449.21 398.644 1197.66 1024.39 796.762 1000.96C476.048 982.221 300.569 1101.15 252.919 1162.96" stroke="url(#paint20_linear)"/>
<path d="M1911.09 204.704C1844.19 199.283 1683.5 209.807 1576.01 295.269C1441.65 402.096 1190.1 1027.84 789.206 1004.41C468.492 985.673 293.013 1104.61 245.363 1166.41" stroke="url(#paint21_linear)"/>
<path d="M1903.43 207.915C1836.53 202.494 1675.84 213.017 1568.35 298.479C1433.99 405.306 1182.44 1031.05 781.547 1007.62C460.833 988.883 285.354 1107.82 237.704 1169.62" stroke="url(#paint22_linear)"/>
<path d="M1895.67 210.855C1828.77 205.434 1668.08 215.957 1560.59 301.419C1426.23 408.247 1174.68 1033.99 773.785 1010.57C453.071 991.824 277.592 1110.76 229.942 1172.57" stroke="url(#paint23_linear)"/>
<path d="M1887.8 213.481C1820.9 208.06 1660.21 218.583 1552.72 304.045C1418.36 410.872 1166.81 1036.62 765.917 1013.19C445.203 994.449 269.724 1113.38 222.074 1175.19" stroke="url(#paint24_linear)"/>
<path d="M1879.82 215.721C1812.91 210.3 1652.23 220.824 1544.74 306.286C1410.38 413.113 1158.82 1038.86 757.93 1015.43C437.215 996.69 261.737 1115.62 214.086 1177.43" stroke="url(#paint25_linear)"/>
<path d="M1871.77 217.434C1804.87 212.013 1644.18 222.537 1536.69 307.999C1402.33 414.826 1150.78 1040.57 749.887 1017.14C429.173 998.403 253.694 1117.34 206.044 1179.14" stroke="url(#paint26_linear)"/>
<path d="M1863.81 218.379C1796.9 212.958 1636.22 223.481 1528.73 308.943C1394.37 415.77 1142.82 1041.52 741.923 1018.09C421.208 999.347 245.729 1118.28 198.079 1180.09" stroke="url(#paint27_linear)"/>
<path d="M1853.83 217.578C1786.93 212.157 1626.24 222.681 1518.75 308.143C1384.39 414.97 1132.84 1040.72 731.945 1017.29C411.23 998.547 235.751 1117.48 188.101 1179.29" stroke="url(#paint28_linear)"/>
<path d="M1847.22 212.358C1780.31 206.937 1619.62 217.46 1512.14 302.922C1377.78 409.75 1126.22 1035.5 725.329 1012.07C404.614 993.327 229.136 1112.26 181.485 1174.07" stroke="url(#paint29_linear)"/>
<path d="M1841.33 206.493C1774.42 201.072 1613.73 211.596 1506.25 297.058C1371.89 403.885 1120.33 1029.63 719.439 1006.2C398.725 987.462 223.246 1106.39 175.596 1168.2" stroke="url(#paint30_linear)"/>
<path d="M1833.74 203.103C1766.83 197.682 1606.15 208.205 1498.66 293.667C1364.3 400.494 1112.74 1026.24 711.851 1002.81C391.136 984.071 215.658 1103 168.007 1164.81" stroke="url(#paint31_linear)"/>
<path d="M1825.53 201.791C1758.62 196.37 1597.94 206.893 1490.45 292.355C1356.09 399.182 1104.54 1024.93 703.644 1001.5C382.929 982.759 207.45 1101.69 159.8 1163.5" stroke="url(#paint32_linear)"/>
<path d="M1817.22 201.951C1750.31 196.53 1589.63 207.053 1482.14 292.515C1347.78 399.343 1096.23 1025.09 695.334 1001.66C374.619 982.919 199.14 1101.85 151.49 1163.66" stroke="url(#paint33_linear)"/>
<path d="M1809 203.163C1742.09 197.742 1581.41 208.266 1473.92 293.728C1339.56 400.555 1088 1026.3 687.112 1002.87C366.397 984.132 190.918 1103.06 143.268 1164.87" stroke="url(#paint34_linear)"/>
<path d="M1800.93 205.176C1734.03 199.754 1573.34 210.278 1465.85 295.74C1331.49 402.567 1079.94 1028.31 679.048 1004.89C358.333 986.144 182.854 1105.08 135.204 1166.89" stroke="url(#paint35_linear)"/>
<path d="M1793.06 207.835C1726.15 202.414 1565.47 212.937 1457.98 298.399C1323.62 405.226 1072.07 1030.97 671.173 1007.54C350.458 988.803 174.979 1107.74 127.329 1169.54" stroke="url(#paint36_linear)"/>
<path d="M1785.39 211.045C1718.49 205.624 1557.8 216.147 1450.31 301.609C1315.95 408.437 1064.4 1034.18 663.507 1010.76C342.792 992.014 167.313 1110.95 119.663 1172.76" stroke="url(#paint37_linear)"/>
<path d="M1777.95 214.752C1711.05 209.331 1550.36 219.854 1442.87 305.316C1308.51 412.143 1056.96 1037.89 656.067 1014.46C335.353 995.72 159.874 1114.65 112.224 1176.46" stroke="url(#paint38_linear)"/>
<path d="M1770.76 218.921C1703.86 213.5 1543.17 224.023 1435.68 309.485C1301.32 416.313 1049.77 1042.06 648.878 1018.63C328.163 999.89 152.684 1118.82 105.034 1180.63" stroke="url(#paint39_linear)"/>
<path d="M1763.86 223.541C1696.95 218.12 1536.26 228.643 1428.77 314.105C1294.41 420.932 1042.86 1046.68 641.968 1023.25C321.254 1004.51 145.775 1123.44 98.1246 1185.25" stroke="url(#paint40_linear)"/>
<path d="M1757.27 228.611C1690.36 223.19 1529.68 233.713 1422.19 319.175C1287.83 426.003 1036.28 1051.75 635.383 1028.32C314.668 1009.58 139.189 1128.51 91.5391 1190.32" stroke="url(#paint41_linear)"/>
<path d="M1751.07 234.147C1684.16 228.726 1523.48 239.249 1415.99 324.711C1281.63 431.538 1030.08 1057.28 629.183 1033.86C308.469 1015.12 132.99 1134.05 85.3399 1195.86" stroke="url(#paint42_linear)"/>
<path d="M1745.34 240.172C1678.44 234.751 1517.75 245.274 1410.26 330.736C1275.9 437.563 1024.35 1063.31 623.458 1039.88C302.743 1021.14 127.264 1140.07 79.6143 1201.88" stroke="url(#paint43_linear)"/>
<path d="M1740.22 246.717C1673.32 241.296 1512.63 251.819 1405.14 337.281C1270.78 444.109 1019.23 1069.85 618.335 1046.43C297.621 1027.69 122.142 1146.62 74.4917 1208.43" stroke="url(#paint44_linear)"/>
<path d="M1735.89 253.808C1668.98 248.387 1508.3 258.911 1400.81 344.373C1266.45 451.2 1014.89 1076.95 614 1053.52C293.285 1034.78 117.806 1153.71 70.1563 1215.52" stroke="url(#paint45_linear)"/>
<path d="M1732.6 261.442C1665.69 256.021 1505.01 266.544 1397.52 352.006C1263.16 458.833 1011.61 1084.58 610.713 1061.15C289.998 1042.41 114.519 1161.34 66.8692 1223.15" stroke="url(#paint46_linear)"/>
<path d="M1730.69 269.532C1663.79 264.11 1503.1 274.634 1395.61 360.096C1261.25 466.923 1009.7 1092.67 608.806 1069.24C288.092 1050.5 112.613 1169.43 64.9629 1231.24" stroke="url(#paint47_linear)"/>
<path d="M1730.5 277.841C1663.6 272.42 1502.91 282.943 1395.42 368.405C1261.06 475.232 1009.51 1100.98 608.615 1077.55C287.901 1058.81 112.422 1177.74 64.7715 1239.55" stroke="url(#paint48_linear)"/>
<path d="M1732.19 285.98C1665.28 280.559 1504.6 291.082 1397.11 376.544C1262.75 483.371 1011.19 1109.12 610.3 1085.69C289.586 1066.95 114.107 1185.88 66.4566 1247.69" stroke="url(#paint49_linear)"/>
<path d="M2012.36 82.7552C1945.45 77.3341 1784.77 87.8573 1677.28 173.319C1542.92 280.147 1291.36 905.892 890.47 882.465C569.756 863.724 394.277 982.656 346.627 1044.47" stroke="url(#paint50_linear)"/>
<path d="M2014.39 88.7903C1947.49 83.3692 1786.8 93.8925 1679.31 179.354C1544.95 286.182 1293.4 911.927 892.508 888.5C571.793 869.759 396.314 988.691 348.664 1050.5" stroke="url(#paint51_linear)"/>
<path d="M2015.74 96.9905C1948.83 91.5694 1788.15 102.093 1680.66 187.555C1546.3 294.382 1294.75 920.127 893.854 896.7C573.14 877.959 397.661 996.891 350.011 1058.7" stroke="url(#paint52_linear)"/>
<path d="M2015.56 105.3C1948.66 99.8785 1787.97 110.402 1680.48 195.864C1546.12 302.691 1294.57 928.436 893.676 905.01C572.962 886.268 397.483 1005.2 349.833 1067.01" stroke="url(#paint53_linear)"/>
<path d="M2013.99 113.457C1947.08 108.036 1786.4 118.559 1678.91 204.021C1544.55 310.848 1292.99 936.594 892.101 913.167C571.387 894.425 395.908 1013.36 348.258 1075.17" stroke="url(#paint54_linear)"/>
<path d="M2011.25 121.297C1944.34 115.876 1783.66 126.399 1676.17 211.861C1541.81 318.688 1290.25 944.434 889.362 921.007C568.647 902.265 393.168 1021.2 345.518 1083.01" stroke="url(#paint55_linear)"/>
<path d="M2007.59 128.749C1940.68 123.328 1779.99 133.851 1672.51 219.313C1538.14 326.14 1286.59 951.886 885.698 928.459C564.984 909.717 389.505 1028.65 341.855 1090.46" stroke="url(#paint56_linear)"/>
<path d="M2003.2 135.803C1936.3 130.382 1775.61 140.905 1668.12 226.367C1533.76 333.195 1282.21 958.94 881.316 935.513C560.601 916.771 385.122 1035.7 337.472 1097.51" stroke="url(#paint57_linear)"/>
<path d="M1998.26 142.477C1931.35 137.056 1770.67 147.579 1663.18 233.041C1528.82 339.868 1277.26 965.614 876.371 942.187C555.656 923.445 380.178 1042.38 332.527 1104.19" stroke="url(#paint58_linear)"/>
<path d="M1992.87 148.798C1925.96 143.377 1765.28 153.9 1657.79 239.362C1523.43 346.19 1271.87 971.935 870.981 948.508C550.266 929.767 374.787 1048.7 327.137 1110.51" stroke="url(#paint59_linear)"/>
<path d="M1987.12 154.797C1920.21 149.376 1759.53 159.899 1652.04 245.361C1517.68 352.189 1266.13 977.934 865.232 954.507C544.518 935.766 369.039 1054.7 321.389 1116.51" stroke="url(#paint60_linear)"/>
<path d="M1981.08 160.5C1914.17 155.079 1753.48 165.602 1646 251.064C1511.64 357.892 1260.08 983.637 859.189 960.21C538.475 941.469 362.996 1060.4 315.346 1122.21" stroke="url(#paint61_linear)"/>
<path d="M1974.79 165.933C1907.88 160.512 1747.2 171.036 1639.71 256.498C1505.35 363.325 1253.79 989.07 852.901 965.643C532.186 946.902 356.707 1065.83 309.057 1127.64" stroke="url(#paint62_linear)"/>
<path d="M1968.29 171.115C1901.38 165.693 1740.7 176.217 1633.21 261.679C1498.85 368.506 1247.3 994.251 846.403 970.824C525.688 952.083 350.209 1071.02 302.559 1132.82" stroke="url(#paint63_linear)"/>
<path d="M1961.61 176.06C1894.7 170.639 1734.02 181.163 1626.53 266.624C1492.17 373.452 1240.62 999.197 839.723 975.77C519.009 957.029 343.53 1075.96 295.88 1137.77" stroke="url(#paint64_linear)"/>
<path d="M1954.77 180.783C1887.87 175.362 1727.18 185.886 1619.69 271.348C1485.33 378.175 1233.78 1003.92 832.884 980.493C512.17 961.752 336.691 1080.68 289.041 1142.49" stroke="url(#paint65_linear)"/>
<path d="M1947.79 185.292C1880.88 179.871 1720.2 190.394 1612.71 275.856C1478.35 382.684 1226.8 1008.43 825.903 985.002C505.188 966.261 329.709 1085.19 282.059 1147" stroke="url(#paint66_linear)"/>
<path d="M1940.68 189.594C1873.77 184.172 1713.09 194.696 1605.6 280.158C1471.24 386.985 1219.68 1012.73 818.79 989.303C498.076 970.562 322.597 1089.49 274.947 1151.3" stroke="url(#paint67_linear)"/>
<path d="M1933.45 193.689C1866.54 188.268 1705.85 198.791 1598.37 284.253C1464.01 391.08 1212.45 1016.83 811.559 993.399C490.844 974.657 315.366 1093.59 267.715 1155.4" stroke="url(#paint68_linear)"/>
<path d="M1926.1 197.577C1859.2 192.156 1698.51 202.679 1591.02 288.141C1456.66 394.969 1205.11 1020.71 804.215 997.287C483.5 978.545 308.021 1097.48 260.371 1159.29" stroke="url(#paint69_linear)"/>
<path d="M1918.65 201.253C1851.74 195.832 1691.06 206.355 1583.57 291.817C1449.21 398.644 1197.66 1024.39 796.762 1000.96C476.048 982.221 300.569 1101.15 252.919 1162.96" stroke="url(#paint70_linear)"/>
<path d="M1911.09 204.704C1844.19 199.283 1683.5 209.807 1576.01 295.269C1441.65 402.096 1190.1 1027.84 789.206 1004.41C468.492 985.673 293.013 1104.61 245.363 1166.41" stroke="url(#paint71_linear)"/>
<path d="M1903.43 207.915C1836.53 202.494 1675.84 213.017 1568.35 298.479C1433.99 405.306 1182.44 1031.05 781.547 1007.62C460.833 988.883 285.354 1107.82 237.704 1169.62" stroke="url(#paint72_linear)"/>
<path d="M1895.67 210.855C1828.77 205.434 1668.08 215.957 1560.59 301.419C1426.23 408.247 1174.68 1033.99 773.785 1010.57C453.071 991.824 277.592 1110.76 229.942 1172.57" stroke="url(#paint73_linear)"/>
<path d="M1887.8 213.481C1820.9 208.06 1660.21 218.583 1552.72 304.045C1418.36 410.872 1166.81 1036.62 765.917 1013.19C445.203 994.449 269.724 1113.38 222.074 1175.19" stroke="url(#paint74_linear)"/>
<path d="M1879.82 215.721C1812.91 210.3 1652.23 220.824 1544.74 306.286C1410.38 413.113 1158.82 1038.86 757.93 1015.43C437.215 996.69 261.737 1115.62 214.086 1177.43" stroke="url(#paint75_linear)"/>
<path d="M1871.77 217.434C1804.87 212.013 1644.18 222.537 1536.69 307.999C1402.33 414.826 1150.78 1040.57 749.887 1017.14C429.173 998.403 253.694 1117.34 206.044 1179.14" stroke="url(#paint76_linear)"/>
<path d="M1863.81 218.379C1796.9 212.958 1636.22 223.481 1528.73 308.943C1394.37 415.77 1142.82 1041.52 741.923 1018.09C421.208 999.347 245.729 1118.28 198.079 1180.09" stroke="url(#paint77_linear)"/>
<path d="M1853.83 217.578C1786.93 212.157 1626.24 222.681 1518.75 308.143C1384.39 414.97 1132.84 1040.72 731.945 1017.29C411.23 998.547 235.751 1117.48 188.101 1179.29" stroke="url(#paint78_linear)"/>
<path d="M1847.22 212.358C1780.31 206.937 1619.62 217.46 1512.14 302.922C1377.78 409.75 1126.22 1035.5 725.329 1012.07C404.614 993.327 229.136 1112.26 181.485 1174.07" stroke="url(#paint79_linear)"/>
<path d="M1841.33 206.493C1774.42 201.072 1613.73 211.596 1506.25 297.058C1371.89 403.885 1120.33 1029.63 719.439 1006.2C398.725 987.462 223.246 1106.39 175.596 1168.2" stroke="url(#paint80_linear)"/>
<path d="M1833.74 203.103C1766.83 197.682 1606.15 208.205 1498.66 293.667C1364.3 400.494 1112.74 1026.24 711.851 1002.81C391.136 984.071 215.658 1103 168.007 1164.81" stroke="url(#paint81_linear)"/>
<path d="M1825.53 201.791C1758.62 196.37 1597.94 206.893 1490.45 292.355C1356.09 399.182 1104.54 1024.93 703.644 1001.5C382.929 982.759 207.45 1101.69 159.8 1163.5" stroke="url(#paint82_linear)"/>
<path d="M1817.22 201.951C1750.31 196.53 1589.63 207.053 1482.14 292.515C1347.78 399.343 1096.23 1025.09 695.334 1001.66C374.619 982.919 199.14 1101.85 151.49 1163.66" stroke="url(#paint83_linear)"/>
<path d="M1809 203.163C1742.09 197.742 1581.41 208.266 1473.92 293.728C1339.56 400.555 1088 1026.3 687.112 1002.87C366.397 984.132 190.918 1103.06 143.268 1164.87" stroke="url(#paint84_linear)"/>
<path d="M1800.93 205.176C1734.03 199.754 1573.34 210.278 1465.85 295.74C1331.49 402.567 1079.94 1028.31 679.048 1004.89C358.333 986.144 182.854 1105.08 135.204 1166.89" stroke="url(#paint85_linear)"/>
<path d="M1793.06 207.835C1726.15 202.414 1565.47 212.937 1457.98 298.399C1323.62 405.226 1072.07 1030.97 671.173 1007.54C350.458 988.803 174.979 1107.74 127.329 1169.54" stroke="url(#paint86_linear)"/>
<path d="M1785.39 211.045C1718.49 205.624 1557.8 216.147 1450.31 301.609C1315.95 408.437 1064.4 1034.18 663.507 1010.76C342.792 992.014 167.313 1110.95 119.663 1172.76" stroke="url(#paint87_linear)"/>
<path d="M1777.95 214.752C1711.05 209.331 1550.36 219.854 1442.87 305.316C1308.51 412.143 1056.96 1037.89 656.067 1014.46C335.353 995.72 159.874 1114.65 112.224 1176.46" stroke="url(#paint88_linear)"/>
<path d="M1770.76 218.921C1703.86 213.5 1543.17 224.023 1435.68 309.485C1301.32 416.313 1049.77 1042.06 648.878 1018.63C328.163 999.89 152.684 1118.82 105.034 1180.63" stroke="url(#paint89_linear)"/>
<path d="M1763.86 223.541C1696.95 218.12 1536.26 228.643 1428.77 314.105C1294.41 420.932 1042.86 1046.68 641.968 1023.25C321.254 1004.51 145.775 1123.44 98.1246 1185.25" stroke="url(#paint90_linear)"/>
<path d="M1757.27 228.611C1690.36 223.19 1529.68 233.713 1422.19 319.175C1287.83 426.003 1036.28 1051.75 635.383 1028.32C314.668 1009.58 139.189 1128.51 91.5391 1190.32" stroke="url(#paint91_linear)"/>
<path d="M1751.07 234.147C1684.16 228.726 1523.48 239.249 1415.99 324.711C1281.63 431.538 1030.08 1057.28 629.183 1033.86C308.469 1015.12 132.99 1134.05 85.3399 1195.86" stroke="url(#paint92_linear)"/>
<path d="M1745.34 240.172C1678.44 234.751 1517.75 245.274 1410.26 330.736C1275.9 437.563 1024.35 1063.31 623.458 1039.88C302.743 1021.14 127.264 1140.07 79.6143 1201.88" stroke="url(#paint93_linear)"/>
<path d="M1740.22 246.717C1673.32 241.296 1512.63 251.819 1405.14 337.281C1270.78 444.109 1019.23 1069.85 618.335 1046.43C297.621 1027.69 122.142 1146.62 74.4917 1208.43" stroke="url(#paint94_linear)"/>
<path d="M1735.89 253.808C1668.98 248.387 1508.3 258.911 1400.81 344.373C1266.45 451.2 1014.89 1076.95 614 1053.52C293.285 1034.78 117.806 1153.71 70.1563 1215.52" stroke="url(#paint95_linear)"/>
<path d="M1732.6 261.442C1665.69 256.021 1505.01 266.544 1397.52 352.006C1263.16 458.833 1011.61 1084.58 610.713 1061.15C289.998 1042.41 114.519 1161.34 66.8692 1223.15" stroke="url(#paint96_linear)"/>
<path d="M1730.69 269.532C1663.79 264.11 1503.1 274.634 1395.61 360.096C1261.25 466.923 1009.7 1092.67 608.806 1069.24C288.092 1050.5 112.613 1169.43 64.9629 1231.24" stroke="url(#paint97_linear)"/>
<path d="M1730.5 277.841C1663.6 272.42 1502.91 282.943 1395.42 368.405C1261.06 475.232 1009.51 1100.98 608.615 1077.55C287.901 1058.81 112.422 1177.74 64.7715 1239.55" stroke="url(#paint98_linear)"/>
<path d="M1732.19 285.98C1665.28 280.559 1504.6 291.082 1397.11 376.544C1262.75 483.371 1011.19 1109.12 610.3 1085.69C289.586 1066.95 114.107 1185.88 66.4566 1247.69" stroke="url(#paint99_linear)"/>
<path d="M1735.6 293.558C1668.69 288.137 1508.01 298.66 1400.52 384.122C1266.16 490.95 1014.61 1116.69 613.713 1093.27C292.999 1074.53 117.52 1193.46 69.8697 1255.27" stroke="url(#paint100_linear)"/>
<defs>
<linearGradient id="paint0_linear" x1="2038.18" y1="127.478" x2="372.447" y2="1089.19" gradientUnits="userSpaceOnUse">
<stop stop-color="#67DE69"/>
<stop offset="1" stop-color="#0047B0"/>
</linearGradient>
<linearGradient id="paint1_linear" x1="2040.22" y1="133.513" x2="374.485" y2="1095.22" gradientUnits="userSpaceOnUse">
<stop stop-color="#67DE69"/>
<stop offset="1" stop-color="#0047B0"/>
</linearGradient>
<linearGradient id="paint2_linear" x1="2041.56" y1="141.713" x2="375.832" y2="1103.42" gradientUnits="userSpaceOnUse">
<stop stop-color="#67DE69"/>
<stop offset="1" stop-color="#0047B0"/>
</linearGradient>
<linearGradient id="paint3_linear" x1="2041.38" y1="150.023" x2="375.653" y2="1111.73" gradientUnits="userSpaceOnUse">
<stop stop-color="#67DE69"/>
<stop offset="1" stop-color="#0047B0"/>
</linearGradient>
<linearGradient id="paint4_linear" x1="2039.81" y1="158.18" x2="374.079" y2="1119.89" gradientUnits="userSpaceOnUse">
<stop stop-color="#67DE69"/>
<stop offset="1" stop-color="#0047B0"/>
</linearGradient>
<linearGradient id="paint5_linear" x1="2037.07" y1="166.02" x2="371.339" y2="1127.73" gradientUnits="userSpaceOnUse">
<stop stop-color="#67DE69"/>
<stop offset="1" stop-color="#0047B0"/>
</linearGradient>
<linearGradient id="paint6_linear" x1="2033.41" y1="173.472" x2="367.676" y2="1135.18" gradientUnits="userSpaceOnUse">
<stop stop-color="#67DE69"/>
<stop offset="1" stop-color="#0047B0"/>
</linearGradient>
<linearGradient id="paint7_linear" x1="2029.02" y1="180.526" x2="363.293" y2="1142.24" gradientUnits="userSpaceOnUse">
<stop stop-color="#67DE69"/>
<stop offset="1" stop-color="#0047B0"/>
</linearGradient>
<linearGradient id="paint8_linear" x1="2024.08" y1="187.2" x2="358.348" y2="1148.91" gradientUnits="userSpaceOnUse">
<stop stop-color="#67DE69"/>
<stop offset="1" stop-color="#0047B0"/>
</linearGradient>
<linearGradient id="paint9_linear" x1="2018.69" y1="193.521" x2="352.958" y2="1155.23" gradientUnits="userSpaceOnUse">
<stop stop-color="#67DE69"/>
<stop offset="1" stop-color="#0047B0"/>
</linearGradient>
<linearGradient id="paint10_linear" x1="2012.94" y1="199.52" x2="347.209" y2="1161.23" gradientUnits="userSpaceOnUse">
<stop stop-color="#67DE69"/>
<stop offset="1" stop-color="#0047B0"/>
</linearGradient>
<linearGradient id="paint11_linear" x1="2006.9" y1="205.223" x2="341.166" y2="1166.93" gradientUnits="userSpaceOnUse">
<stop stop-color="#67DE69"/>
<stop offset="1" stop-color="#0047B0"/>
</linearGradient>
<linearGradient id="paint12_linear" x1="2000.61" y1="210.656" x2="334.878" y2="1172.37" gradientUnits="userSpaceOnUse">
<stop stop-color="#67DE69"/>
<stop offset="1" stop-color="#0047B0"/>
</linearGradient>
<linearGradient id="paint13_linear" x1="1994.11" y1="215.837" x2="328.38" y2="1177.55" gradientUnits="userSpaceOnUse">
<stop stop-color="#67DE69"/>
<stop offset="1" stop-color="#0047B0"/>
</linearGradient>
<linearGradient id="paint14_linear" x1="1987.43" y1="220.783" x2="321.701" y2="1182.49" gradientUnits="userSpaceOnUse">
<stop stop-color="#67DE69"/>
<stop offset="1" stop-color="#0047B0"/>
</linearGradient>
<linearGradient id="paint15_linear" x1="1980.59" y1="225.506" x2="314.862" y2="1187.22" gradientUnits="userSpaceOnUse">
<stop stop-color="#67DE69"/>
<stop offset="1" stop-color="#0047B0"/>
</linearGradient>
<linearGradient id="paint16_linear" x1="1973.61" y1="230.015" x2="307.88" y2="1191.73" gradientUnits="userSpaceOnUse">
<stop stop-color="#67DE69"/>
<stop offset="1" stop-color="#0047B0"/>
</linearGradient>
<linearGradient id="paint17_linear" x1="1966.5" y1="234.316" x2="300.768" y2="1196.03" gradientUnits="userSpaceOnUse">
<stop stop-color="#67DE69"/>
<stop offset="1" stop-color="#0047B0"/>
</linearGradient>
<linearGradient id="paint18_linear" x1="1959.27" y1="238.412" x2="293.536" y2="1200.12" gradientUnits="userSpaceOnUse">
<stop stop-color="#67DE69"/>
<stop offset="1" stop-color="#0047B0"/>
</linearGradient>
<linearGradient id="paint19_linear" x1="1951.92" y1="242.3" x2="286.192" y2="1204.01" gradientUnits="userSpaceOnUse">
<stop stop-color="#67DE69"/>
<stop offset="1" stop-color="#0047B0"/>
</linearGradient>
<linearGradient id="paint20_linear" x1="1944.47" y1="245.976" x2="278.74" y2="1207.69" gradientUnits="userSpaceOnUse">
<stop stop-color="#67DE69"/>
<stop offset="1" stop-color="#0047B0"/>
</linearGradient>
<linearGradient id="paint21_linear" x1="1936.91" y1="249.427" x2="271.184" y2="1211.14" gradientUnits="userSpaceOnUse">
<stop stop-color="#67DE69"/>
<stop offset="1" stop-color="#0047B0"/>
</linearGradient>
<linearGradient id="paint22_linear" x1="1929.26" y1="252.638" x2="263.524" y2="1214.35" gradientUnits="userSpaceOnUse">
<stop stop-color="#67DE69"/>
<stop offset="1" stop-color="#0047B0"/>
</linearGradient>
<linearGradient id="paint23_linear" x1="1921.49" y1="255.578" x2="255.763" y2="1217.29" gradientUnits="userSpaceOnUse">
<stop stop-color="#67DE69"/>
<stop offset="1" stop-color="#0047B0"/>
</linearGradient>
<linearGradient id="paint24_linear" x1="1913.63" y1="258.204" x2="247.894" y2="1219.91" gradientUnits="userSpaceOnUse">
<stop stop-color="#67DE69"/>
<stop offset="1" stop-color="#0047B0"/>
</linearGradient>
<linearGradient id="paint25_linear" x1="1905.64" y1="260.444" x2="239.907" y2="1222.15" gradientUnits="userSpaceOnUse">
<stop stop-color="#67DE69"/>
<stop offset="1" stop-color="#0047B0"/>
</linearGradient>
<linearGradient id="paint26_linear" x1="1897.6" y1="262.157" x2="231.865" y2="1223.87" gradientUnits="userSpaceOnUse">
<stop stop-color="#67DE69"/>
<stop offset="1" stop-color="#0047B0"/>
</linearGradient>
<linearGradient id="paint27_linear" x1="1889.63" y1="263.102" x2="223.9" y2="1224.81" gradientUnits="userSpaceOnUse">
<stop stop-color="#67DE69"/>
<stop offset="1" stop-color="#0047B0"/>
</linearGradient>
<linearGradient id="paint28_linear" x1="1879.65" y1="262.301" x2="213.922" y2="1224.01" gradientUnits="userSpaceOnUse">
<stop stop-color="#67DE69"/>
<stop offset="1" stop-color="#0047B0"/>
</linearGradient>
<linearGradient id="paint29_linear" x1="1873.04" y1="257.081" x2="207.306" y2="1218.79" gradientUnits="userSpaceOnUse">
<stop stop-color="#67DE69"/>
<stop offset="1" stop-color="#0047B0"/>
</linearGradient>
<linearGradient id="paint30_linear" x1="1867.15" y1="251.216" x2="201.416" y2="1212.93" gradientUnits="userSpaceOnUse">
<stop stop-color="#67DE69"/>
<stop offset="1" stop-color="#0047B0"/>
</linearGradient>
<linearGradient id="paint31_linear" x1="1859.56" y1="247.826" x2="193.828" y2="1209.54" gradientUnits="userSpaceOnUse">
<stop stop-color="#67DE69"/>
<stop offset="1" stop-color="#0047B0"/>
</linearGradient>
<linearGradient id="paint32_linear" x1="1851.35" y1="246.514" x2="185.621" y2="1208.22" gradientUnits="userSpaceOnUse">
<stop stop-color="#67DE69"/>
<stop offset="1" stop-color="#0047B0"/>
</linearGradient>
<linearGradient id="paint33_linear" x1="1843.04" y1="246.674" x2="177.311" y2="1208.38" gradientUnits="userSpaceOnUse">
<stop stop-color="#67DE69"/>
<stop offset="1" stop-color="#0047B0"/>
</linearGradient>
<linearGradient id="paint34_linear" x1="1834.82" y1="247.886" x2="169.089" y2="1209.6" gradientUnits="userSpaceOnUse">
<stop stop-color="#67DE69"/>
<stop offset="1" stop-color="#0047B0"/>
</linearGradient>
<linearGradient id="paint35_linear" x1="1826.76" y1="249.898" x2="161.025" y2="1211.61" gradientUnits="userSpaceOnUse">
<stop stop-color="#67DE69"/>
<stop offset="1" stop-color="#0047B0"/>
</linearGradient>
<linearGradient id="paint36_linear" x1="1818.88" y1="252.558" x2="153.15" y2="1214.27" gradientUnits="userSpaceOnUse">
<stop stop-color="#67DE69"/>
<stop offset="1" stop-color="#0047B0"/>
</linearGradient>
<linearGradient id="paint37_linear" x1="1811.21" y1="255.768" x2="145.484" y2="1217.48" gradientUnits="userSpaceOnUse">
<stop stop-color="#67DE69"/>
<stop offset="1" stop-color="#0047B0"/>
</linearGradient>
<linearGradient id="paint38_linear" x1="1803.78" y1="259.475" x2="138.044" y2="1221.18" gradientUnits="userSpaceOnUse">
<stop stop-color="#67DE69"/>
<stop offset="1" stop-color="#0047B0"/>
</linearGradient>
<linearGradient id="paint39_linear" x1="1796.59" y1="263.644" x2="130.855" y2="1225.35" gradientUnits="userSpaceOnUse">
<stop stop-color="#67DE69"/>
<stop offset="1" stop-color="#0047B0"/>
</linearGradient>
<linearGradient id="paint40_linear" x1="1789.68" y1="268.264" x2="123.945" y2="1229.97" gradientUnits="userSpaceOnUse">
<stop stop-color="#67DE69"/>
<stop offset="1" stop-color="#0047B0"/>
</linearGradient>
<linearGradient id="paint41_linear" x1="1783.09" y1="273.334" x2="117.36" y2="1235.04" gradientUnits="userSpaceOnUse">
<stop stop-color="#67DE69"/>
<stop offset="1" stop-color="#0047B0"/>
</linearGradient>
<linearGradient id="paint42_linear" x1="1776.89" y1="278.87" x2="111.161" y2="1240.58" gradientUnits="userSpaceOnUse">
<stop stop-color="#67DE69"/>
<stop offset="1" stop-color="#0047B0"/>
</linearGradient>
<linearGradient id="paint43_linear" x1="1771.17" y1="284.895" x2="105.435" y2="1246.6" gradientUnits="userSpaceOnUse">
<stop stop-color="#67DE69"/>
<stop offset="1" stop-color="#0047B0"/>
</linearGradient>
<linearGradient id="paint44_linear" x1="1766.04" y1="291.44" x2="100.312" y2="1253.15" gradientUnits="userSpaceOnUse">
<stop stop-color="#67DE69"/>
<stop offset="1" stop-color="#0047B0"/>
</linearGradient>
<linearGradient id="paint45_linear" x1="1761.71" y1="298.531" x2="95.977" y2="1260.24" gradientUnits="userSpaceOnUse">
<stop stop-color="#67DE69"/>
<stop offset="1" stop-color="#0047B0"/>
</linearGradient>
<linearGradient id="paint46_linear" x1="1758.42" y1="306.165" x2="92.6899" y2="1267.87" gradientUnits="userSpaceOnUse">
<stop stop-color="#67DE69"/>
<stop offset="1" stop-color="#0047B0"/>
</linearGradient>
<linearGradient id="paint47_linear" x1="1756.51" y1="314.254" x2="90.7837" y2="1275.96" gradientUnits="userSpaceOnUse">
<stop stop-color="#67DE69"/>
<stop offset="1" stop-color="#0047B0"/>
</linearGradient>
<linearGradient id="paint48_linear" x1="1756.32" y1="322.564" x2="90.5923" y2="1284.27" gradientUnits="userSpaceOnUse">
<stop stop-color="#67DE69"/>
<stop offset="1" stop-color="#0047B0"/>
</linearGradient>
<linearGradient id="paint49_linear" x1="1758.01" y1="330.703" x2="92.2773" y2="1292.41" gradientUnits="userSpaceOnUse">
<stop stop-color="#67DE69"/>
<stop offset="1" stop-color="#0047B0"/>
</linearGradient>
<linearGradient id="paint50_linear" x1="2038.18" y1="127.478" x2="372.447" y2="1089.19" gradientUnits="userSpaceOnUse">
<stop stop-color="#67DE69"/>
<stop offset="1" stop-color="#0047B0"/>
</linearGradient>
<linearGradient id="paint51_linear" x1="2040.22" y1="133.513" x2="374.485" y2="1095.22" gradientUnits="userSpaceOnUse">
<stop stop-color="#67DE69"/>
<stop offset="1" stop-color="#0047B0"/>
</linearGradient>
<linearGradient id="paint52_linear" x1="2041.56" y1="141.713" x2="375.832" y2="1103.42" gradientUnits="userSpaceOnUse">
<stop stop-color="#67DE69"/>
<stop offset="1" stop-color="#0047B0"/>
</linearGradient>
<linearGradient id="paint53_linear" x1="2041.38" y1="150.023" x2="375.653" y2="1111.73" gradientUnits="userSpaceOnUse">
<stop stop-color="#67DE69"/>
<stop offset="1" stop-color="#0047B0"/>
</linearGradient>
<linearGradient id="paint54_linear" x1="2039.81" y1="158.18" x2="374.079" y2="1119.89" gradientUnits="userSpaceOnUse">
<stop stop-color="#67DE69"/>
<stop offset="1" stop-color="#0047B0"/>
</linearGradient>
<linearGradient id="paint55_linear" x1="2037.07" y1="166.02" x2="371.339" y2="1127.73" gradientUnits="userSpaceOnUse">
<stop stop-color="#67DE69"/>
<stop offset="1" stop-color="#0047B0"/>
</linearGradient>
<linearGradient id="paint56_linear" x1="2033.41" y1="173.472" x2="367.676" y2="1135.18" gradientUnits="userSpaceOnUse">
<stop stop-color="#67DE69"/>
<stop offset="1" stop-color="#0047B0"/>
</linearGradient>
<linearGradient id="paint57_linear" x1="2029.02" y1="180.526" x2="363.293" y2="1142.24" gradientUnits="userSpaceOnUse">
<stop stop-color="#67DE69"/>
<stop offset="1" stop-color="#0047B0"/>
</linearGradient>
<linearGradient id="paint58_linear" x1="2024.08" y1="187.2" x2="358.348" y2="1148.91" gradientUnits="userSpaceOnUse">
<stop stop-color="#67DE69"/>
<stop offset="1" stop-color="#0047B0"/>
</linearGradient>
<linearGradient id="paint59_linear" x1="2018.69" y1="193.521" x2="352.958" y2="1155.23" gradientUnits="userSpaceOnUse">
<stop stop-color="#67DE69"/>
<stop offset="1" stop-color="#0047B0"/>
</linearGradient>
<linearGradient id="paint60_linear" x1="2012.94" y1="199.52" x2="347.209" y2="1161.23" gradientUnits="userSpaceOnUse">
<stop stop-color="#67DE69"/>
<stop offset="1" stop-color="#0047B0"/>
</linearGradient>
<linearGradient id="paint61_linear" x1="2006.9" y1="205.223" x2="341.166" y2="1166.93" gradientUnits="userSpaceOnUse">
<stop stop-color="#67DE69"/>
<stop offset="1" stop-color="#0047B0"/>
</linearGradient>
<linearGradient id="paint62_linear" x1="2000.61" y1="210.656" x2="334.878" y2="1172.37" gradientUnits="userSpaceOnUse">
<stop stop-color="#67DE69"/>
<stop offset="1" stop-color="#0047B0"/>
</linearGradient>
<linearGradient id="paint63_linear" x1="1994.11" y1="215.837" x2="328.38" y2="1177.55" gradientUnits="userSpaceOnUse">
<stop stop-color="#67DE69"/>
<stop offset="1" stop-color="#0047B0"/>
</linearGradient>
<linearGradient id="paint64_linear" x1="1987.43" y1="220.783" x2="321.701" y2="1182.49" gradientUnits="userSpaceOnUse">
<stop stop-color="#67DE69"/>
<stop offset="1" stop-color="#0047B0"/>
</linearGradient>
<linearGradient id="paint65_linear" x1="1980.59" y1="225.506" x2="314.862" y2="1187.22" gradientUnits="userSpaceOnUse">
<stop stop-color="#67DE69"/>
<stop offset="1" stop-color="#0047B0"/>
</linearGradient>
<linearGradient id="paint66_linear" x1="1973.61" y1="230.015" x2="307.88" y2="1191.73" gradientUnits="userSpaceOnUse">
<stop stop-color="#67DE69"/>
<stop offset="1" stop-color="#0047B0"/>
</linearGradient>
<linearGradient id="paint67_linear" x1="1966.5" y1="234.316" x2="300.768" y2="1196.03" gradientUnits="userSpaceOnUse">
<stop stop-color="#67DE69"/>
<stop offset="1" stop-color="#0047B0"/>
</linearGradient>
<linearGradient id="paint68_linear" x1="1959.27" y1="238.412" x2="293.536" y2="1200.12" gradientUnits="userSpaceOnUse">
<stop stop-color="#67DE69"/>
<stop offset="1" stop-color="#0047B0"/>
</linearGradient>
<linearGradient id="paint69_linear" x1="1951.92" y1="242.3" x2="286.192" y2="1204.01" gradientUnits="userSpaceOnUse">
<stop stop-color="#67DE69"/>
<stop offset="1" stop-color="#0047B0"/>
</linearGradient>
<linearGradient id="paint70_linear" x1="1944.47" y1="245.976" x2="278.74" y2="1207.69" gradientUnits="userSpaceOnUse">
<stop stop-color="#67DE69"/>
<stop offset="1" stop-color="#0047B0"/>
</linearGradient>
<linearGradient id="paint71_linear" x1="1936.91" y1="249.427" x2="271.184" y2="1211.14" gradientUnits="userSpaceOnUse">
<stop stop-color="#67DE69"/>
<stop offset="1" stop-color="#0047B0"/>
</linearGradient>
<linearGradient id="paint72_linear" x1="1929.26" y1="252.638" x2="263.524" y2="1214.35" gradientUnits="userSpaceOnUse">
<stop stop-color="#67DE69"/>
<stop offset="1" stop-color="#0047B0"/>
</linearGradient>
<linearGradient id="paint73_linear" x1="1921.49" y1="255.578" x2="255.763" y2="1217.29" gradientUnits="userSpaceOnUse">
<stop stop-color="#67DE69"/>
<stop offset="1" stop-color="#0047B0"/>
</linearGradient>
<linearGradient id="paint74_linear" x1="1913.63" y1="258.204" x2="247.894" y2="1219.91" gradientUnits="userSpaceOnUse">
<stop stop-color="#67DE69"/>
<stop offset="1" stop-color="#0047B0"/>
</linearGradient>
<linearGradient id="paint75_linear" x1="1905.64" y1="260.444" x2="239.907" y2="1222.15" gradientUnits="userSpaceOnUse">
<stop stop-color="#67DE69"/>
<stop offset="1" stop-color="#0047B0"/>
</linearGradient>
<linearGradient id="paint76_linear" x1="1897.6" y1="262.157" x2="231.865" y2="1223.87" gradientUnits="userSpaceOnUse">
<stop stop-color="#67DE69"/>
<stop offset="1" stop-color="#0047B0"/>
</linearGradient>
<linearGradient id="paint77_linear" x1="1889.63" y1="263.102" x2="223.9" y2="1224.81" gradientUnits="userSpaceOnUse">
<stop stop-color="#67DE69"/>
<stop offset="1" stop-color="#0047B0"/>
</linearGradient>
<linearGradient id="paint78_linear" x1="1879.65" y1="262.301" x2="213.922" y2="1224.01" gradientUnits="userSpaceOnUse">
<stop stop-color="#67DE69"/>
<stop offset="1" stop-color="#0047B0"/>
</linearGradient>
<linearGradient id="paint79_linear" x1="1873.04" y1="257.081" x2="207.306" y2="1218.79" gradientUnits="userSpaceOnUse">
<stop stop-color="#67DE69"/>
<stop offset="1" stop-color="#0047B0"/>
</linearGradient>
<linearGradient id="paint80_linear" x1="1867.15" y1="251.216" x2="201.416" y2="1212.93" gradientUnits="userSpaceOnUse">
<stop stop-color="#67DE69"/>
<stop offset="1" stop-color="#0047B0"/>
</linearGradient>
<linearGradient id="paint81_linear" x1="1859.56" y1="247.826" x2="193.828" y2="1209.54" gradientUnits="userSpaceOnUse">
<stop stop-color="#67DE69"/>
<stop offset="1" stop-color="#0047B0"/>
</linearGradient>
<linearGradient id="paint82_linear" x1="1851.35" y1="246.514" x2="185.621" y2="1208.22" gradientUnits="userSpaceOnUse">
<stop stop-color="#67DE69"/>
<stop offset="1" stop-color="#0047B0"/>
</linearGradient>
<linearGradient id="paint83_linear" x1="1843.04" y1="246.674" x2="177.311" y2="1208.38" gradientUnits="userSpaceOnUse">
<stop stop-color="#67DE69"/>
<stop offset="1" stop-color="#0047B0"/>
</linearGradient>
<linearGradient id="paint84_linear" x1="1834.82" y1="247.886" x2="169.089" y2="1209.6" gradientUnits="userSpaceOnUse">
<stop stop-color="#67DE69"/>
<stop offset="1" stop-color="#0047B0"/>
</linearGradient>
<linearGradient id="paint85_linear" x1="1826.76" y1="249.898" x2="161.025" y2="1211.61" gradientUnits="userSpaceOnUse">
<stop stop-color="#67DE69"/>
<stop offset="1" stop-color="#0047B0"/>
</linearGradient>
<linearGradient id="paint86_linear" x1="1818.88" y1="252.558" x2="153.15" y2="1214.27" gradientUnits="userSpaceOnUse">
<stop stop-color="#67DE69"/>
<stop offset="1" stop-color="#0047B0"/>
</linearGradient>
<linearGradient id="paint87_linear" x1="1811.21" y1="255.768" x2="145.484" y2="1217.48" gradientUnits="userSpaceOnUse">
<stop stop-color="#67DE69"/>
<stop offset="1" stop-color="#0047B0"/>
</linearGradient>
<linearGradient id="paint88_linear" x1="1803.78" y1="259.475" x2="138.044" y2="1221.18" gradientUnits="userSpaceOnUse">
<stop stop-color="#67DE69"/>
<stop offset="1" stop-color="#0047B0"/>
</linearGradient>
<linearGradient id="paint89_linear" x1="1796.59" y1="263.644" x2="130.855" y2="1225.35" gradientUnits="userSpaceOnUse">
<stop stop-color="#67DE69"/>
<stop offset="1" stop-color="#0047B0"/>
</linearGradient>
<linearGradient id="paint90_linear" x1="1789.68" y1="268.264" x2="123.945" y2="1229.97" gradientUnits="userSpaceOnUse">
<stop stop-color="#67DE69"/>
<stop offset="1" stop-color="#0047B0"/>
</linearGradient>
<linearGradient id="paint91_linear" x1="1783.09" y1="273.334" x2="117.36" y2="1235.04" gradientUnits="userSpaceOnUse">
<stop stop-color="#67DE69"/>
<stop offset="1" stop-color="#0047B0"/>
</linearGradient>
<linearGradient id="paint92_linear" x1="1776.89" y1="278.87" x2="111.161" y2="1240.58" gradientUnits="userSpaceOnUse">
<stop stop-color="#67DE69"/>
<stop offset="1" stop-color="#0047B0"/>
</linearGradient>
<linearGradient id="paint93_linear" x1="1771.17" y1="284.895" x2="105.435" y2="1246.6" gradientUnits="userSpaceOnUse">
<stop stop-color="#67DE69"/>
<stop offset="1" stop-color="#0047B0"/>
</linearGradient>
<linearGradient id="paint94_linear" x1="1766.04" y1="291.44" x2="100.312" y2="1253.15" gradientUnits="userSpaceOnUse">
<stop stop-color="#67DE69"/>
<stop offset="1" stop-color="#0047B0"/>
</linearGradient>
<linearGradient id="paint95_linear" x1="1761.71" y1="298.531" x2="95.977" y2="1260.24" gradientUnits="userSpaceOnUse">
<stop stop-color="#67DE69"/>
<stop offset="1" stop-color="#0047B0"/>
</linearGradient>
<linearGradient id="paint96_linear" x1="1758.42" y1="306.165" x2="92.6899" y2="1267.87" gradientUnits="userSpaceOnUse">
<stop stop-color="#67DE69"/>
<stop offset="1" stop-color="#0047B0"/>
</linearGradient>
<linearGradient id="paint97_linear" x1="1756.51" y1="314.254" x2="90.7837" y2="1275.96" gradientUnits="userSpaceOnUse">
<stop stop-color="#67DE69"/>
<stop offset="1" stop-color="#0047B0"/>
</linearGradient>
<linearGradient id="paint98_linear" x1="1756.32" y1="322.564" x2="90.5923" y2="1284.27" gradientUnits="userSpaceOnUse">
<stop stop-color="#67DE69"/>
<stop offset="1" stop-color="#0047B0"/>
</linearGradient>
<linearGradient id="paint99_linear" x1="1758.01" y1="330.703" x2="92.2773" y2="1292.41" gradientUnits="userSpaceOnUse">
<stop stop-color="#67DE69"/>
<stop offset="1" stop-color="#0047B0"/>
</linearGradient>
<linearGradient id="paint100_linear" x1="1761.42" y1="338.281" x2="95.6904" y2="1299.99" gradientUnits="userSpaceOnUse">
<stop stop-color="#67DE69"/>
<stop offset="1" stop-color="#0047B0"/>
</linearGradient>
</defs>
</svg>
