<svg width="4674" height="1670" viewBox="0 0 4674 1670" fill="none" xmlns="http://www.w3.org/2000/svg">
<path d="M89.4233 672.84C151.423 511.34 392.423 200.74 860.423 250.34C1445.42 312.34 1383.42 1083.84 2141.92 1158.34C2900.42 1232.84 3124.92 26.3398 4592.42 1.33984" stroke="url(#paint0_linear)"/>
<path d="M76.4175 675.29C138.417 513.79 379.417 203.19 847.417 252.79C1432.42 314.79 1370.42 1086.29 2128.92 1160.79C2887.42 1235.29 3111.92 28.7903 4579.42 3.79028" stroke="url(#paint1_linear)"/>
<path d="M64.7612 681.487C126.761 519.987 367.761 209.387 835.761 258.987C1420.76 320.987 1358.76 1092.49 2117.26 1166.99C2875.76 1241.49 3100.26 34.9871 4567.76 9.98706" stroke="url(#paint2_linear)"/>
<path d="M54.6147 689.95C116.615 528.45 357.615 217.85 825.615 267.45C1410.61 329.45 1348.61 1100.95 2107.11 1175.45C2865.61 1249.95 3090.11 43.4502 4557.61 18.4502" stroke="url(#paint3_linear)"/>
<path d="M45.769 699.791C107.769 538.291 348.769 227.691 816.769 277.291C1401.77 339.291 1339.77 1110.79 2098.27 1185.29C2856.77 1259.79 3081.27 53.2908 4548.77 28.2908" stroke="url(#paint4_linear)"/>
<path d="M38.0093 710.526C100.009 549.026 341.009 238.426 809.009 288.026C1394.01 350.026 1332.01 1121.53 2090.51 1196.03C2849.01 1270.53 3073.51 64.0259 4541.01 39.0259" stroke="url(#paint5_linear)"/>
<path d="M31.1675 721.882C93.1675 560.382 334.167 249.782 802.167 299.382C1387.17 361.382 1325.17 1132.88 2083.67 1207.38C2842.17 1281.88 3066.67 75.3816 4534.17 50.3816" stroke="url(#paint6_linear)"/>
<path d="M25.1362 733.694C87.1362 572.194 328.136 261.594 796.136 311.194C1381.14 373.194 1319.14 1144.69 2077.64 1219.19C2836.14 1293.69 3060.64 87.1938 4528.14 62.1938" stroke="url(#paint7_linear)"/>
<path d="M19.8335 745.856C81.8335 584.356 322.833 273.756 790.833 323.356C1375.83 385.356 1313.83 1156.86 2072.33 1231.36C2830.83 1305.86 3055.33 99.3562 4522.83 74.3562" stroke="url(#paint8_linear)"/>
<path d="M15.2144 758.297C77.2144 596.797 318.214 286.197 786.214 335.797C1371.21 397.797 1309.21 1169.3 2067.71 1243.8C2826.21 1318.3 3050.71 111.797 4518.21 86.7969" stroke="url(#paint9_linear)"/>
<path d="M11.2476 770.963C73.2476 609.463 314.248 298.863 782.248 348.463C1367.25 410.463 1305.25 1181.96 2063.75 1256.46C2822.25 1330.96 3046.75 124.463 4514.25 99.4626" stroke="url(#paint10_linear)"/>
<path d="M7.92334 783.813C69.9233 622.313 310.923 311.713 778.923 361.313C1363.92 423.313 1301.92 1194.81 2060.42 1269.31C2818.92 1343.81 3043.42 137.313 4510.92 112.313" stroke="url(#paint11_linear)"/>
<path d="M5.23975 796.813C67.2397 635.313 308.24 324.713 776.24 374.313C1361.24 436.313 1299.24 1207.81 2057.74 1282.31C2816.24 1356.81 3040.74 150.313 4508.24 125.313" stroke="url(#paint12_linear)"/>
<path d="M3.21631 809.932C65.2163 648.432 306.216 337.832 774.216 387.432C1359.22 449.432 1297.22 1220.93 2055.72 1295.43C2814.22 1369.93 3038.72 163.432 4506.22 138.432" stroke="url(#paint13_linear)"/>
<path d="M1.87646 823.139C63.8765 661.639 304.876 351.039 772.876 400.639C1357.88 462.639 1295.88 1234.14 2054.38 1308.64C2812.88 1383.14 3037.38 176.639 4504.88 151.639" stroke="url(#paint14_linear)"/>
<path d="M1.25928 836.399C63.2593 674.899 304.259 364.299 772.259 413.899C1357.26 475.899 1295.26 1247.4 2053.76 1321.9C2812.26 1396.4 3036.76 189.899 4504.26 164.899" stroke="url(#paint15_linear)"/>
<path d="M1.42139 849.672C63.4214 688.172 304.421 377.572 772.421 427.172C1357.42 489.172 1295.42 1260.67 2053.92 1335.17C2812.42 1409.67 3036.92 203.172 4504.42 178.172" stroke="url(#paint16_linear)"/>
<path d="M2.42334 862.908C64.4233 701.408 305.423 390.808 773.423 440.408C1358.42 502.408 1296.42 1273.91 2054.92 1348.41C2813.42 1422.91 3037.92 216.408 4505.42 191.408" stroke="url(#paint17_linear)"/>
<path d="M4.34717 876.041C66.3472 714.541 307.347 403.941 775.347 453.541C1360.35 515.541 1298.35 1287.04 2056.85 1361.54C2815.35 1436.04 3039.85 229.541 4507.35 204.541" stroke="url(#paint18_linear)"/>
<path d="M7.28271 888.985C69.2827 727.485 310.283 416.885 778.283 466.485C1363.28 528.485 1301.28 1299.99 2059.78 1374.49C2818.28 1448.99 3042.78 242.485 4510.28 217.485" stroke="url(#paint19_linear)"/>
<path d="M11.3257 901.627C73.3257 740.127 314.326 429.527 782.326 479.127C1367.33 541.127 1305.33 1312.63 2063.83 1387.13C2822.33 1461.63 3046.83 255.127 4514.33 230.127" stroke="url(#paint20_linear)"/>
<path d="M16.5757 913.818C78.5757 752.318 319.576 441.718 787.576 491.318C1372.58 553.318 1310.58 1324.82 2069.08 1399.32C2827.58 1473.82 3052.08 267.318 4519.58 242.318" stroke="url(#paint21_linear)"/>
<path d="M23.1089 925.375C85.1089 763.875 326.109 453.275 794.109 502.875C1379.11 564.875 1317.11 1336.37 2075.61 1410.87C2834.11 1485.37 3058.61 278.875 4526.11 253.875" stroke="url(#paint22_linear)"/>
<path d="M30.9565 936.081C92.9565 774.581 333.957 463.981 801.957 513.581C1386.96 575.581 1324.96 1347.08 2083.46 1421.58C2841.96 1496.08 3066.46 289.581 4533.96 264.581" stroke="url(#paint23_linear)"/>
<path d="M40.0854 945.716C102.085 784.216 343.085 473.616 811.085 523.216C1396.09 585.216 1334.09 1356.72 2092.59 1431.22C2851.09 1505.72 3075.59 299.216 4543.09 274.216" stroke="url(#paint24_linear)"/>
<path d="M50.3784 954.087C112.378 792.587 353.378 481.987 821.378 531.587C1406.38 593.587 1344.38 1365.09 2102.88 1439.59C2861.38 1514.09 3085.88 307.587 4553.38 282.587" stroke="url(#paint25_linear)"/>
<path d="M61.6538 961.072C123.654 799.572 364.654 488.972 832.654 538.572C1417.65 600.572 1355.65 1372.07 2114.15 1446.57C2872.65 1521.07 3097.15 314.572 4564.65 289.572" stroke="url(#paint26_linear)"/>
<path d="M73.6909 966.636C135.691 805.136 376.691 494.536 844.691 544.136C1429.69 606.136 1367.69 1377.64 2126.19 1452.14C2884.69 1526.64 3109.19 320.136 4576.69 295.136" stroke="url(#paint27_linear)"/>
<path d="M86.3433 970.845C148.343 809.345 389.343 498.745 857.343 548.345C1442.34 610.345 1380.34 1381.84 2138.84 1456.34C2897.34 1530.84 3121.84 324.344 4589.34 299.344" stroke="url(#paint28_linear)"/>
<path d="M98.9019 974.413C160.902 812.913 401.902 502.313 869.902 551.913C1454.9 613.913 1392.9 1385.41 2151.4 1459.91C2909.9 1534.41 3134.4 327.913 4601.9 302.913" stroke="url(#paint29_linear)"/>
<path d="M111.234 979.328C173.234 817.828 414.234 507.228 882.234 556.828C1467.23 618.828 1405.23 1390.33 2163.73 1464.83C2922.23 1539.33 3146.73 332.828 4614.23 307.828" stroke="url(#paint30_linear)"/>
<path d="M122.882 985.694C184.882 824.194 425.882 513.594 893.882 563.194C1478.88 625.194 1416.88 1396.69 2175.38 1471.19C2933.88 1545.69 3158.38 339.194 4625.88 314.194" stroke="url(#paint31_linear)"/>
<path d="M133.605 993.518C195.605 832.018 436.605 521.418 904.605 571.018C1489.6 633.018 1427.6 1404.52 2186.1 1479.02C2944.6 1553.52 3169.1 347.018 4636.6 322.018" stroke="url(#paint32_linear)"/>
<path d="M143.171 1002.72C205.171 841.222 446.171 530.622 914.171 580.222C1499.17 642.222 1437.17 1413.72 2195.67 1488.22C2954.17 1562.72 3178.67 356.222 4646.17 331.222" stroke="url(#paint33_linear)"/>
<path d="M151.388 1013.15C213.388 851.648 454.388 541.048 922.388 590.648C1507.39 652.648 1445.39 1424.15 2203.89 1498.65C2962.39 1573.15 3186.89 366.647 4654.39 341.647" stroke="url(#paint34_linear)"/>
<path d="M158.136 1024.58C220.136 863.079 461.136 552.479 929.136 602.079C1514.14 664.079 1452.14 1435.58 2210.64 1510.08C2969.14 1584.58 3193.64 378.079 4661.14 353.079" stroke="url(#paint35_linear)"/>
<path d="M163.369 1036.78C225.369 875.279 466.369 564.679 934.369 614.279C1519.37 676.279 1457.37 1447.78 2215.87 1522.28C2974.37 1596.78 3198.87 390.279 4666.37 365.279" stroke="url(#paint36_linear)"/>
<path d="M167.089 1049.52C229.089 888.021 470.089 577.421 938.089 627.021C1523.09 689.021 1461.09 1460.52 2219.59 1535.02C2978.09 1609.52 3202.59 403.021 4670.09 378.021" stroke="url(#paint37_linear)"/>
<path d="M169.339 1062.6C231.339 901.104 472.339 590.504 940.339 640.104C1525.34 702.104 1463.34 1473.6 2221.84 1548.1C2980.34 1622.6 3204.84 416.104 4672.34 391.104" stroke="url(#paint38_linear)"/>
<path d="M170.166 1075.85C232.166 914.352 473.166 603.752 941.166 653.352C1526.17 715.352 1464.17 1486.85 2222.67 1561.35C2981.17 1635.85 3205.67 429.352 4673.17 404.352" stroke="url(#paint39_linear)"/>
<path d="M169.615 1089.12C231.615 927.615 472.615 617.015 940.615 666.615C1525.61 728.615 1463.61 1500.12 2222.11 1574.62C2980.61 1649.12 3205.11 442.615 4672.61 417.615" stroke="url(#paint40_linear)"/>
<path d="M167.712 1102.25C229.712 940.753 470.712 630.153 938.712 679.753C1523.71 741.753 1461.71 1513.25 2220.21 1587.75C2978.71 1662.25 3203.21 455.753 4670.71 430.753" stroke="url(#paint41_linear)"/>
<path d="M164.466 1115.12C226.466 953.624 467.466 643.024 935.466 692.624C1520.47 754.624 1458.47 1526.12 2216.97 1600.62C2975.47 1675.12 3199.97 468.624 4667.47 443.624" stroke="url(#paint42_linear)"/>
<path d="M159.861 1127.57C221.861 966.074 462.861 655.474 930.861 705.074C1515.86 767.074 1453.86 1538.57 2212.36 1613.07C2970.86 1687.57 3195.36 481.074 4662.86 456.074" stroke="url(#paint43_linear)"/>
<path d="M153.859 1139.41C215.859 977.915 456.859 667.315 924.859 716.915C1509.86 778.915 1447.86 1550.41 2206.36 1624.91C2964.86 1699.41 3189.36 492.915 4656.86 467.915" stroke="url(#paint44_linear)"/>
<path d="M146.414 1150.4C208.414 988.904 449.414 678.304 917.414 727.904C1502.41 789.904 1440.41 1561.4 2198.91 1635.9C2957.41 1710.4 3181.91 503.904 4649.41 478.904" stroke="url(#paint45_linear)"/>
<path d="M137.484 1160.23C199.484 998.728 440.484 688.128 908.484 737.728C1493.48 799.728 1431.48 1571.23 2189.98 1645.73C2948.48 1720.23 3172.98 513.728 4640.48 488.728" stroke="url(#paint46_linear)"/>
<path d="M127.091 1168.49C189.091 1006.99 430.091 696.386 898.091 745.986C1483.09 807.986 1421.09 1579.49 2179.59 1653.99C2938.09 1728.49 3162.59 521.986 4630.09 496.986" stroke="url(#paint47_linear)"/>
<path d="M115.378 1174.73C177.378 1013.23 418.378 702.63 886.378 752.23C1471.38 814.23 1409.38 1585.73 2167.88 1660.23C2926.38 1734.73 3150.88 528.23 4618.38 503.23" stroke="url(#paint48_linear)"/>
<path d="M102.671 1178.57C164.671 1017.07 405.671 706.474 873.671 756.074C1458.67 818.074 1396.67 1589.57 2155.17 1664.07C2913.67 1738.57 3138.17 532.074 4605.67 507.074" stroke="url(#paint49_linear)"/>
<path d="M89.4585 1179.84C151.458 1018.34 392.458 707.744 860.458 757.344C1445.46 819.344 1383.46 1590.84 2141.96 1665.34C2900.46 1739.84 3124.96 533.344 4592.46 508.344" stroke="url(#paint50_linear)"/>
<defs>
<linearGradient id="paint0_linear" x1="2340.92" y1="1.33984" x2="2340.92" y2="1161.65" gradientUnits="userSpaceOnUse">
<stop stop-color="#67DE69"/>
<stop offset="1" stop-color="#0047B0"/>
</linearGradient>
<linearGradient id="paint1_linear" x1="2327.92" y1="3.79028" x2="2327.92" y2="1164.1" gradientUnits="userSpaceOnUse">
<stop stop-color="#67DE69"/>
<stop offset="1" stop-color="#0047B0"/>
</linearGradient>
<linearGradient id="paint2_linear" x1="2316.26" y1="9.98706" x2="2316.26" y2="1170.3" gradientUnits="userSpaceOnUse">
<stop stop-color="#67DE69"/>
<stop offset="1" stop-color="#0047B0"/>
</linearGradient>
<linearGradient id="paint3_linear" x1="2306.11" y1="18.4502" x2="2306.11" y2="1178.76" gradientUnits="userSpaceOnUse">
<stop stop-color="#67DE69"/>
<stop offset="1" stop-color="#0047B0"/>
</linearGradient>
<linearGradient id="paint4_linear" x1="2297.27" y1="28.2908" x2="2297.27" y2="1188.6" gradientUnits="userSpaceOnUse">
<stop stop-color="#67DE69"/>
<stop offset="1" stop-color="#0047B0"/>
</linearGradient>
<linearGradient id="paint5_linear" x1="2289.51" y1="39.0259" x2="2289.51" y2="1199.34" gradientUnits="userSpaceOnUse">
<stop stop-color="#67DE69"/>
<stop offset="1" stop-color="#0047B0"/>
</linearGradient>
<linearGradient id="paint6_linear" x1="2282.67" y1="50.3816" x2="2282.67" y2="1210.69" gradientUnits="userSpaceOnUse">
<stop stop-color="#67DE69"/>
<stop offset="1" stop-color="#0047B0"/>
</linearGradient>
<linearGradient id="paint7_linear" x1="2276.64" y1="62.1938" x2="2276.64" y2="1222.51" gradientUnits="userSpaceOnUse">
<stop stop-color="#67DE69"/>
<stop offset="1" stop-color="#0047B0"/>
</linearGradient>
<linearGradient id="paint8_linear" x1="2271.33" y1="74.3562" x2="2271.33" y2="1234.67" gradientUnits="userSpaceOnUse">
<stop stop-color="#67DE69"/>
<stop offset="1" stop-color="#0047B0"/>
</linearGradient>
<linearGradient id="paint9_linear" x1="2266.71" y1="86.7969" x2="2266.71" y2="1247.11" gradientUnits="userSpaceOnUse">
<stop stop-color="#67DE69"/>
<stop offset="1" stop-color="#0047B0"/>
</linearGradient>
<linearGradient id="paint10_linear" x1="2262.75" y1="99.4626" x2="2262.75" y2="1259.78" gradientUnits="userSpaceOnUse">
<stop stop-color="#67DE69"/>
<stop offset="1" stop-color="#0047B0"/>
</linearGradient>
<linearGradient id="paint11_linear" x1="2259.42" y1="112.313" x2="2259.42" y2="1272.63" gradientUnits="userSpaceOnUse">
<stop stop-color="#67DE69"/>
<stop offset="1" stop-color="#0047B0"/>
</linearGradient>
<linearGradient id="paint12_linear" x1="2256.74" y1="125.313" x2="2256.74" y2="1285.63" gradientUnits="userSpaceOnUse">
<stop stop-color="#67DE69"/>
<stop offset="1" stop-color="#0047B0"/>
</linearGradient>
<linearGradient id="paint13_linear" x1="2254.72" y1="138.432" x2="2254.72" y2="1298.75" gradientUnits="userSpaceOnUse">
<stop stop-color="#67DE69"/>
<stop offset="1" stop-color="#0047B0"/>
</linearGradient>
<linearGradient id="paint14_linear" x1="2253.38" y1="151.639" x2="2253.38" y2="1311.95" gradientUnits="userSpaceOnUse">
<stop stop-color="#67DE69"/>
<stop offset="1" stop-color="#0047B0"/>
</linearGradient>
<linearGradient id="paint15_linear" x1="2252.76" y1="164.899" x2="2252.76" y2="1325.21" gradientUnits="userSpaceOnUse">
<stop stop-color="#67DE69"/>
<stop offset="1" stop-color="#0047B0"/>
</linearGradient>
<linearGradient id="paint16_linear" x1="2252.92" y1="178.172" x2="2252.92" y2="1338.48" gradientUnits="userSpaceOnUse">
<stop stop-color="#67DE69"/>
<stop offset="1" stop-color="#0047B0"/>
</linearGradient>
<linearGradient id="paint17_linear" x1="2253.92" y1="191.408" x2="2253.92" y2="1351.72" gradientUnits="userSpaceOnUse">
<stop stop-color="#67DE69"/>
<stop offset="1" stop-color="#0047B0"/>
</linearGradient>
<linearGradient id="paint18_linear" x1="2255.85" y1="204.541" x2="2255.85" y2="1364.85" gradientUnits="userSpaceOnUse">
<stop stop-color="#67DE69"/>
<stop offset="1" stop-color="#0047B0"/>
</linearGradient>
<linearGradient id="paint19_linear" x1="2258.78" y1="217.485" x2="2258.78" y2="1377.8" gradientUnits="userSpaceOnUse">
<stop stop-color="#67DE69"/>
<stop offset="1" stop-color="#0047B0"/>
</linearGradient>
<linearGradient id="paint20_linear" x1="2262.83" y1="230.127" x2="2262.83" y2="1390.44" gradientUnits="userSpaceOnUse">
<stop stop-color="#67DE69"/>
<stop offset="1" stop-color="#0047B0"/>
</linearGradient>
<linearGradient id="paint21_linear" x1="2268.08" y1="242.318" x2="2268.08" y2="1402.63" gradientUnits="userSpaceOnUse">
<stop stop-color="#67DE69"/>
<stop offset="1" stop-color="#0047B0"/>
</linearGradient>
<linearGradient id="paint22_linear" x1="2274.61" y1="253.875" x2="2274.61" y2="1414.19" gradientUnits="userSpaceOnUse">
<stop stop-color="#67DE69"/>
<stop offset="1" stop-color="#0047B0"/>
</linearGradient>
<linearGradient id="paint23_linear" x1="2282.46" y1="264.581" x2="2282.46" y2="1424.89" gradientUnits="userSpaceOnUse">
<stop stop-color="#67DE69"/>
<stop offset="1" stop-color="#0047B0"/>
</linearGradient>
<linearGradient id="paint24_linear" x1="2291.59" y1="274.216" x2="2291.59" y2="1434.53" gradientUnits="userSpaceOnUse">
<stop stop-color="#67DE69"/>
<stop offset="1" stop-color="#0047B0"/>
</linearGradient>
<linearGradient id="paint25_linear" x1="2301.88" y1="282.587" x2="2301.88" y2="1442.9" gradientUnits="userSpaceOnUse">
<stop stop-color="#67DE69"/>
<stop offset="1" stop-color="#0047B0"/>
</linearGradient>
<linearGradient id="paint26_linear" x1="2313.15" y1="289.572" x2="2313.15" y2="1449.89" gradientUnits="userSpaceOnUse">
<stop stop-color="#67DE69"/>
<stop offset="1" stop-color="#0047B0"/>
</linearGradient>
<linearGradient id="paint27_linear" x1="2325.19" y1="295.136" x2="2325.19" y2="1455.45" gradientUnits="userSpaceOnUse">
<stop stop-color="#67DE69"/>
<stop offset="1" stop-color="#0047B0"/>
</linearGradient>
<linearGradient id="paint28_linear" x1="2337.84" y1="299.344" x2="2337.84" y2="1459.66" gradientUnits="userSpaceOnUse">
<stop stop-color="#67DE69"/>
<stop offset="1" stop-color="#0047B0"/>
</linearGradient>
<linearGradient id="paint29_linear" x1="2350.4" y1="302.913" x2="2350.4" y2="1463.23" gradientUnits="userSpaceOnUse">
<stop stop-color="#67DE69"/>
<stop offset="1" stop-color="#0047B0"/>
</linearGradient>
<linearGradient id="paint30_linear" x1="2362.73" y1="307.828" x2="2362.73" y2="1468.14" gradientUnits="userSpaceOnUse">
<stop stop-color="#67DE69"/>
<stop offset="1" stop-color="#0047B0"/>
</linearGradient>
<linearGradient id="paint31_linear" x1="2374.38" y1="314.194" x2="2374.38" y2="1474.51" gradientUnits="userSpaceOnUse">
<stop stop-color="#67DE69"/>
<stop offset="1" stop-color="#0047B0"/>
</linearGradient>
<linearGradient id="paint32_linear" x1="2385.1" y1="322.018" x2="2385.1" y2="1482.33" gradientUnits="userSpaceOnUse">
<stop stop-color="#67DE69"/>
<stop offset="1" stop-color="#0047B0"/>
</linearGradient>
<linearGradient id="paint33_linear" x1="2394.67" y1="331.222" x2="2394.67" y2="1491.53" gradientUnits="userSpaceOnUse">
<stop stop-color="#67DE69"/>
<stop offset="1" stop-color="#0047B0"/>
</linearGradient>
<linearGradient id="paint34_linear" x1="2402.89" y1="341.647" x2="2402.89" y2="1501.96" gradientUnits="userSpaceOnUse">
<stop stop-color="#67DE69"/>
<stop offset="1" stop-color="#0047B0"/>
</linearGradient>
<linearGradient id="paint35_linear" x1="2409.64" y1="353.079" x2="2409.64" y2="1513.39" gradientUnits="userSpaceOnUse">
<stop stop-color="#67DE69"/>
<stop offset="1" stop-color="#0047B0"/>
</linearGradient>
<linearGradient id="paint36_linear" x1="2414.87" y1="365.279" x2="2414.87" y2="1525.59" gradientUnits="userSpaceOnUse">
<stop stop-color="#67DE69"/>
<stop offset="1" stop-color="#0047B0"/>
</linearGradient>
<linearGradient id="paint37_linear" x1="2418.59" y1="378.021" x2="2418.59" y2="1538.33" gradientUnits="userSpaceOnUse">
<stop stop-color="#67DE69"/>
<stop offset="1" stop-color="#0047B0"/>
</linearGradient>
<linearGradient id="paint38_linear" x1="2420.84" y1="391.104" x2="2420.84" y2="1551.42" gradientUnits="userSpaceOnUse">
<stop stop-color="#67DE69"/>
<stop offset="1" stop-color="#0047B0"/>
</linearGradient>
<linearGradient id="paint39_linear" x1="2421.67" y1="404.352" x2="2421.67" y2="1564.67" gradientUnits="userSpaceOnUse">
<stop stop-color="#67DE69"/>
<stop offset="1" stop-color="#0047B0"/>
</linearGradient>
<linearGradient id="paint40_linear" x1="2421.11" y1="417.615" x2="2421.11" y2="1577.93" gradientUnits="userSpaceOnUse">
<stop stop-color="#67DE69"/>
<stop offset="1" stop-color="#0047B0"/>
</linearGradient>
<linearGradient id="paint41_linear" x1="2419.21" y1="430.753" x2="2419.21" y2="1591.07" gradientUnits="userSpaceOnUse">
<stop stop-color="#67DE69"/>
<stop offset="1" stop-color="#0047B0"/>
</linearGradient>
<linearGradient id="paint42_linear" x1="2415.97" y1="443.624" x2="2415.97" y2="1603.94" gradientUnits="userSpaceOnUse">
<stop stop-color="#67DE69"/>
<stop offset="1" stop-color="#0047B0"/>
</linearGradient>
<linearGradient id="paint43_linear" x1="2411.36" y1="456.074" x2="2411.36" y2="1616.39" gradientUnits="userSpaceOnUse">
<stop stop-color="#67DE69"/>
<stop offset="1" stop-color="#0047B0"/>
</linearGradient>
<linearGradient id="paint44_linear" x1="2405.36" y1="467.915" x2="2405.36" y2="1628.23" gradientUnits="userSpaceOnUse">
<stop stop-color="#67DE69"/>
<stop offset="1" stop-color="#0047B0"/>
</linearGradient>
<linearGradient id="paint45_linear" x1="2397.91" y1="478.904" x2="2397.91" y2="1639.22" gradientUnits="userSpaceOnUse">
<stop stop-color="#67DE69"/>
<stop offset="1" stop-color="#0047B0"/>
</linearGradient>
<linearGradient id="paint46_linear" x1="2388.98" y1="488.728" x2="2388.98" y2="1649.04" gradientUnits="userSpaceOnUse">
<stop stop-color="#67DE69"/>
<stop offset="1" stop-color="#0047B0"/>
</linearGradient>
<linearGradient id="paint47_linear" x1="2378.59" y1="496.986" x2="2378.59" y2="1657.3" gradientUnits="userSpaceOnUse">
<stop stop-color="#67DE69"/>
<stop offset="1" stop-color="#0047B0"/>
</linearGradient>
<linearGradient id="paint48_linear" x1="2366.88" y1="503.23" x2="2366.88" y2="1663.54" gradientUnits="userSpaceOnUse">
<stop stop-color="#67DE69"/>
<stop offset="1" stop-color="#0047B0"/>
</linearGradient>
<linearGradient id="paint49_linear" x1="2354.17" y1="507.074" x2="2354.17" y2="1667.39" gradientUnits="userSpaceOnUse">
<stop stop-color="#67DE69"/>
<stop offset="1" stop-color="#0047B0"/>
</linearGradient>
<linearGradient id="paint50_linear" x1="2340.96" y1="508.344" x2="2340.96" y2="1668.66" gradientUnits="userSpaceOnUse">
<stop stop-color="#67DE69"/>
<stop offset="1" stop-color="#0047B0"/>
</linearGradient>
</defs>
</svg>
