<svg width="504" height="289" viewBox="0 0 504 289" fill="none" xmlns="http://www.w3.org/2000/svg">
<g opacity="0.1">
<g opacity="0.1">
<path opacity="0.1" d="M503.789 249.001C503.789 227.252 391.013 209.619 251.895 209.619C112.777 209.619 0.000854492 227.252 0.000854492 249.001C0.000854492 270.752 112.777 288.383 251.895 288.383C391.013 288.383 503.789 270.752 503.789 249.001Z" fill="url(#paint0_linear)" stroke="url(#paint1_linear)" stroke-width="0.00361446" stroke-miterlimit="10"/>
</g>
</g>
<g opacity="0.2">
<g opacity="0.2">
<path opacity="0.2" d="M480.2 245.059C480.2 242.846 478.607 240.685 475.573 238.598C472.54 236.511 468.065 234.498 462.303 232.58C450.778 228.744 434.102 225.289 413.495 222.388C372.281 216.586 315.344 212.998 252.455 212.998C189.564 212.998 132.628 216.586 91.4138 222.388C70.8069 225.289 54.1306 228.744 42.6062 232.58C36.844 234.498 32.3698 236.511 29.3362 238.598C26.3025 240.685 24.7097 242.846 24.7097 245.059C24.7097 247.272 26.3025 249.433 29.3362 251.52C32.3698 253.607 36.844 255.62 42.6062 257.538C54.1306 261.373 70.8069 264.828 91.4138 267.729C132.628 273.531 189.564 277.119 252.455 277.119C315.344 277.119 372.281 273.531 413.495 267.729C434.102 264.828 450.778 261.373 462.303 257.538C468.065 255.62 472.54 253.607 475.573 251.52C478.607 249.433 480.2 247.272 480.2 245.059Z" fill="url(#paint2_linear)" stroke="url(#paint3_linear)" stroke-width="0.00240964"/>
</g>
</g>
<g opacity="0.3">
<g opacity="0.3">
<path opacity="0.3" d="M422.944 240.913C422.944 239.245 421.744 237.616 419.457 236.043C417.17 234.47 413.798 232.953 409.454 231.507C400.767 228.616 388.197 226.012 372.663 223.825C341.597 219.452 298.679 216.747 251.273 216.747C203.867 216.747 160.95 219.452 129.884 223.825C114.35 226.012 101.78 228.616 93.0934 231.507C88.7499 232.953 85.3774 234.47 83.0907 236.043C80.804 237.616 79.6035 239.245 79.6035 240.913C79.6035 242.58 80.804 244.209 83.0907 245.782C85.3774 247.355 88.7499 248.873 93.0934 250.319C101.78 253.21 114.35 255.814 129.884 258.001C160.95 262.374 203.867 265.079 251.273 265.079C298.679 265.079 341.597 262.374 372.663 258.001C388.197 255.814 400.767 253.21 409.454 250.319C413.798 248.873 417.17 247.355 419.457 245.782C421.744 244.209 422.944 242.58 422.944 240.913Z" fill="url(#paint4_linear)" stroke="url(#paint5_linear)" stroke-width="0.00240964"/>
</g>
</g>
<g opacity="0.5">
<g opacity="0.5">
<path opacity="0.5" d="M56.2636 243.724C56.2636 228.107 144.298 215.447 252.895 215.447C361.491 215.447 449.525 228.107 449.525 243.724C449.525 259.341 361.491 272.001 252.895 272.001C144.298 272.001 56.2636 259.341 56.2636 243.724Z" fill="url(#paint6_linear)" stroke="url(#paint7_linear)" stroke-width="0.00120482" stroke-miterlimit="10" stroke-dasharray="0.01 0.01"/>
</g>
</g>
<g opacity="0.5">
<g opacity="0.5">
<path opacity="0.5" d="M104.531 240.246C104.531 229.64 170.53 221.043 251.944 221.043C333.358 221.043 399.357 229.64 399.357 240.246C399.357 250.852 333.358 259.45 251.944 259.45C170.53 259.45 104.531 250.852 104.531 240.246Z" fill="url(#paint8_linear)" stroke="url(#paint9_linear)" stroke-width="0.00120482" stroke-miterlimit="10" stroke-dasharray="0.01 0.01"/>
</g>
</g>
<g opacity="0.5">
<g opacity="0.5">
<path opacity="0.5" d="M381.903 239.619C381.903 238.497 380.998 237.401 379.274 236.342C377.55 235.284 375.007 234.262 371.733 233.289C365.183 231.344 355.706 229.591 343.994 228.119C320.572 225.176 288.214 223.355 252.472 223.355C216.731 223.355 184.372 225.176 160.949 228.119C149.238 229.591 139.76 231.344 133.211 233.289C129.936 234.262 127.393 235.284 125.669 236.342C123.945 237.401 123.04 238.497 123.04 239.619C123.04 240.742 123.945 241.838 125.669 242.896C127.393 243.955 129.936 244.977 133.211 245.95C139.76 247.896 149.238 249.649 160.949 251.12C184.372 254.064 216.731 255.885 252.472 255.885C288.214 255.885 320.572 254.064 343.994 251.12C355.706 249.649 365.183 247.896 371.733 245.95C375.007 244.977 377.55 243.955 379.274 242.896C380.998 241.838 381.903 240.742 381.903 239.619Z" fill="url(#paint10_linear)" stroke="url(#paint11_linear)" stroke-width="0.00240964"/>
</g>
</g>
<path d="M360.386 232.498H360.386H370.688V237.55C370.688 237.977 370.481 238.399 370.076 238.815C369.67 239.232 369.067 239.642 368.276 240.045C366.694 240.851 364.361 241.629 361.356 242.37C355.346 243.852 346.65 245.186 335.904 246.307C314.412 248.549 284.72 249.935 251.924 249.935C219.127 249.935 189.435 248.549 167.943 246.307C157.196 245.186 148.5 243.852 142.49 242.37C139.485 241.629 137.152 240.851 135.57 240.045C134.779 239.642 134.176 239.232 133.77 238.815C133.365 238.399 133.157 237.977 133.157 237.55V232.498H143.461V232.499L143.461 232.498C161.999 228.176 203.587 225.163 251.924 225.163C300.258 225.163 341.846 228.176 360.386 232.498Z" fill="url(#paint12_linear)" stroke="url(#paint13_linear)" stroke-width="0.00240964"/>
<path d="M370.686 232.483C370.686 232.056 370.479 231.634 370.073 231.217C369.668 230.801 369.065 230.391 368.274 229.988C366.692 229.181 364.359 228.404 361.354 227.663C355.344 226.181 346.648 224.846 335.901 223.725C314.409 221.483 284.717 220.097 251.921 220.097C219.125 220.097 189.433 221.483 167.94 223.725C157.194 224.846 148.498 226.181 142.488 227.663C139.483 228.404 137.15 229.181 135.568 229.988C134.777 230.391 134.174 230.801 133.768 231.217C133.363 231.634 133.155 232.056 133.155 232.483C133.155 232.91 133.363 233.332 133.768 233.749C134.174 234.165 134.777 234.575 135.568 234.978C137.15 235.784 139.483 236.562 142.488 237.303C148.498 238.785 157.194 240.119 167.94 241.24C189.433 243.482 219.125 244.868 251.921 244.868C284.717 244.868 314.409 243.482 335.901 241.24C346.648 240.119 355.344 238.785 361.354 237.303C364.359 236.562 366.692 235.784 368.274 234.978C369.065 234.575 369.668 234.165 370.073 233.749C370.479 233.332 370.686 232.91 370.686 232.483Z" fill="url(#paint14_linear)" stroke="url(#paint15_linear)" stroke-width="0.00240964"/>
<g opacity="0.2">
<g opacity="0.2">
<path opacity="0.2" d="M89.512 170.776C89.512 158.134 162.311 147.885 252.113 147.885C341.916 147.885 414.715 158.134 414.715 170.776C414.715 183.418 341.916 193.667 252.113 193.667C162.311 193.667 89.512 183.418 89.512 170.776Z" fill="url(#paint16_linear)" stroke="url(#paint17_linear)" stroke-width="0.00240964" stroke-miterlimit="10"/>
</g>
</g>
<g opacity="0.1">
<g opacity="0.1">
<path opacity="0.1" d="M70.1991 143.547C70.1991 129.438 151.447 118 251.671 118C351.895 118 433.143 129.438 433.143 143.547C433.143 157.657 351.895 169.095 251.671 169.095C151.447 169.095 70.1991 157.657 70.1991 143.547Z" fill="url(#paint18_linear)" stroke="url(#paint19_linear)" stroke-width="0.00240964" stroke-miterlimit="10"/>
</g>
</g>
<path d="M290.461 111.588C290.736 104.182 289.502 92.0438 287.24 86.6946C284.978 81.3461 287.103 73.5281 284.91 65.505C282.717 57.4819 284.293 56.522 281.959 48.0183C279.623 39.5152 274.219 38.7605 270.107 37.0465C265.995 35.3318 263.321 33.2746 260.443 31.5605C257.565 29.8458 257.907 26.9655 257.907 26.9655C259.14 26.4172 259.895 24.2915 259.826 23.0568C259.757 21.8227 260.511 19.5597 260.511 19.5597C261.196 19.9707 261.882 19.354 261.95 18.394C262.019 17.4335 262.841 15.3763 262.773 14.5538C262.704 13.7306 261.611 14.1422 261.611 14.1422C261.611 14.1422 261.539 10.5077 261.608 8.17631C261.677 5.84492 260.717 4.19863 257.77 1.93562C255.059 -0.146121 251.547 -0.0196838 251 0.0138614C250.453 -0.0196838 246.941 -0.146121 244.23 1.93562C241.283 4.19863 240.323 5.84492 240.392 8.17631C240.46 10.5077 240.389 14.1422 240.389 14.1422C240.389 14.1422 239.296 13.7306 239.227 14.5538C239.159 15.3763 239.981 17.4335 240.05 18.394C240.118 19.354 240.803 19.9707 241.489 19.5597C241.489 19.5597 242.242 21.8227 242.174 23.0568C242.105 24.2915 242.859 26.4172 244.093 26.9655C244.093 26.9655 244.435 29.8458 241.557 31.5605C238.679 33.2746 236.006 35.3318 231.893 37.0465C227.781 38.7605 222.376 39.5152 220.041 48.0183C217.707 56.522 219.283 57.4819 217.09 65.505C214.897 73.5281 217.021 81.3461 214.76 86.6946C212.498 92.0438 211.265 104.182 211.539 111.588C211.813 118.993 210.23 124.274 211.501 127.36C212.772 130.446 220.037 139.566 220.928 137.852C221.819 136.138 219.283 136.275 217.776 132.846C216.268 129.417 215.171 125.852 216.473 125.508C217.776 125.166 218.667 130.172 219.626 130.446C220.585 130.72 220.859 128.938 220.448 126.4C220.037 123.863 220.722 120.777 219.557 118.651C218.392 116.525 217.638 114.262 219.557 111.176C221.476 108.091 225.314 92.5921 225.519 87.5861C225.726 82.5802 229.769 70.031 229.769 70.031C229.769 70.031 232.304 88.6151 231.346 100.478C230.386 112.342 226.822 124.686 228.467 131.132C230.112 137.577 233.264 162.745 233.196 165.968C233.127 169.191 230.522 185.1 232.784 193.055C235.046 201.009 240.118 215.616 240.186 219.937C240.255 224.257 240.323 225.972 238.679 227.137C237.034 228.303 232.373 229.743 232.99 232.281C233.607 234.817 243.819 235.984 245.875 233.995C247.931 232.006 248.822 229.057 248.273 226.245C247.725 223.434 248.753 222.2 247.793 219.319C246.834 216.439 246.423 210.062 246.629 206.701C246.834 203.341 248.617 191.958 247.931 186.746C247.245 181.535 245.258 171.454 246.286 167.751C247.314 164.048 248.684 154.036 249.37 146.012C249.94 139.337 250.745 127.022 251 123.069C251.254 127.022 252.059 139.337 252.629 146.012C253.315 154.036 254.686 164.048 255.714 167.751C256.741 171.454 254.754 181.535 254.069 186.746C253.384 191.958 255.166 203.341 255.371 206.701C255.577 210.062 255.166 216.439 254.206 219.319C253.246 222.2 254.275 223.434 253.726 226.245C253.178 229.057 254.069 232.006 256.125 233.995C258.181 235.984 268.393 234.817 269.01 232.281C269.627 229.743 264.966 228.303 263.321 227.137C261.677 225.972 261.745 224.257 261.813 219.937C261.882 215.616 266.954 201.009 269.216 193.055C271.477 185.1 268.873 169.191 268.804 165.968C268.736 162.745 271.888 137.577 273.533 131.132C275.178 124.686 271.615 112.342 270.655 100.478C269.695 88.6151 272.231 70.031 272.231 70.031C272.231 70.031 276.275 82.5802 276.48 87.5861C276.686 92.5921 280.524 108.091 282.442 111.176C284.361 114.262 283.608 116.525 282.442 118.651C281.278 120.777 281.962 123.863 281.552 126.4C281.14 128.938 281.415 130.72 282.374 130.446C283.334 130.172 284.225 125.166 285.527 125.508C286.829 125.852 285.732 129.417 284.225 132.846C282.717 136.275 280.181 136.138 281.072 137.852C281.962 139.566 289.228 130.446 290.499 127.36C291.771 124.274 290.187 118.993 290.461 111.588Z" fill="url(#paint20_linear)"/>
<path d="M212.461 111.588C212.736 104.182 211.502 92.0438 209.24 86.6946C206.978 81.3461 209.103 73.5281 206.91 65.505C204.717 57.4819 206.293 56.522 203.959 48.0183C201.623 39.5152 196.219 38.7605 192.107 37.0465C187.995 35.3318 185.321 33.2746 182.443 31.5605C179.565 29.8458 179.907 26.9655 179.907 26.9655C181.14 26.4172 181.895 24.2915 181.826 23.0568C181.757 21.8227 182.511 19.5597 182.511 19.5597C183.196 19.9707 183.882 19.354 183.95 18.394C184.019 17.4335 184.841 15.3763 184.773 14.5538C184.704 13.7306 183.611 14.1422 183.611 14.1422C183.611 14.1422 183.539 10.5077 183.608 8.17631C183.677 5.84492 182.717 4.19863 179.77 1.93562C177.059 -0.146121 173.547 -0.0196838 173 0.0138614C172.453 -0.0196838 168.941 -0.146121 166.23 1.93562C163.283 4.19863 162.323 5.84492 162.392 8.17631C162.46 10.5077 162.389 14.1422 162.389 14.1422C162.389 14.1422 161.296 13.7306 161.227 14.5538C161.159 15.3763 161.981 17.4335 162.05 18.394C162.118 19.354 162.803 19.9707 163.489 19.5597C163.489 19.5597 164.242 21.8227 164.174 23.0568C164.105 24.2915 164.859 26.4172 166.093 26.9655C166.093 26.9655 166.435 29.8458 163.557 31.5605C160.679 33.2746 158.006 35.3318 153.893 37.0465C149.781 38.7605 144.376 39.5152 142.041 48.0183C139.707 56.522 141.283 57.4819 139.09 65.505C136.897 73.5281 139.021 81.3461 136.76 86.6946C134.498 92.0438 133.265 104.182 133.539 111.588C133.813 118.993 132.23 124.274 133.501 127.36C134.772 130.446 142.037 139.566 142.928 137.852C143.819 136.138 141.283 136.275 139.776 132.846C138.268 129.417 137.171 125.852 138.473 125.508C139.776 125.166 140.667 130.172 141.626 130.446C142.585 130.72 142.859 128.938 142.448 126.4C142.037 123.863 142.722 120.777 141.557 118.651C140.392 116.525 139.638 114.262 141.557 111.176C143.476 108.091 147.314 92.5921 147.519 87.5861C147.726 82.5802 151.769 70.031 151.769 70.031C151.769 70.031 154.304 88.6151 153.346 100.478C152.386 112.342 148.822 124.686 150.467 131.132C152.112 137.577 155.264 162.745 155.196 165.968C155.127 169.191 152.522 185.1 154.784 193.055C157.046 201.009 162.118 215.616 162.186 219.937C162.255 224.257 162.323 225.972 160.679 227.137C159.034 228.303 154.373 229.743 154.99 232.281C155.607 234.817 165.819 235.984 167.875 233.995C169.931 232.006 170.822 229.057 170.273 226.245C169.725 223.434 170.753 222.2 169.793 219.319C168.834 216.439 168.423 210.062 168.629 206.701C168.834 203.341 170.617 191.958 169.931 186.746C169.245 181.535 167.258 171.454 168.286 167.751C169.314 164.048 170.684 154.036 171.37 146.012C171.94 139.337 172.745 127.022 173 123.069C173.254 127.022 174.059 139.337 174.629 146.012C175.315 154.036 176.686 164.048 177.714 167.751C178.741 171.454 176.754 181.535 176.069 186.746C175.384 191.958 177.166 203.341 177.371 206.701C177.577 210.062 177.166 216.439 176.206 219.319C175.246 222.2 176.275 223.434 175.726 226.245C175.178 229.057 176.069 232.006 178.125 233.995C180.181 235.984 190.393 234.817 191.01 232.281C191.627 229.743 186.966 228.303 185.321 227.137C183.677 225.972 183.745 224.257 183.813 219.937C183.882 215.616 188.954 201.009 191.216 193.055C193.477 185.1 190.873 169.191 190.804 165.968C190.736 162.745 193.888 137.577 195.533 131.132C197.178 124.686 193.615 112.342 192.655 100.478C191.695 88.6151 194.231 70.031 194.231 70.031C194.231 70.031 198.275 82.5802 198.48 87.5861C198.686 92.5921 202.524 108.091 204.442 111.176C206.361 114.262 205.608 116.525 204.442 118.651C203.278 120.777 203.962 123.863 203.552 126.4C203.14 128.938 203.415 130.72 204.374 130.446C205.334 130.172 206.225 125.166 207.527 125.508C208.829 125.852 207.732 129.417 206.225 132.846C204.717 136.275 202.181 136.138 203.072 137.852C203.962 139.566 211.228 130.446 212.499 127.36C213.771 124.274 212.187 118.993 212.461 111.588Z" fill="url(#paint21_linear)"/>
<path d="M367.461 111.588C367.736 104.182 366.502 92.0438 364.24 86.6946C361.978 81.3461 364.103 73.5281 361.91 65.505C359.717 57.4819 361.293 56.522 358.959 48.0183C356.623 39.5152 351.219 38.7605 347.107 37.0465C342.995 35.3318 340.321 33.2746 337.443 31.5605C334.565 29.8458 334.907 26.9655 334.907 26.9655C336.14 26.4172 336.895 24.2915 336.826 23.0568C336.757 21.8227 337.511 19.5597 337.511 19.5597C338.196 19.9707 338.882 19.354 338.95 18.394C339.019 17.4335 339.841 15.3763 339.773 14.5538C339.704 13.7306 338.611 14.1422 338.611 14.1422C338.611 14.1422 338.539 10.5077 338.608 8.17631C338.677 5.84492 337.717 4.19863 334.77 1.93562C332.059 -0.146121 328.547 -0.0196838 328 0.0138614C327.453 -0.0196838 323.941 -0.146121 321.23 1.93562C318.283 4.19863 317.323 5.84492 317.392 8.17631C317.46 10.5077 317.389 14.1422 317.389 14.1422C317.389 14.1422 316.296 13.7306 316.227 14.5538C316.159 15.3763 316.981 17.4335 317.05 18.394C317.118 19.354 317.803 19.9707 318.489 19.5597C318.489 19.5597 319.242 21.8227 319.174 23.0568C319.105 24.2915 319.859 26.4172 321.093 26.9655C321.093 26.9655 321.435 29.8458 318.557 31.5605C315.679 33.2746 313.006 35.3318 308.893 37.0465C304.781 38.7605 299.376 39.5152 297.041 48.0183C294.707 56.522 296.283 57.4819 294.09 65.505C291.897 73.5281 294.021 81.3461 291.76 86.6946C289.498 92.0438 288.265 104.182 288.539 111.588C288.813 118.993 287.23 124.274 288.501 127.36C289.772 130.446 297.037 139.566 297.928 137.852C298.819 136.138 296.283 136.275 294.776 132.846C293.268 129.417 292.171 125.852 293.473 125.508C294.776 125.166 295.667 130.172 296.626 130.446C297.585 130.72 297.859 128.938 297.448 126.4C297.037 123.863 297.722 120.777 296.557 118.651C295.392 116.525 294.638 114.262 296.557 111.176C298.476 108.091 302.314 92.5921 302.519 87.5861C302.726 82.5802 306.769 70.031 306.769 70.031C306.769 70.031 309.304 88.6151 308.346 100.478C307.386 112.342 303.822 124.686 305.467 131.132C307.112 137.577 310.264 162.745 310.196 165.968C310.127 169.191 307.522 185.1 309.784 193.055C312.046 201.009 317.118 215.616 317.186 219.937C317.255 224.257 317.323 225.972 315.679 227.137C314.034 228.303 309.373 229.743 309.99 232.281C310.607 234.817 320.819 235.984 322.875 233.995C324.931 232.006 325.822 229.057 325.273 226.245C324.725 223.434 325.753 222.2 324.793 219.319C323.834 216.439 323.423 210.062 323.629 206.701C323.834 203.341 325.617 191.958 324.931 186.746C324.245 181.535 322.258 171.454 323.286 167.751C324.314 164.048 325.684 154.036 326.37 146.012C326.94 139.337 327.745 127.022 328 123.069C328.254 127.022 329.059 139.337 329.629 146.012C330.315 154.036 331.686 164.048 332.714 167.751C333.741 171.454 331.754 181.535 331.069 186.746C330.384 191.958 332.166 203.341 332.371 206.701C332.577 210.062 332.166 216.439 331.206 219.319C330.246 222.2 331.275 223.434 330.726 226.245C330.178 229.057 331.069 232.006 333.125 233.995C335.181 235.984 345.393 234.817 346.01 232.281C346.627 229.743 341.966 228.303 340.321 227.137C338.677 225.972 338.745 224.257 338.813 219.937C338.882 215.616 343.954 201.009 346.216 193.055C348.477 185.1 345.873 169.191 345.804 165.968C345.736 162.745 348.888 137.577 350.533 131.132C352.178 124.686 348.615 112.342 347.655 100.478C346.695 88.6151 349.231 70.031 349.231 70.031C349.231 70.031 353.275 82.5802 353.48 87.5861C353.686 92.5921 357.524 108.091 359.442 111.176C361.361 114.262 360.608 116.525 359.442 118.651C358.278 120.777 358.962 123.863 358.552 126.4C358.14 128.938 358.415 130.72 359.374 130.446C360.334 130.172 361.225 125.166 362.527 125.508C363.829 125.852 362.732 129.417 361.225 132.846C359.717 136.275 357.181 136.138 358.072 137.852C358.962 139.566 366.228 130.446 367.499 127.36C368.771 124.274 367.187 118.993 367.461 111.588Z" fill="url(#paint22_linear)"/>
<defs>
<linearGradient id="paint0_linear" x1="503.789" y1="249.001" x2="0.000854492" y2="249.001" gradientUnits="userSpaceOnUse">
<stop stop-color="#67DE69"/>
<stop offset="1" stop-color="#0047B0"/>
</linearGradient>
<linearGradient id="paint1_linear" x1="503.789" y1="249.001" x2="0.000854492" y2="249.001" gradientUnits="userSpaceOnUse">
<stop stop-color="#67DE69"/>
<stop offset="1" stop-color="#0047B0"/>
</linearGradient>
<linearGradient id="paint2_linear" x1="480.201" y1="245.058" x2="24.7085" y2="245.058" gradientUnits="userSpaceOnUse">
<stop stop-color="#67DE69"/>
<stop offset="1" stop-color="#0047B0"/>
</linearGradient>
<linearGradient id="paint3_linear" x1="480.201" y1="245.058" x2="24.7085" y2="245.058" gradientUnits="userSpaceOnUse">
<stop stop-color="#67DE69"/>
<stop offset="1" stop-color="#0047B0"/>
</linearGradient>
<linearGradient id="paint4_linear" x1="422.945" y1="240.913" x2="79.6023" y2="240.913" gradientUnits="userSpaceOnUse">
<stop stop-color="#67DE69"/>
<stop offset="1" stop-color="#0047B0"/>
</linearGradient>
<linearGradient id="paint5_linear" x1="422.945" y1="240.913" x2="79.6023" y2="240.913" gradientUnits="userSpaceOnUse">
<stop stop-color="#67DE69"/>
<stop offset="1" stop-color="#0047B0"/>
</linearGradient>
<linearGradient id="paint6_linear" x1="449.525" y1="243.724" x2="56.2636" y2="243.724" gradientUnits="userSpaceOnUse">
<stop stop-color="#67DE69"/>
<stop offset="1" stop-color="#0047B0"/>
</linearGradient>
<linearGradient id="paint7_linear" x1="449.525" y1="243.724" x2="56.2636" y2="243.724" gradientUnits="userSpaceOnUse">
<stop stop-color="#67DE69"/>
<stop offset="1" stop-color="#0047B0"/>
</linearGradient>
<linearGradient id="paint8_linear" x1="399.357" y1="240.246" x2="104.531" y2="240.246" gradientUnits="userSpaceOnUse">
<stop stop-color="#67DE69"/>
<stop offset="1" stop-color="#0047B0"/>
</linearGradient>
<linearGradient id="paint9_linear" x1="399.357" y1="240.246" x2="104.531" y2="240.246" gradientUnits="userSpaceOnUse">
<stop stop-color="#67DE69"/>
<stop offset="1" stop-color="#0047B0"/>
</linearGradient>
<linearGradient id="paint10_linear" x1="381.904" y1="239.62" x2="123.039" y2="239.62" gradientUnits="userSpaceOnUse">
<stop stop-color="#67DE69"/>
<stop offset="1" stop-color="#0047B0"/>
</linearGradient>
<linearGradient id="paint11_linear" x1="381.904" y1="239.62" x2="123.039" y2="239.62" gradientUnits="userSpaceOnUse">
<stop stop-color="#67DE69"/>
<stop offset="1" stop-color="#0047B0"/>
</linearGradient>
<linearGradient id="paint12_linear" x1="251.923" y1="225.162" x2="251.923" y2="249.936" gradientUnits="userSpaceOnUse">
<stop stop-color="#67DE69"/>
<stop offset="1" stop-color="#0047B0"/>
</linearGradient>
<linearGradient id="paint13_linear" x1="251.923" y1="225.162" x2="251.923" y2="249.936" gradientUnits="userSpaceOnUse">
<stop stop-color="#67DE69"/>
<stop offset="1" stop-color="#0047B0"/>
</linearGradient>
<linearGradient id="paint14_linear" x1="370.688" y1="232.482" x2="133.154" y2="232.482" gradientUnits="userSpaceOnUse">
<stop stop-color="#67DE69"/>
<stop offset="1" stop-color="#0047B0"/>
</linearGradient>
<linearGradient id="paint15_linear" x1="370.688" y1="232.482" x2="133.154" y2="232.482" gradientUnits="userSpaceOnUse">
<stop stop-color="#67DE69"/>
<stop offset="1" stop-color="#0047B0"/>
</linearGradient>
<linearGradient id="paint16_linear" x1="414.715" y1="170.776" x2="89.512" y2="170.776" gradientUnits="userSpaceOnUse">
<stop stop-color="#67DE69"/>
<stop offset="1" stop-color="#0047B0"/>
</linearGradient>
<linearGradient id="paint17_linear" x1="414.715" y1="170.776" x2="89.512" y2="170.776" gradientUnits="userSpaceOnUse">
<stop stop-color="#67DE69"/>
<stop offset="1" stop-color="#0047B0"/>
</linearGradient>
<linearGradient id="paint18_linear" x1="433.143" y1="143.547" x2="70.1991" y2="143.547" gradientUnits="userSpaceOnUse">
<stop stop-color="#67DE69"/>
<stop offset="1" stop-color="#0047B0"/>
</linearGradient>
<linearGradient id="paint19_linear" x1="433.143" y1="143.547" x2="70.1991" y2="143.547" gradientUnits="userSpaceOnUse">
<stop stop-color="#67DE69"/>
<stop offset="1" stop-color="#0047B0"/>
</linearGradient>
<linearGradient id="paint20_linear" x1="251" y1="0" x2="251" y2="235" gradientUnits="userSpaceOnUse">
<stop stop-color="#67DE69"/>
<stop offset="1" stop-color="#0047B0"/>
</linearGradient>
<linearGradient id="paint21_linear" x1="173" y1="0" x2="173" y2="235" gradientUnits="userSpaceOnUse">
<stop stop-color="#67DE69"/>
<stop offset="1" stop-color="#0047B0"/>
</linearGradient>
<linearGradient id="paint22_linear" x1="328" y1="0" x2="328" y2="235" gradientUnits="userSpaceOnUse">
<stop stop-color="#67DE69"/>
<stop offset="1" stop-color="#0047B0"/>
</linearGradient>
</defs>
</svg>
